<svg width="454" height="310" viewBox="0 0 454 310" fill="none" xmlns="http://www.w3.org/2000/svg">
<path d="M406.469 109.926C406.469 120.964 399.211 132.923 388.323 132.923H361.104V48.2938H388.323C399.211 48.2938 406.469 60.2522 406.469 71.2908V109.926ZM453.649 85.089C453.649 29.8961 434.142 0 396.035 0H313.018V310H361.104V182.596H396.035C433.235 182.596 453.649 152.24 453.649 97.0475V85.089Z" fill="#EDEEEE"/>
<path d="M236.806 0H188.72L142.447 206.053H283.079L236.806 0Z" fill="#EDEEEE"/>
<path d="M283.079 309.999H142.447V261.245H212.763H283.079V309.999Z" fill="#CCCCCC"/>
<g clip-path="url(#clip0)">
<path d="M140.625 0L94.3973 182.433V310H46.3493V182.433L0 0H48.048L70.3733 112.437L92.5773 0H140.625Z" fill="#EDEEEE"/>
</g>
<defs>
<clipPath id="clip0">
<rect width="140.625" height="310" fill="white"/>
</clipPath>
</defs>
</svg>
