<svg width="100" height="67" viewBox="0 0 100 67" fill="none" xmlns="http://www.w3.org/2000/svg">
  <path d="M89.6 23.7582C89.6 26.1439 88 28.7285 85.6 28.7285H79.6V10.4377H85.6C88 10.4377 89.6 13.0223 89.6 15.408V23.7582ZM100 18.3902C100 6.46142 95.7 0 87.3 0H69V67H79.6V39.4644H87.3C95.5 39.4644 100 32.9036 100 20.9748V18.3902Z" fill="#2F80ED"/>
  <path d="M52.2004 0H41.6004L31.4004 44.5341H62.4004L52.2004 0Z" fill="#F45844"/>
  <path d="M62.4004 67H31.4004V56.4629H46.9004H62.4004V67Z" fill="#2F80ED"/>
  <path d="M20.4 0L16 23.7582H15L10.6 0H0L10.2 39.4644V67H20.8V39.4644L31 0H20.4Z" fill="#2F80ED"/>
</svg>
