<svg width="650" height="551" viewBox="0 0 650 551" fill="none" xmlns="http://www.w3.org/2000/svg">
<path d="M118.541 233.381L118.188 234.394L117.08 234.292L116.325 233.888L115.62 232.875L116.022 231.861L117.633 232.52L118.541 233.381Z" fill="#F15945"/>
<path d="M120.705 279.84L121.411 280.599L120.505 281.562L119.095 280.246L118.944 279.638L118.137 278.878L117.432 277.916L117.484 277.106L118.441 276.954L120.505 278.929L120.705 279.84Z" fill="#F15945"/>
<path d="M83.0891 227.718L83.794 228.022L84.8015 229.338L83.9458 230.352H83.2908L82.3852 229.896L81.9828 228.731L81.832 228.427L83.0891 227.718Z" fill="#F15945"/>
<path d="M112.447 274.715L113.504 274.969L114.411 275.982L114.562 276.742L113.656 277.097L113.001 276.642L112.447 276.59L110.786 274.97L111.491 274.209L112.447 274.715Z" fill="#F15945"/>
<path d="M82.7367 226.176L83.0901 227.696L81.8311 228.405L80.6729 226.38L80.8236 225.316L81.0752 224.809L81.8311 224.759L82.7367 226.176Z" fill="#F15945"/>
<path d="M93.2117 251.948L92.9092 251.847L93.2117 250.682L93.9666 250.732L94.2691 250.074L94.2192 249.315L93.8158 248.808L93.665 248.099L94.2691 247.896L95.0758 248.859L95.8307 249.669L96.2331 250.834L96.938 251.139L97.8446 252.152L98.2979 252.304L98.6503 252.91L99.0527 253.822L100.413 255.138L102.225 256.556L102.729 257.519L104.894 259.798L105.549 262.735L106.254 264.305L107.714 266.179L109.93 267.293L111.491 268.357L112.145 269.826L114.914 272.46L115.517 274.385L114.612 274.689L114.258 274.334L113.553 273.676L112.043 273.423L111.338 272.764L110.934 273.423L111.589 274.334L110.885 275.042L110.079 274.232L109.071 272.662L108.165 271.193L107.561 270.586L107.057 269.726L104.54 267.143L104.138 264.965L103.533 262.989L103.483 261.976L102.929 261.571L101.922 260.355L100.058 258.532L99.504 257.468L97.4891 255.544L97.4392 254.632L96.7343 254.278C96.7343 254.278 95.8277 253.822 95.7768 253.721C95.6759 253.618 95.3245 253.011 95.3245 253.011L94.5686 252.607L93.8637 252.504L93.2117 251.948Z" fill="#F15945"/>
<path d="M93.8147 246.022L92.959 245.162L93.7148 244.453L94.8221 244.504L95.3263 244.908L95.2245 246.529L94.6704 246.58L94.268 246.225L93.8147 246.022Z" fill="#F15945"/>
<path d="M70.9539 214.729L71.7088 215.691L71.4571 217.515L70.5006 217.767L69.1417 217.261L67.5811 215.539L67.4793 214.425L66.321 213.462L66.1204 211.589L64.3081 210.069L63.2498 210.473L62.1425 210.169L62.0916 206.928L62.5449 205.105L63.9547 204.903L64.9112 207.84L70.8032 213.767L70.9539 214.729Z" fill="#F15945"/>
<path d="M30.4152 190.386L30.9694 190.892L30.3663 192.006H29.4597L28.8556 190.284L27.0933 188.209L26.8417 186.892L22.762 183.6L22.4594 178.485L21.9053 175.901L21.2513 175.498L21.3022 174.281L19.9922 172.863L19.5389 171.75L18.4316 171.395L15.1078 166.533L14.4538 165.266L12.4898 164.811L12.1873 162.532L11.8847 161.164L11.3306 160.961L10.9771 159.848L12.992 159.037L16.7692 159.088L17.1716 158.227L16.4667 157.367L10.5747 157.417L10.374 155.139L9.66912 154.177V152.607L10.2722 152L10.4739 147.946L9.1639 146.884L9.91974 145.314L9.31567 143.439L10.8263 142.123L7.45253 140.604V137.565L5.79109 128.95L4.53203 125.506L5.69025 124.037L7.25084 124.493L10.8763 126.823L10.9771 123.733L10.1714 123.479L9.86882 122.516L11.6321 122.113L11.5812 120.795L12.5377 120.745L13.646 121.1L15.4582 121.202L16.868 120.34L19.6877 120.29L20.9977 118.72L20.5953 117.151L18.7821 116.087L19.7896 115.226L23.6167 115.783L23.5667 116.695L25.6306 117.252L27.6944 117.049L29.2061 114.974L31.2699 113.657L32.7816 112.796L31.3717 111.783L29.8601 110.821L27.5935 107.478L27.3419 105.655L25.6296 103.933L25.1763 102.565L23.5148 101.199L20.9977 100.034L17.3214 97.0952L13.2416 96.5382L12.0335 93.5999L11.5293 91.7776L12.336 88.3333L15.1048 83.9774L15.2555 80.432L15.1048 79.4702L13.7988 79.2639L12.4389 78.7068L10.8783 80.0232L8.61175 80.9349L7.80599 80.3769L7.20192 79.364L5.69124 78.0476L5.89194 76.6291L7.10108 75.2115L6.84846 72.9825L7.75507 71.9185L11.4314 69.3358L17.0707 65.4348L17.1217 63.2067L18.4316 61.9394L16.7702 60.5729L14.4538 60.7753L12.993 60.2173L11.9856 60.7753L11.3825 59.3567L9.72005 58.0403L7.55438 57.8891L6.64877 57.0776C6.64877 57.0776 4.43318 57.6356 4.28241 57.6356C4.13164 57.6356 3.02235 57.7869 3.02235 57.7869L2.41928 56.2671L0.304531 51.5065L0 50.142L4.22949 47.7106L4.78364 46.5966L3.87704 45.3814L4.43218 44.1151L7.45253 43.507L9.6182 42.2407L10.9282 41.7337L12.8922 40.0116L13.1947 39.3023L13.8487 37.6313L17.0717 36.6686L19.9423 37.7325L20.7481 36.4151L21.2014 34.187L21.453 32.3126L22.0571 30.4392L25.381 30.3882L26.7908 31.1986L28.3514 31.6034L29.3079 30.1858L31.4227 30.7929L32.7326 30.1347L34.6966 30.286L37.1648 31.958L39.2286 33.4778L41.6459 34.3894L42.9559 33.1732L47.5888 34.2872L49.2003 37.479L50.6101 39.099L51.4658 38.5419L53.8831 38.6932L55.0912 39.3003L56.5011 38.7433L58.2134 38.3887L60.2783 39.7562L64.1054 38.8956L66.4717 38.0851L68.9889 40.5676L71.6578 41.2258L72.4136 40.5165L73.421 40.1118L75.0825 43.9608L76.04 45.4805L77.349 44.5689L77.1483 40.8722L78.1558 39.4546L82.4362 38.6942L85.2558 35.25L86.5149 33.7302L92.3569 33.3255L92.4578 30.7418L94.7732 25.8299L96.5365 23.8042L99.1554 24.4624L99.2563 23.1961L100.315 22.7403L101.422 21.6262L102.983 24.4624L104.442 22.2334L107.01 19.7508L109.578 20.7136L110.536 19.4473L112.248 20.2067L114.363 19.7008L117.182 21.0672L119.449 21.4219L122.42 20.3579L130.377 20.3069L132.845 21.2185L133.801 23.8012L136.622 23.3965L139.341 21.1674L138.837 19.0406L142.413 16.8626L143.268 18.178L144.024 17.5198L145.382 17.2162L146.994 15.5442L149.361 16.3557L153.086 16.2044L156.461 14.33L160.138 14.5324L165.274 17.5709L167.439 18.0267L168.346 19.6988L170.158 20.2047L170.712 18.2802L169.705 15.7977L168.194 14.8359L166.986 11.6952L167.792 6.07402L166.885 5.11128L167.439 3.74379L171.569 3.0856L172.828 1.61693L174.893 0.806464L176.553 1.8193L178.921 1.71712L181.789 0L185.817 0.354644L187.983 1.92449L190.098 3.7468L189.897 5.97585L187.833 8.30507L188.688 9.47019L188.286 11.0911L189.846 13.2691L191.911 16.4599L194.982 17.1181L194.781 19.3972L193.471 19.7518L192.717 20.8158L193.22 22.4357L198.306 27.7033L199.666 28.666L201.428 31.2487L201.479 34.3894L202.789 36.0604L206.365 37.2256L208.832 38.4919L215.329 44.7222L218.199 46.6977L221.723 47.8619L224.09 50.4956L225.601 55.2062L226.96 57.5354L230.184 60.3215L237.385 64.9308L240.909 67.1599L245.341 71.8183L248.261 75.5161L251.081 80.8838L255.261 86.3537L262.815 86.5561L265.785 85.8979L268.152 86.4559L270.872 87.6711L275.102 95.319L278.476 95.6235L281.447 97.0421L284.569 99.169L288.095 100.587L292.173 101.145L296.101 100.131L302.196 101.549L305.468 102.663L308.288 101.246L314.482 102.105L323.647 104.538L327.021 104.232L329.136 102.105L333.919 100.232L336.337 94.4083L339.005 93.2943L341.273 90.7106H345.25L348.927 91.5722L353.156 89.3932L355.322 87.5198L358.193 87.3686L360.508 87.621L363.378 85.4431L367.004 84.3791L366.904 78.1498L368.163 77.2382L373.4 79.4161L375.867 80.1755L379.191 80.3278L380.451 79.9231L380.752 78.9092L379.897 77.4405L380.452 75.8196L382.314 74.8068L385.385 75.0602L387.248 74.3509L393.039 69.0834L393.342 66.0449L394.098 64.5752L397.571 63.5113L400.442 62.6507L403.212 61.7901L406.232 62.246L409.253 63.2588L412.979 65.3356L415.849 64.0693L420.182 62.2961L425.115 61.4355L427.532 62.8531L429.245 63.8158L430.704 62.8531L432.618 61.688L434.482 62.5495L436.749 62.9543L440.524 64.0683L443.697 66.8533L446.115 69.3358L447.222 72.7801L447.675 75.8697L449.135 76.8825L452.006 79.5163L453.718 80.1244L457.143 81.3907L459.711 85.8468L462.782 86.5561L465.503 89.7479L467.517 91.0643L469.431 96.432L472.3 98.0019H475.322L477.236 96.6855L479.803 97.3948V101.751L480.054 107.525L478.595 110.615L477.991 112.894L480.56 115.324L480.709 119.224L478.443 121.657L478.997 124.543L482.774 126.164L484.334 128.393L485.191 130.166L488.917 132.495L493.348 135.787L498.585 139.435L500.851 140.701L503.016 138.625L506.793 140.093L508.959 142.576C508.959 142.576 511.527 145.159 511.729 145.159C511.98 145.159 514.598 145.463 514.598 145.463L517.62 147.236L520.238 146.527L524.72 149.871L526.884 151.136L528.194 152.707L527.489 154.782L525.474 159.848L524.064 162.633L520.993 164.558L521.395 166.634L523.963 170.079L532.07 172.561L532.474 175.296L532.07 178.08L528.042 179.347L522.15 180.108L520.59 181.272L521.598 184.312L523.511 186.59H527.237L530.107 188.363L534.589 189.123L536.352 192.162L538.92 196.111L549.747 196.163L553.07 197.478H555.236L559.566 198.593L563.494 201.024L564.502 205.279L567.07 207.609L568.681 210.647L572.106 212.216L573.817 212.368L575.077 211.203L579.257 200.567L581.573 197.275L582.479 194.692L583.789 193.122L588.12 192.059L589.026 189.475L591.292 187.906L593.71 188.513L600.608 194.895L604.034 196.363L610.226 198.542L613.652 200.872L614.357 203.201L612.745 205.531L608.465 205.784L605.595 205.379L600.811 203.96L599.704 204.872L599.251 209.127L597.186 209.988L594.416 210.292L593.712 212.925L596.13 215.559L598.295 217.129L599.604 221.586L603.381 225.689L606.805 228.475L608.719 231.412L608.265 234.349L606.706 237.135L604.793 241.086L605.194 244.124L605.647 246.909L601.871 250.353L598.548 253.798L594.116 254.658L592.807 267.27L591.9 272.639L593.461 275.272L594.065 279.881L595.072 283.831L596.332 285.097L598.749 286.516L601.469 289.606L602.778 297.608L604.541 302.115C604.541 302.115 610.936 308.801 610.635 308.041C610.332 307.282 613.555 308.903 613.555 308.903L616.828 310.776L620.001 311.992L627.404 319.791L629.419 323.236L634.655 325.312L635.965 326.274L636.871 332.201L636.016 335.29L632.792 339.038L630.778 343.545L627.202 347.901L626.195 350.484L623.979 354.283L620.354 358.183L617.884 358.488L613.957 357.171L611.943 357.221L609.928 359.855H607.159L606.001 361.932L604.54 362.945L602.829 364.009L604.288 366.642L606.454 370.998L605.396 378.444L604.288 383.965C604.288 383.965 604.993 387.308 604.993 387.56C604.993 387.814 611.036 393.03 611.036 393.03L611.741 395.208L610.483 397.692L610.029 403.668L605.446 405.592L605.849 407.163L604.59 410.303L601.618 410.86L600.812 412.885L602.473 413.595L606.655 417.951L611.639 423.775L615.164 427.675L618.136 430.157L621.458 432.336L625.638 432.893L629.164 434.361L632.538 434.716L635.055 436.336L636.666 437.35L637.572 441.149L639.939 447.074L642.053 451.227L642.608 454.976L644.22 456.647L646.989 458.571L648.751 460.952L649.004 463.13L647.694 466.777L645.629 468.599L644.773 470.83L645.932 474.525L646.585 478.426L645.326 483.794L646.284 486.226L645.931 489.264L646.434 494.583L645.73 495.647L641.952 497.421L635.306 498.079L633.896 499.699L633.191 501.878L634.349 510.032L634.953 514.134L633.492 516.667L630.37 514.388L628.355 513.375L626.996 513.932L625.988 517.224L623.673 518.389L622.062 517.983L620.45 517.882L618.89 517.983L617.329 518.642L613.856 519.806L609.927 519.3L606.453 519.453L601.971 516.413L598.849 516.565L596.734 517.223L591.899 521.376L589.281 520.515L587.468 520.211L584.044 522.085L582.18 522.338L577.145 525.072L576.995 528.314L574.175 532.67L570.902 535.911V539.406L569.039 541.178L564.859 540.824L563.499 540.519L561.485 543.304L559.823 543.862L557.356 546.141L554.787 546.698L552.723 545.178L550.255 545.23L549.248 546.191L546.882 546.445L546.278 545.938L544.867 545.735L539.127 550.092L536.56 550.244L533.587 548.927L530.012 549.13L526.386 550.952L524.569 551V550.596L524.369 548.013L523.362 546.544L522.102 544.164L520.339 540.719L519.08 538.744L515.958 537.275L514.195 537.173L511.274 538.237L508.907 540.314L508.606 542.186L509.109 544.416V544.82L505.735 544.566L502.159 546.897L499.591 547.505L498.081 546.34L499.792 544.516L501.001 542.035L500.699 534.842L500.045 531.397L499.39 529.372L497.577 526.889L495.765 524.762L493.398 524.104L492.745 523.141L491.133 522.939L489.421 524.357L489.522 528.207L488.565 529.726L488.263 532.158L486.903 531.904L485.291 528.359L483.58 524.561L480.458 519.902L479.45 515.748L478.947 512.203L479.199 510.076L480.758 507.342L481.515 503.593L480.255 500.301L475.471 495.844L474.414 493.21L474.917 490.78L479.499 489.058L479.701 486.981L478.392 483.537L477.989 474.167L477.888 471.837L480.456 469.001L480.405 465.405L479.549 462.771L480.707 460.188L481.161 457.2L483.578 452.439L482.772 448.793L480.304 443.221L479.7 436.84L474.463 425.494L468.47 421.695L463.485 419.315L459.709 419.416L456.737 415.617L454.623 413.339L454.472 409.033L451.652 405.084L448.631 401.438L445.459 398.954C445.459 398.954 444.25 398.651 444.099 398.651C443.949 398.651 442.236 398.499 442.236 398.499L441.078 400.778L439.768 402.601L436.445 402.196L432.468 404.83L427.734 404.323L424.108 401.182L423.151 397.991L423.957 397.282L423.252 393.585L421.238 390.496L418.317 390.547L416.05 393.484L414.539 395.916L414.036 401.385L411.115 403.766L410.964 405.944L409.151 408.427L407.892 411.263L406.23 412.986C406.23 412.986 403.26 415.872 403.31 416.125C403.359 416.379 401.043 420.279 401.043 420.279L400.187 420.481L397.468 422.406L397.065 425.293L395.806 425.444L394.546 427.166L393.44 427.319L390.569 426.407L387.397 426.355L385.03 427.572L383.77 426.205L381.504 425.192L380.548 423.874L380.95 421.595L381.403 420.075L380.395 419.215L379.388 419.975L378.33 419.873L377.424 418.202L376.719 418.05L376.215 419.267L376.92 420.684L377.273 423.722L379.187 425.496L379.288 428.889L380.646 430.257L383.821 430.764L384.978 431.624L385.23 432.841L386.589 434.409L387.747 436.233L389.611 438.157L392.279 439.12L395.351 441.652L397.467 443.12L398.977 443.627H399.027L398.926 451.63L398.624 454.364V458.567L399.983 462.214L400.184 462.722L399.731 462.872L398.371 463.278L397.666 462.872L396.407 461.454L393.789 460.543L392.43 459.886L391.372 458.923L390.517 458.011L389.458 459.024L388.301 458.822L384.624 455.782L383.466 453.707L383.063 449.3L382.46 447.174L381.654 445.705L379.437 444.843L378.33 444.237L377.878 442.007L376.92 439.476L375.007 438.159L373.899 438.209L370.475 435.172L367.856 433.449L365.036 430.765L363.979 428.536L362.417 426.257L361.663 425.446L360.605 426.207L359.699 426.257L358.691 425.65L357.683 426.41L356.525 426.46L353.908 424.131L351.64 420.282L351.338 418.964L350.432 417.547L349.173 416.94L347.511 417.799L345.195 417.193L341.82 416.787L341.115 414.661L341.368 412.534L342.475 412.33L345.849 414.307L348.115 415.117L350.432 414.965L351.842 413.801L351.388 413.496L350.634 411.977L349.928 409.698L350.683 408.533L351.691 408.229L353.05 409.8L354.36 411.166L355.366 410.711L355.97 409.647L355.517 408.736L354.661 406.76L353.655 406.203L351.237 405.899L350.381 404.734L349.173 404.785L346.756 406.608L344.741 406.506L343.482 407.924L345.244 409.14L347.259 409.545L346.655 410.76L343.684 410.255L340.562 409.493L338.798 409.19L337.489 409.392L337.338 411.013L338.396 412.836L338.85 414.253L338.748 415.064L338.094 415.47L336.331 414.456L333.46 411.925L332.454 411.722L331.698 410.861L331.344 409.645L329.785 408.379L328.122 407.468L325.352 405.593L323.036 403.619L320.972 402.048L319.612 401.086L318.707 399.516L318.002 397.287L316.44 395.717L311.959 393.742L310.498 393.387L308.434 392.425L307.931 390.752L306.873 390.095L305.715 389.639L304.909 388.677L301.787 388.272L300.779 387.056L299.823 386.702L297.96 384.827L296.851 384.068L295.241 382.499L294.938 380.978L295.441 380.675L294.838 380.118H293.278L292.069 378.649L290.457 378.193L289.048 378.851L288.292 379.255L286.934 379.306L285.875 378.193L285.069 377.585L284.264 377.18L283.86 377.839L285.271 379.662L285.925 380.268L286.528 381.383L285.823 382.244L284.969 382.192L283.81 380.369L283.206 379.559L279.681 377.989L275.501 376.975L273.034 376.013L268.603 374.393L265.129 373.482L264.524 372.924L264.072 371.354L263.567 369.734L262.611 368.771L259.035 368.822L255.662 367.15L253.949 365.884L252.439 365.226L250.979 364.213L246.95 362.643L245.036 362.339L243.424 362.897L239.597 361.327L236.023 359.707L235.116 359.251L235.015 357.377L234.562 356.768L234.915 356.414L236.576 356.364L239.045 358.035L243.124 358.542L250.073 359.048L254.755 360.01L256.267 360.516L259.338 362.087L260.345 362.847L262.661 364.113L263.971 364.973L264.372 365.683L265.077 366.442L265.481 367.304L266.639 367.911L268.198 368.013L268.802 368.519L270.012 367.961H270.817L271.573 368.367L271.774 369.126L272.329 369.481L273.135 370.088L277.516 372.266L278.272 372.519L280.839 373.632L282.048 374.747L283.056 375.203L283.911 374.747L281.494 372.518L280.738 372.214L279.832 371.707L278.774 371.251L275.501 369.833L273.99 368.617L273.336 366.339L271.272 365.124L269.559 364.719L268.502 363.857L267.041 361.224L266.437 360.565L267.192 360.11L268.552 360.058L269.056 359.603L269.156 358.691L267.898 357.476L266.689 358.034L264.826 357.932L263.517 356.412L262.962 357.071L261.351 357.019L260.848 356.108L259.538 354.639L258.683 354.132L256.466 353.777L256.517 350.891L255.561 350.383L253.496 348.51L252.49 347.902L251.331 347.294L250.928 346.991L249.317 345.927L247.908 345.978L247.404 345.471L245.893 343.951H245.439L244.332 342.837L243.274 342.888L242.468 342.432L242.166 341.723L240.252 339.799L237.936 337.52L237.734 336.81L237.382 336.354V335.797L236.827 335.291L236.677 334.732L234.764 332.808L233.857 332.302L231.692 330.276L231.238 329.263L229.274 327.137L229.074 326.529L228.015 325.718L226.807 324.755L222.124 324.098L218.75 323.237L216.585 322.527L215.628 322.072L214.722 320.654L213.261 320.198H211.851L210.693 319.691L207.924 318.729L205.104 317.614L201.88 314.475H200.672L199.966 313.968L197.751 315.032L195.586 315.133L194.478 314.627L193.875 314.068L194.176 313.055L196.897 312.549L197.551 312.093L196.795 311.182L194.176 310.625L193.22 310.068L192.012 310.471L181.487 312.954H175.343L174.941 313.461L175.647 314.119L177.308 314.523L177.911 315.182L176.805 315.688L173.783 316.246L170.056 315.182L167.791 313.105L166.633 313.004L165.625 312.295L165.676 310.978L166.28 310.524L165.877 310.118L164.618 309.46L163.057 307.89L164.116 306.876L163.309 306.066L162.604 304.546L162.654 301.355L163.56 300.493L163.159 299.43L164.67 299.025L164.568 296.542L162.654 296.289L161.044 294.72L160.138 294.315L159.734 292.694L161.547 292.643L162.151 292.086L160.741 290.263L160.591 286.566L161.194 285.25L163.209 284.085L166.481 283.831L167.54 284.946L168.346 284.844L169.153 284.237L168.749 283.021L167.641 282.514L168.094 282.058L167.541 281.551L166.08 281.804L163.512 282.11L161.548 283.123L159.735 282.768L159.334 281.805L158.527 281.502L157.924 280.894L157.319 281.402L157.722 282.717L158.528 284.794L158.125 291.327L156.716 290.922L153.794 289.251L150.169 288.491L147.449 287.883L146.139 285.858L144.075 284.491L143.169 283.63L144.881 283.478L145.384 284.137L145.939 283.731L145.688 283.174L143.775 281.655L137.277 277.654L136.372 277.147L134.91 274.614L134.005 274.108L130.379 271.625L129.524 269.094L127.408 267.018L125.948 264.029L123.933 261.498L123.028 260.89L121.315 257.952L119.855 255.978L118.141 255.774L115.977 251.621L113.106 246.962L112.905 244.176L110.235 240.631L110.992 240.023L112.905 239.973L114.366 242.505L115.472 242.606L116.48 241.846L116.531 239.314L116.883 238.504L117.943 238.352L121.568 241.897L122.071 241.39L122.122 240.075L123.03 239.365L122.979 238.301L121.719 236.579L121.618 235.515H123.179L124.992 237.846L126.452 238.554L129.173 240.985L131.488 240.834L132.697 240.632L136.826 243.266L136.877 244.582L133.755 244.835V247.216L136.173 248.786H141.409L142.417 250.305L141.813 251.116L141.964 252.078L143.575 253.193L144.582 252.483L143.676 250.61L143.474 249.951L143.122 248.685L142.063 247.064L140.553 245.443L139.444 244.937L138.74 244.532L138.59 241.949L136.978 240.329L135.971 239.821L134.41 239.366L133.353 238.302L131.942 237.998L128.921 234.908L127.31 234.35L125.447 233.895L124.289 233.337L122.729 232.628L121.267 231.261L120.261 230.805L119.909 229.843L117.743 227.817L117.29 226.856L116.282 225.792L115.678 224.779L115.225 224.222L114.823 223.31L111.7 220.17L110.693 219.664L108.729 217.638L108.175 216.675L107.116 215.611L106.663 214.701L103.541 211.56L103.037 210.597L101.98 209.584L101.527 208.623L100.519 207.711L98.5044 203.609L96.8939 200.975L96.2389 199.201L96.843 197.732L96.5914 196.567L95.7846 194.896L95.9354 186.944L96.2379 185.476L98.0012 178.788L97.5479 177.776L96.4896 174.788L95.9354 172.711L95.0298 169.217L94.5765 168.71L93.0658 165.773L90.4978 163.24L85.1101 160.303L84.3542 160.048L84.0517 159.442L83.8001 157.821L83.0952 157.467L82.4911 155.846L81.4337 155.39H80.1737L78.3115 153.466L78.2097 152.756L75.6925 149.971L75.6416 148.907L75.0875 148.399L75.6416 147.893L75.7435 146.425L75.2902 145.817H74.6352L73.478 147.033L72.4705 147.084L71.4631 146.679L68.7432 143.842L63.5063 141.969L63.0031 141.208L61.2398 140.399L58.6208 140.651L56.0028 143.285L55.6005 146.78L54.1397 150.224L51.9241 158.48L51.5707 159.594L50.6141 160.101L49.9092 159.645L49.0535 160.758L49.0026 163.544L47.8953 164.102L46.788 167.595L47.0905 169.267L47.8963 171.04L48.098 173.724L47.1405 174.687L45.6298 175.295L43.8675 175.345L42.9609 176.156L42.0044 176.258L41.9535 174.181L42.5076 173.826L42.5585 172.662L41.0978 170.839L41.0469 166.483L40.4438 166.077L38.9321 168.103V171.295L40.4438 172.61L40.3929 174.789L39.4363 176.106L39.5372 178.385L37.9257 179.651L37.6241 180.765H35.8608L35.6591 180.258L35.0561 180.107L34.2493 180.765L35.3566 182.234L35.2558 185.627L34.9033 186.235L35.0541 188.869H32.2843L31.5285 187.805L30.3204 188.007L30.4152 190.386Z" fill="#F15945"/>
<path d="M128.511 286.487L129.065 286.539L130.677 288.108L130.224 288.666H129.519L128.864 288.21L127.656 287.247L126.648 286.741L126.195 286.286L125.288 286.083L123.729 284.309L123.074 284.005L120.506 281.574L121.412 280.612L122.319 281.118L123.024 281.675L124.081 281.878L128.511 286.487Z" fill="#F15945"/>
<path d="M90.7934 241.474L93.7149 244.463L92.9591 245.171L91.9516 244.157L91.2976 244.007L90.6436 243.551L90.2402 244.311L90.6436 244.868L90.9452 246.235L90.4419 246.691L89.8878 246.084L89.8369 245.07L89.3336 244.564L88.9802 243.704L88.2253 242.792L88.2753 241.778L88.6287 241.221L89.9377 241.17L90.1903 241.474H90.7934V241.474Z" fill="#F15945"/>
<path d="M63.5513 201.972L63.9537 204.91L62.5439 205.113L60.4791 202.327L59.9758 200.2L60.53 198.326L60.4791 196.655L61.4865 196.401L61.6882 197.111L62.5938 197.566L63.1479 199.086L63.5513 201.972Z" fill="#F15945"/>
<path d="M246.397 348.041L246.549 349.105L243.427 350.169L239.095 349.408L236.124 349.105L231.894 349.156L228.873 349.459L226.456 349.408L223.233 348.952L219.456 348.497L215.327 349.206L210.19 348.6L208.78 348.294L204.046 346.472L201.88 346.067L200.672 345.713L198.86 344.599L196.494 344.143L193.875 343.332L191.961 342.421L191.558 341.458L194.177 341.153L195.536 341.659L197.551 340.698H201.63L201.681 340.749L203.947 343.332L205.609 343.433L206.515 343.18L206.314 342.369L204.047 340.496L202.487 340.04L202.638 338.925L204.803 338.673L205.86 339.532L208.026 339.988L209.687 340.496L210.897 341.204L212.105 342.065L215.579 345.053L216.938 345.712L229.024 345.813L234.11 346.116L237.03 346.674L239.196 347.232L242.469 347.891L246.397 348.041Z" fill="#F15945"/>
<path d="M87.117 201.171L88.0236 202.944L86.8155 203.756L85.5055 201.628L85.4546 200.21L86.1595 200.008L87.117 201.171Z" fill="#F15945"/>
<path d="M88.3261 206.21L86.8154 203.78L88.0745 203.02L89.0809 204.64L91.3485 207.781L92.0024 207.984L93.2106 209.199L94.1681 209.503L94.873 208.643H96.0313L97.9443 210.719L99.0516 211.479L100.11 213.708L100.463 214.872L103.182 216.694L104.391 216.798L105.851 217.912L105.801 219.684L105.247 219.735L103.334 218.924L102.376 218.722L100.967 217.405L99.5059 216.089L98.7001 215.735L98.0961 215.025L97.6937 215.735L98.0461 216.646L99.4061 218.065L100.213 218.317L100.614 219.229L102.125 220.496L102.68 222.016L104.191 223.434L105.097 223.13L105.65 222.016L106.507 221.864L107.565 223.029L107.918 224.345L110.938 227.13L111.947 227.435L113.407 229.208L114.716 231.386L115.976 231.944L115.573 232.957L114.163 232.754L113.71 233.464L115.171 234.628L116.48 235.489L116.783 236.502H115.423L114.618 235.995H113.056L112.351 235.437L111.798 236.045L113.309 237.261L113.107 238.021L112.553 238.223L111.294 237.058L110.539 236.805L109.078 235.539L108.271 234.425L108.322 230.524L107.315 229.613L104.848 229.157L103.739 226.321C103.739 226.321 100.567 223.231 100.416 223.13C100.266 223.028 99.5608 222.674 99.5608 222.674L97.2943 221.66L96.8919 220.698L95.4312 219.533L96.7412 218.571L94.3738 216.089L94.223 214.569L93.5181 213.86L93.1157 212.696L90.7993 210.568L89.6421 208.845L88.3261 206.21Z" fill="#F15945"/>
<path d="M92.2541 249.511L93.2106 250.676L92.9091 251.839L92.0534 251.638L91.3984 250.777L90.7444 249.866L90.7953 249.156L91.2476 248.701L91.9026 248.649L92.2541 249.511Z" fill="#F15945"/>
<path d="M300.984 389.253V390.063L298.014 390.013L297.862 388.999L299.626 388.492L299.928 388.391L300.984 389.253Z" fill="#F15945"/>
<path d="M297.157 385.966L297.359 387.029L295.697 387.435L294.891 386.624L293.128 385.863V385.004L292.272 384.042L292.221 383.383L293.431 383.333L293.934 383.636L294.991 384.042L297.157 385.966Z" fill="#F15945"/>
<path d="M286.683 388.759L285.876 389.72L285.12 389.468H282.25L280.892 388.252L278.474 387.897L275.603 386.582L272.733 386.227L269.61 385.468L266.941 384.404L263.064 384.456L262.057 383.544L259.388 383.037L258.23 382.581L256.618 380.808L256.468 379.846L258.886 379.289L260.145 379.136L263.669 380.404L267.194 381.67L271.978 383.493L274.546 384.202L276.912 385.062L284.265 386.885L286.683 388.759Z" fill="#F15945"/>
<path d="M247.153 367.326L247.303 368.745L240.555 368.694L238.993 368.39L237.231 367.883L233.857 367.781L231.642 368.491L228.872 369.098L225.599 368.995L223.736 368.389L219.204 368.136L216.687 367.68L214.672 367.072L212.708 365.857L210.391 365.199L211.147 364.54L211.953 363.933L214.219 363.629L214.472 363.071L213.213 362.361L210.039 361.046L209.436 360.59L211.248 360.033L213.263 360.64L216.888 361.602L220.212 362.97L224.039 363.628L227.665 362.666L235.319 362.413L236.176 362.816L238.894 363.02L240.557 364.387L244.686 364.994L245.341 364.943L247.153 367.326Z" fill="#F15945"/>
<path d="M230.485 381.917L230.585 383.488L229.68 384.45L228.522 384.957L227.261 384.855L226.607 384.5L225.651 384.398L224.139 384.854L222.982 384.297L222.175 383.486L222.529 382.472L223.636 382.016L224.139 380.953H225.297L226.356 381.307L226.959 380.8L229.024 381.054L230.485 381.917Z" fill="#F15945"/>
<path d="M226.305 330.69L226.708 333.931L225.802 334.743L220.011 334.945L216.637 335.856L215.831 336.21L214.873 335.754L202.939 335.653L201.831 335.197L198.811 331.904L197.854 331.55L196.141 331.145L195.941 330.334L197.048 329.929L196.795 328.662L196.443 327.65L197.6 326.838L196.543 325.218L195.334 324.104L195.586 323.496L197.047 323.698L201.075 325.117L206.06 325.421L208.226 325.775L212.708 326.181L215.377 326.838L216.887 327.396L219.355 327.903L220.363 328.308L220.211 329.167L221.169 329.776L222.125 330.485L226.305 330.69Z" fill="#F15945"/>
<path d="M195.033 327.129L194.78 327.837L192.414 327.635L187.528 325.053L184.809 324.545L182.694 323.532L181.939 322.317L181.989 320.645H183.147L184.004 321.203L186.822 321.608L189.794 323.076L191.606 323.532L192.21 324.545L192.563 325.407L194.276 326.571L195.033 327.129Z" fill="#F15945"/>
<path d="M192.968 344.056L193.12 345.068L191.004 345.423L188.638 344.563L188.587 343.549L190.048 343.244L191.105 343.902L192.968 344.056Z" fill="#F15945"/>
<path d="M191.759 314.579L191.86 315.643L191.507 316.149L182.242 315.997L181.94 314.58L184.81 314.174L184.609 313.06H186.32L188.185 314.124H190.098L190.501 314.528L191.759 314.579Z" fill="#F15945"/>
<path d="M184.407 352.234V353.45L182.645 355.222L181.839 356.843L181.235 356.995L181.033 356.59L180.127 356.641L179.272 356.185L178.013 357.046L176.15 357.097L175.294 356.539L174.085 357.046L173.179 356.945L172.727 355.982L173.38 355.577L173.028 354.818L172.525 354.006L171.366 353.55L170.359 352.79L170.661 352.184L172.121 351.625L174.841 351.068L178.416 350.917L178.92 350.562H179.726L180.33 350.917L179.826 351.93L181.639 352.436L182.444 352.032L184.407 352.234Z" fill="#F15945"/>
<path d="M177.71 318.709L177.962 319.62L177.66 320.127L174.488 320.076L174.587 319.367L176.3 318.76L177.71 318.709Z" fill="#F15945"/>
<path d="M172.725 318.06L172.775 318.938L170.811 318.99L170.709 318.267L171.868 318.009L172.725 318.06Z" fill="#F15945"/>
<path d="M169.804 359.648L169.754 361.167L168.697 362.13L168.495 361.724L167.337 361.674L166.682 361.016L167.286 358.686L168.697 358.635L169.804 359.648Z" fill="#F15945"/>
<path d="M158.575 296.964L158.878 298.28L158.123 298.685L157.618 298.583L156.358 297.216L156.107 296.508L155.654 296L156.259 295.14L157.013 295.291L157.868 295.799L158.575 296.964Z" fill="#F15945"/>
<path d="M148.704 298.385L149.108 298.893L148.301 299.398L147.194 298.893L145.331 298.487L143.971 297.373L142.813 297.119L141.857 296.613L141.604 295.651L142.46 295.195L142.964 295.752L144.877 296.005L146.187 296.663L148.704 298.385Z" fill="#F15945"/>
<path d="M144.172 287.661L144.575 288.37L143.568 288.521L142.761 288.117L141.754 287.812L141.552 286.901L139.891 285.634L138.934 284.166L138.883 283.102L139.588 282.95L140.697 282.495L141.3 283.457L141.955 284.571L144.069 286.901L144.172 287.661Z" fill="#F15945"/>
<path d="M130.576 273.107L131.079 273.969L130.426 274.576L128.361 274.272L127.354 273.259L124.988 272.701L123.779 271.132L123.174 269.967L122.571 268.903L121.261 267.131L120.506 265.307L120.052 263.736L120.707 263.23L122.218 263.635L123.276 264.446L123.83 265.864L126.6 268.397L127.002 269.41L128.916 271.283L129.116 271.942L129.973 272.904L130.576 273.107Z" fill="#F15945"/>
<path d="M125.793 280.378L126.397 281.289L125.742 281.644L125.34 281.289L124.332 280.833L120.958 277.389L120.355 276.426L119.8 275.769L120.202 274.908L121.764 275.01L122.618 275.87L123.626 276.934L123.979 277.39L124.181 278.504L125.793 280.378Z" fill="#F15945"/>
<path d="M119.145 261.34L118.943 261.947L117.735 261.643L117.282 260.68L116.778 260.325L115.972 260.882L114.511 260.478L114.008 259.971L113.957 259.313L113.503 258.958L110.634 255.971L110.281 255.16L107.863 252.83V252.121L108.568 251.717L108.064 251.109L108.116 250.096L108.921 249.994L110.13 251.412L110.785 251.564L111.087 252.171L111.741 252.829L112.497 254.805L115.166 257.539L116.928 258.501L117.835 259.059L118.389 260.021L118.54 260.832L119.145 261.34Z" fill="#F15945"/>
<path d="M112.548 262.089L113.102 263.001L112.701 263.913L112.146 263.457L107.916 259.405L108.017 256.822L108.621 256.72L109.074 257.176L109.477 258.443L110.837 259.506L111.793 260.165L112.296 261.127L112.548 262.089Z" fill="#F15945"/>
<path d="M108.62 238.251L109.376 239.265L108.469 240.379L107.663 239.771L104.29 239.62L103.686 238.354L103.886 237.188L106.455 237.24L108.62 238.251Z" fill="#F15945"/>
<path d="M103.433 249.995L103.937 250.755L103.735 251.567L102.93 251.262L102.426 250.806L101.822 250.248L100.967 249.642L99.9581 247.666L99.8083 245.69L100.765 246.247L101.42 247.362L102.325 248.324L103.433 249.995Z" fill="#F15945"/>
<path d="M93.2616 198.491L93.4124 199.149L92.5567 199.555H91.7509L87.3198 194.945L85.4566 194.439L81.983 194.185L81.0764 192.97L80.5222 191.552L81.1263 190.59L82.637 190.285L83.0393 189.474L82.6869 188.207V186.435L85.1042 186.333L86.1116 185.421L86.2125 186.839L86.6658 189.118L87.9747 192.158L91.2477 195.602L92.2552 197.375L93.2616 198.491Z" fill="#F15945"/>
<path d="M90.8444 186.447L91.3985 187.51L90.3411 188.624L89.8878 187.814L89.7371 185.687L90.5428 185.585L90.8444 186.447Z" fill="#F15945"/>
<path d="M90.7943 180.117L90.7434 182.446L89.7869 182.547L87.772 180.978L87.8229 178.699H88.6287L90.7943 180.117Z" fill="#F15945"/>
<path d="M90.6925 228.927V230.903L89.7359 231.611L87.6212 230.903V230.346L87.1679 229.738L86.9163 228.472L87.6212 227.914L87.8728 226.901L86.9672 226.495L87.3696 225.482L88.377 225.077L89.6361 225.026L90.1393 225.938L90.0894 227.407L90.1393 228.116L90.6925 228.927Z" fill="#F15945"/>
<path d="M88.7285 173.76L88.6786 174.772L87.117 175.684L86.8155 177.711L86.0087 178.167L83.4916 178.268L82.2325 177.711L79.1103 175.127L77.5997 174.569L78.1538 172.847L77.9521 171.581L78.1538 169.961L77.0954 169.15L76.1898 170.263L70.7512 170.162L68.4348 168.49L67.3275 167.984L65.6151 166.363L65.5652 163.628L66.32 163.224L67.3784 162.262L67.4283 161.045L68.8891 160.285L70.7013 160.893L71.4571 159.222L71.7597 156.588L72.213 154.664L72.7162 153.346L73.2204 152.841L73.0187 150.764L73.6228 150.663L74.4285 151.118L74.5793 152.131L76.4924 155.221L76.3915 157.044L77.0964 158.36L77.7514 157.398L78.708 158.106L79.967 158.664L80.6719 159.93L79.8662 160.335L79.9161 162.361L80.6719 164.285L83.0383 166.311L83.9958 167.73L85.204 169.452L86.0597 171.073L88.7285 173.76Z" fill="#F15945"/>
<path d="M87.4194 183.975L87.7729 185.646L86.1104 185.444V184.33L85.6072 184.076L86.0605 183.165L86.4129 183.773L87.4194 183.975Z" fill="#F15945"/>
<path d="M87.6712 239.056L87.7221 240.423L86.8664 240.626L86.4131 241.082L85.7082 241.133L85.0542 239.968V239.512L85.5075 239.157L85.86 237.942L87.1699 238.346L87.6712 239.056Z" fill="#F15945"/>
<path d="M79.867 232.586L79.6144 234.663H78.7587L76.0898 232.232V231.168L76.3415 230.407H77.3998L78.4582 231.826L79.0124 231.775L79.867 232.586Z" fill="#F15945"/>
<path d="M75.0326 220.824L75.1834 221.735L74.5284 222.496L73.8744 221.888L72.9678 221.786L72.4646 222.496L72.162 221.533L71.7087 220.42L72.5644 219.862H74.2269L74.4785 220.42L75.0326 220.824Z" fill="#F15945"/>
<path d="M72.6152 174.552L72.5642 175.97L71.8593 176.426L71.2553 175.768L71.1045 173.995L71.7595 173.64L71.9103 174.147L72.6152 174.552Z" fill="#F15945"/>
<path d="M71.1036 200.742L72.5643 203.173L72.2119 204.39L70.0971 205.555L68.8381 206.061L67.0249 203.072L65.6659 201.148L64.7094 198.615L63.3994 196.437L63.702 195.729L63.3485 193.907L61.7879 191.93L61.1838 188.081L59.6732 185.751L59.1699 183.067L58.0117 179.572L57.6583 177.647L57.9608 175.166L59.119 174.608L60.0256 175.569L61.1828 176.837L61.6361 177.95L62.5937 178.203L63.6001 177.646L63.702 175.367L65.012 174.557L62.8962 171.873L60.9832 169.087L60.6806 165.035L59.3706 164.376L57.86 162.857L56.7527 160.983L55.9968 158.147L57.5075 157.286L58.0616 154.552L60.0266 153.893L61.3356 154.096L62.2931 156.628L62.6456 160.68L63.048 164.074L63.5522 164.377L64.2571 166.607L65.1128 169.544L66.8252 172.026L68.9898 172.078V175.168L68.4866 175.978L67.5301 179.979L67.7308 182.461L68.4866 187.677L68.0333 190.058L68.9898 193.199L68.6883 195.224L71.1036 200.742Z" fill="#F15945"/>
<path d="M55.241 199.082L55.5944 201.007L54.4861 202.223L54.4362 203.286L55.1911 204.553L53.8321 205.263L53.278 204.553L52.3215 205.263L51.968 204.3L52.1188 201.008L52.7738 200.653V199.944L53.7802 199.742L54.3843 198.931L55.241 199.082Z" fill="#F15945"/>
<path d="M20.7481 177.85L20.6462 179.926L19.1356 179.775L19.4381 178.357L18.8839 178.204L18.6323 177.243L20.143 177.191L19.9413 177.698L20.7481 177.85Z" fill="#F15945"/>
<path d="M325.736 281.651H329.291L332.71 265.573H322.316L325.736 281.651Z" fill="white"/>
<path d="M322.315 257.462H332.709V261.266H327.512H322.315V257.462V257.462Z" fill="white"/>
<path d="M164.076 98.7994H167.631L171.05 82.7212H160.658L164.076 98.7994Z" fill="white"/>
<path d="M160.658 74.6104H171.05V78.4143H165.855H160.658V74.6104V74.6104Z" fill="white"/>
<path d="M70.3199 78.272H73.8754L77.2942 62.1938H66.9001L70.3199 78.272Z" fill="white"/>
<path d="M66.8992 54.083H77.2932V57.8869H72.0962H66.8992V54.083Z" fill="white"/>
<path d="M457.533 185.477H461.089L464.507 169.398H454.114L457.533 185.477Z" fill="white"/>
<path d="M454.113 161.288H464.507V165.092H459.31H454.113V161.288V161.288Z" fill="white"/>
<path d="M531.086 443.216H534.642L538.06 427.138H527.668L531.086 443.216Z" fill="white"/>
<path d="M527.667 419.025H538.059V422.831H532.864H527.667V419.025Z" fill="white"/>
<path d="M197.552 310.49H201.108L204.527 294.412H194.135L197.552 310.49Z" fill="white"/>
<path d="M194.134 286.301H204.526V290.105H199.331H194.134V286.301V286.301Z" fill="white"/>
<path d="M181.338 98.7501H175.219V97.7753L179.53 91.3707H175.335V90.1675H181.221V91.1533L176.892 97.5459H181.338V98.7501V98.7501Z" fill="white"/>
<path d="M186.756 98.7511L186.481 97.8475H186.434C186.123 98.2432 185.808 98.5117 185.493 98.655C185.177 98.7982 184.771 98.8694 184.276 98.8694C183.64 98.8694 183.143 98.697 182.787 98.3524C182.43 98.0078 182.252 97.5209 182.252 96.8908C182.252 96.2215 182.499 95.7166 182.995 95.376C183.49 95.0354 184.245 94.8501 185.259 94.818L186.376 94.7829V94.4363C186.376 94.0216 186.28 93.711 186.087 93.5056C185.894 93.3002 185.595 93.1971 185.189 93.1971C184.858 93.1971 184.54 93.2461 184.236 93.3433C183.931 93.4405 183.639 93.5567 183.358 93.6899L182.914 92.7042C183.265 92.5198 183.649 92.3806 184.066 92.2844C184.483 92.1882 184.877 92.1401 185.248 92.1401C186.071 92.1401 186.692 92.3205 187.111 92.6801C187.531 93.0398 187.74 93.6058 187.74 94.3762V98.7491H186.756V98.7511ZM184.708 97.8114C185.207 97.8114 185.608 97.6712 185.91 97.3917C186.213 97.1122 186.363 96.7195 186.363 96.2145V95.6515L185.533 95.6866C184.886 95.7096 184.414 95.8188 184.12 96.0122C183.825 96.2055 183.679 96.5021 183.679 96.9018C183.679 97.1913 183.764 97.4157 183.936 97.574C184.108 97.7323 184.365 97.8114 184.708 97.8114Z" fill="white"/>
<path d="M195.122 92.2584V93.0157L194.016 93.2211C194.118 93.3584 194.202 93.5267 194.268 93.726C194.334 93.9254 194.368 94.1368 194.368 94.3602C194.368 95.0294 194.138 95.5553 193.678 95.939C193.218 96.3227 192.584 96.5141 191.777 96.5141C191.57 96.5141 191.383 96.498 191.216 96.467C190.919 96.6513 190.771 96.8657 190.771 97.1132C190.771 97.2614 190.84 97.3736 190.979 97.4478C191.118 97.5219 191.373 97.559 191.743 97.559H192.872C193.586 97.559 194.128 97.7112 194.499 98.0168C194.869 98.3224 195.055 98.7622 195.055 99.3372C195.055 100.073 194.752 100.641 194.148 101.039C193.544 101.438 192.671 101.638 191.527 101.638C190.646 101.638 189.973 101.482 189.509 101.169C189.046 100.855 188.813 100.409 188.813 99.8301C188.813 99.4314 188.939 99.0958 189.191 98.8233C189.442 98.5508 189.794 98.3624 190.247 98.2572C190.064 98.1791 189.913 98.0529 189.794 97.8786C189.675 97.7042 189.615 97.5219 189.615 97.3296C189.615 97.0871 189.683 96.8817 189.82 96.7134C189.957 96.5451 190.159 96.3788 190.428 96.2145C190.092 96.0693 189.821 95.8338 189.612 95.5072C189.404 95.1807 189.3 94.798 189.3 94.3592C189.3 93.6549 189.521 93.1089 189.964 92.7212C190.406 92.3335 191.037 92.1401 191.857 92.1401C192.041 92.1401 192.232 92.1532 192.433 92.1782C192.634 92.2033 192.785 92.2303 192.886 92.2573H195.122V92.2584ZM190.038 99.76C190.038 100.058 190.171 100.286 190.438 100.447C190.705 100.609 191.081 100.688 191.564 100.688C192.313 100.688 192.871 100.58 193.238 100.365C193.604 100.15 193.788 99.8642 193.788 99.5085C193.788 99.227 193.687 99.0266 193.486 98.9064C193.286 98.7862 192.912 98.7271 192.366 98.7271H191.325C190.93 98.7271 190.618 98.8203 190.386 99.0056C190.154 99.1909 190.038 99.4434 190.038 99.76ZM190.629 94.3602C190.629 94.7669 190.733 95.0805 190.941 95.2999C191.15 95.5193 191.449 95.6285 191.839 95.6285C192.635 95.6285 193.032 95.2017 193.032 94.3491C193.032 93.9264 192.933 93.6008 192.736 93.3714C192.54 93.142 192.24 93.0277 191.839 93.0277C191.441 93.0277 191.14 93.141 190.935 93.3684C190.731 93.5958 190.629 93.9254 190.629 94.3602Z" fill="white"/>
<path d="M199.603 92.1411C199.88 92.1411 200.108 92.1611 200.288 92.2002L200.153 93.4856C199.958 93.4385 199.756 93.4154 199.545 93.4154C198.995 93.4154 198.55 93.5958 198.208 93.9554C197.867 94.3151 197.696 94.7829 197.696 95.3579V98.7511H196.321V92.2593H197.397L197.579 93.4044H197.649C197.864 93.0167 198.143 92.7101 198.489 92.4827C198.834 92.2553 199.206 92.1411 199.603 92.1411Z" fill="white"/>
<path d="M204.313 98.8683C203.306 98.8683 202.519 98.5738 201.952 97.9847C201.385 97.3956 201.101 96.5852 201.101 95.5513C201.101 94.4904 201.364 93.6569 201.89 93.0508C202.417 92.4447 203.14 92.1411 204.061 92.1411C204.915 92.1411 205.59 92.4016 206.085 92.9215C206.58 93.4415 206.828 94.1578 206.828 95.0704V95.8158H202.516C202.536 96.4459 202.705 96.9298 203.026 97.2684C203.346 97.607 203.795 97.7763 204.378 97.7763C204.76 97.7763 205.115 97.7403 205.445 97.6681C205.774 97.596 206.129 97.4758 206.506 97.3075V98.4285C206.171 98.5888 205.831 98.702 205.488 98.7691C205.144 98.8363 204.754 98.8683 204.313 98.8683ZM204.061 93.186C203.624 93.186 203.274 93.3253 203.011 93.6028C202.747 93.8803 202.59 94.286 202.539 94.818H205.476C205.468 94.282 205.339 93.8763 205.089 93.5998C204.84 93.3233 204.498 93.186 204.061 93.186Z" fill="white"/>
<path d="M211.696 92.1413C212.504 92.1413 213.132 92.4348 213.583 93.0219C214.035 93.6089 214.259 94.4324 214.259 95.4933C214.259 96.5573 214.031 97.3868 213.574 97.9789C213.118 98.5709 212.484 98.8685 211.673 98.8685C210.855 98.8685 210.219 98.5729 209.766 97.9819H209.672L209.421 98.7513H208.391V89.6177H209.766V91.7896C209.766 91.9499 209.758 92.1883 209.743 92.5059C209.728 92.8235 209.716 93.0249 209.708 93.111H209.767C210.203 92.4638 210.846 92.1413 211.696 92.1413ZM211.339 93.2683C210.785 93.2683 210.386 93.4316 210.143 93.7582C209.899 94.0848 209.773 94.6318 209.765 95.3992V95.4933C209.765 96.2838 209.89 96.8558 210.14 97.2105C210.389 97.5651 210.797 97.7414 211.363 97.7414C211.85 97.7414 212.219 97.5481 212.471 97.1604C212.723 96.7727 212.848 96.2136 212.848 95.4813C212.848 94.0056 212.345 93.2683 211.339 93.2683Z" fill="white"/>
<path d="M341.554 279.704C341.554 280.467 341.279 281.065 340.729 281.5C340.179 281.935 339.42 282.151 338.453 282.151C337.487 282.151 336.694 282.001 336.078 281.699V280.373C336.469 280.557 336.882 280.701 337.32 280.808C337.759 280.914 338.169 280.966 338.547 280.966C339.101 280.966 339.509 280.861 339.772 280.649C340.036 280.438 340.168 280.154 340.168 279.798C340.168 279.477 340.047 279.205 339.805 278.982C339.564 278.76 339.065 278.495 338.308 278.19C337.528 277.873 336.978 277.511 336.658 277.104C336.339 276.697 336.179 276.207 336.179 275.636C336.179 274.92 336.433 274.357 336.94 273.945C337.447 273.533 338.127 273.329 338.982 273.329C339.8 273.329 340.616 273.509 341.427 273.869L340.983 275.014C340.222 274.694 339.544 274.533 338.947 274.533C338.494 274.533 338.151 274.633 337.917 274.831C337.684 275.028 337.566 275.289 337.566 275.613C337.566 275.837 337.613 276.028 337.707 276.186C337.8 276.345 337.954 276.494 338.169 276.634C338.384 276.774 338.77 276.961 339.327 277.192C339.955 277.455 340.415 277.699 340.708 277.925C341.001 278.152 341.215 278.408 341.352 278.695C341.489 278.981 341.554 279.316 341.554 279.704Z" fill="white"/>
<path d="M347.112 282.034L346.838 281.131H346.791C346.479 281.526 346.165 281.796 345.849 281.939C345.534 282.082 345.127 282.152 344.632 282.152C343.996 282.152 343.499 281.98 343.142 281.636C342.786 281.291 342.608 280.804 342.608 280.174C342.608 279.505 342.856 279 343.351 278.659C343.846 278.319 344.601 278.133 345.616 278.101L346.733 278.066V277.719C346.733 277.305 346.635 276.995 346.442 276.79C346.25 276.584 345.951 276.48 345.546 276.48C345.214 276.48 344.897 276.529 344.592 276.627C344.288 276.724 343.995 276.84 343.714 276.973L343.27 275.987C343.622 275.803 344.005 275.665 344.422 275.569C344.84 275.472 345.233 275.423 345.605 275.423C346.427 275.423 347.047 275.604 347.467 275.963C347.886 276.323 348.097 276.889 348.097 277.659V282.032H347.112V282.034ZM345.064 281.096C345.564 281.096 345.963 280.956 346.266 280.677C346.568 280.397 346.72 280.004 346.72 279.499V278.936L345.889 278.971C345.242 278.994 344.77 279.104 344.475 279.297C344.181 279.491 344.035 279.786 344.035 280.186C344.035 280.475 344.121 280.701 344.293 280.859C344.464 281.017 344.721 281.096 345.064 281.096Z" fill="white"/>
<path d="M353.296 275.426C353.572 275.426 353.801 275.446 353.981 275.485L353.846 276.77C353.651 276.723 353.448 276.7 353.238 276.7C352.688 276.7 352.241 276.88 351.9 277.24C351.558 277.6 351.389 278.068 351.389 278.643V282.036H350.014V275.544H351.09L351.272 276.689H351.342C351.556 276.301 351.835 275.995 352.18 275.767C352.526 275.54 352.898 275.426 353.296 275.426Z" fill="white"/>
<path d="M359.229 282.034L358.954 281.131H358.907C358.596 281.526 358.281 281.796 357.966 281.939C357.65 282.082 357.244 282.152 356.748 282.152C356.112 282.152 355.615 281.98 355.259 281.636C354.902 281.291 354.725 280.804 354.725 280.174C354.725 279.505 354.972 279 355.467 278.659C355.963 278.319 356.718 278.133 357.732 278.101L358.849 278.066V277.719C358.849 277.305 358.751 276.995 358.559 276.79C358.366 276.584 358.067 276.48 357.662 276.48C357.331 276.48 357.013 276.529 356.709 276.627C356.404 276.724 356.111 276.84 355.831 276.973L355.387 275.987C355.738 275.803 356.121 275.665 356.539 275.569C356.956 275.472 357.35 275.423 357.721 275.423C358.544 275.423 359.164 275.604 359.583 275.963C360.002 276.323 360.213 276.889 360.213 277.659V282.032H359.229V282.034ZM357.181 281.096C357.68 281.096 358.079 280.956 358.382 280.677C358.685 280.397 358.836 280.004 358.836 279.499V278.936L358.006 278.971C357.359 278.994 356.886 279.104 356.592 279.297C356.297 279.491 356.151 279.786 356.151 280.186C356.151 280.475 356.237 280.701 356.409 280.859C356.581 281.017 356.837 281.096 357.181 281.096Z" fill="white"/>
<path d="M361.469 284.923C361.056 284.923 360.712 284.874 360.44 284.777V283.685C360.705 283.755 360.976 283.79 361.252 283.79C361.838 283.79 362.13 283.457 362.13 282.792V275.543H363.505V282.886C363.505 283.555 363.329 284.062 362.981 284.407C362.632 284.751 362.128 284.923 361.469 284.923ZM362.048 273.823C362.048 273.576 362.114 273.386 362.249 273.254C362.384 273.121 362.576 273.054 362.826 273.054C363.068 273.054 363.255 273.12 363.389 273.254C363.523 273.387 363.592 273.576 363.592 273.823C363.592 274.057 363.524 274.243 363.389 274.379C363.254 274.514 363.068 274.58 362.826 274.58C362.576 274.58 362.384 274.514 362.249 274.379C362.114 274.243 362.048 274.057 362.048 273.823Z" fill="white"/>
<path d="M368.297 282.152C367.29 282.152 366.502 281.858 365.935 281.269C365.368 280.68 365.084 279.868 365.084 278.835C365.084 277.774 365.348 276.94 365.874 276.334C366.4 275.728 367.124 275.424 368.045 275.424C368.899 275.424 369.574 275.685 370.069 276.205C370.564 276.725 370.812 277.441 370.812 278.354V279.099H366.5C366.52 279.729 366.689 280.214 367.01 280.553C367.33 280.891 367.779 281.06 368.361 281.06C368.744 281.06 369.098 281.024 369.428 280.952C369.757 280.88 370.113 280.759 370.49 280.591V281.712C370.155 281.872 369.815 281.985 369.472 282.052C369.128 282.119 368.737 282.152 368.297 282.152ZM368.045 276.47C367.608 276.47 367.257 276.609 366.994 276.887C366.73 277.164 366.574 277.57 366.523 278.102H369.46C369.452 277.566 369.323 277.161 369.073 276.885C368.824 276.608 368.481 276.47 368.045 276.47Z" fill="white"/>
<path d="M373.848 282.035L371.391 275.543H372.842L374.158 279.318C374.384 279.952 374.52 280.465 374.567 280.856H374.614C374.649 280.574 374.786 280.061 375.023 279.318L376.339 275.543H377.802L375.333 282.035H373.848Z" fill="white"/>
<path d="M384.524 278.777C384.524 279.838 384.254 280.665 383.712 281.26C383.17 281.855 382.415 282.153 381.447 282.153C380.843 282.153 380.308 282.016 379.845 281.742C379.381 281.469 379.024 281.075 378.774 280.562C378.525 280.049 378.4 279.455 378.4 278.778C378.4 277.725 378.669 276.903 379.208 276.312C379.746 275.721 380.505 275.426 381.483 275.426C382.42 275.426 383.161 275.729 383.707 276.333C384.253 276.938 384.524 277.752 384.524 278.777ZM379.816 278.777C379.816 280.276 380.368 281.025 381.471 281.025C382.564 281.025 383.11 280.276 383.11 278.777C383.11 277.294 382.56 276.552 381.46 276.552C380.883 276.552 380.464 276.743 380.204 277.127C379.945 277.511 379.816 278.061 379.816 278.777Z" fill="white"/>
<path d="M468.419 176.846H470.959C472.137 176.846 472.986 177.019 473.512 177.363C474.037 177.708 474.299 178.252 474.299 178.995C474.299 179.496 474.171 179.913 473.913 180.245C473.655 180.578 473.285 180.787 472.802 180.874V180.933C473.403 181.046 473.843 181.27 474.126 181.605C474.408 181.939 474.551 182.392 474.551 182.963C474.551 183.735 474.281 184.338 473.745 184.775C473.209 185.211 472.464 185.429 471.509 185.429H468.419V176.846ZM469.817 180.392H471.163C471.748 180.392 472.176 180.298 472.444 180.113C472.713 179.928 472.848 179.611 472.848 179.165C472.848 178.763 472.702 178.471 472.41 178.291C472.119 178.11 471.659 178.02 471.027 178.02H469.816V180.392H469.817ZM469.817 181.53V184.248H471.303C471.888 184.248 472.328 184.135 472.627 183.91C472.925 183.685 473.075 183.33 473.075 182.845C473.075 182.399 472.923 182.069 472.619 181.853C472.314 181.638 471.852 181.531 471.232 181.531H469.817V181.53Z" fill="white"/>
<path d="M479.008 185.545C478.002 185.545 477.214 185.25 476.647 184.661C476.08 184.072 475.796 183.261 475.796 182.228C475.796 181.167 476.06 180.333 476.586 179.727C477.112 179.121 477.836 178.817 478.757 178.817C479.61 178.817 480.285 179.078 480.78 179.598C481.276 180.118 481.523 180.834 481.523 181.747V182.492H477.212C477.232 183.122 477.401 183.606 477.721 183.945C478.042 184.283 478.491 184.453 479.073 184.453C479.455 184.453 479.81 184.417 480.139 184.344C480.469 184.272 480.824 184.152 481.202 183.984V185.105C480.866 185.265 480.527 185.378 480.183 185.445C479.84 185.513 479.449 185.545 479.008 185.545ZM478.757 179.862C478.319 179.862 477.969 180.002 477.705 180.279C477.442 180.557 477.286 180.962 477.235 181.494H480.171C480.163 180.958 480.035 180.553 479.785 180.276C479.535 180 479.194 179.862 478.757 179.862Z" fill="white"/>
<path d="M484.461 185.428H483.086V176.294H484.461V185.428Z" fill="white"/>
<path d="M491.891 178.936V179.693L490.786 179.898C490.888 180.036 490.972 180.204 491.038 180.403C491.104 180.603 491.138 180.814 491.138 181.037C491.138 181.707 490.908 182.233 490.448 182.616C489.987 183 489.353 183.191 488.546 183.191C488.34 183.191 488.152 183.175 487.985 183.144C487.689 183.329 487.541 183.543 487.541 183.79C487.541 183.939 487.609 184.051 487.748 184.125C487.886 184.199 488.142 184.236 488.513 184.236H489.642C490.356 184.236 490.898 184.388 491.268 184.694C491.639 185 491.824 185.439 491.824 186.014C491.824 186.75 491.522 187.318 490.918 187.717C490.314 188.115 489.44 188.316 488.297 188.316C487.415 188.316 486.742 188.159 486.279 187.846C485.816 187.532 485.583 187.086 485.583 186.507C485.583 186.109 485.708 185.773 485.959 185.501C486.211 185.228 486.564 185.04 487.017 184.934C486.833 184.856 486.681 184.73 486.563 184.556C486.444 184.381 486.385 184.199 486.385 184.007C486.385 183.764 486.453 183.559 486.589 183.391C486.726 183.222 486.929 183.056 487.198 182.892C486.862 182.747 486.589 182.511 486.381 182.184C486.172 181.858 486.069 181.475 486.069 181.036C486.069 180.332 486.29 179.786 486.732 179.398C487.175 179.011 487.807 178.817 488.625 178.817C488.809 178.817 489 178.83 489.2 178.855C489.401 178.881 489.554 178.908 489.655 178.935H491.891V178.936ZM486.807 186.437C486.807 186.735 486.94 186.963 487.207 187.124C487.473 187.286 487.851 187.365 488.334 187.365C489.083 187.365 489.641 187.258 490.007 187.042C490.374 186.827 490.557 186.541 490.557 186.186C490.557 185.904 490.456 185.704 490.255 185.584C490.054 185.463 489.682 185.404 489.136 185.404H488.094C487.7 185.404 487.386 185.497 487.155 185.683C486.923 185.868 486.807 186.12 486.807 186.437ZM487.398 181.036C487.398 181.443 487.502 181.757 487.71 181.976C487.917 182.196 488.219 182.305 488.608 182.305C489.404 182.305 489.802 181.878 489.802 181.025C489.802 180.603 489.702 180.277 489.505 180.048C489.308 179.818 489.01 179.704 488.608 179.704C488.211 179.704 487.908 179.817 487.704 180.045C487.499 180.272 487.398 180.603 487.398 181.036Z" fill="white"/>
<path d="M496.372 178.817C496.649 178.817 496.877 178.837 497.057 178.876L496.922 180.162C496.728 180.115 496.525 180.092 496.314 180.092C495.764 180.092 495.318 180.272 494.976 180.632C494.635 180.991 494.465 181.459 494.465 182.034V185.427H493.09V178.936H494.167L494.348 180.081H494.418C494.633 179.693 494.912 179.386 495.257 179.159C495.602 178.932 495.975 178.817 496.372 178.817Z" fill="white"/>
<path d="M502.304 185.427L502.03 184.524H501.983C501.671 184.919 501.357 185.188 501.041 185.331C500.726 185.474 500.319 185.546 499.824 185.546C499.188 185.546 498.691 185.373 498.334 185.029C497.978 184.684 497.8 184.197 497.8 183.567C497.8 182.898 498.048 182.393 498.543 182.052C499.038 181.712 499.793 181.526 500.808 181.494L501.925 181.459V181.113C501.925 180.698 501.827 180.387 501.634 180.182C501.442 179.977 501.143 179.873 500.738 179.873C500.406 179.873 500.089 179.922 499.784 180.02C499.48 180.117 499.187 180.233 498.907 180.366L498.462 179.38C498.814 179.196 499.197 179.057 499.615 178.961C500.032 178.864 500.425 178.816 500.797 178.816C501.619 178.816 502.24 178.997 502.659 179.356C503.078 179.716 503.289 180.282 503.289 181.052V185.425H502.304V185.427ZM500.258 184.489C500.757 184.489 501.156 184.348 501.459 184.069C501.761 183.789 501.913 183.397 501.913 182.892V182.329L501.082 182.364C500.435 182.387 499.963 182.496 499.668 182.689C499.374 182.883 499.228 183.179 499.228 183.579C499.228 183.869 499.314 184.093 499.486 184.251C499.657 184.41 499.914 184.489 500.258 184.489Z" fill="white"/>
<path d="M507.388 185.545C506.581 185.545 505.952 185.251 505.498 184.664C505.045 184.077 504.819 183.254 504.819 182.193C504.819 181.129 505.048 180.299 505.506 179.707C505.965 179.115 506.601 178.818 507.411 178.818C508.262 178.818 508.909 179.132 509.353 179.762H509.423C509.357 179.296 509.323 178.929 509.323 178.658V176.293H510.704V185.427H509.628L509.388 184.575H509.324C508.884 185.222 508.239 185.545 507.388 185.545ZM507.757 184.43C508.322 184.43 508.734 184.27 508.991 183.951C509.248 183.631 509.381 183.114 509.388 182.398V182.205C509.388 181.387 509.256 180.806 508.991 180.462C508.726 180.117 508.31 179.945 507.745 179.945C507.262 179.945 506.889 180.141 506.628 180.535C506.366 180.928 506.235 181.488 506.235 182.217C506.235 182.937 506.362 183.486 506.616 183.864C506.869 184.241 507.251 184.43 507.757 184.43Z" fill="white"/>
<path d="M515.497 185.545C514.491 185.545 513.703 185.25 513.136 184.661C512.568 184.072 512.285 183.261 512.285 182.228C512.285 181.167 512.549 180.333 513.075 179.727C513.601 179.121 514.325 178.817 515.245 178.817C516.099 178.817 516.774 179.078 517.269 179.598C517.765 180.118 518.012 180.834 518.012 181.747V182.492H513.701C513.721 183.122 513.889 183.606 514.21 183.945C514.53 184.283 514.98 184.453 515.562 184.453C515.944 184.453 516.299 184.417 516.628 184.344C516.958 184.272 517.313 184.152 517.691 183.984V185.105C517.355 185.265 517.016 185.378 516.672 185.445C516.329 185.513 515.938 185.545 515.497 185.545ZM515.245 179.862C514.808 179.862 514.458 180.002 514.194 180.279C513.93 180.557 513.775 180.962 513.724 181.494H516.66C516.652 180.958 516.523 180.553 516.274 180.276C516.024 180 515.683 179.862 515.245 179.862Z" fill="white"/>
<path d="M546.904 440.836C546.904 441.599 546.629 442.197 546.079 442.632C545.529 443.067 544.77 443.283 543.804 443.283C542.837 443.283 542.044 443.133 541.428 442.831V441.505C541.819 441.689 542.234 441.833 542.672 441.94C543.111 442.046 543.519 442.098 543.897 442.098C544.452 442.098 544.861 441.993 545.125 441.781C545.388 441.57 545.519 441.286 545.519 440.93C545.519 440.609 545.398 440.337 545.156 440.114C544.915 439.892 544.416 439.627 543.659 439.322C542.879 439.005 542.329 438.643 542.009 438.236C541.69 437.829 541.53 437.339 541.53 436.768C541.53 436.052 541.784 435.489 542.291 435.077C542.798 434.665 543.478 434.461 544.333 434.461C545.151 434.461 545.967 434.641 546.778 435.001L546.334 436.146C545.573 435.825 544.895 435.665 544.298 435.665C543.846 435.665 543.502 435.764 543.268 435.962C543.035 436.159 542.917 436.42 542.917 436.745C542.917 436.968 542.964 437.159 543.058 437.317C543.152 437.475 543.305 437.626 543.52 437.766C543.735 437.906 544.121 438.093 544.678 438.324C545.306 438.586 545.767 438.831 546.059 439.057C546.352 439.284 546.566 439.54 546.703 439.827C546.84 440.113 546.904 440.448 546.904 440.836Z" fill="white"/>
<path d="M549.741 439.738L550.519 438.763L552.473 436.674H554.059L551.456 439.462L554.223 443.165H552.608L550.531 440.318L549.776 440.94V443.165H548.414V434.032H549.776V438.487L549.707 439.737H549.741V439.738Z" fill="white"/>
<path d="M561.003 439.909C561.003 440.97 560.732 441.797 560.19 442.392C559.648 442.987 558.893 443.285 557.926 443.285C557.322 443.285 556.787 443.148 556.323 442.874C555.86 442.601 555.502 442.207 555.253 441.694C555.003 441.181 554.878 440.587 554.878 439.91C554.878 438.857 555.148 438.035 555.686 437.444C556.224 436.853 556.983 436.558 557.962 436.558C558.898 436.558 559.639 436.86 560.185 437.464C560.731 438.068 561.003 438.884 561.003 439.909ZM556.294 439.909C556.294 441.407 556.846 442.157 557.95 442.157C559.042 442.157 559.588 441.407 559.588 439.909C559.588 438.426 559.038 437.684 557.939 437.684C557.362 437.684 556.944 437.875 556.685 438.259C556.425 438.642 556.294 439.192 556.294 439.909Z" fill="white"/>
<path d="M565.866 443.283C565.047 443.283 564.411 442.988 563.959 442.397H563.877C563.932 442.945 563.959 443.277 563.959 443.395V446.053H562.584V436.673H563.695C563.726 436.795 563.791 437.084 563.888 437.542H563.958C564.387 436.885 565.03 436.556 565.889 436.556C566.696 436.556 567.325 436.85 567.777 437.437C568.228 438.024 568.452 438.847 568.452 439.908C568.452 440.969 568.223 441.797 567.765 442.392C567.306 442.987 566.672 443.283 565.866 443.283ZM565.532 437.683C564.986 437.683 564.589 437.843 564.337 438.164C564.085 438.485 563.959 438.998 563.959 439.702V439.907C563.959 440.698 564.083 441.27 564.333 441.624C564.583 441.979 564.99 442.155 565.556 442.155C566.032 442.155 566.399 441.96 566.656 441.568C566.914 441.177 567.043 440.619 567.043 439.895C567.043 439.167 566.916 438.617 566.66 438.243C566.405 437.87 566.027 437.683 565.532 437.683Z" fill="white"/>
<path d="M569.387 446.054C568.974 446.054 568.63 446.005 568.358 445.908V444.816C568.623 444.886 568.894 444.921 569.171 444.921C569.756 444.921 570.048 444.588 570.048 443.923V436.674H571.423V444.017C571.423 444.687 571.249 445.194 570.901 445.538C570.553 445.883 570.046 446.054 569.387 446.054ZM569.966 434.954C569.966 434.707 570.034 434.517 570.169 434.385C570.304 434.253 570.495 434.186 570.744 434.186C570.986 434.186 571.176 434.252 571.309 434.385C571.443 434.518 571.51 434.707 571.51 434.954C571.51 435.188 571.444 435.374 571.309 435.509C571.175 435.644 570.986 435.711 570.744 435.711C570.495 435.711 570.304 435.644 570.169 435.509C570.034 435.374 569.966 435.188 569.966 434.954Z" fill="white"/>
<path d="M576.215 443.283C575.208 443.283 574.422 442.989 573.855 442.4C573.288 441.811 573.003 441 573.003 439.966C573.003 438.905 573.266 438.072 573.792 437.466C574.319 436.86 575.043 436.556 575.963 436.556C576.817 436.556 577.492 436.817 577.987 437.337C578.482 437.857 578.73 438.573 578.73 439.485V440.231H574.419C574.438 440.861 574.607 441.345 574.928 441.683C575.248 442.022 575.698 442.191 576.28 442.191C576.662 442.191 577.019 442.155 577.348 442.083C577.678 442.011 578.031 441.891 578.408 441.723V442.844C578.073 443.004 577.733 443.117 577.39 443.184C577.046 443.251 576.655 443.283 576.215 443.283ZM575.963 437.601C575.526 437.601 575.177 437.74 574.914 438.018C574.65 438.295 574.492 438.701 574.442 439.233H577.378C577.37 438.697 577.241 438.291 576.992 438.015C576.742 437.738 576.399 437.601 575.963 437.601Z" fill="white"/>
<path d="M81.2073 78.3648V69.7832H82.6051V77.1616H86.2266V78.3648H81.2073V78.3648Z" fill="white"/>
<path d="M86.8934 81.2538C86.4801 81.2538 86.1366 81.2047 85.864 81.1075V80.0155C86.1296 80.0857 86.4002 80.1207 86.6768 80.1207C87.2619 80.1207 87.5544 79.7881 87.5544 79.1229V71.8738H88.9293V79.2171C88.9293 79.8863 88.7546 80.3932 88.4061 80.7379C88.0576 81.0825 87.5524 81.2538 86.8934 81.2538ZM87.4725 70.1536C87.4725 69.9072 87.5394 69.7169 87.6742 69.5846C87.809 69.4524 88.0007 69.3853 88.2503 69.3853C88.492 69.3853 88.6807 69.4514 88.8145 69.5846C88.9483 69.7179 89.0162 69.9072 89.0162 70.1536C89.0162 70.3881 88.9493 70.5734 88.8145 70.7087C88.6797 70.8439 88.492 70.911 88.2503 70.911C88.0007 70.911 87.809 70.8439 87.6742 70.7087C87.5394 70.5734 87.4725 70.3881 87.4725 70.1536Z" fill="white"/>
<path d="M95.4583 78.3658L95.2656 77.5143H95.1957C95.005 77.8158 94.7324 78.0523 94.38 78.2246C94.0275 78.3969 93.6241 78.4831 93.1718 78.4831C92.388 78.4831 91.8029 78.2877 91.4165 77.896C91.0301 77.5043 90.8374 76.9122 90.8374 76.1178V71.8741H92.2243V75.8773C92.2243 76.3742 92.3261 76.7469 92.5288 76.9954C92.7315 77.2438 93.049 77.368 93.4823 77.368C94.0595 77.368 94.4838 77.1947 94.7544 76.8481C95.025 76.5015 95.1608 75.9214 95.1608 75.1079V71.873H96.5416V78.3648H95.4583V78.3658Z" fill="white"/>
<path d="M101.807 71.756C102.614 71.756 103.242 72.0495 103.694 72.6366C104.145 73.2237 104.37 74.0472 104.37 75.1081C104.37 76.172 104.141 77.0015 103.685 77.5936C103.228 78.1857 102.594 78.4832 101.784 78.4832C100.965 78.4832 100.329 78.1877 99.8766 77.5966H99.7827L99.5311 78.366H98.5017V69.2324H99.8766V71.4044C99.8766 71.5647 99.8686 71.8031 99.8536 72.1207C99.8387 72.4382 99.8267 72.6396 99.8187 72.7258H99.8776C100.313 72.0786 100.956 71.756 101.807 71.756ZM101.449 72.883C100.895 72.883 100.497 73.0463 100.253 73.3729C100.009 73.6995 99.8836 74.2465 99.8756 75.0139V75.1081C99.8756 75.8985 100 76.4706 100.25 76.8252C100.5 77.1798 100.907 77.3562 101.473 77.3562C101.96 77.3562 102.33 77.1628 102.581 76.7751C102.833 76.3874 102.959 75.8284 102.959 75.0961C102.959 73.6214 102.456 72.883 101.449 72.883Z" fill="white"/>
<path d="M107.341 78.366H105.966V69.2324H107.341V78.366Z" fill="white"/>
<path d="M108.645 81.2538C108.232 81.2538 107.888 81.2047 107.616 81.1075V80.0155C107.881 80.0857 108.152 80.1207 108.428 80.1207C109.014 80.1207 109.306 79.7881 109.306 79.1229V71.8738H110.681V79.2171C110.681 79.8863 110.506 80.3932 110.158 80.7379C109.809 81.0825 109.304 81.2538 108.645 81.2538ZM109.224 70.1536C109.224 69.9072 109.291 69.7169 109.426 69.5846C109.561 69.4524 109.752 69.3853 110.002 69.3853C110.244 69.3853 110.432 69.4514 110.566 69.5846C110.7 69.7179 110.768 69.9072 110.768 70.1536C110.768 70.3881 110.701 70.5734 110.566 70.7087C110.431 70.8439 110.244 70.911 110.002 70.911C109.752 70.911 109.561 70.8439 109.426 70.7087C109.291 70.5734 109.224 70.3881 109.224 70.1536Z" fill="white"/>
<path d="M116.696 78.3659L116.421 77.4622H116.374C116.063 77.858 115.748 78.1264 115.433 78.2697C115.117 78.413 114.711 78.4841 114.216 78.4841C113.58 78.4841 113.083 78.3118 112.727 77.9672C112.37 77.6225 112.192 77.1356 112.192 76.5055C112.192 75.8363 112.439 75.3314 112.935 74.9908C113.43 74.6501 114.185 74.4648 115.199 74.4327L116.316 74.3977V74.0511C116.316 73.6363 116.219 73.3257 116.027 73.1204C115.834 72.915 115.535 72.8118 115.129 72.8118C114.798 72.8118 114.48 72.8609 114.176 72.9581C113.871 73.0552 113.579 73.1715 113.298 73.3047L112.854 72.3189C113.205 72.1346 113.589 71.9953 114.006 71.8991C114.423 71.803 114.817 71.7549 115.188 71.7549C116.011 71.7549 116.632 71.9352 117.051 72.2949C117.471 72.6545 117.68 73.2205 117.68 73.9909V78.3639H116.696V78.3659ZM114.648 77.4262C115.147 77.4262 115.547 77.2859 115.85 77.0064C116.153 76.7269 116.303 76.3342 116.303 75.8293V75.2663L115.473 75.3013C114.826 75.3244 114.354 75.4336 114.06 75.6269C113.765 75.8203 113.618 76.1168 113.618 76.5165C113.618 76.806 113.704 77.0305 113.876 77.1887C114.048 77.347 114.304 77.4262 114.648 77.4262Z" fill="white"/>
<path d="M125.289 78.3658H123.909V74.3745C123.909 73.8736 123.808 73.5 123.607 73.2535C123.406 73.0071 123.087 72.8838 122.65 72.8838C122.069 72.8838 121.644 73.0561 121.375 73.4008C121.107 73.7454 120.972 74.3224 120.972 75.1329V78.3678H119.597V71.876H120.674L120.866 72.7276H120.936C121.131 72.418 121.408 72.1796 121.767 72.0112C122.125 71.8429 122.524 71.7588 122.96 71.7588C124.513 71.7588 125.288 72.5512 125.288 74.1361V78.3658H125.289Z" fill="white"/>
<path d="M131.251 78.3659L130.977 77.4622H130.93C130.618 77.858 130.304 78.1264 129.988 78.2697C129.673 78.413 129.266 78.4841 128.771 78.4841C128.135 78.4841 127.638 78.3118 127.281 77.9672C126.925 77.6225 126.747 77.1356 126.747 76.5055C126.747 75.8363 126.995 75.3314 127.49 74.9908C127.985 74.6501 128.74 74.4648 129.755 74.4327L130.872 74.3977V74.0511C130.872 73.6363 130.774 73.3257 130.581 73.1204C130.389 72.915 130.09 72.8118 129.685 72.8118C129.353 72.8118 129.036 72.8609 128.731 72.9581C128.427 73.0552 128.134 73.1715 127.854 73.3047L127.409 72.3189C127.761 72.1346 128.144 71.9953 128.562 71.8991C128.979 71.803 129.372 71.7549 129.744 71.7549C130.566 71.7549 131.186 71.9352 131.606 72.2949C132.025 72.6545 132.236 73.2205 132.236 73.9909V78.3639H131.251V78.3659ZM129.205 77.4262C129.704 77.4262 130.103 77.2859 130.406 77.0064C130.708 76.7269 130.86 76.3342 130.86 75.8293V75.2663L130.029 75.3013C129.382 75.3244 128.91 75.4336 128.615 75.6269C128.321 75.8203 128.175 76.1168 128.175 76.5165C128.175 76.806 128.261 77.0305 128.433 77.1887C128.604 77.347 128.861 77.4262 129.205 77.4262Z" fill="white"/>
<path d="M214.497 308.159C214.497 308.922 214.222 309.52 213.672 309.955C213.122 310.39 212.363 310.606 211.397 310.606C210.43 310.606 209.638 310.456 209.021 310.154V308.828C209.412 309.012 209.826 309.157 210.265 309.263C210.703 309.369 211.112 309.421 211.491 309.421C212.045 309.421 212.453 309.316 212.717 309.104C212.98 308.893 213.112 308.61 213.112 308.253C213.112 307.932 212.991 307.66 212.75 307.437C212.508 307.215 212.009 306.951 211.252 306.645C210.472 306.328 209.922 305.966 209.603 305.559C209.283 305.152 209.123 304.662 209.123 304.091C209.123 303.375 209.377 302.812 209.884 302.4C210.391 301.989 211.071 301.784 211.926 301.784C212.745 301.784 213.561 301.965 214.371 302.324L213.927 303.469C213.166 303.149 212.488 302.988 211.891 302.988C211.439 302.988 211.095 303.088 210.862 303.285C210.628 303.482 210.51 303.744 210.51 304.068C210.51 304.292 210.557 304.482 210.651 304.64C210.745 304.799 210.899 304.949 211.113 305.089C211.328 305.229 211.714 305.416 212.271 305.647C212.9 305.91 213.36 306.154 213.652 306.381C213.945 306.607 214.16 306.863 214.296 307.15C214.433 307.436 214.497 307.772 214.497 308.159Z" fill="white"/>
<path d="M219.289 310.608C218.47 310.608 217.834 310.312 217.382 309.721H217.3C217.355 310.269 217.382 310.602 217.382 310.719V313.378H216.007V303.998H217.118C217.149 304.119 217.214 304.408 217.311 304.866H217.381C217.81 304.209 218.453 303.88 219.312 303.88C220.12 303.88 220.748 304.174 221.199 304.761C221.65 305.348 221.875 306.172 221.875 307.232C221.875 308.293 221.646 309.121 221.188 309.716C220.73 310.311 220.097 310.608 219.289 310.608ZM218.955 305.007C218.409 305.007 218.011 305.168 217.759 305.488C217.508 305.809 217.382 306.322 217.382 307.026V307.231C217.382 308.022 217.507 308.594 217.756 308.949C218.006 309.303 218.413 309.48 218.979 309.48C219.456 309.48 219.822 309.284 220.08 308.892C220.337 308.501 220.466 307.944 220.466 307.219C220.466 306.491 220.338 305.941 220.083 305.567C219.827 305.194 219.451 305.007 218.955 305.007Z" fill="white"/>
<path d="M224.847 310.491H223.472V301.357H224.847V310.491Z" fill="white"/>
<path d="M226.73 302.277C226.73 302.031 226.797 301.84 226.932 301.708C227.067 301.576 227.258 301.509 227.508 301.509C227.75 301.509 227.938 301.575 228.072 301.708C228.206 301.841 228.274 302.031 228.274 302.277C228.274 302.512 228.207 302.697 228.072 302.832C227.937 302.967 227.75 303.035 227.508 303.035C227.258 303.035 227.067 302.967 226.932 302.832C226.797 302.697 226.73 302.513 226.73 302.277ZM228.187 310.49H226.812V303.998H228.187V310.49Z" fill="white"/>
<path d="M232.563 309.492C232.899 309.492 233.234 309.439 233.57 309.334V310.372C233.418 310.438 233.221 310.495 232.982 310.54C232.742 310.585 232.493 310.607 232.236 310.607C230.933 310.607 230.282 309.918 230.282 308.541V305.043H229.398V304.433L230.346 303.928L230.814 302.554H231.663V303.998H233.506V305.043H231.663V308.518C231.663 308.851 231.746 309.096 231.911 309.254C232.077 309.413 232.295 309.492 232.563 309.492Z" fill="white"/>
</svg>
