<svg width="651" height="551" viewBox="0 0 651 551" fill="none" xmlns="http://www.w3.org/2000/svg">
<path d="M155.818 186.481L154.506 185.217L151.027 178.945L150.877 177.681L153.499 175.911L153.901 173.888L152.59 170.904L152.389 166.707L154.506 157.3L156.624 154.721L163.028 153.001L164.389 151.281L166.356 149.714L168.828 150.675L170.139 153.052L170.744 156.137L172.257 159.273L176.593 165.847L183.855 172.928L186.78 173.383L187.789 173.535L191.218 172.928L194.445 168.123L194.899 165.139L196.462 162.307L199.589 160.183L201.959 154.266L205.236 153.608L210.228 154.418L219.002 156.238L223.339 156.44L224.499 152.951L227.827 151.99L228.281 150.068L229.592 149.866L230.852 152.345L234.937 153.812L238.871 155.127L247.595 159.576L250.167 159.122L251.981 157.401L253.243 157.149L255.663 159.323L258.184 160.486L261.16 160.739L262.421 160.284L263.48 160.031L266.404 162.054H268.774L270.842 162.762L273.464 162.611L275.733 161.65L279.263 161.7L281.784 162.915L284.709 165.343L289.449 168.225L294.138 167.922L295.6 166L296.105 163.521L298.829 161.954L300.291 159.981L302.005 159.576L303.972 161.852L305.736 160.942L307.048 161.499L307.3 163.774L308.863 165.19L310.527 165.443L313.149 166L316.679 170.046L317.991 171.766L321.015 173.839L323.033 173.586L323.738 172.373L326.916 169.338L328.681 167.922L330.093 167.365L331.606 167.516L334.33 167.213L336.095 166.808L336.75 165.696L338.565 165.443L339.775 166.455L341.087 167.214L342.297 166.051L343.406 165.191L344.364 165.293L345.473 168.125L348.953 169.643L349.809 172.122L351.575 174.953L351.523 177.837L349.809 179L352.533 183.349L358.836 186.535L365.644 185.827L365.19 182.894L364.334 181.478L364.435 180.112L366.351 179.607L369.579 179.101L372.1 177.584L373.512 176.571L373.612 175.46L372.654 174.853L370.486 175.358L369.679 174.398L369.024 172.88L369.528 168.328L370.083 165.294L368.672 163.17L368.924 160.033L371.445 159.477L375.329 159.174L376.236 156.392L376.891 154.824L378.959 154.673L382.487 156.899L391.414 157.152L392.725 155.585L392.07 152.297L389.549 151.084L386.171 150.679L382.994 150.123L379.866 147.998L376.689 147.188L372.907 145.62L370.941 142.638L368.42 140.665L364.336 138.844L363.932 136.365L364.941 134.646V133.078L363.075 128.324L363.833 127.11L367.917 126.706L369.479 125.796L368.723 123.419L366.202 122.762L363.68 122.912L361.31 124.227L359.243 122.811L357.681 121.395L358.437 120.181L358.336 116.793L359.546 114.011L360.454 112.14L359.898 109.915L357.126 107.133L354.504 105.414V103.997L356.57 103.491L357.882 102.327L357.126 101.114L354.856 101.013L354.604 96.1579L353.192 95.3479L352.183 93.1219L351.88 90.6439L351.779 90.3909L353.746 89.3789L355.915 87.5079L358.789 87.3559L361.108 87.6089L363.982 85.4349L367.613 84.3729L367.512 78.1519L368.772 77.2419L374.017 79.4169L376.488 80.1759L379.816 80.3269L381.078 79.9229L381.38 78.9109L380.523 77.4439L381.079 75.8259L382.943 74.8139L386.019 75.0669L387.885 74.3589L393.684 69.0989L393.987 66.0639L394.743 64.5979L398.223 63.5359L401.097 62.6769L403.87 61.8169L406.895 62.2719L409.921 63.2839L413.651 65.3579L416.526 64.0929L420.862 62.3219L425.804 61.4629L428.224 62.8789L429.939 63.8399L431.401 62.8789L433.318 61.7159L435.183 62.5749L437.453 62.9789L441.235 64.0919L444.411 66.8729L446.832 69.3519L447.941 72.7899L448.395 75.8759L449.858 76.8869L452.732 79.5169L454.446 80.1239L457.875 81.3879L460.447 85.8389L463.523 86.5469L466.246 89.7339L468.264 91.0479L470.18 96.4089L473.055 97.9759H476.079L477.996 96.6619L480.567 97.3699V101.72L480.82 107.485L479.357 110.57L478.753 112.846L481.324 115.274L481.475 119.169L479.205 121.596L479.761 124.479L483.542 126.098L485.105 128.323L485.962 130.094L489.693 132.42L494.131 135.708L499.376 139.349L501.645 140.614L503.813 138.541L507.595 140.008L509.763 142.486C509.763 142.486 512.335 145.065 512.536 145.065C512.788 145.065 515.41 145.369 515.41 145.369L518.436 147.14L521.058 146.432L525.546 149.77L527.714 151.034L529.025 152.602L528.319 154.675L526.302 159.733L524.89 162.514L521.814 164.436L522.218 166.51L524.79 169.948L532.907 172.427L533.311 175.157L532.907 177.939L528.874 179.203L522.974 179.963L521.411 181.126L522.421 184.159L524.337 186.435H528.067L530.942 188.205L535.43 188.965L537.195 192L539.766 195.943L550.608 195.994L553.936 197.309H556.105L560.441 198.422L564.375 200.849L565.384 205.097L567.955 207.424L569.568 210.458L572.997 212.025L574.713 212.177L575.974 211.014L580.159 200.393L582.479 197.106L583.386 194.526L584.697 192.959L589.034 191.897L589.942 189.318L592.212 187.751L594.633 188.357L601.54 194.73L604.97 196.196L611.172 198.371L614.601 200.697L615.307 203.024L613.694 205.35L609.408 205.603L606.533 205.199L601.743 203.782L600.634 204.693L600.18 208.941L598.113 209.801L595.341 210.104L594.635 212.734L597.055 215.364L599.223 216.932L600.534 221.383L604.316 225.479L607.745 228.261L609.662 231.194L609.208 234.128L607.646 236.909L605.729 240.854L606.133 243.888L606.586 246.67L602.805 250.108L599.477 253.547L595.039 254.406L593.728 267L592.82 272.36L594.383 274.99L594.987 279.593L595.996 283.537L597.258 284.802L599.678 286.218L602.401 289.303L603.712 297.294L605.478 301.795C605.478 301.795 611.882 308.471 611.58 307.713C611.277 306.954 614.506 308.572 614.506 308.572L617.782 310.443L620.959 311.657L628.372 319.446L630.39 322.884L635.634 324.958L636.946 325.919L637.853 331.836L636.996 334.921L633.769 338.663L631.751 343.165L628.17 347.514L627.162 350.093L624.943 353.886L621.312 357.782L618.841 358.085L614.907 356.77L612.89 356.822L610.872 359.452H608.099L606.94 361.524L605.477 362.537L603.763 363.599L605.225 366.229L607.393 370.579L606.334 378.014L605.225 383.526C605.225 383.526 605.931 386.865 605.931 387.118C605.931 387.371 611.982 392.58 611.982 392.58L612.688 394.755L611.428 397.233L610.974 403.202L606.385 405.124L606.787 406.69L605.527 409.827L602.552 410.383L601.744 412.405L603.408 413.113L607.594 417.464L612.585 423.279L616.115 427.174L619.092 429.652L622.419 431.828L626.605 432.384L630.135 433.851L633.513 434.205L636.034 435.823L637.647 436.835L638.555 440.628L640.925 446.545L643.043 450.692L643.598 454.434L645.211 456.103L647.984 458.025L649.749 460.402L650.002 462.578L648.69 466.219L646.622 468.04L645.766 470.265L646.926 473.957L647.581 477.851L646.32 483.212L647.278 485.64L646.925 488.674L647.429 493.985L646.723 495.047L642.941 496.817L636.285 497.474L634.873 499.093L634.168 501.267L635.327 509.411L635.932 513.507L634.47 516.036L631.343 513.76L629.325 512.749L627.965 513.305L626.955 516.592L624.636 517.756L623.023 517.351L621.409 517.25L619.847 517.351L618.28 518L614.801 519.163L610.867 518.657L607.388 518.808L602.901 515.773L599.774 515.925L597.656 516.582L592.815 520.729L590.193 519.87L588.379 519.565L584.949 521.437L583.084 521.69L578.041 524.421L577.89 527.657L575.066 532.007L571.788 535.244V538.733L569.923 540.503L565.737 540.149L564.376 539.846L562.358 542.627L560.694 543.184L558.223 545.46L555.652 546.016L553.585 544.499L551.113 544.549L550.105 545.51L547.735 545.763L547.131 545.257L545.719 545.055L539.97 549.406L537.398 549.556L534.423 548.242L530.843 548.445L527.212 550.264L525.397 550.315L525.195 547.737L524.136 546.269L522.874 543.892L521.109 540.454L519.849 538.48L516.722 537.014L514.956 536.913L512.032 537.975L509.662 540.048L509.359 541.919L509.863 544.094L506.485 543.841L502.904 546.168L500.334 546.775L498.82 545.611L500.534 543.791L501.745 541.312L501.442 534.13L500.787 530.692L500.132 528.669L498.317 526.191L496.502 524.067L494.132 523.409L493.477 522.448L491.863 522.246L490.148 523.662L490.249 527.506L489.291 529.024L488.989 531.451L487.628 531.199L486.014 527.658L484.3 523.865L481.174 519.212L480.164 515.066L479.66 511.526L479.912 509.402L481.475 506.671L482.231 502.928L480.971 499.641L476.18 495.19L475.12 492.56L475.626 490.133L480.214 488.413L480.415 486.34L479.104 482.902L478.701 473.545L478.6 471.219L481.172 468.387L481.12 464.796L480.264 462.166L481.424 459.587L481.877 456.603L484.298 451.849L483.49 448.207L481.019 442.644L480.414 436.272L475.171 424.943L469.17 421.15L464.178 418.773L460.396 418.875L457.421 415.082L455.303 412.806L455.151 408.507L452.327 404.562L449.303 400.921L446.126 398.442C446.126 398.442 444.915 398.138 444.764 398.138C444.613 398.138 442.899 397.988 442.899 397.988L441.739 400.262L440.428 402.083L437.1 401.679L433.116 404.308L428.377 403.803L424.745 400.667L423.787 397.48L424.595 396.772L423.889 393.081L421.871 389.996L418.946 390.046L416.677 392.98L415.164 395.408L414.66 400.87L411.734 403.247L411.584 405.422L409.768 407.9L408.508 410.732L406.844 412.453C406.844 412.453 403.868 415.336 403.919 415.589C403.969 415.842 401.649 419.735 401.649 419.735L400.792 419.937L398.068 421.859L397.666 424.743L396.404 424.893L395.144 426.614L394.035 426.765L391.161 425.854L387.983 425.804L385.613 427.018L384.352 425.653L382.083 424.641L381.125 423.327L381.527 421.051L381.981 419.533L380.973 418.674L379.964 419.432L378.904 419.331L377.998 417.662L377.292 417.51L376.787 418.724L377.493 420.14L377.846 423.175L379.762 424.945L379.863 428.335L381.225 429.7L384.402 430.206L385.561 431.065L385.814 432.279L387.175 433.846L388.335 435.667L390.201 437.589L392.873 438.55L395.949 441.078L398.066 442.545L399.58 443.051H399.631L399.529 451.042L399.226 453.772V457.969L400.588 461.612L398.974 462.674L398.268 462.269L397.007 460.853L394.385 459.943L393.024 459.286L391.965 458.325L391.107 457.415L390.048 458.426L388.889 458.224L385.208 455.19L384.048 453.117L383.644 448.717L383.04 446.593L382.232 445.126L380.014 444.267L378.854 443.913L378.4 441.686L377.442 439.158L375.526 437.844L374.417 437.894L370.987 434.86L368.366 433.14L365.542 430.46L364.482 428.233L362.92 425.958L362.164 425.148L361.104 425.908L360.196 425.958L359.187 425.352L358.179 426.11L357.019 426.162L354.397 423.835L352.128 419.992L351.825 418.677L350.917 417.261L349.657 416.654L347.993 417.513L345.673 416.908L342.294 416.503L341.588 414.379L341.841 412.255L342.95 412.052L346.329 414.025L348.598 414.835L350.917 414.683L352.329 413.52L351.875 413.217L351.119 411.698L350.413 409.424L351.169 408.26L352.178 407.957L353.54 409.524L354.851 410.889L355.859 410.434L356.464 409.372L356.01 408.462L355.153 406.488L354.145 405.932L351.724 405.628L350.868 404.465L349.658 404.516L347.236 406.336L345.219 406.234L343.958 407.65L345.723 408.865L347.741 409.269L347.136 410.483L344.161 409.977L341.035 409.218L339.269 408.915L337.958 409.117L337.806 410.734L338.866 412.555L336.698 411.341L334.024 408.408L333.118 405.374L332.562 401.53L330.646 396.826L328.175 395.41L326.46 394.551L323.889 394.905L323.687 395.967L321.821 396.725L320.813 396.068L320.209 394.956L318.897 393.995L316.931 393.338L314.662 390.859L312.09 389.545L310.728 388.331C310.728 388.331 309.216 385.448 309.166 385.347C309.116 385.246 308.41 384.487 308.41 384.487L306.896 383.729L305.383 383.325L304.778 382.363L304.022 380.947L302.105 379.227L299.081 378.519L296.459 377.154L294.391 372.704L293.433 370.378L291.113 369.215L288.038 369.112L287.131 368.507L285.971 368.102L285.063 367.748L282.592 369.417L280.979 370.276L280.374 371.135L275.382 368.607L275.231 367.04L275.333 366.938L275.937 366.129L278.357 365.522L281.635 362.437L281.837 359.503L280.122 355.103L278.66 352.524L276.692 351.867L274.02 349.035L272.305 347.417L268.624 346.86L264.69 345.495L263.278 343.522L262.32 339.981L258.791 338.262L257.833 335.278L255.009 332.497L253.647 330.221L253.546 325.771L254.353 322.433L254 318.235L250.117 315.252L246.486 315.353L245.023 313.482L243.006 313.634L241.443 312.37L240.737 310.396L238.77 308.98L236.804 308.07L236.148 307.211L235.846 303.873L233.98 301.243L232.367 299.119L229.291 296.741L228.636 295.376L225.913 294.314L224.249 291.988L221.071 288.802L218.752 287.335L217.189 285.665L216.534 283.39L214.113 278.94L211.592 276.21L210.13 273.983L207.962 273.528L207.76 273.478L207.911 272.668L205.138 270.493L204.432 268.116L198.582 265.486L195.606 262.503L192.582 258.356L190.311 255.22L186.581 251.022L184.463 247.583L182.496 240.907L182.445 232.36L180.832 232.006L178.36 231.499L176.495 229.427V228.466L177.906 227.505L178.058 225.381L178.865 223.863L178.966 219.717L174.983 217.49L173.118 215.568L171.504 215.063L171.202 213.748L172.764 211.018L172.613 206.314L169.738 204.595L167.822 201.66L166.36 200.598L165.654 199.283L162.327 199.233L159.301 199.84L156.578 196.956L152.998 191.949L152.796 188.713L154.561 188.005L155.369 186.589L155.818 186.481Z" fill="#F15A45"/>
<path d="M392.218 152.345L392.873 155.633L391.561 157.2L382.636 156.947L379.106 154.721L377.039 154.873L376.384 156.44L375.476 159.272L371.644 159.577L369.072 160.182L368.82 163.267L370.232 165.442L369.677 168.477L369.173 173.028L367.257 172.423L366.651 170.349L366.147 168.023L361.306 163.673L360.399 160.639L359.188 157.503L356.87 154.165L356.618 151.484L357.07 144.708L356.516 142.634L354.045 141.268L350.918 140.813L346.984 140.308L343.555 139.094L341.538 137.475L340.63 135.351L341.992 133.531L344.563 131.76L347.034 130.597L349.151 128.119L350.261 125.337L349.504 120.937L348.042 119.572L343.655 119.421L340.579 118.359L340.075 116.437L338.309 115.982L336.645 114.06L335.233 110.975L331.299 107.637L328.324 107.435L323.584 105.867L322.776 104.451L322.878 104.097L324.189 104.451L327.568 104.148L329.686 102.074L334.476 100.203L336.897 94.3881L339.569 93.2751L341.84 90.6961H345.823L349.504 91.5551L351.723 90.3921L351.874 90.6451L352.177 93.1241L353.186 95.3501L354.547 96.1591L354.799 101.014L357.119 101.065L357.825 102.33L356.513 103.492L354.496 103.947V105.363L357.118 107.084L359.89 109.916L360.446 112.091L359.589 114.013L358.328 116.794L358.429 120.183L357.673 121.397L359.235 122.813L361.302 124.229L363.672 122.915L366.194 122.713L368.764 123.369L369.47 125.798L367.908 126.656L363.824 127.112L363.118 128.325L364.982 133.079V134.647L363.974 136.367L364.377 138.846L368.512 140.667L371.034 142.639L373 145.623L376.782 147.14L380.01 148L383.136 150.124L386.313 150.68L389.691 151.136L392.218 152.345Z" fill="#6B97CF"/>
<path d="M373.762 175.608L373.61 176.721L372.199 177.783L369.678 179.251L366.451 179.756L364.585 180.313L364.434 181.678L365.291 183.094L365.795 186.028L358.987 186.787L352.683 183.6L349.96 179.251L351.675 178.087L351.725 175.255L349.96 172.423L349.103 169.944L345.574 168.427L344.514 165.645L343.506 165.494L342.446 166.353L341.235 167.516L339.924 166.758L338.714 165.746L336.848 165.947L336.244 167.06L334.478 167.465L331.706 167.768L330.192 167.667L328.781 168.223L327.015 169.589L323.838 172.674L323.132 173.888L321.115 174.141L318.089 172.016L316.728 170.297L313.199 166.251L310.577 165.694L308.963 165.441L307.35 164.025L307.097 161.75L305.786 161.143L304.021 162.053L302.055 159.777L300.34 160.131L298.878 162.104L296.154 163.722L295.65 166.201L294.187 168.072L289.499 168.426L284.708 165.543L281.783 163.114L279.262 161.9L275.732 161.85L273.463 162.811L270.841 162.963L268.723 162.255H266.403L263.478 160.181L262.419 160.434L261.107 160.889L258.132 160.636L255.611 159.523L253.19 157.349L251.93 157.602L250.115 159.271L250.972 155.327L255.107 152.19L255.056 149.51L258.838 146.779L260.805 144.604L258.536 142.076L255.762 136.918L256.014 133.983L258.939 130.645L260.705 127.41L259.191 125.031L253.795 124.375L251.224 124.628L248.097 126.095L246.535 127.005L243.005 128.977L240.029 130.292L239.828 135.046L238.921 137.524L238.467 140.154L234.685 146.223L231.104 145.97L228.129 144.504L225.104 145.01L221.473 144.807L220.313 142.329L216.128 140.558L214.01 137.018L211.741 136.664L207.706 139.191L201.15 135.703L198.679 136.814L194.595 136.664L186.526 131.505L185.115 129.431L182.342 127.813L178.56 129.534L169.787 131.203L165.398 131.1L161.919 126.397L157.229 126.448L155.464 128.521L152.842 128.572L151.733 131.253L149.766 131.354L148.859 130.545L147.598 130.393L145.429 133.478L143.765 137.878L141.951 138.484L139.681 142.076L138.773 146.02L136.807 150.066L135.596 151.634L131.713 152.14L131.764 154.769L132.319 156.792L130.402 158.714L125.209 160.08L122.335 161.799L122.738 164.126L125.309 165.491L127.327 168.121L129.344 172.117L129.748 173.734L131.412 176.111L128.688 181.422L128.335 183.444L128.839 186.681L131.007 188.805L132.722 194.318L132.621 198.163L132.57 202.461L133.024 207.165L134.486 213.284L133.882 220.263L132.117 220.516L130.099 221.831L131.208 223.044L135.242 225.523L138.317 226.635L141.645 229.467L143.562 231.895L144.823 235.688L144.469 238.217L143.965 243.932L144.066 247.119L143.411 247.067L142.15 246.917L140.637 245.298L139.528 244.793L138.823 244.388L138.721 241.809L137.057 240.19L136.048 239.684L134.485 239.229L133.426 238.167L132.064 237.813L129.04 234.728L127.426 234.172L125.56 233.717L124.401 233.16L122.838 232.452L121.376 231.087L120.367 230.632L120.013 229.671L117.845 227.648L117.442 226.687L116.433 225.575L115.829 224.613L115.375 224.057L114.921 223.147L111.795 220.011L110.786 219.505L108.819 217.432L108.314 216.471L107.255 215.409L106.802 214.447L103.726 211.311L103.221 210.35L102.162 209.288L101.709 208.327L100.7 207.417L98.6819 203.319L97.0689 200.639L96.4139 198.869L96.9689 197.401L96.7159 196.239L95.9089 194.518L96.0599 186.629L96.3629 185.11L98.1279 178.434L97.6739 177.423L96.6149 174.388L96.0599 172.366L95.1529 168.877L94.6989 168.371L93.1359 165.387L90.6149 162.858L85.2189 159.925L84.4119 159.672L84.1089 159.065L83.8569 157.498L83.1509 157.144L82.5459 155.526L81.5379 155.071H80.2769L78.4109 153.149L78.3099 152.493L75.7889 150.064L75.7379 149.002L75.1829 148.496L75.7379 147.99L75.8889 146.523L75.3849 145.917H74.7299L73.5699 147.131L72.6119 147.181L71.5519 146.777L68.8289 143.944L63.6349 142.023L63.0799 141.315L61.3149 140.505L58.6929 140.758L56.1219 143.388L55.7179 146.878L54.2559 150.316L52.0369 158.56L51.6839 159.672L50.7249 160.127L50.0199 159.672L49.1119 160.785V163.565L48.0029 164.123L46.8429 167.611L47.1459 169.281L47.9529 171.052L48.1549 173.783L47.1969 174.743L45.6839 175.3L43.9179 175.401L43.0109 176.211L42.0529 176.312L41.9519 174.188L42.5559 173.834L42.6069 172.671L41.0939 170.85L41.0429 166.501L40.4379 166.147L38.8759 168.12L38.9259 171.306L40.4389 172.621L40.3889 174.796L39.4309 176.11L39.5319 178.436L37.9189 179.702L37.6659 180.813H35.9009L35.6999 180.308L35.0949 180.157L34.2879 180.813L35.3969 182.281L35.2959 185.67L34.9419 186.276L35.0929 188.906H32.3199L31.5129 187.844L30.3029 188.047L30.4529 190.424L31.0079 190.929L30.4039 192.042H29.5469L28.9419 190.323L27.1769 188.3L26.9249 186.934L22.8399 183.647L22.4869 178.54L21.9319 175.96L21.2759 175.556L21.3269 174.342L20.0159 172.926L19.5619 171.813L18.4529 171.51L15.1249 166.655L14.4689 165.39L12.4519 164.935L12.1489 162.66L11.8969 161.244L11.3419 161.092L10.9879 159.98L13.0059 159.17L16.7879 159.221L17.1909 158.412L16.4849 157.552L10.5349 157.603L10.3329 155.328L9.62694 154.366V152.8L10.2319 152.193L10.4339 148.198L9.12194 147.136L9.92894 145.568L9.32494 143.697L10.8379 142.383L7.45894 140.864V137.831L5.74394 129.232L4.53394 125.794L5.64294 124.326L7.20594 124.731L10.8369 127.057L12.2479 128.069L14.6689 129.131L16.0299 130.041L17.8449 129.434L19.8629 128.625L23.0399 128.17L24.7039 129.536L25.7629 130.647L27.8299 131.66L30.1499 131.81L32.3689 129.231L34.1339 129.333L35.5459 130.395L37.0079 128.575L36.6549 126.855L35.2429 125.743L35.1419 123.972L37.3609 123.72L40.1839 124.883L42.0499 126.805L44.8229 127.31L46.2849 128.17L47.7979 127.412L49.7649 127.866L51.6819 126.905L52.6899 125.135L54.5049 126.652L56.9759 127.664L58.6909 128.27L60.4559 127.613L61.7679 127.512L63.6839 125.286L65.4489 125.135L69.7859 122.353L69.9369 118.762L70.6939 116.486L72.8619 115.677L74.3749 112.896L75.3329 110.417L77.4509 111.429L77.8039 112.491L76.8969 113.503L77.0989 115.021L80.3259 118.106L82.0919 118.561L82.6959 119.825L83.1499 121.04L82.4949 122.102L83.0499 123.822L84.4609 123.569L87.5369 125.997L88.6969 126.25L90.9669 130.094L91.6219 130.6L94.7479 129.538L96.7659 128.476L96.9169 125.138L97.9259 124.126L99.8419 125.289L101.304 127.059L103.926 128.071L106.197 127.667L108.113 129.032L109.221 131.208L112.6 133.988L113.86 134.191L115.172 133.129L116.181 133.635L117.19 133.533L118.803 131.156L120.518 130.55L122.032 131.106L124.098 131.865L125.813 129.286L127.023 128.578L126.468 127.313L123.997 126.049L121.979 123.62L121.829 119.171L120.719 117.856L121.224 116.844L122.434 116.642L122.788 114.872L125.965 113.81L127.982 114.467L129.042 113.202L126.974 110.624L125.663 110.877L126.42 108.701L125.663 107.539L124.351 108.195L124.149 109.864L123.495 110.421L122.033 109.511L119.209 106.78L119.309 105.971L120.671 104.706L124.554 102.733L128.992 100.407L131.109 100.205H132.825L133.227 99.6478L134.085 96.9668L134.841 96.8658L136.102 97.4218L137.362 97.3718L138.068 95.4998H138.876L140.237 94.8938L141.598 95.3998L142.96 96.6648L144.422 97.8278L145.984 96.2598L147.296 96.0578L147.498 95.4008L148.859 95.6538V94.6418L147.75 93.3278V91.8608L146.942 91.0508L146.892 89.7858L147.648 89.1288L148.708 88.5718L149.061 87.4088V84.1218L148.457 80.5818L150.322 76.4848L147.701 74.6138L145.784 74.8158L145.079 73.2478L144.171 73.5008L143.263 71.9838L142.255 70.2128L142.608 67.9378L142.154 66.9768L143.061 66.5718L142.708 65.3078L144.927 63.8918L145.431 60.6548L149.365 60.1998L152.643 61.9708L153.903 61.4648L154.913 59.6438L155.063 58.4808L154.508 56.9638L156.778 56.2048L159.4 56.1028L162.072 54.6358L164.796 54.0798L166.813 52.0568L168.377 52.8668L168.981 51.9058L170.443 49.8828L172.864 49.1748L171.805 46.5958L171.201 45.6348L171.653 44.5228L173.469 44.7248L174.679 45.1288L177.2 43.7638L178.663 44.8258L180.225 46.2928L182.746 45.1298L183.35 46.2418L187.334 46.1408L187.384 44.4208L185.72 42.6008L183.653 36.4298L183.552 35.1158L185.267 33.5978L186.88 33.4968L187.435 33.9008L188.645 32.7888L190.965 30.2598L192.024 30.0068L192.881 30.6648L194.545 32.1818L195.907 32.8388L196.359 33.4458L197.873 33.5468L200.696 35.4188L203.066 36.0758L206.698 37.2388L209.169 38.5538L215.674 44.7748L218.548 46.7468L222.129 47.9098L224.448 50.5398L225.961 55.2438L227.373 57.5698L230.55 60.3008L237.761 64.9028L241.291 67.1288L245.728 71.7818L248.653 75.4728L251.477 80.8338L255.663 86.2448L263.226 86.4978L266.202 85.7898L268.571 86.3968L271.296 87.5598L275.53 95.2468L278.91 95.4998L281.885 96.9168L285.012 99.0908L288.541 100.508L292.626 101.064L296.609 100.052L302.661 101.469L305.938 102.632L308.762 101.216L314.964 102.075L322.881 104.098L322.779 104.452L323.587 105.868L328.327 107.435L331.302 107.638L335.236 110.976L336.647 114.061L338.312 115.983L340.078 116.438L340.582 118.36L343.658 119.422L348.045 119.572L349.507 120.938L350.264 125.338L349.154 128.12L347.037 130.598L344.566 131.761L341.995 133.531L340.633 135.352L341.541 137.476L343.558 139.094L346.987 140.308L350.921 140.814L354.048 141.269L356.519 142.634L357.073 144.708L356.62 151.484L356.873 154.166L359.191 157.503L360.402 160.639L361.309 163.674L366.15 168.023L366.654 170.349L367.26 172.423L369.176 173.029L369.78 174.547L370.588 175.508L372.756 175.002L373.762 175.608Z" fill="#FEBE1C"/>
<path d="M338.967 412.552L339.421 413.968L339.319 414.778L338.665 415.182L336.899 414.171L334.024 411.642L333.016 411.44L332.259 410.581L331.906 409.367L330.343 408.102L328.679 407.191L325.907 405.321L323.587 403.348L321.519 401.781L320.159 400.82L319.251 399.252L318.545 397.027L316.982 395.459L312.495 393.486L311.033 393.132L308.965 392.172L308.461 390.503L307.401 389.845L306.242 389.39L305.434 388.429L302.309 388.024L301.3 386.811L300.342 386.457L298.476 384.585L297.368 383.827L295.754 382.259L295.452 380.742L295.956 380.437L295.351 379.881H293.789L292.579 378.414L290.965 377.959L289.553 378.616L288.797 379.02L287.435 379.072L286.376 377.959L285.568 377.352L284.761 376.948L284.358 377.605L285.77 379.426L286.426 380.033L287.03 381.144L286.324 382.004L285.467 381.953L284.308 380.133L283.703 379.324L280.174 377.756L275.987 376.744L273.516 375.783L269.079 374.165L265.599 373.255L264.995 372.698L264.541 371.13L264.037 369.512L263.079 368.551L259.499 368.602L256.12 366.933L254.405 365.668L252.892 365.011L251.426 364L247.392 362.433L245.476 362.129L243.862 362.685L240.03 361.119L236.451 359.5L235.543 359.045L235.441 357.174L234.987 356.567L235.341 356.213L237.005 356.162L239.476 357.831L243.561 358.337L250.52 358.843L255.209 359.804L256.722 360.309L259.798 361.877L260.807 362.636L263.126 363.9L264.437 364.76L264.841 365.468L265.547 366.227L265.95 367.086L267.109 367.692L268.672 367.794L269.276 368.3L270.487 367.744H271.294L272.051 368.147L272.253 368.907L272.807 369.261L273.614 369.868L278.002 372.043L278.759 372.296L281.33 373.408L282.541 374.52L283.549 374.975L284.405 374.52L281.985 372.295L281.229 371.991L280.321 370.979L280.926 370.12L282.54 369.26L285.011 367.591L285.918 367.945L287.078 368.349L287.985 368.956L291.061 369.057L293.38 370.22L294.338 372.546L296.406 376.997L299.027 378.363L302.053 379.071L303.969 380.79L304.725 382.206L305.331 383.167L306.843 383.572L308.356 384.33C308.356 384.33 309.062 385.089 309.114 385.189C309.164 385.291 310.676 388.173 310.676 388.173L312.037 389.387L314.608 390.702L316.878 393.18L318.845 393.837L320.157 394.798L320.761 395.911L321.77 396.569L323.635 395.809L323.837 394.747L326.409 394.393L328.123 395.253L330.594 396.669L332.51 401.372L333.065 405.216L333.973 408.25L336.645 411.184L338.967 412.552Z" fill="#FEBE1C"/>
<path d="M301.399 388.985V389.794L298.424 389.743L298.273 388.731L300.039 388.225L300.341 388.124L301.399 388.985Z" fill="#FEBE1C"/>
<path d="M297.567 385.748L297.769 386.81L296.105 387.214L295.298 386.405L293.533 385.645V384.786L292.676 383.825L292.625 383.168L293.835 383.117L294.34 383.421L295.399 383.825L297.567 385.748Z" fill="#FEBE1C"/>
<path d="M287.079 388.528L286.271 389.489L285.515 389.236H282.641L281.279 388.022L278.859 387.668L275.984 386.353L273.11 386L269.984 385.241L267.311 384.179L263.428 384.229L262.42 383.32L259.747 382.813L258.587 382.358L256.974 380.588L256.822 379.627L259.244 379.071L260.504 378.919L264.034 380.183L267.563 381.449L272.354 383.268L274.925 383.977L277.295 384.836L284.658 386.657L287.079 388.528Z" fill="#FEBE1C"/>
<path d="M280.372 354.998L282.087 359.448L281.885 362.382L278.607 365.467L276.187 366.074L275.583 366.883L275.229 366.529L274.12 366.276L272.053 365.061L269.935 364.505L268.827 363.645L267.363 361.015L266.759 360.359L267.516 359.904L268.828 359.852L269.382 359.397L269.483 358.487L268.223 357.273L267.012 357.83L265.197 357.678L263.886 356.212L263.281 356.869L261.718 356.767L261.214 355.857L259.902 354.44L259.046 353.935L256.826 353.581V350.698L255.869 350.243L253.802 348.371L252.793 347.765L251.684 347.208L251.28 346.804L249.616 345.742L248.256 345.792L247.751 345.286L246.289 343.768L245.784 343.718L244.725 342.605L243.666 342.657L242.808 342.201L242.556 341.493L240.64 339.571L238.27 337.345L238.068 336.637L237.715 336.182V335.576L237.161 335.07L237.059 334.513L235.092 332.591L234.235 332.085L232.016 330.062L231.613 329.051L229.646 326.927L229.444 326.321L228.385 325.511L227.226 324.55L222.537 323.892L222.134 323.589L219.31 322.527L216.94 322.324L215.981 321.869L215.074 320.453L213.606 320L212.194 319.949L211.036 319.494L208.262 318.533L205.489 317.421L202.212 314.285H201L200.294 313.779L198.125 314.841L195.957 314.892L194.848 314.437L194.244 313.831L194.546 312.819L197.269 312.313L197.925 311.857L197.168 310.948L194.546 310.391L193.588 309.835L192.378 310.239L181.839 312.717H175.736L175.283 313.223L176.04 313.88L177.704 314.234L178.258 314.891L177.199 315.448L174.174 316.005L170.442 314.943L168.173 312.92L167.013 312.818L165.954 312.11L166.005 310.795L166.609 310.34L166.256 309.986L164.995 309.329L163.432 307.761L164.492 306.749L163.684 305.939L162.978 304.422L163.08 301.236L163.987 300.376L163.584 299.314L165.097 298.91L164.996 296.482L163.08 296.229L161.466 294.662L160.508 294.308L160.105 292.69L161.92 292.639L162.524 292.083L161.112 290.262L160.962 286.57L161.566 285.206L163.584 284.093L166.912 283.84L167.921 284.902L168.728 284.801L169.536 284.194L169.182 282.98L168.072 282.475L168.577 281.969L167.972 281.463L168.124 280.906L171.502 281.665L180.176 286.217L182.697 286.521L184.058 285.357L185.975 283.587L191.875 280.906L198.53 280.552L202.261 277.214L204.278 276.607L208.01 274.079L208.161 273.572H208.312L210.48 274.028L211.942 276.254L214.464 278.984L216.884 283.434L217.54 285.71L219.102 287.43L221.422 288.897L224.598 292.084L226.212 294.409L228.935 295.471L229.591 296.837L232.667 299.163L234.28 301.287L236.145 303.917L236.449 307.205L237.103 308.063L239.07 308.974L241.038 310.39L241.744 312.363L243.356 313.628L245.374 313.476L246.837 315.347L250.467 315.246L254.35 318.229L254.704 322.427L253.896 325.714L253.998 330.215L255.309 332.491L258.133 335.272L259.091 338.206L262.621 339.976L263.579 343.516L264.991 345.49L268.925 346.854L272.606 347.412L274.32 348.978L276.994 351.811L278.96 352.468L280.372 354.998Z" fill="#FEBE1C"/>
<path d="M258.538 142.078L260.807 144.605L258.84 146.78L255.058 149.511L255.109 152.192L250.974 155.328L250.117 159.272L247.596 159.727L238.872 155.277L234.938 153.963L230.853 152.547L229.643 150.018L228.332 150.22L227.828 152.142L224.5 153.103L223.34 156.593L219.003 156.39L210.229 154.57L205.237 153.761L201.96 154.418L199.59 160.335L196.463 162.459L194.9 165.292L194.396 168.225L191.219 173.03L187.79 173.636L186.781 173.485L183.856 173.03L176.594 165.949L172.258 159.375L170.745 156.188L170.14 153.103L168.879 150.726L166.358 149.765L164.391 151.333L163.03 153.052L156.576 154.772L154.508 157.301L152.391 166.708L152.592 170.904L153.903 173.888L153.501 175.911L150.879 177.681L151.029 178.946L154.508 185.217L155.82 186.481L155.719 186.532L154.912 187.948L153.196 188.656L153.398 191.893L156.978 196.9L159.702 199.834L162.777 199.227L166.106 199.278L166.761 200.593L168.223 201.655L170.14 204.639L173.014 206.308L173.165 211.011L171.602 213.741L171.905 215.056L173.518 215.612L175.384 217.535L179.317 219.71L179.217 223.856L178.41 225.374L178.258 227.447L176.846 228.459V229.521L178.712 231.594L181.183 232.1L182.797 232.454L182.847 241.052L184.763 247.677L186.881 251.167L190.663 255.313L192.933 258.448L195.958 262.595L198.933 265.579L204.784 268.209L205.489 270.586L208.313 272.761L208.162 273.57L208.011 274.077L204.28 276.605L202.262 277.212L198.531 280.55L191.876 280.904L185.976 283.585L184.059 285.355L182.698 286.518L180.177 286.215L171.503 281.663L168.125 280.904L164.544 280.094L159.451 278.172L155.769 272.609L153.853 267.755L152.592 266.137L148.81 265.783L146.996 266.289L139.28 266.238L135.649 264.013L132.624 262.546L131.717 257.792L132.12 253.847L137.313 252.178L142.255 251.672L142.859 250.256L143.667 248.284L143.363 247.322L143.415 247.069L144.069 247.121L143.968 243.933L144.473 238.218L144.827 235.69L143.565 231.897L141.649 229.469L138.32 226.637L135.245 225.524L131.211 223.046L130.102 221.832L132.12 220.517L133.885 220.264L134.489 213.285L133.027 207.165L132.573 202.462L132.624 198.163L132.725 194.319L131.011 188.806L128.842 186.682L128.338 183.445L128.691 181.423L131.415 176.112L129.751 173.735L129.348 172.117L127.33 168.122L125.312 165.492L122.741 164.126L122.338 161.8L125.213 160.08L130.405 158.715L132.322 156.793L131.767 154.77L131.717 152.14L135.599 151.634L136.81 150.067L138.776 146.021L139.684 142.077L141.954 138.485L143.769 137.879L145.433 133.479L147.601 130.394L148.862 130.546L149.769 131.355L151.736 131.254L152.845 128.572L155.468 128.522L157.232 126.448L161.922 126.398L165.401 131.101L169.789 131.203L178.562 129.534L182.344 127.814L185.117 129.432L186.528 131.506L194.597 136.664L198.681 136.815L201.152 135.703L207.709 139.192L211.743 136.664L214.012 137.018L216.13 140.559L220.315 142.33L221.475 144.808L225.106 145.01L228.131 144.504L231.107 145.971L234.687 146.224L238.469 140.155L238.923 137.525L239.83 135.047L240.031 130.293L243.007 128.978L246.537 127.005L248.099 126.095L251.226 124.628L253.798 124.376L259.193 125.032L260.707 127.41L258.941 130.646L256.016 133.984L255.764 136.918L258.538 142.078Z" fill="#6B97CF"/>
<path d="M247.494 367.136L247.644 368.552L240.887 368.501L239.325 368.198L237.559 367.691L234.181 367.59L231.962 368.298L229.188 368.905L225.912 368.803L224.046 368.197L219.507 367.944L216.986 367.489L214.969 366.882L213.002 365.668L210.683 365.011L211.439 364.353L212.247 363.747L214.516 363.444L214.768 362.887L213.508 362.179L210.331 360.865L209.726 360.409L211.541 359.852L213.558 360.459L217.189 361.42L220.517 362.785L224.349 363.443L227.98 362.481L235.645 362.228L236.502 362.633L239.225 362.835L240.889 364.201L245.024 364.806L245.68 364.756L247.494 367.136Z" fill="#FEBE1C"/>
<path d="M246.737 347.867L246.888 348.929L243.762 349.991L239.425 349.232L236.45 348.928L232.214 348.979L229.188 349.283L226.768 349.232L223.541 348.778L219.759 348.322L215.624 349.03L210.479 348.423L209.067 348.12L204.328 346.299L202.16 345.895L200.949 345.541L199.134 344.428L196.764 343.973L194.142 343.164L192.226 342.253L191.822 341.292L194.444 340.989L195.806 341.495L197.824 340.534H201.909L201.959 340.584L204.228 343.164L205.892 343.265L206.8 343.012L206.598 342.203L204.329 340.332L202.766 339.876L202.917 338.764L205.085 338.511L206.144 339.371L208.313 339.826L209.977 340.332L211.187 341.04L212.397 341.898L215.877 344.882L217.237 345.54L229.341 345.641L234.434 345.945L237.359 346.502L239.527 347.058L242.805 347.715L246.737 347.867Z" fill="#FEBE1C"/>
<path d="M230.802 381.701L230.903 383.268L229.996 384.229L228.836 384.736L227.576 384.634L226.92 384.28L225.962 384.178L224.449 384.633L223.289 384.077L222.481 383.266L222.835 382.255L223.944 381.799L224.449 380.737H225.608L226.668 381.091L227.272 380.585L229.339 380.838L230.802 381.701Z" fill="#FEBE1C"/>
<path d="M226.617 330.52L227.02 333.757L226.112 334.566L220.313 334.768L216.934 335.679L216.128 336.033L215.17 335.578L203.218 335.475L202.109 335.02L199.084 331.734L198.126 331.38L196.412 330.975L196.21 330.166L197.318 329.761L197.066 328.497L196.713 327.486L197.873 326.675L196.813 325.057L195.603 323.945L195.855 323.338L197.317 323.541L201.352 324.957L206.344 325.26L208.512 325.614L213 326.018L215.673 326.675L217.186 327.232L219.658 327.738L220.666 328.142L220.515 329.002L221.473 329.609L222.431 330.317L226.617 330.52Z" fill="#FEBE1C"/>
<path d="M201.807 34.404L203.119 36.073L200.749 35.416L197.925 33.544L196.362 33.443L195.909 32.786L194.547 32.128L192.883 30.611L191.975 29.953L190.916 30.206L188.646 32.735L187.386 33.847L186.831 33.443L185.217 33.544L183.553 35.062L183.654 36.377L185.721 42.598L187.386 44.418L187.335 46.138L183.351 46.239L182.747 45.127L180.226 46.29L178.664 44.823L177.201 43.711L174.63 45.127L173.419 44.723L171.604 44.47L171.15 45.582L171.755 46.543L172.814 49.122L170.394 49.83L168.931 51.853L168.276 52.814L166.714 51.954L164.696 54.028L162.023 54.584L159.35 56.051L156.728 56.153L154.459 56.912L155.014 58.379L154.862 59.542L153.854 61.362L152.593 61.868L149.315 60.097L145.382 60.553L144.878 63.789L142.608 65.205L142.962 66.47L142.054 66.874L142.508 67.835L142.154 70.111L143.163 71.881L144.07 73.399L144.978 73.146L145.684 74.713L147.549 74.511L150.222 76.382L148.356 80.479L148.912 84.019V87.256L148.608 88.419L147.549 88.976L146.793 89.633L146.894 90.947L147.702 91.757V93.224L148.81 94.538L148.861 95.55L147.5 95.297L147.248 95.954L145.936 96.157L144.374 97.724L142.86 96.561L141.549 95.296L140.187 94.79L138.827 95.397H138.019L137.313 97.268L136.052 97.319L134.792 96.762L134.086 96.864L133.178 99.544L132.774 100.151L131.06 100.1L128.993 100.302L124.555 102.629L120.672 104.601L119.311 105.866L119.21 106.676L122.034 109.406L123.496 110.316L124.151 109.76L124.352 108.091L125.613 107.433L126.37 108.597L125.664 110.721L126.925 110.468L128.992 113.047L127.933 114.312L125.866 113.654L122.688 114.716L122.335 116.537L121.125 116.738L120.621 117.751L121.729 119.065L121.88 123.515L123.897 125.943L126.369 127.208L126.924 128.473L125.663 129.181L123.999 131.76L121.932 131.052L120.419 130.495L118.704 131.101L117.04 133.478L116.032 133.581L115.022 133.074L113.711 134.136L112.451 133.883L109.071 131.101L108.012 128.927L106.096 127.561L103.827 128.016L101.204 127.005L99.742 125.234L97.876 124.02L96.867 125.082L96.716 128.42L94.699 129.482L91.572 130.544L90.866 130.038L88.597 126.194L87.437 125.941L84.361 123.513L83 123.817L82.445 122.097L83.1 121.035L82.647 119.82L82.042 118.556L80.277 118.101L77 115.021L76.799 113.554L77.706 112.542L77.353 111.48L75.235 110.469L74.277 112.947L72.764 115.729L70.595 116.539L69.89 118.814L69.739 122.405L65.402 125.237L63.687 125.288L61.771 127.463L60.459 127.564L58.694 128.222L56.98 127.615L54.508 126.603L52.693 125.137L51.685 126.907L49.768 127.868L47.802 127.362L46.339 128.121L44.877 127.211L42.104 126.705L40.238 124.783L37.414 123.671L35.195 123.924L35.297 125.643L36.708 126.756L37.011 128.476L35.549 130.296L34.137 129.234L32.372 129.133L30.153 131.712L27.833 131.61L25.766 130.599L24.707 129.486L23.043 128.121L19.815 128.576L17.798 129.435L15.983 130.042L14.621 129.132L12.201 128.07L10.789 127.109L10.89 124.024L10.083 123.771L9.78 122.81L11.546 122.406L11.495 121.092L12.453 121.041L13.562 121.395L15.377 121.497L16.789 120.637L19.613 120.587L20.924 119.019L20.521 117.451L18.706 116.389L19.715 115.529L23.547 116.087L23.497 116.996L25.564 117.553L27.631 117.351L29.144 115.277L31.211 113.964L32.724 113.104L31.312 112.092L29.799 111.131L27.53 107.793L27.277 105.973L25.563 104.253L25.109 102.888L23.445 101.522L20.924 100.359L17.243 97.425L13.158 96.869L11.948 93.935L11.443 92.115L12.251 88.676L15.024 84.326L15.174 80.786L15.024 79.825L13.712 79.623L12.351 79.066L10.788 80.381L8.518 81.291L7.711 80.734L7.107 79.722L5.695 78.255L5.896 76.839L7.107 75.423L6.854 73.198L7.762 72.136L11.443 69.557L17.091 65.662L17.141 63.436L18.453 62.172L16.789 60.806L14.47 61.009L13.007 60.452L12 61.007L11.396 59.591L9.732 58.276L7.563 58.125L6.656 57.315C6.656 57.315 4.437 57.872 4.286 57.872C4.135 57.872 3.025 58.023 3.025 58.023L2.42 56.505L0.303001 51.751L0 50.386L4.235 47.958L4.79 46.846L3.883 45.632L4.438 44.367L7.463 43.761L9.631 42.496L10.943 41.99L12.91 40.27L13.213 39.562L13.868 37.893L17.096 36.932L19.97 37.994L20.777 36.679L21.231 34.454L21.483 32.582L22.088 30.711L25.416 30.66L26.828 31.47L28.39 31.874L29.348 30.458L31.466 31.065L32.778 30.407L34.745 30.559L37.216 32.228L39.283 33.746L41.704 34.656L43.015 33.442L47.655 34.554L49.268 37.741L50.68 39.359L51.537 38.802L53.957 38.954L55.168 39.56L56.579 39.004L58.294 38.65L60.361 40.015L64.194 39.156L66.563 38.346L69.084 40.825L71.757 41.482L72.514 40.774L73.522 40.37L75.186 44.214L76.145 45.731L77.456 44.821L77.255 41.13L78.263 39.714L82.549 38.955L85.373 35.516L86.634 33.998L92.484 33.594L92.585 31.015L94.904 26.109L96.67 24.087L99.292 24.744L99.393 23.48L100.453 23.024L101.561 21.912L103.125 24.744L104.587 22.518L107.159 20.04L109.729 21.001L110.688 19.736L112.402 20.495L114.52 19.989L117.344 21.354L119.613 21.708L122.589 20.646L130.557 20.596L133.028 21.506L133.986 24.085L136.81 23.681L139.533 21.455L139.028 19.331L142.609 17.156L143.466 18.47L144.222 17.813L145.584 17.509L147.197 15.84L149.567 16.65L153.298 16.499L156.677 14.627L160.358 14.83L165.502 17.864L167.671 18.319L168.578 19.988L170.393 20.494L170.947 18.572L169.939 16.093L168.426 15.132L167.216 11.996L168.023 6.38299L167.115 5.42199L167.671 4.05699L171.806 3.39899L173.066 1.93299L175.134 1.12299L176.798 2.13499L179.168 2.03299L182.042 0.312988L186.076 0.666988L188.245 2.23399L190.362 4.05499L190.161 6.27999L188.094 8.60699L188.951 9.76999L188.547 11.388L190.11 13.563L192.177 16.75L195.253 17.407L195.051 19.682L193.739 20.036L192.983 21.098L193.487 22.717L198.581 27.977L199.942 28.938L201.708 31.517L201.807 34.404Z" fill="#FEE875"/>
<path d="M195.302 326.98L195.049 327.688L192.679 327.487L187.788 324.907L185.064 324.402L182.946 323.389L182.19 322.175L182.241 320.506H183.4L184.257 321.062L187.081 321.467L190.056 322.934L191.872 323.389L192.476 324.402L192.83 325.26L194.544 326.424L195.302 326.98Z" fill="#FEBE1C"/>
<path d="M193.234 343.872L193.386 344.884L191.268 345.238L188.898 344.378L188.847 343.366L190.31 343.062L191.369 343.719L193.234 343.872Z" fill="#FEBE1C"/>
<path d="M192.024 314.437L192.126 315.5L191.772 316.005L182.494 315.854L182.191 314.437L185.065 314.034L184.863 312.921H186.579L188.444 313.983H190.36L190.763 314.388L192.024 314.437Z" fill="#FEBE1C"/>
<path d="M184.663 352.064V353.279L182.897 355.049L182.09 356.668L181.485 356.819L181.284 356.415L180.376 356.465L179.519 356.01L178.258 356.87L176.393 356.92L175.536 356.364L174.326 356.87L173.418 356.768L172.965 355.807L173.62 355.403L173.266 354.643L172.762 353.834L171.602 353.379L170.594 352.62L170.896 352.013L172.358 351.457L175.082 350.9L178.663 350.749L179.167 350.395H179.974L180.579 350.749L180.075 351.76L181.889 352.266L182.696 351.862L184.663 352.064Z" fill="#FEBE1C"/>
<path d="M177.956 318.584L178.208 319.494L177.904 320L174.728 319.949L174.829 319.241L176.544 318.634L177.956 318.584Z" fill="#FEBE1C"/>
<path d="M172.963 317.927L173.013 318.788L171.046 318.839L170.945 318.129L172.104 317.876L172.963 317.927Z" fill="#FEBE1C"/>
<path d="M170.039 359.449L169.987 360.967L168.928 361.928L168.727 361.523L167.567 361.472L166.912 360.815L167.516 358.489L168.928 358.438L170.039 359.449Z" fill="#FEBE1C"/>
<path d="M168.123 280.905L167.971 281.462L166.559 281.715L163.988 282.018L162.021 283.03L160.207 282.676L159.803 281.715L158.996 281.412L158.391 280.805L157.787 281.31L158.19 282.625L158.997 284.698L158.594 291.222L157.232 290.817L154.308 289.149L150.677 288.339L147.954 287.782L146.692 285.709L144.626 284.394L143.668 283.536L145.433 283.333L145.937 283.99L146.441 283.586L146.189 283.029L144.273 281.512L137.768 277.466L136.86 277.011L135.398 274.482L134.49 274.027L130.859 271.548L130 269.021L127.882 266.897L126.369 263.914L124.351 261.435L123.191 260.829L121.477 257.894L120.015 255.922L118.3 255.72L116.132 251.572L113.257 246.921L113.056 244.139L110.383 240.599L111.139 239.992L113.056 239.941L114.518 242.47L115.627 242.571L116.636 241.762L116.686 239.283L116.99 238.474L118.049 238.322L121.68 241.811L122.133 241.306L122.184 239.991L123.092 239.283L123.041 238.221L121.779 236.501L121.729 235.439H123.243L125.057 237.715L126.52 238.474L129.244 240.851L131.562 240.699L132.772 240.548L136.908 243.127L136.959 244.441L133.832 244.694V247.021L136.253 248.589H141.497L142.506 250.106L142.859 250.257L142.255 251.674L137.313 252.179L132.12 253.848L131.717 257.793L132.624 262.547L135.649 264.014L139.28 266.239L146.996 266.291L148.81 265.784L152.592 266.138L153.853 267.756L155.769 272.611L159.451 278.174L164.544 280.096L168.123 280.905Z" fill="#FEBE1C"/>
<path d="M158.793 296.838L159.095 298.152L158.339 298.556L157.835 298.455L156.574 297.089L156.321 296.381L155.868 295.876L156.472 295.016L157.228 295.167L158.086 295.673L158.793 296.838Z" fill="#FEBE1C"/>
<path d="M148.91 298.253L149.312 298.758L148.506 299.264L147.396 298.758L145.53 298.354L144.17 297.241L143.01 296.988L142.052 296.482L141.8 295.521L142.657 295.066L143.161 295.623L145.078 295.876L146.389 296.533L148.91 298.253Z" fill="#FEBE1C"/>
<path d="M144.371 287.583L144.774 288.291L143.765 288.441L142.959 288.038L141.95 287.733L141.748 286.823L140.084 285.558L139.126 284.092L139.076 283.029L139.782 282.879L140.89 282.423L141.495 283.384L142.15 284.497L144.268 286.823L144.371 287.583Z" fill="#FEBE1C"/>
<path d="M130.755 273.016L131.26 273.876L130.604 274.482L128.538 274.178L127.528 273.167L125.159 272.609L123.949 271.043L123.344 269.879L122.739 268.817L121.428 267.047L120.671 265.226L120.217 263.659L120.873 263.153L122.386 263.558L123.445 264.367L124 265.783L126.773 268.312L127.176 269.323L129.092 271.194L129.294 271.852L130.15 272.813L130.755 273.016Z" fill="#FEBE1C"/>
<path d="M130.856 287.986L130.403 288.543H129.697L129.042 288.088L127.832 287.127L126.822 286.622L126.369 286.166L125.462 285.964L123.898 284.193L123.244 283.89L120.672 281.462L121.58 280.501L122.487 281.007L123.192 281.563L124.252 281.765L128.69 286.369L129.246 286.419L130.856 287.986Z" fill="#FEBE1C"/>
<path d="M125.965 280.299L126.569 281.21L125.914 281.564L125.511 281.21L124.502 280.754L121.124 277.315L120.519 276.354L119.964 275.696L120.367 274.838L121.93 274.939L122.787 275.799L123.796 276.861L124.148 277.316L124.35 278.429L125.965 280.299Z" fill="#FEBE1C"/>
<path d="M120.873 279.744L121.579 280.502L120.671 281.463L119.259 280.148L119.108 279.542L118.301 278.783L117.595 277.821L117.645 277.012L118.604 276.86L120.671 278.834L120.873 279.744Z" fill="#FEBE1C"/>
<path d="M119.309 261.281L119.107 261.888L117.897 261.585L117.443 260.624L116.938 260.27L116.132 260.827L114.669 260.423L114.165 259.917L114.115 259.259L113.661 258.905L110.786 255.923L110.432 255.112L108.012 252.787V252.079L108.718 251.674L108.214 251.067L108.264 250.056L109.071 249.955L110.282 251.371L110.937 251.522L111.24 252.128L111.895 252.786L112.651 254.758L115.325 257.488L117.09 258.449L117.997 259.007L118.552 259.968L118.703 260.777L119.309 261.281Z" fill="#FEBE1C"/>
<path d="M118.704 233.365L118.35 234.378L117.242 234.276L116.485 233.872L115.779 232.859L116.182 231.848L117.796 232.505L118.704 233.365Z" fill="#FEBE1C"/>
<path d="M116.686 235.338L116.99 236.349H115.628L114.821 235.844H113.258L112.552 235.287L111.998 235.893L113.511 237.107L113.309 237.866L112.754 238.068L111.493 236.905L110.736 236.652L109.274 235.387L108.467 234.275L108.517 230.38L107.509 229.47L105.038 229.015L103.928 226.183C103.928 226.183 100.752 223.098 100.6 222.997C100.45 222.894 99.744 222.541 99.744 222.541L97.474 221.529L97.071 220.568L95.608 219.405L96.92 218.444L94.55 215.966L94.399 214.447L93.693 213.739L93.29 212.577L90.971 210.453L89.811 208.732L88.399 206.305L86.886 203.877L88.147 203.119L89.156 204.736L91.426 207.873L92.081 208.075L93.291 209.289L94.249 209.592L94.955 208.732H96.115L98.031 210.806L99.14 211.565L100.199 213.791L100.553 214.954L103.276 216.774L104.486 216.876L105.949 217.988L105.898 219.759L105.343 219.809L103.427 219L102.469 218.798L101.057 217.483L99.595 216.169L98.788 215.815L98.183 215.107L97.78 215.815L98.133 216.725L99.494 218.141L100.302 218.394L100.705 219.305L102.218 220.569L102.773 222.087L104.286 223.503L105.193 223.199L105.749 222.087L106.605 221.935L107.665 223.099L108.018 224.414L111.044 227.194L112.052 227.499L113.515 229.269L114.826 231.444L116.087 232.001L115.684 233.012L114.272 232.81L113.818 233.518L115.28 234.681L116.686 235.338Z" fill="#FEBE1C"/>
<path d="M115.022 272.309L115.627 274.231L114.72 274.534L114.367 274.18L113.661 273.522L112.147 273.27L111.441 272.612L111.039 273.27L111.693 274.18L110.987 274.888L110.18 274.079L109.172 272.511L108.264 271.044L107.66 270.437L107.156 269.579L104.634 266.999L104.231 264.824L103.627 262.851L103.576 261.84L103.021 261.435L102.012 260.221L100.146 258.401L99.5921 257.339L97.5741 255.417L97.5241 254.506L96.8181 254.152C96.8181 254.152 95.9101 253.697 95.8601 253.596C95.7581 253.495 95.4061 252.888 95.4061 252.888L94.6491 252.483L93.9431 252.382L93.2881 251.825L92.9851 251.724L93.2881 250.561L94.0451 250.611L94.3471 249.955L94.2971 249.195L93.8941 248.689L93.7431 247.981L94.3471 247.779L95.1551 248.74L95.9111 249.55L96.3141 250.713L97.0201 251.017L97.9281 252.028L98.3811 252.18L98.7351 252.787L99.1381 253.696L100.499 255.011L102.314 256.427L102.818 257.388L104.986 259.664L105.642 262.597L106.348 264.165L107.81 266.036L110.029 267.148L111.592 268.21L112.248 269.677L115.022 272.309Z" fill="#FEBE1C"/>
<path d="M114.568 275.897L114.72 276.656L113.812 277.01L113.157 276.555L112.602 276.504L110.938 274.886L111.644 274.127L112.602 274.633L113.662 274.886L114.568 275.897Z" fill="#FEBE1C"/>
<path d="M112.704 262.042L113.258 262.952L112.855 263.862L112.3 263.406L108.064 259.36L108.166 256.78L108.77 256.679L109.224 257.135L109.628 258.399L110.988 259.461L111.946 260.119L112.452 261.08L112.704 262.042Z" fill="#FEBE1C"/>
<path d="M108.769 238.221L109.526 239.233L108.619 240.345L107.811 239.738L104.433 239.588L103.829 238.322L104.029 237.159L106.601 237.21L108.769 238.221Z" fill="#FEBE1C"/>
<path d="M103.577 249.954L104.081 250.713L103.879 251.522L103.071 251.219L102.567 250.764L101.963 250.207L101.106 249.6L100.097 247.628L99.946 245.654L100.904 246.211L101.559 247.323L102.467 248.285L103.577 249.954Z" fill="#FEBE1C"/>
<path d="M95.4579 244.896L95.3559 246.514L94.8009 246.565L94.3979 246.211L93.9449 246.008L93.0879 245.149L93.8439 244.441L94.9529 244.491L95.4579 244.896Z" fill="#FEBE1C"/>
<path d="M90.918 241.457L93.843 244.441L93.087 245.149L92.078 244.137L91.423 243.985L90.767 243.53L90.364 244.29L90.767 244.846L91.07 246.212L90.5659 246.667L90.011 246.06L89.96 245.049L89.4559 244.543L89.102 243.683L88.3459 242.772L88.396 241.761L88.75 241.204L90.061 241.153L90.3139 241.457H90.918V241.457Z" fill="#FEBE1C"/>
<path d="M93.3891 198.52L93.5401 199.178L92.6831 199.582H91.8761L87.4381 194.979L85.5731 194.473L82.0941 194.22L81.1861 193.006L80.6311 191.59L81.2361 190.629L82.7491 190.326L83.1521 189.516L82.7991 188.251V186.48L85.2191 186.379L86.2281 185.469L86.3291 186.885L86.7831 189.161L88.0951 192.194L91.3721 195.633L92.3811 197.403L93.3891 198.52Z" fill="#FEBE1C"/>
<path d="M92.3809 249.447L93.3389 250.611L93.0359 251.774L92.1789 251.572L91.5239 250.713L90.8679 249.802L90.9189 249.094L91.3729 248.639L92.0279 248.588L92.3809 249.447Z" fill="#FEBE1C"/>
<path d="M90.9691 186.482L91.5241 187.544L90.4641 188.656L90.0111 187.847L89.8601 185.722L90.6671 185.621L90.9691 186.482Z" fill="#FEBE1C"/>
<path d="M90.9181 180.161L90.8671 182.487L89.9091 182.589L87.8921 181.021L87.9431 178.746H88.7501L90.9181 180.161Z" fill="#FEBE1C"/>
<path d="M90.8179 228.915V230.888L89.8599 231.596L87.7419 230.888V230.332L87.2879 229.725L87.0359 228.46L87.7419 227.903L87.9939 226.891L87.0869 226.486L87.4899 225.475L88.4989 225.07L89.7599 225.02L90.2639 225.93L90.2129 227.397L90.2639 228.105L90.8179 228.915Z" fill="#FEBE1C"/>
<path d="M88.851 173.839L88.8 174.851L87.238 175.761L86.935 177.783L86.128 178.238L83.607 178.34L82.346 177.783L79.219 175.205L77.706 174.647L78.261 172.928L78.06 171.663L78.261 170.045L77.202 169.235L76.294 170.347L70.849 170.246L68.529 168.577L67.42 168.071L65.706 166.453L65.655 163.722L66.412 163.318L67.471 162.357L67.522 161.143L68.984 160.384L70.799 160.99L71.555 159.321L71.858 156.691L72.312 154.769L72.816 153.455L73.321 152.95L73.119 150.876L73.724 150.774L74.531 151.229L74.682 152.242L76.598 155.327L76.497 157.146L77.203 158.461L77.858 157.5L78.816 158.208L80.077 158.765L80.783 160.029L79.976 160.434L80.026 162.457L80.783 164.379L83.153 166.401L84.111 167.817L85.321 169.537L86.178 171.155L88.851 173.839Z" fill="#FEBE1C"/>
<path d="M87.238 201.199L88.145 202.97L86.935 203.78L85.623 201.655L85.573 200.239L86.279 200.038L87.238 201.199Z" fill="#FEBE1C"/>
<path d="M87.5411 184.004L87.8941 185.673L86.2301 185.471V184.358L85.7261 184.105L86.1791 183.195L86.5331 183.802L87.5411 184.004Z" fill="#FEBE1C"/>
<path d="M87.7919 239.028L87.8419 240.394L86.9849 240.596L86.5319 241.052L85.8259 241.102L85.1709 239.939V239.484L85.6239 239.13L85.9779 237.916L87.2889 238.319L87.7919 239.028Z" fill="#FEBE1C"/>
<path d="M83.9101 228.005L84.9181 229.319L84.0621 230.331H83.4061L82.4991 229.876L82.0961 228.713L81.9451 228.408L83.2061 227.7L83.9101 228.005Z" fill="#FEBE1C"/>
<path d="M82.85 226.184L83.2039 227.701L81.9429 228.409L80.783 226.387L80.934 225.325L81.186 224.819L81.9429 224.769L82.85 226.184Z" fill="#FEBE1C"/>
<path d="M79.9761 232.556L79.7241 234.63H78.8671L76.1941 232.202V231.14L76.4461 230.381H77.5061L78.5651 231.797L79.1201 231.747L79.9761 232.556Z" fill="#FEBE1C"/>
<path d="M75.1351 220.822L75.2861 221.733L74.6301 222.492L73.9751 221.886L73.0681 221.783L72.5631 222.492L72.2611 221.531L71.8071 220.419L72.6641 219.861H74.3281L74.5801 220.419L75.1351 220.822Z" fill="#FEBE1C"/>
<path d="M72.7139 174.598L72.6639 176.014L71.9579 176.469L71.3529 175.811L71.2019 174.041L71.8569 173.687L72.0079 174.193L72.7139 174.598Z" fill="#FEBE1C"/>
<path d="M71.202 200.745L72.665 203.172L72.311 204.386L70.193 205.549L68.932 206.055L67.117 203.071L65.756 201.149L64.798 198.622L63.487 196.446L63.79 195.738L63.436 193.918L61.873 191.945L61.269 188.101L59.755 185.775L59.251 183.094L58.091 179.604L57.738 177.683L58.041 175.204L59.2 174.647L60.108 175.608L61.268 176.873L61.721 177.985L62.679 178.238L63.688 177.682L63.79 175.406L65.101 174.597L62.983 171.916L61.067 169.134L60.764 165.088L59.453 164.431L57.94 162.914L56.831 161.042L56.074 158.21L57.587 157.35L58.142 154.62L60.109 153.963L61.421 154.165L62.379 156.693L62.732 160.739L63.135 164.129L63.64 164.432L64.345 166.657L65.202 169.592L66.917 172.07L69.085 172.121V175.206L68.581 176.016L67.623 180.011L67.824 182.489L68.581 187.698L68.127 190.075L69.085 193.212L68.783 195.234L71.202 200.745Z" fill="#FEBE1C"/>
<path d="M71.05 214.754L71.807 215.715L71.554 217.536L70.596 217.788L69.235 217.282L67.672 215.562L67.571 214.45L66.412 213.489L66.21 211.617L64.395 210.1L63.336 210.505L62.227 210.201L62.176 206.964L62.63 205.144L64.042 204.941L65 207.876L70.899 213.793L71.05 214.754Z" fill="#FEBE1C"/>
<path d="M63.6371 202.01L64.0411 204.943L62.6291 205.146L60.5621 202.364L60.0571 200.24L60.6121 198.37L60.5621 196.7L61.5701 196.447L61.7721 197.155L62.6791 197.61L63.2341 199.128L63.6371 202.01Z" fill="#FEBE1C"/>
<path d="M55.318 199.126L55.6711 201.048L54.562 202.262L54.511 203.324L55.2681 204.59L53.907 205.298L53.3521 204.59L52.394 205.298L52.04 204.337L52.191 201.049L52.846 200.695V199.987L53.855 199.784L54.4601 198.975L55.318 199.126Z" fill="#FEBE1C"/>
<path d="M21.0269 177.935L20.9259 180.009L19.4129 179.858L19.716 178.441L19.1609 178.291L18.908 177.33L20.422 177.278L20.22 177.784L21.0269 177.935Z" fill="#FEBE1C"/>
<path d="M182.617 97.5719H176.488V96.5989L180.806 90.2059H176.605V89.0049H182.5V89.9889L178.164 96.3699H182.617V97.5719V97.5719Z" fill="white"/>
<path d="M188.043 97.5721L187.768 96.6701H187.721C187.409 97.0651 187.094 97.3331 186.778 97.4761C186.462 97.6191 186.055 97.6901 185.559 97.6901C184.922 97.6901 184.425 97.5181 184.068 97.1741C183.711 96.8301 183.532 96.3441 183.532 95.7151C183.532 95.0471 183.78 94.5431 184.276 94.2031C184.772 93.8631 185.528 93.6781 186.544 93.6461L187.663 93.6111V93.2651C187.663 92.8511 187.566 92.5411 187.373 92.3361C187.18 92.1311 186.88 92.0281 186.474 92.0281C186.142 92.0281 185.824 92.0771 185.519 92.1741C185.214 92.2711 184.921 92.3871 184.64 92.5201L184.195 91.5361C184.547 91.3521 184.931 91.2131 185.349 91.1171C185.767 91.0211 186.161 90.9731 186.533 90.9731C187.357 90.9731 187.979 91.1531 188.399 91.5121C188.819 91.8711 189.029 92.4361 189.029 93.2051V97.5701H188.043V97.5721ZM185.992 96.6341C186.492 96.6341 186.893 96.4941 187.196 96.2151C187.499 95.9361 187.65 95.5441 187.65 95.0401V94.4781L186.818 94.5131C186.17 94.5361 185.698 94.6451 185.403 94.8381C185.108 95.0311 184.961 95.3271 184.961 95.7261C184.961 96.0151 185.047 96.2391 185.219 96.3971C185.391 96.5551 185.648 96.6341 185.992 96.6341Z" fill="white"/>
<path d="M196.422 91.0911V91.8471L195.315 92.0521C195.417 92.1891 195.501 92.3571 195.567 92.5561C195.633 92.7551 195.667 92.9661 195.667 93.1891C195.667 93.8571 195.437 94.3821 194.976 94.7651C194.515 95.1481 193.88 95.3391 193.072 95.3391C192.865 95.3391 192.677 95.3231 192.51 95.2921C192.213 95.4761 192.065 95.6901 192.065 95.9371C192.065 96.0851 192.134 96.1971 192.273 96.2711C192.412 96.3451 192.667 96.3821 193.038 96.3821H194.169C194.884 96.3821 195.427 96.5341 195.798 96.8391C196.169 97.1441 196.355 97.5831 196.355 98.1571C196.355 98.8911 196.052 99.4581 195.447 99.8561C194.842 100.254 193.967 100.454 192.822 100.454C191.939 100.454 191.265 100.298 190.801 99.9851C190.337 99.6721 190.104 99.2271 190.104 98.6491C190.104 98.2511 190.23 97.9161 190.482 97.6441C190.734 97.3721 191.086 97.1841 191.54 97.0791C191.356 97.0011 191.205 96.8751 191.086 96.7011C190.967 96.5271 190.907 96.3451 190.907 96.1531C190.907 95.9111 190.975 95.7061 191.112 95.5381C191.249 95.3701 191.452 95.2041 191.721 95.0401C191.385 94.8951 191.113 94.6601 190.904 94.3341C190.695 94.0081 190.591 93.6261 190.591 93.1881C190.591 92.4851 190.813 91.9401 191.256 91.5531C191.699 91.1661 192.331 90.9731 193.152 90.9731C193.336 90.9731 193.528 90.9861 193.729 91.0111C193.93 91.0361 194.082 91.0631 194.183 91.0901H196.422V91.0911ZM191.33 98.5801C191.33 98.8771 191.464 99.1051 191.731 99.2661C191.998 99.4271 192.375 99.5061 192.859 99.5061C193.609 99.5061 194.168 99.3991 194.535 99.1841C194.902 98.9691 195.086 98.6841 195.086 98.3291C195.086 98.0481 194.985 97.8481 194.784 97.7281C194.583 97.6081 194.209 97.5491 193.662 97.5491H192.619C192.224 97.5491 191.911 97.6421 191.679 97.8271C191.447 98.0121 191.33 98.2631 191.33 98.5801ZM191.922 93.1891C191.922 93.5951 192.026 93.9081 192.235 94.1271C192.444 94.3461 192.744 94.4551 193.134 94.4551C193.931 94.4551 194.329 94.0291 194.329 93.1781C194.329 92.7561 194.23 92.4311 194.033 92.2021C193.836 91.9731 193.536 91.8591 193.134 91.8591C192.736 91.8591 192.434 91.9721 192.229 92.1991C192.024 92.4261 191.922 92.7551 191.922 93.1891Z" fill="white"/>
<path d="M200.91 90.9741C201.187 90.9741 201.416 90.9941 201.596 91.0331L201.461 92.3161C201.266 92.2691 201.063 92.2461 200.852 92.2461C200.301 92.2461 199.855 92.4261 199.513 92.7851C199.171 93.1441 199 93.6111 199 94.1851V97.5721H197.623V91.0921H198.701L198.883 92.2351H198.953C199.168 91.8481 199.448 91.5421 199.794 91.3151C200.14 91.0881 200.512 90.9741 200.91 90.9741Z" fill="white"/>
<path d="M205.627 97.6891C204.619 97.6891 203.831 97.3951 203.263 96.8071C202.695 96.2191 202.41 95.4101 202.41 94.3781C202.41 93.3191 202.674 92.4871 203.201 91.8821C203.728 91.2771 204.453 90.9741 205.375 90.9741C206.23 90.9741 206.906 91.2341 207.402 91.7531C207.898 92.2721 208.146 92.9871 208.146 93.8981V94.6421H203.828C203.848 95.2711 204.017 95.7541 204.338 96.0921C204.659 96.4301 205.109 96.5991 205.692 96.5991C206.075 96.5991 206.431 96.5631 206.761 96.4911C207.091 96.4191 207.446 96.2991 207.824 96.1311V97.2501C207.488 97.4101 207.148 97.5231 206.804 97.5901C206.46 97.6571 206.068 97.6891 205.627 97.6891ZM205.375 92.0171C204.937 92.0171 204.587 92.1561 204.323 92.4331C204.059 92.7101 203.902 93.1151 203.851 93.6461H206.792C206.784 93.1111 206.655 92.7061 206.405 92.4301C206.155 92.1541 205.812 92.0171 205.375 92.0171Z" fill="white"/>
<path d="M213.021 90.9741C213.83 90.9741 214.459 91.2671 214.911 91.8531C215.363 92.4391 215.588 93.2611 215.588 94.3201C215.588 95.3821 215.359 96.2101 214.902 96.8011C214.445 97.3921 213.81 97.6891 212.998 97.6891C212.178 97.6891 211.541 97.3941 211.088 96.8041H210.994L210.742 97.5721H209.711V88.4551H211.088V90.6231C211.088 90.7831 211.08 91.0211 211.065 91.3381C211.05 91.6551 211.038 91.8561 211.03 91.9421H211.089C211.525 91.2961 212.17 90.9741 213.021 90.9741ZM212.664 92.0991C212.109 92.0991 211.71 92.2621 211.466 92.5881C211.222 92.9141 211.096 93.4601 211.088 94.2261V94.3201C211.088 95.1091 211.213 95.6801 211.463 96.0341C211.713 96.3881 212.121 96.5641 212.688 96.5641C213.176 96.5641 213.546 96.3711 213.798 95.9841C214.05 95.5971 214.176 95.0391 214.176 94.3081C214.176 92.8351 213.672 92.0991 212.664 92.0991Z" fill="white"/>
<path d="M343.079 278.198C343.079 278.96 342.804 279.558 342.253 279.991C341.702 280.424 340.942 280.641 339.974 280.641C339.006 280.641 338.212 280.491 337.595 280.19V278.866C337.986 279.05 338.4 279.194 338.839 279.3C339.278 279.406 339.689 279.458 340.068 279.458C340.623 279.458 341.031 279.353 341.295 279.142C341.559 278.931 341.691 278.648 341.691 278.292C341.691 277.971 341.57 277.7 341.328 277.477C341.086 277.254 340.586 276.991 339.828 276.686C339.047 276.37 338.496 276.008 338.176 275.602C337.856 275.196 337.696 274.707 337.696 274.137C337.696 273.422 337.95 272.86 338.458 272.449C338.966 272.038 339.647 271.834 340.503 271.834C341.323 271.834 342.14 272.014 342.952 272.373L342.507 273.516C341.745 273.196 341.066 273.036 340.468 273.036C340.015 273.036 339.671 273.135 339.437 273.332C339.203 273.529 339.085 273.79 339.085 274.114C339.085 274.337 339.132 274.527 339.226 274.685C339.32 274.843 339.474 274.993 339.689 275.133C339.904 275.273 340.291 275.459 340.849 275.69C341.478 275.952 341.939 276.196 342.232 276.422C342.525 276.648 342.74 276.904 342.877 277.19C343.014 277.476 343.079 277.811 343.079 278.198Z" fill="white"/>
<path d="M348.646 280.524L348.371 279.622H348.324C348.012 280.017 347.697 280.284 347.381 280.427C347.065 280.57 346.658 280.642 346.162 280.642C345.525 280.642 345.027 280.47 344.67 280.126C344.313 279.782 344.135 279.296 344.135 278.667C344.135 277.999 344.383 277.495 344.879 277.155C345.375 276.815 346.131 276.63 347.147 276.598L348.266 276.563V276.217C348.266 275.803 348.168 275.493 347.975 275.288C347.782 275.083 347.483 274.98 347.077 274.98C346.745 274.98 346.427 275.029 346.122 275.126C345.817 275.223 345.524 275.339 345.243 275.472L344.798 274.488C345.15 274.304 345.534 274.165 345.952 274.069C346.37 273.973 346.764 273.925 347.136 273.925C347.96 273.925 348.581 274.105 349.001 274.464C349.421 274.823 349.632 275.388 349.632 276.157V280.523H348.646V280.524ZM346.595 279.587C347.095 279.587 347.495 279.446 347.798 279.167C348.101 278.888 348.253 278.497 348.253 277.993V277.431L347.421 277.466C346.773 277.489 346.3 277.598 346.005 277.791C345.71 277.984 345.564 278.28 345.564 278.679C345.564 278.968 345.65 279.191 345.822 279.349C345.994 279.507 346.251 279.587 346.595 279.587Z" fill="white"/>
<path d="M354.839 273.926C355.116 273.926 355.345 273.946 355.525 273.985L355.39 275.268C355.195 275.221 354.992 275.198 354.781 275.198C354.23 275.198 353.783 275.378 353.441 275.737C353.099 276.096 352.929 276.563 352.929 277.137V280.524H351.552V274.043H352.63L352.812 275.186H352.882C353.097 274.799 353.376 274.493 353.722 274.266C354.068 274.039 354.44 273.926 354.839 273.926Z" fill="white"/>
<path d="M360.78 280.524L360.505 279.622H360.458C360.146 280.017 359.831 280.284 359.515 280.427C359.199 280.57 358.792 280.642 358.296 280.642C357.659 280.642 357.161 280.47 356.804 280.126C356.447 279.782 356.269 279.296 356.269 278.667C356.269 277.999 356.517 277.495 357.013 277.155C357.509 276.815 358.265 276.63 359.281 276.598L360.4 276.563V276.217C360.4 275.803 360.302 275.493 360.109 275.288C359.916 275.083 359.617 274.98 359.211 274.98C358.879 274.98 358.561 275.029 358.256 275.126C357.951 275.223 357.658 275.339 357.377 275.472L356.932 274.488C357.284 274.304 357.668 274.165 358.086 274.069C358.504 273.973 358.898 273.925 359.27 273.925C360.094 273.925 360.715 274.105 361.135 274.464C361.555 274.823 361.766 275.388 361.766 276.157V280.523H360.78V280.524ZM358.729 279.587C359.229 279.587 359.629 279.446 359.932 279.167C360.235 278.888 360.387 278.497 360.387 277.993V277.431L359.555 277.466C358.907 277.489 358.434 277.598 358.139 277.791C357.844 277.984 357.698 278.28 357.698 278.679C357.698 278.968 357.784 279.191 357.956 279.349C358.128 279.507 358.386 279.587 358.729 279.587Z" fill="white"/>
<path d="M363.024 283.407C362.61 283.407 362.266 283.358 361.993 283.261V282.171C362.259 282.241 362.53 282.276 362.807 282.276C363.393 282.276 363.686 281.944 363.686 281.28V274.043H365.063V281.374C365.063 282.042 364.887 282.548 364.538 282.892C364.189 283.236 363.685 283.407 363.024 283.407ZM363.604 272.327C363.604 272.081 363.67 271.891 363.805 271.759C363.94 271.627 364.133 271.56 364.383 271.56C364.625 271.56 364.813 271.626 364.947 271.759C365.081 271.892 365.15 272.081 365.15 272.327C365.15 272.561 365.082 272.746 364.947 272.881C364.812 273.016 364.625 273.083 364.383 273.083C364.133 273.083 363.94 273.016 363.805 272.881C363.67 272.746 363.604 272.561 363.604 272.327Z" fill="white"/>
<path d="M369.862 280.642C368.854 280.642 368.065 280.347 367.497 279.759C366.929 279.171 366.645 278.363 366.645 277.331C366.645 276.272 366.909 275.44 367.436 274.835C367.963 274.23 368.688 273.927 369.61 273.927C370.465 273.927 371.141 274.187 371.637 274.706C372.133 275.225 372.381 275.94 372.381 276.851V277.595H368.063C368.083 278.224 368.252 278.707 368.573 279.045C368.894 279.383 369.344 279.553 369.927 279.553C370.31 279.553 370.665 279.516 370.995 279.444C371.325 279.372 371.681 279.253 372.059 279.085V280.204C371.723 280.364 371.383 280.477 371.039 280.544C370.695 280.611 370.304 280.642 369.862 280.642ZM369.61 274.969C369.172 274.969 368.821 275.108 368.557 275.385C368.293 275.662 368.137 276.067 368.086 276.598H371.027C371.019 276.063 370.89 275.658 370.64 275.382C370.39 275.106 370.048 274.969 369.61 274.969Z" fill="white"/>
<path d="M375.423 280.524L372.962 274.043H374.415L375.733 277.811C375.96 278.444 376.096 278.956 376.143 279.347H376.19C376.225 279.066 376.362 278.554 376.6 277.811L377.918 274.043H379.383L376.91 280.524H375.423Z" fill="white"/>
<path d="M386.116 277.272C386.116 278.331 385.845 279.157 385.302 279.751C384.759 280.345 384.003 280.642 383.034 280.642C382.429 280.642 381.893 280.505 381.429 280.232C380.965 279.959 380.607 279.566 380.357 279.054C380.107 278.542 379.982 277.948 379.982 277.272C379.982 276.221 380.252 275.401 380.791 274.811C381.33 274.221 382.09 273.926 383.07 273.926C384.008 273.926 384.75 274.228 385.297 274.831C385.844 275.434 386.116 276.249 386.116 277.272ZM381.399 277.272C381.399 278.769 381.952 279.517 383.057 279.517C384.151 279.517 384.698 278.769 384.698 277.272C384.698 275.792 384.147 275.051 383.046 275.051C382.468 275.051 382.048 275.242 381.788 275.625C381.528 276.008 381.399 276.557 381.399 277.272Z" fill="white"/>
<path d="M470.14 175.525H472.683C473.863 175.525 474.714 175.697 475.24 176.041C475.766 176.385 476.029 176.928 476.029 177.67C476.029 178.17 475.9 178.586 475.642 178.918C475.384 179.25 475.013 179.459 474.529 179.545V179.604C475.131 179.717 475.572 179.941 475.855 180.275C476.138 180.609 476.281 181.061 476.281 181.631C476.281 182.401 476.011 183.003 475.474 183.439C474.937 183.875 474.191 184.092 473.234 184.092H470.14V175.525ZM471.54 179.064H472.888C473.474 179.064 473.902 178.971 474.171 178.786C474.44 178.601 474.575 178.285 474.575 177.84C474.575 177.438 474.429 177.147 474.137 176.967C473.845 176.787 473.385 176.697 472.752 176.697H471.539V179.064H471.54ZM471.54 180.201V182.914H473.028C473.614 182.914 474.055 182.802 474.354 182.577C474.653 182.352 474.803 181.998 474.803 181.514C474.803 181.069 474.651 180.739 474.346 180.524C474.041 180.309 473.578 180.202 472.957 180.202H471.54V180.201Z" fill="white"/>
<path d="M480.745 184.208C479.737 184.208 478.948 183.914 478.38 183.326C477.812 182.738 477.528 181.929 477.528 180.897C477.528 179.838 477.792 179.006 478.319 178.401C478.846 177.796 479.571 177.493 480.493 177.493C481.348 177.493 482.024 177.753 482.52 178.272C483.016 178.791 483.264 179.506 483.264 180.417V181.161H478.946C478.966 181.79 479.135 182.273 479.456 182.611C479.777 182.949 480.227 183.118 480.81 183.118C481.193 183.118 481.548 183.082 481.878 183.01C482.208 182.938 482.564 182.818 482.942 182.65V183.769C482.606 183.929 482.266 184.042 481.922 184.109C481.578 184.176 481.187 184.208 480.745 184.208ZM480.493 178.537C480.055 178.537 479.704 178.676 479.44 178.953C479.176 179.23 479.02 179.635 478.969 180.166H481.91C481.902 179.631 481.773 179.226 481.523 178.95C481.273 178.674 480.931 178.537 480.493 178.537Z" fill="white"/>
<path d="M486.206 184.091H484.829V174.974H486.206V184.091Z" fill="white"/>
<path d="M493.647 177.611V178.367L492.54 178.572C492.642 178.709 492.726 178.877 492.792 179.076C492.858 179.275 492.892 179.486 492.892 179.709C492.892 180.377 492.662 180.902 492.201 181.285C491.74 181.668 491.105 181.859 490.297 181.859C490.09 181.859 489.902 181.843 489.735 181.812C489.438 181.996 489.29 182.21 489.29 182.457C489.29 182.605 489.358 182.717 489.497 182.791C489.636 182.865 489.892 182.902 490.263 182.902H491.394C492.109 182.902 492.652 183.054 493.023 183.359C493.394 183.664 493.58 184.103 493.58 184.677C493.58 185.411 493.277 185.978 492.672 186.376C492.067 186.774 491.192 186.974 490.047 186.974C489.164 186.974 488.49 186.818 488.026 186.505C487.562 186.192 487.329 185.747 487.329 185.169C487.329 184.771 487.454 184.436 487.706 184.164C487.958 183.892 488.311 183.704 488.765 183.599C488.581 183.521 488.429 183.395 488.31 183.221C488.191 183.047 488.132 182.865 488.132 182.673C488.132 182.431 488.2 182.226 488.337 182.058C488.474 181.89 488.677 181.724 488.946 181.56C488.61 181.415 488.337 181.18 488.128 180.854C487.919 180.528 487.816 180.146 487.816 179.708C487.816 179.005 488.037 178.46 488.48 178.073C488.923 177.686 489.556 177.493 490.376 177.493C490.56 177.493 490.751 177.506 490.952 177.531C491.153 177.556 491.306 177.583 491.407 177.61H493.647V177.611ZM488.556 185.099C488.556 185.396 488.689 185.624 488.956 185.785C489.223 185.946 489.601 186.025 490.085 186.025C490.835 186.025 491.394 185.918 491.761 185.703C492.128 185.488 492.312 185.203 492.312 184.848C492.312 184.567 492.21 184.367 492.009 184.247C491.808 184.127 491.435 184.068 490.888 184.068H489.845C489.45 184.068 489.136 184.161 488.904 184.346C488.672 184.531 488.556 184.783 488.556 185.099ZM489.147 179.708C489.147 180.114 489.251 180.427 489.459 180.646C489.667 180.865 489.969 180.974 490.359 180.974C491.156 180.974 491.554 180.548 491.554 179.697C491.554 179.275 491.454 178.95 491.257 178.721C491.06 178.492 490.761 178.378 490.359 178.378C489.961 178.378 489.658 178.491 489.453 178.718C489.248 178.945 489.147 179.275 489.147 179.708Z" fill="white"/>
<path d="M498.136 177.494C498.413 177.494 498.642 177.514 498.822 177.553L498.687 178.836C498.492 178.789 498.289 178.766 498.078 178.766C497.527 178.766 497.08 178.946 496.738 179.305C496.396 179.664 496.226 180.131 496.226 180.705V184.092H494.849V177.612H495.927L496.109 178.755H496.179C496.394 178.368 496.673 178.062 497.019 177.835C497.365 177.608 497.737 177.494 498.136 177.494Z" fill="white"/>
<path d="M504.077 184.091L503.802 183.189H503.755C503.443 183.584 503.128 183.852 502.812 183.995C502.496 184.138 502.089 184.209 501.593 184.209C500.956 184.209 500.458 184.037 500.101 183.693C499.744 183.349 499.566 182.863 499.566 182.234C499.566 181.566 499.814 181.062 500.31 180.722C500.806 180.382 501.562 180.197 502.578 180.165L503.697 180.13V179.784C503.697 179.37 503.599 179.06 503.406 178.855C503.213 178.65 502.914 178.547 502.508 178.547C502.176 178.547 501.858 178.596 501.553 178.693C501.248 178.79 500.955 178.906 500.674 179.039L500.229 178.055C500.581 177.871 500.965 177.732 501.383 177.636C501.801 177.54 502.195 177.492 502.567 177.492C503.391 177.492 504.012 177.672 504.432 178.031C504.852 178.39 505.063 178.955 505.063 179.724V184.089H504.077V184.091ZM502.026 183.154C502.526 183.154 502.926 183.014 503.229 182.735C503.532 182.456 503.684 182.064 503.684 181.56V180.998L502.852 181.033C502.204 181.056 501.731 181.165 501.436 181.358C501.141 181.551 500.995 181.847 500.995 182.246C500.995 182.535 501.081 182.759 501.253 182.917C501.425 183.075 501.683 183.154 502.026 183.154Z" fill="white"/>
<path d="M509.169 184.208C508.36 184.208 507.73 183.915 507.276 183.329C506.822 182.743 506.596 181.921 506.596 180.862C506.596 179.8 506.825 178.972 507.284 178.381C507.743 177.79 508.38 177.493 509.192 177.493C510.044 177.493 510.692 177.807 511.137 178.436H511.207C511.141 177.971 511.107 177.604 511.107 177.334V174.973H512.49V184.09H511.412L511.172 183.24H511.108C510.667 183.886 510.021 184.208 509.169 184.208ZM509.538 183.095C510.104 183.095 510.517 182.936 510.774 182.617C511.031 182.298 511.165 181.782 511.172 181.067V180.874C511.172 180.058 511.039 179.478 510.774 179.134C510.509 178.79 510.092 178.618 509.526 178.618C509.042 178.618 508.669 178.814 508.407 179.207C508.145 179.6 508.014 180.159 508.014 180.886C508.014 181.605 508.141 182.153 508.395 182.53C508.649 182.907 509.03 183.095 509.538 183.095Z" fill="white"/>
<path d="M517.29 184.208C516.282 184.208 515.493 183.914 514.925 183.326C514.357 182.738 514.073 181.929 514.073 180.897C514.073 179.838 514.337 179.006 514.864 178.401C515.391 177.796 516.116 177.493 517.038 177.493C517.893 177.493 518.569 177.753 519.065 178.272C519.561 178.791 519.809 179.506 519.809 180.417V181.161H515.491C515.511 181.79 515.68 182.273 516.001 182.611C516.322 182.949 516.772 183.118 517.355 183.118C517.738 183.118 518.093 183.082 518.423 183.01C518.753 182.938 519.109 182.818 519.487 182.65V183.769C519.151 183.929 518.811 184.042 518.467 184.109C518.123 184.176 517.731 184.208 517.29 184.208ZM517.038 178.537C516.6 178.537 516.249 178.676 515.985 178.953C515.721 179.23 515.565 179.635 515.514 180.166H518.455C518.447 179.631 518.318 179.226 518.068 178.95C517.818 178.674 517.476 178.537 517.038 178.537Z" fill="white"/>
<path d="M548.745 439.036C548.745 439.798 548.47 440.395 547.919 440.829C547.368 441.263 546.608 441.479 545.64 441.479C544.672 441.479 543.878 441.329 543.261 441.028V439.704C543.652 439.888 544.068 440.032 544.507 440.138C544.946 440.244 545.355 440.296 545.734 440.296C546.289 440.296 546.699 440.191 546.963 439.98C547.227 439.769 547.358 439.486 547.358 439.13C547.358 438.81 547.237 438.538 546.995 438.316C546.753 438.094 546.253 437.83 545.495 437.525C544.714 437.209 544.163 436.847 543.843 436.441C543.523 436.035 543.363 435.546 543.363 434.976C543.363 434.261 543.617 433.699 544.125 433.288C544.633 432.877 545.314 432.673 546.17 432.673C546.99 432.673 547.807 432.853 548.619 433.212L548.174 434.355C547.412 434.035 546.733 433.875 546.135 433.875C545.682 433.875 545.338 433.974 545.104 434.171C544.87 434.368 544.752 434.629 544.752 434.953C544.752 435.176 544.799 435.366 544.893 435.524C544.987 435.682 545.141 435.832 545.356 435.972C545.571 436.112 545.958 436.298 546.516 436.529C547.145 436.791 547.606 437.035 547.899 437.261C548.192 437.487 548.407 437.743 548.544 438.029C548.681 438.315 548.745 438.649 548.745 439.036Z" fill="white"/>
<path d="M551.587 437.94L552.366 436.967L554.323 434.881H555.911L553.304 437.664L556.075 441.361H554.458L552.378 438.519L551.622 439.14V441.361H550.257V432.244H551.622V436.691L551.552 437.939H551.587V437.94Z" fill="white"/>
<path d="M562.866 438.11C562.866 439.169 562.595 439.995 562.052 440.589C561.509 441.183 560.753 441.48 559.784 441.48C559.179 441.48 558.643 441.343 558.179 441.07C557.715 440.797 557.357 440.404 557.107 439.892C556.857 439.38 556.732 438.787 556.732 438.111C556.732 437.06 557.002 436.24 557.541 435.65C558.08 435.06 558.84 434.765 559.82 434.765C560.758 434.765 561.5 435.067 562.047 435.67C562.594 436.273 562.866 437.087 562.866 438.11ZM558.149 438.11C558.149 439.606 558.702 440.354 559.807 440.354C560.901 440.354 561.448 439.606 561.448 438.11C561.448 436.63 560.897 435.889 559.796 435.889C559.218 435.889 558.8 436.08 558.54 436.463C558.28 436.846 558.149 437.396 558.149 438.11Z" fill="white"/>
<path d="M567.735 441.479C566.915 441.479 566.278 441.184 565.825 440.594H565.743C565.798 441.141 565.825 441.473 565.825 441.59V444.244H564.448V434.881H565.561C565.592 435.002 565.657 435.291 565.754 435.748H565.824C566.254 435.092 566.898 434.764 567.758 434.764C568.567 434.764 569.197 435.057 569.649 435.643C570.101 436.229 570.325 437.051 570.325 438.11C570.325 439.169 570.096 439.995 569.637 440.589C569.178 441.183 568.544 441.479 567.735 441.479ZM567.401 435.89C566.854 435.89 566.456 436.05 566.204 436.37C565.952 436.69 565.825 437.202 565.825 437.905V438.11C565.825 438.899 565.95 439.47 566.2 439.824C566.45 440.178 566.858 440.354 567.425 440.354C567.902 440.354 568.269 440.159 568.527 439.768C568.785 439.377 568.914 438.821 568.914 438.098C568.914 437.371 568.787 436.822 568.531 436.449C568.275 436.076 567.897 435.89 567.401 435.89Z" fill="white"/>
<path d="M571.263 444.245C570.849 444.245 570.505 444.196 570.232 444.099V443.009C570.498 443.079 570.769 443.114 571.046 443.114C571.632 443.114 571.925 442.782 571.925 442.118V434.882H573.302V442.212C573.302 442.88 573.128 443.386 572.779 443.73C572.43 444.074 571.923 444.245 571.263 444.245ZM571.843 433.165C571.843 432.919 571.911 432.729 572.046 432.597C572.181 432.465 572.372 432.398 572.622 432.398C572.864 432.398 573.054 432.464 573.188 432.597C573.322 432.73 573.389 432.919 573.389 433.165C573.389 433.399 573.323 433.584 573.188 433.719C573.053 433.854 572.864 433.921 572.622 433.921C572.372 433.921 572.181 433.854 572.046 433.719C571.911 433.584 571.843 433.399 571.843 433.165Z" fill="white"/>
<path d="M578.101 441.479C577.093 441.479 576.306 441.185 575.738 440.597C575.17 440.009 574.884 439.2 574.884 438.168C574.884 437.109 575.148 436.277 575.675 435.672C576.202 435.067 576.927 434.764 577.849 434.764C578.704 434.764 579.38 435.024 579.876 435.543C580.372 436.062 580.62 436.777 580.62 437.688V438.432H576.302C576.322 439.061 576.491 439.544 576.812 439.882C577.133 440.22 577.583 440.389 578.166 440.389C578.549 440.389 578.906 440.353 579.236 440.281C579.566 440.209 579.92 440.089 580.298 439.921V441.04C579.962 441.2 579.622 441.313 579.278 441.38C578.934 441.447 578.542 441.479 578.101 441.479ZM577.849 435.808C577.411 435.808 577.062 435.947 576.798 436.224C576.534 436.501 576.376 436.906 576.325 437.437H579.266C579.258 436.902 579.129 436.497 578.879 436.221C578.629 435.945 578.286 435.808 577.849 435.808Z" fill="white"/>
<path d="M82.332 77.2237V68.6577H83.732V76.0227H87.359V77.2237H82.332V77.2237Z" fill="white"/>
<path d="M88.0271 80.1068C87.6131 80.1068 87.2691 80.0578 86.9961 79.9608V78.8708C87.2621 78.9408 87.5331 78.9758 87.8101 78.9758C88.3961 78.9758 88.6891 78.6438 88.6891 77.9798V70.7438H90.0661V78.0738C90.0661 78.7418 89.8911 79.2478 89.5421 79.5918C89.1931 79.9358 88.6871 80.1068 88.0271 80.1068ZM88.6071 69.0268C88.6071 68.7808 88.6741 68.5908 88.8091 68.4588C88.9441 68.3268 89.1361 68.2598 89.3861 68.2598C89.6281 68.2598 89.8171 68.3258 89.9511 68.4588C90.0851 68.5918 90.1531 68.7808 90.1531 69.0268C90.1531 69.2608 90.0861 69.4458 89.9511 69.5808C89.8161 69.7158 89.6281 69.7828 89.3861 69.7828C89.1361 69.7828 88.9441 69.7158 88.8091 69.5808C88.6741 69.4458 88.6071 69.2608 88.6071 69.0268Z" fill="white"/>
<path d="M96.605 77.2242L96.412 76.3742H96.342C96.151 76.6752 95.878 76.9112 95.525 77.0832C95.172 77.2552 94.768 77.3412 94.315 77.3412C93.53 77.3412 92.9441 77.1462 92.5571 76.7552C92.1701 76.3642 91.9771 75.7732 91.9771 74.9802V70.7442H93.366V74.7402C93.366 75.2362 93.4681 75.6082 93.6711 75.8562C93.8741 76.1042 94.1921 76.2282 94.6261 76.2282C95.2041 76.2282 95.629 76.0552 95.9 75.7092C96.171 75.3632 96.3071 74.7842 96.3071 73.9722V70.7432H97.69V77.2232H96.605V77.2242Z" fill="white"/>
<path d="M102.962 70.6259C103.771 70.6259 104.4 70.9189 104.852 71.5049C105.304 72.0909 105.529 72.9129 105.529 73.9719C105.529 75.0339 105.3 75.8619 104.843 76.4529C104.386 77.0439 103.751 77.3409 102.939 77.3409C102.119 77.3409 101.482 77.0459 101.029 76.4559H100.935L100.683 77.2239H99.6521V68.1069H101.029V70.2749C101.029 70.4349 101.021 70.6729 101.006 70.9899C100.991 71.3069 100.979 71.5079 100.971 71.5939H101.03C101.466 70.9489 102.111 70.6259 102.962 70.6259ZM102.605 71.7509C102.05 71.7509 101.651 71.9139 101.407 72.2399C101.163 72.5659 101.037 73.1119 101.029 73.8779V73.9719C101.029 74.7609 101.154 75.3319 101.404 75.6859C101.654 76.0399 102.062 76.2159 102.629 76.2159C103.117 76.2159 103.487 76.0229 103.739 75.6359C103.991 75.2489 104.117 74.6909 104.117 73.9599C104.117 72.4879 103.613 71.7509 102.605 71.7509Z" fill="white"/>
<path d="M108.505 77.2239H107.128V68.1069H108.505V77.2239Z" fill="white"/>
<path d="M109.812 80.1068C109.398 80.1068 109.054 80.0578 108.781 79.9608V78.8708C109.047 78.9408 109.318 78.9758 109.595 78.9758C110.181 78.9758 110.474 78.6438 110.474 77.9798V70.7438H111.851V78.0738C111.851 78.7418 111.676 79.2478 111.327 79.5918C110.978 79.9358 110.472 80.1068 109.812 80.1068ZM110.392 69.0268C110.392 68.7808 110.459 68.5908 110.594 68.4588C110.729 68.3268 110.921 68.2598 111.171 68.2598C111.413 68.2598 111.602 68.3258 111.736 68.4588C111.87 68.5918 111.938 68.7808 111.938 69.0268C111.938 69.2608 111.871 69.4458 111.736 69.5808C111.601 69.7158 111.413 69.7828 111.171 69.7828C110.921 69.7828 110.729 69.7158 110.594 69.5808C110.459 69.4458 110.392 69.2608 110.392 69.0268Z" fill="white"/>
<path d="M117.875 77.224L117.6 76.322H117.553C117.241 76.717 116.926 76.985 116.61 77.128C116.294 77.271 115.887 77.342 115.391 77.342C114.754 77.342 114.257 77.17 113.9 76.826C113.543 76.482 113.364 75.996 113.364 75.367C113.364 74.699 113.612 74.195 114.108 73.855C114.604 73.515 115.36 73.33 116.376 73.298L117.495 73.263V72.917C117.495 72.503 117.398 72.193 117.205 71.988C117.012 71.783 116.712 71.68 116.306 71.68C115.974 71.68 115.656 71.729 115.351 71.826C115.046 71.923 114.753 72.039 114.472 72.172L114.027 71.188C114.379 71.004 114.763 70.865 115.181 70.769C115.599 70.673 115.993 70.625 116.365 70.625C117.189 70.625 117.811 70.805 118.231 71.164C118.651 71.523 118.861 72.088 118.861 72.857V77.222H117.875V77.224ZM115.824 76.287C116.324 76.287 116.725 76.147 117.028 75.868C117.331 75.589 117.482 75.197 117.482 74.693V74.13L116.65 74.165C116.002 74.188 115.53 74.297 115.235 74.49C114.94 74.683 114.793 74.979 114.793 75.378C114.793 75.667 114.879 75.891 115.051 76.049C115.223 76.207 115.48 76.287 115.824 76.287Z" fill="white"/>
<path d="M126.482 77.2239H125.099V73.2399C125.099 72.7399 124.998 72.3669 124.797 72.1209C124.596 71.8749 124.276 71.7519 123.839 71.7519C123.257 71.7519 122.831 71.9239 122.562 72.2679C122.293 72.6119 122.158 73.1879 122.158 73.9969V77.2259H120.781V70.7459H121.859L122.052 71.5959H122.122C122.317 71.2869 122.595 71.0489 122.954 70.8809C123.313 70.7129 123.712 70.6289 124.149 70.6289C125.704 70.6289 126.481 71.4199 126.481 73.0019V77.2239H126.482Z" fill="white"/>
<path d="M132.453 77.224L132.178 76.322H132.131C131.819 76.717 131.504 76.985 131.188 77.128C130.872 77.271 130.465 77.342 129.969 77.342C129.332 77.342 128.835 77.17 128.478 76.826C128.121 76.482 127.942 75.996 127.942 75.367C127.942 74.699 128.19 74.195 128.686 73.855C129.182 73.515 129.938 73.33 130.954 73.298L132.073 73.263V72.917C132.073 72.503 131.976 72.193 131.783 71.988C131.59 71.783 131.29 71.68 130.884 71.68C130.552 71.68 130.234 71.729 129.929 71.826C129.624 71.923 129.331 72.039 129.05 72.172L128.605 71.188C128.957 71.004 129.341 70.865 129.759 70.769C130.177 70.673 130.571 70.625 130.943 70.625C131.767 70.625 132.389 70.805 132.809 71.164C133.229 71.523 133.439 72.088 133.439 72.857V77.222H132.453V77.224ZM130.402 76.287C130.902 76.287 131.303 76.147 131.606 75.868C131.909 75.589 132.06 75.197 132.06 74.693V74.13L131.228 74.165C130.58 74.188 130.108 74.297 129.813 74.49C129.518 74.683 129.371 74.979 129.371 75.378C129.371 75.667 129.457 75.891 129.629 76.049C129.801 76.207 130.058 76.287 130.402 76.287Z" fill="white"/>
<path d="M325.025 280.094H328.586L332.01 264.045H321.6L325.025 280.094Z" fill="white"/>
<path d="M321.6 255.949H332.01V259.746H326.805H321.6V255.949Z" fill="white"/>
<path d="M163.117 97.5739H166.678L170.102 81.5249H159.694L163.117 97.5739Z" fill="white"/>
<path d="M159.693 73.4292H170.101V77.2262H164.898H159.693V73.4292V73.4292Z" fill="white"/>
<path d="M69.217 77.0842H72.778L76.202 61.0352H65.792L69.217 77.0842Z" fill="white"/>
<path d="M65.792 52.939H76.202V56.736H70.997H65.792V52.939V52.939Z" fill="white"/>
<path d="M457.025 184.094H460.586L464.01 168.045H453.6L457.025 184.094Z" fill="white"/>
<path d="M453.6 159.949H464.01V163.746H458.805H453.6V159.949Z" fill="white"/>
<path d="M530.691 441.365H534.252L537.676 425.316H527.268L530.691 441.365Z" fill="white"/>
<path d="M527.268 417.22H537.676V421.018H532.473H527.268V417.22Z" fill="white"/>
<path d="M179.412 260.852H182.973L186.397 244.803H175.987L179.412 260.852Z" fill="white"/>
<path d="M175.986 236.707H186.396V240.504H181.191H175.986V236.707V236.707Z" fill="white"/>
<path d="M153.546 261.333H151.923L149.234 257.454L148.408 258.128V261.333H147.008V252.767H148.408V256.857C148.791 256.388 149.172 255.937 149.551 255.503L151.865 252.767H153.459C151.963 254.525 150.891 255.777 150.242 256.523L153.546 261.333Z" fill="white"/>
<path d="M160.231 261.333H158.848V257.349C158.848 256.849 158.747 256.476 158.546 256.23C158.345 255.984 158.025 255.861 157.588 255.861C157.006 255.861 156.58 256.033 156.311 256.377C156.042 256.721 155.907 257.297 155.907 258.106V261.335H154.53V254.855H155.608L155.801 255.705H155.871C156.066 255.396 156.344 255.158 156.703 254.99C157.062 254.822 157.461 254.738 157.898 254.738C159.453 254.738 160.23 255.529 160.23 257.111V261.333H160.231Z" fill="white"/>
<path d="M162.065 253.135C162.065 252.889 162.132 252.699 162.267 252.567C162.402 252.435 162.594 252.368 162.844 252.368C163.086 252.368 163.275 252.434 163.409 252.567C163.543 252.7 163.611 252.889 163.611 253.135C163.611 253.369 163.544 253.554 163.409 253.689C163.274 253.824 163.086 253.891 162.844 253.891C162.594 253.891 162.402 253.824 162.267 253.689C162.132 253.554 162.065 253.37 162.065 253.135ZM163.524 261.333H162.147V254.853H163.524V261.333Z" fill="white"/>
<path d="M171.194 261.333H169.811V257.349C169.811 256.849 169.71 256.476 169.509 256.23C169.308 255.984 168.988 255.861 168.551 255.861C167.969 255.861 167.543 256.033 167.274 256.377C167.005 256.721 166.87 257.297 166.87 258.106V261.335H165.493V254.855H166.571L166.764 255.705H166.834C167.029 255.396 167.307 255.158 167.666 254.99C168.025 254.822 168.424 254.738 168.861 254.738C170.416 254.738 171.193 255.529 171.193 257.111V261.333H171.194Z" fill="white"/>
</svg>
