<svg width="650" height="551" viewBox="0 0 650 551" fill="none" xmlns="http://www.w3.org/2000/svg">
<path d="M649.746 460.387L649.999 462.562L648.687 466.204L646.618 468.024L645.761 470.251L646.922 473.942L647.577 477.838L646.315 483.199L647.274 485.627L646.921 488.662L647.425 493.973L646.719 495.035L642.934 496.805L636.273 497.462L634.86 499.081L634.154 501.256L635.315 509.399L635.92 513.497L634.456 516.025L631.327 513.75L629.309 512.738L627.946 513.295L626.937 516.582L624.616 517.746L623.002 517.341L621.387 517.24L619.823 517.341L618.259 517.999L614.778 519.162L610.842 518.656L607.36 518.807L602.869 515.772L599.74 515.924L597.621 516.581L592.776 520.728L590.152 519.869L588.337 519.565L584.904 521.436L583.037 521.689L577.991 524.42L577.84 527.657L575.015 532.007L571.735 535.244V538.734L569.867 540.505L565.679 540.151L564.317 539.847L562.298 542.629L560.633 543.185L558.159 545.461L555.587 546.018L553.518 544.5L551.045 544.551L550.035 545.512L547.663 545.765L547.059 545.259L545.646 545.057L539.893 549.407L537.32 549.558L534.342 548.244L530.759 548.446L527.126 550.266L525.31 550.317L525.108 547.738L524.048 546.271L522.785 543.893L521.019 540.455L519.758 538.481L516.629 537.015L514.862 536.913L511.935 537.975L509.563 540.048L509.261 541.92L509.765 544.095L506.384 543.842L502.802 546.168L500.228 546.774L498.714 545.612L500.43 543.791L501.641 541.312L501.338 534.13L500.682 530.69L500.026 528.668L498.211 526.19L496.394 524.065L494.022 523.408L493.366 522.447L491.752 522.244L490.036 523.661L490.138 527.505L489.179 529.022L488.876 531.451L487.514 531.198L485.899 527.657L484.183 523.864L481.054 519.211L480.045 515.063L479.54 511.523L479.792 509.398L481.356 506.668L482.113 502.925L480.852 499.637L476.058 495.186L474.997 492.556L475.503 490.128L480.095 488.409L480.297 486.335L478.985 482.896L478.581 473.539L478.48 471.213L481.053 468.38L481.003 464.789L480.145 462.159L481.306 459.58L481.356 459.175L482.265 459.074L483.526 459.832L485.191 459.63L485.948 458.416L488.017 457.606L490.793 456.594L493.467 453.812L494.274 452.548V450.07L493.063 447.338L493.417 444.809L494.679 441.724L496.143 438.234L498.212 438.083L502.501 435.857L505.073 433.732L507.799 433.227L509.465 432.115L511.532 430.041L512.795 428.27L514.309 427.005L516.831 425.842L518.698 425.893L520.213 426.297L522.735 429.231L524.249 431.608L526.975 435.504L528.236 435.605L529.145 435.099L530.558 434.998L531.414 433.732L531.616 432.215L531.162 431.254L531.466 430.091L534.493 425.185L534.847 423.162L536.865 422.758L538.783 421.948L539.54 420.481L543.174 420.532L544.486 421.189L546.908 420.936L548.171 420.38L549.887 419.621L552.107 420.885L553.52 420.43L557.456 420.481L560.888 419.773L562.956 418.408L564.167 415.373L565.632 413.198L567.447 412.035L569.617 412.49L571.333 413.299L572.241 412.591L574.209 411.124H575.622L577.893 411.782L580.82 413.855L582.636 413.551L584.25 412.793L588.085 410.871C588.085 410.871 590.356 409.605 590.508 409.605C590.66 409.605 595.654 409.757 595.654 409.757L598.178 410.465L601.609 411.831L603.274 412.488L607.463 416.838L612.457 422.655L615.99 426.549L618.968 429.028L622.298 431.202L626.486 431.759L630.018 433.226L633.399 433.58L635.922 435.198L637.536 436.21L638.444 440.003L640.816 445.921L642.935 450.069L643.49 453.81L645.105 455.48L647.881 457.403L649.746 460.387Z" fill="#F79C90"/>
<path d="M352.122 418.659L351.214 417.243L349.953 416.636L348.287 417.496L345.966 416.889L342.585 416.485L341.879 414.361L342.131 412.236L343.241 412.034L346.622 414.007L348.893 414.816L351.214 414.665L352.627 413.502L352.173 413.199L351.416 411.68L350.709 409.405L351.466 408.242L352.476 407.937L353.838 409.505L355.15 410.871L356.16 410.416L356.765 409.353L356.311 408.443L355.454 406.47L354.444 405.914L352.021 405.611L351.165 404.447L349.954 404.498L347.53 406.319L345.512 406.217L344.25 407.633L346.016 408.847L348.036 409.251L347.43 410.465L344.453 409.959L341.324 409.201L339.557 408.896L338.245 409.099L338.094 410.717L339.154 412.538L336.984 411.324L334.309 408.389L333.401 405.355L332.846 401.511L330.928 396.807L328.456 395.391L326.74 394.532L324.166 394.886L323.965 395.948L322.098 396.707L321.088 396.049L320.483 394.936L319.171 393.975L317.203 393.319L314.932 390.84L312.358 389.526L310.997 388.311C310.997 388.311 309.482 385.428 309.433 385.328C309.382 385.226 308.676 384.468 308.676 384.468L307.162 383.71L305.647 383.305L305.042 382.344L304.286 380.928L302.369 379.208L299.341 378.5L296.717 377.134L294.648 372.683L293.689 370.357L291.369 369.193L288.291 369.092L287.383 368.486L286.222 368.082L285.314 367.728L282.841 369.397L281.226 370.257L280.622 371.116L275.626 368.587L275.475 367.02L275.576 366.918L276.181 366.108L278.603 365.502L281.883 362.417L282.085 359.482L280.37 355.083L278.905 352.503L276.937 351.846L274.263 349.013L272.547 347.395L268.862 346.838L264.926 345.473L263.513 343.5L262.554 339.96L259.022 338.24L258.063 335.256L255.237 332.474L253.876 330.199L253.774 325.748L254.582 322.409L254.228 318.211L250.343 315.227L246.709 315.329L245.246 313.458L243.227 313.609L241.663 312.344L240.957 310.372L238.988 308.955L237.02 308.045L236.364 307.185L236.061 303.847L234.194 301.217L232.58 299.092L229.502 296.715L228.846 295.349L226.121 294.287L224.456 291.962L221.276 288.774L218.955 287.307L217.391 285.638L216.735 283.362L214.313 278.911L211.791 276.181L210.327 273.954L208.156 273.5L207.956 273.449L208.106 272.639L205.332 270.464L204.625 268.087L198.771 265.457L195.793 262.473L192.766 258.325L190.495 255.189L186.761 250.991L184.641 247.553L182.673 240.876L182.623 232.328L181.008 231.974L178.535 231.468L176.668 229.394V228.484L178.081 227.523L178.232 225.398L179.04 223.881L179.141 219.733L175.154 217.508L173.288 215.586L171.674 215.08L171.371 213.765L172.934 211.034L172.784 206.331L169.906 204.61L167.989 201.676L166.525 200.614L165.819 199.3L162.488 199.25L159.462 199.856L156.736 196.973L153.153 191.965L152.952 188.728L154.718 188.02L155.526 186.604L155.577 186.553L154.265 185.289L150.783 179.017L150.633 177.752L153.257 175.981L153.661 173.959L152.349 170.975L152.147 166.777L154.266 157.369L156.386 154.79L162.794 153.07L164.156 151.35L166.125 149.782L168.597 150.743L169.909 153.12L170.515 156.207L172.029 159.342L176.368 165.918L183.636 172.999L186.563 173.453L187.572 173.605L191.004 172.999L194.233 168.193L194.687 165.21L196.251 162.377L199.38 160.253L201.752 154.335L205.031 153.678L210.027 154.487L218.807 156.308L223.147 156.51L224.307 153.02L227.638 152.059L228.092 150.137L229.404 149.935L230.667 152.413L234.754 153.881L238.69 155.195L247.42 159.646L249.992 159.191L251.809 157.471L253.071 157.218L255.493 159.393L258.016 160.556L260.993 160.809L262.256 160.354L263.315 160.101L266.242 162.124H268.614L270.683 162.832L273.307 162.681L275.578 161.72L279.11 161.77L281.633 162.984L284.56 165.412L289.303 168.296L293.996 167.992L295.46 166.07L295.964 163.591L298.689 162.023L300.153 160.051L301.868 159.646L303.837 161.922L305.602 161.012L306.914 161.568L307.167 163.844L308.73 165.26L310.395 165.513L313.019 166.07L316.552 170.116L317.864 171.837L320.891 173.909L322.91 173.656L323.616 172.443L326.796 169.408L328.563 167.992L329.976 167.435L331.489 167.587L334.215 167.282L335.982 166.879L336.638 165.766L338.453 165.513L339.665 166.525L340.977 167.283L342.188 166.12L343.299 165.261L344.257 165.362L345.366 168.195L348.848 169.713L349.706 172.192L351.472 175.024L351.422 177.907L349.706 179.07L352.431 183.421L358.739 186.608L365.551 185.9L365.097 182.966L364.239 181.55L364.341 180.184L366.259 179.678L369.488 179.173L372.011 177.654L373.424 176.643L373.525 175.53L372.566 174.924L370.397 175.43L369.589 174.469L368.933 172.95L369.438 168.398L369.993 165.363L368.581 163.239L368.833 160.103L371.355 159.547L375.241 159.242L376.149 156.461L376.805 154.894L378.874 154.742L382.406 156.968L391.338 157.221L392.65 155.653L391.994 152.366L389.472 151.152L386.091 150.747L382.911 150.191L379.782 148.066L376.603 147.257L372.819 145.689L370.851 142.705L368.328 140.732L364.24 138.911L363.838 136.433L364.847 134.713V133.145L362.98 128.391L363.737 127.177L367.824 126.772L369.388 125.862L368.631 123.485L366.108 122.827L363.586 122.979L361.215 124.294L359.146 122.878L357.581 121.462L358.339 120.247L358.237 116.858L359.448 114.076L360.357 112.204L359.802 109.979L357.026 107.197L354.402 105.477V104.061L356.471 103.555L357.783 102.392L357.026 101.178L354.755 101.076L354.503 96.221L353.09 95.412L352.08 93.186L351.777 90.707L351.676 90.454L353.644 89.442L355.814 87.571L358.69 87.419L361.012 87.672L363.888 85.497L367.521 84.435L367.42 78.214L368.682 77.304L373.93 79.479L376.403 80.238L379.733 80.389L380.995 79.985L381.298 78.973L380.44 77.506L380.996 75.887L382.863 74.875L385.941 75.128L387.808 74.42L393.611 69.16L393.914 66.125L394.672 64.658L398.153 63.596L401.029 62.736L403.804 61.877L406.832 62.332L409.859 63.344L413.593 65.417L416.469 64.152L420.809 62.382L425.753 61.522L428.176 62.938L429.892 63.899L431.356 62.938L433.273 61.775L435.14 62.635L437.411 63.039L441.196 64.151L444.375 66.933L446.797 69.412L447.907 72.851L448.361 75.936L449.825 76.948L452.701 79.578L454.417 80.185L457.849 81.45L460.422 85.9L463.5 86.608L466.226 89.795L468.244 91.11L470.162 96.471L473.038 98.039H476.066L477.983 96.724L480.557 97.432V101.782L480.809 107.549L479.346 110.635L478.74 112.91L481.314 115.338L481.464 119.233L479.193 121.661L479.749 124.545L483.533 126.162L485.098 128.389L485.954 130.159L489.689 132.486L494.128 135.773L499.376 139.416L501.647 140.681L503.817 138.607L507.602 140.074L509.771 142.553C509.771 142.553 512.345 145.133 512.546 145.133C512.799 145.133 515.423 145.436 515.423 145.436L518.45 147.206L521.074 146.498L525.565 149.838L527.735 151.102L529.047 152.67L528.34 154.743L526.321 159.802L524.908 162.583L521.83 164.506L522.233 166.578L524.807 170.018L532.931 172.496L533.334 175.227L532.931 178.009L528.895 179.274L522.99 180.032L521.427 181.196L522.436 184.231L524.354 186.507H528.088L530.964 188.277L535.455 189.036L537.222 192.07L539.795 196.016L550.645 196.066L553.975 197.381H556.145L560.485 198.493L564.421 200.922L565.431 205.17L568.005 207.496L569.618 210.531L573.051 212.099L574.766 212.251L576.028 211.087L580.216 200.466L582.537 197.178L583.445 194.598L584.757 193.03L589.097 191.968L590.004 189.389L592.275 187.821L594.697 188.428L601.61 194.801L605.042 196.267L611.248 198.442L614.681 200.769L615.387 203.096L613.772 205.422L609.483 205.675L606.607 205.271L601.813 203.854L600.703 204.765L600.249 209.013L598.181 209.872L595.405 210.177L594.699 212.807L597.121 215.437L599.291 217.005L600.603 221.455L604.388 225.553L607.819 228.335L609.736 231.268L609.282 234.202L607.719 236.984L605.801 240.929L606.204 243.964L606.658 246.745L602.874 250.184L599.543 253.622L595.104 254.482L593.792 267.077L592.884 272.438L594.447 275.068L595.053 279.672L596.062 283.616L597.324 284.882L599.746 286.298L602.472 289.383L603.784 297.375L605.551 301.876C605.551 301.876 611.959 308.553 611.656 307.794C611.353 307.035 614.583 308.653 614.583 308.653L617.863 310.524L621.042 311.739L628.46 319.527L630.479 322.967L635.727 325.041L637.039 326.002L637.948 331.919L637.09 335.005L633.861 338.748L631.843 343.249L628.259 347.599L627.25 350.179L625.029 353.972L621.396 357.868L618.924 358.171L614.987 356.856L612.968 356.908L610.949 359.538H608.173L607.014 361.611L605.55 362.623L603.833 363.685L605.298 366.315L607.468 370.666L606.407 378.101L605.298 383.615C605.298 383.615 606.003 386.954 606.003 387.207C606.003 387.46 612.06 392.669 612.06 392.669L612.766 394.844L611.504 397.323L611.05 403.292L606.457 405.214L606.861 406.781L605.6 409.918L602.621 410.474L601.814 412.497L601.763 412.548L598.331 411.182L595.809 410.474C595.809 410.474 590.813 410.322 590.662 410.322C590.511 410.322 588.24 411.588 588.24 411.588L584.405 413.51L582.79 414.269L580.974 414.572L578.047 412.499L575.776 411.842H574.363L572.395 413.309L571.486 414.017L569.771 413.208L567.601 412.752L565.784 413.916L564.321 416.091L563.11 419.125L561.041 420.49L557.609 421.198L553.673 421.147L552.26 421.603L550.039 420.338L548.323 421.097L547.062 421.653L544.64 421.906L543.328 421.25L539.694 421.198L538.937 422.666L537.02 423.475L535 423.88L534.647 425.902L531.619 430.808L531.317 431.971L531.771 432.932L531.569 434.45L530.711 435.715L529.299 435.816L528.391 436.322L527.129 436.221L524.403 432.325L522.89 429.948L520.366 427.015L518.853 426.61L516.985 426.559L514.463 427.723L512.948 428.987L511.687 430.758L509.618 432.831L507.953 433.943L505.228 434.449L502.654 436.573L498.365 438.8L496.297 438.95L494.833 442.44L493.571 445.526L493.218 448.055L494.429 450.786V453.264L493.621 454.529L490.946 457.311L488.172 458.322L486.103 459.133L485.346 460.347L483.681 460.549L482.418 459.79L481.511 459.891L481.913 457.312L484.337 452.557L483.528 448.916L481.056 443.352L480.45 436.979L475.202 425.649L469.197 421.856L464.201 419.478L460.417 419.581L457.439 415.787L455.32 413.511L455.169 409.212L452.344 405.267L449.316 401.625L446.137 399.146C446.137 399.146 444.926 398.843 444.774 398.843C444.623 398.843 442.907 398.691 442.907 398.691L441.747 400.967L440.435 402.788L437.104 402.384L433.118 405.014L428.374 404.508L424.741 401.372L423.782 398.184L424.591 397.476L423.884 393.784L421.865 390.699L418.938 390.75L416.667 393.684L415.152 396.112L414.648 401.574L411.721 403.951L411.57 406.127L409.754 408.606L408.491 411.438L406.827 413.158C406.827 413.158 403.849 416.042 403.899 416.295C403.95 416.548 401.628 420.441 401.628 420.441L400.771 420.644L398.046 422.566L397.642 425.449L396.38 425.6L395.119 427.32L394.009 427.472L391.132 426.561L387.953 426.511L385.582 427.725L384.319 426.359L382.048 425.348L381.09 424.032L381.493 421.757L381.946 420.239L380.937 419.38L379.928 420.139L378.868 420.038L377.96 418.368L377.253 418.217L376.749 419.431L377.455 420.847L377.809 423.882L379.726 425.652L379.828 429.042L381.189 430.407L384.37 430.912L385.529 431.772L385.781 432.986L387.144 434.554L388.305 436.375L390.172 438.297L392.846 439.258L395.924 441.786L398.044 443.254L399.558 443.759H399.608L399.507 451.751L399.204 454.481V458.679L400.566 462.321L398.952 463.383L398.246 462.979L396.983 461.562L394.359 460.652L392.998 459.994L391.937 459.033L391.08 458.124L390.019 459.136L388.859 458.933L385.175 455.898L384.014 453.825L383.611 449.425L383.006 447.301L382.199 445.834L379.977 444.974L379.12 443.963L378.666 441.736L377.708 439.208L375.79 437.893L374.68 437.944L371.248 434.909L368.624 433.189L365.799 430.509L364.738 428.282L363.175 426.007L362.418 425.197L361.357 425.955L360.45 426.007L359.439 425.4L358.43 426.159L357.269 426.21L354.645 423.884L352.375 420.04L352.122 418.659Z" fill="#F15A45"/>
<path d="M339.658 414.006L339.556 414.815L338.9 415.22L337.134 414.208L334.258 411.679L333.249 411.477L332.492 410.618L332.138 409.404L330.575 408.139L328.91 407.228L326.134 405.357L323.813 403.384L321.745 401.816L320.383 400.855L319.474 399.288L318.768 397.062L317.205 395.495L312.714 393.521L311.25 393.167L309.181 392.206L308.677 390.537L307.617 389.879L306.456 389.424L305.648 388.463L302.52 388.058L301.511 386.845L300.552 386.491L298.685 384.619L297.576 383.86L295.961 382.292L295.657 380.775L296.163 380.471L295.557 379.914H293.994L292.782 378.447L291.168 377.992L289.755 378.65L288.998 379.053L287.636 379.104L286.575 377.992L285.768 377.385L284.96 376.981L284.557 377.638L285.97 379.459L286.626 380.065L287.23 381.178L286.524 382.038L285.667 381.987L284.506 380.166L283.901 379.357L280.369 377.789L276.181 376.777L273.708 375.816L269.268 374.198L265.787 373.287L265.181 372.73L264.727 371.163L264.223 369.544L263.264 368.583L259.681 368.634L256.3 366.965L254.584 365.7L253.07 365.043L251.606 364.031L247.569 362.463L245.652 362.16L244.038 362.716L240.203 361.149L236.62 359.531L235.712 359.075L235.61 357.204L235.156 356.597L235.51 356.243L237.175 356.192L239.648 357.862L243.735 358.367L250.699 358.873L255.392 359.834L256.906 360.34L259.984 361.908L260.993 362.667L263.314 363.931L264.626 364.791L265.029 365.499L265.735 366.258L266.139 367.118L267.3 367.724L268.863 367.826L269.469 368.332L270.68 367.775H271.487L272.245 368.179L272.446 368.937L273.002 369.292L273.809 369.898L278.2 372.073L278.958 372.326L281.53 373.438L282.741 374.551L283.751 375.006L284.608 374.551L282.186 372.325L281.429 372.022L280.521 371.009L281.126 370.15L282.74 369.291L285.214 367.621L286.122 367.975L287.282 368.38L288.19 368.987L291.268 369.088L293.589 370.252L294.548 372.578L296.616 377.029L299.24 378.394L302.268 379.102L304.185 380.823L304.942 382.239L305.548 383.2L307.062 383.603L308.577 384.363C308.577 384.363 309.282 385.122 309.334 385.222C309.384 385.324 310.897 388.206 310.897 388.206L312.259 389.42L314.833 390.735L317.104 393.214L319.072 393.871L320.384 394.832L320.988 395.945L321.999 396.601L323.865 395.843L324.066 394.781L326.64 394.426L328.356 395.286L330.829 396.703L332.747 401.406L333.302 405.25L334.21 408.285L336.885 411.219L339.055 412.433L339.658 414.006Z" fill="#FDBE1E"/>
<path d="M324.419 104.46L327.799 104.156L329.919 102.083L334.713 100.211L337.135 94.3949L339.809 93.2829L342.08 90.7029H346.066L349.75 91.5629L351.971 90.3989L352.122 90.6519L352.425 93.1309L353.434 95.3569L354.797 96.1669L355.049 101.022L357.37 101.072L358.077 102.338L356.765 103.501L354.746 103.956V105.373L357.37 107.092L360.145 109.925L360.701 112.1L359.843 114.022L358.581 116.803L358.682 120.192L357.925 121.406L359.49 122.822L361.558 124.239L363.929 122.925L366.452 122.722L369.025 123.38L369.731 125.808L368.168 126.667L364.081 127.123L363.374 128.337L365.241 133.091V134.658L364.231 136.379L364.635 138.857L368.773 140.678L371.296 142.651L373.264 145.635L377.048 147.152L380.277 148.012L383.407 150.136L386.586 150.693L389.967 151.148L392.49 152.362L393.145 155.649L391.833 157.217L382.9 156.964L379.369 154.738L377.3 154.89L376.644 156.458L375.735 159.29L371.9 159.594L369.328 160.2L369.075 163.285L370.488 165.461L369.932 168.496L369.428 173.048L367.51 172.441L366.905 170.367L366.4 168.041L361.556 163.691L360.647 160.656L359.436 157.52L357.116 154.182L356.864 151.501L357.317 144.723L356.762 142.65L354.289 141.284L351.16 140.83L347.223 140.323L343.792 139.109L341.772 137.49L340.865 135.366L342.227 133.546L344.8 131.775L347.273 130.612L349.392 128.133L350.502 125.351L349.745 120.951L348.282 119.586L343.891 119.435L340.813 118.373L340.308 116.45L338.542 115.995L336.877 114.073L335.464 110.988L331.528 107.65L328.549 107.447L323.806 105.88L322.999 104.464L323.1 104.11L324.419 104.46Z" fill="#6B97CF"/>
<path d="M301.61 389.019V389.83L298.633 389.779L298.481 388.767L300.249 388.261L300.551 388.16L301.61 389.019Z" fill="#FDBE1E"/>
<path d="M297.775 385.782L297.977 386.844L296.311 387.249L295.504 386.439L293.737 385.68V384.821L292.88 383.86L292.83 383.203L294.041 383.152L294.545 383.455L295.605 383.86L297.775 385.782Z" fill="#FDBE1E"/>
<path d="M287.279 388.564L286.471 389.526L285.714 389.272H282.838L281.475 388.058L279.053 387.704L276.177 386.389L273.301 386.035L270.172 385.276L267.498 384.214L263.611 384.264L262.602 383.354L259.927 382.848L258.767 382.393L257.152 380.623L257.001 379.662L259.424 379.104L260.685 378.953L264.217 380.218L267.75 381.482L272.544 383.303L275.117 384.011L277.488 384.871L284.855 386.692L287.279 388.564Z" fill="#FDBE1E"/>
<path d="M280.567 355.03L282.284 359.48L282.082 362.415L278.802 365.5L276.38 366.106L275.774 366.916L275.421 366.562L274.311 366.309L272.243 365.095L270.124 364.539L269.013 363.679L267.55 361.049L266.944 360.392L267.702 359.936L269.014 359.886L269.569 359.431L269.671 358.52L268.41 357.306L267.198 357.864L265.382 357.712L264.07 356.245L263.466 356.903L261.901 356.8L261.397 355.89L260.085 354.474L259.227 353.968L257.006 353.614V350.73L256.048 350.276L253.979 348.404L252.97 347.797L251.859 347.241L251.457 346.836L249.791 345.774L248.429 345.826L247.924 345.32L246.461 343.802L245.956 343.751L244.896 342.638L243.836 342.689L242.978 342.235L242.726 341.526L240.808 339.603L238.436 337.378L238.235 336.67L237.881 336.215V335.608L237.325 335.102L237.224 334.545L235.256 332.623L234.399 332.118L232.178 330.095L231.775 329.083L229.807 326.959L229.605 326.352L228.545 325.542L227.384 324.581L222.691 323.924L222.289 323.62L219.463 322.558L217.091 322.356L216.132 321.902L215.224 320.485L213.761 320.03L212.348 319.979L211.187 319.523L208.413 318.562L205.637 317.451L202.357 314.314H201.146L200.44 313.808L198.27 314.87L196.1 314.921L194.99 314.465L194.385 313.858L194.688 312.847L197.414 312.341L198.069 311.886L197.312 310.975L194.688 310.419L193.729 309.863L192.518 310.266L181.972 312.745H175.866L175.412 313.251L176.17 313.908L177.835 314.262L178.39 314.92L177.329 315.476L174.302 316.033L170.568 314.971L168.297 312.949L167.137 312.847L166.076 312.139L166.128 310.825L166.732 310.37L166.379 310.015L165.116 309.358L163.553 307.791L164.613 306.779L163.805 305.969L163.099 304.452L163.2 301.264L164.108 300.405L163.704 299.343L165.219 298.939L165.117 296.511L163.2 296.258L161.586 294.69L160.627 294.336L160.224 292.717L162.04 292.667L162.645 292.109L161.232 290.289L161.081 286.597L161.686 285.232L163.704 284.119L167.035 283.866L168.045 284.928L168.853 284.826L169.66 284.22L169.307 283.006L168.197 282.5L168.701 281.993L168.097 281.488L168.248 280.931L171.629 281.69L180.308 286.242L182.83 286.547L184.193 285.383L186.111 283.612L192.015 280.931L198.676 280.577L202.409 277.238L204.428 276.632L208.161 274.103L208.313 273.597H208.464L210.634 274.052L212.097 276.278L214.619 279.009L217.043 283.46L217.698 285.735L219.262 287.456L221.583 288.923L224.762 292.109L226.377 294.436L229.102 295.498L229.758 296.863L232.836 299.189L234.45 301.314L236.317 303.945L236.621 307.232L237.276 308.091L239.245 309.002L241.213 310.418L241.919 312.391L243.533 313.656L245.553 313.504L247.016 315.376L250.649 315.275L254.535 318.258L254.889 322.456L254.082 325.744L254.183 330.245L255.495 332.52L258.32 335.302L259.279 338.237L262.812 340.007L263.77 343.548L265.183 345.52L269.119 346.886L272.804 347.443L274.52 349.01L277.194 351.843L279.162 352.5L280.567 355.03Z" fill="#FDBE1E"/>
<path d="M247.667 367.169L247.817 368.585L241.056 368.535L239.492 368.23L237.725 367.724L234.344 367.623L232.124 368.331L229.348 368.937L226.068 368.836L224.202 368.229L219.661 367.976L217.138 367.521L215.119 366.915L213.15 365.701L210.83 365.044L211.587 364.386L212.394 363.78L214.665 363.476L214.917 362.919L213.655 362.211L210.476 360.896L209.871 360.441L211.687 359.885L213.706 360.492L217.339 361.453L220.67 362.818L224.505 363.475L228.138 362.514L235.808 362.261L236.666 362.665L239.391 362.868L241.057 364.233L245.194 364.839L245.85 364.789L247.667 367.169Z" fill="#FDBE1E"/>
<path d="M246.91 347.897L247.061 348.959L243.932 350.021L239.592 349.263L236.615 348.959L232.376 349.01L229.349 349.313L226.926 349.263L223.697 348.808L219.913 348.352L215.774 349.06L210.628 348.454L209.215 348.151L204.472 346.33L202.302 345.926L201.091 345.572L199.274 344.46L196.903 344.005L194.279 343.195L192.361 342.285L191.958 341.324L194.582 341.019L195.944 341.526L197.963 340.564H202.051L202.101 340.616L204.372 343.195L206.037 343.296L206.944 343.044L206.744 342.233L204.473 340.363L202.909 339.908L203.06 338.795L205.23 338.542L206.29 339.402L208.46 339.856L210.126 340.363L211.337 341.071L212.548 341.93L216.029 344.914L217.391 345.571L229.502 345.673L234.599 345.976L237.525 346.533L239.695 347.09L242.975 347.747L246.91 347.897Z" fill="#FDBE1E"/>
<path d="M230.963 381.736L231.064 383.303L230.157 384.264L228.996 384.77L227.734 384.669L227.079 384.315L226.12 384.214L224.605 384.669L223.444 384.112L222.637 383.302L222.991 382.291L224.1 381.835L224.605 380.773H225.766L226.826 381.127L227.431 380.621L229.5 380.874L230.963 381.736Z" fill="#FDBE1E"/>
<path d="M226.775 330.549L227.179 333.787L226.27 334.596L220.467 334.798L217.086 335.709L216.278 336.063L215.319 335.607L203.359 335.506L202.25 335.051L199.223 331.763L198.264 331.409L196.548 331.005L196.346 330.195L197.456 329.791L197.204 328.526L196.85 327.514L198.01 326.704L196.951 325.086L195.74 323.973L195.992 323.367L197.455 323.569L201.492 324.986L206.488 325.289L208.658 325.643L213.148 326.048L215.824 326.705L217.337 327.262L219.81 327.768L220.819 328.172L220.669 329.032L221.628 329.638L222.586 330.346L226.775 330.549Z" fill="#FDBE1E"/>
<path d="M201.949 34.4069L203.261 36.0759L200.889 35.4189L198.063 33.5479L196.5 33.4459L196.046 32.7889L194.683 32.1309L193.018 30.6139L192.11 29.9559L191.05 30.2089L188.779 32.7379L187.517 33.8499L186.962 33.4459L185.348 33.5479L183.682 35.0649L183.784 36.3799L185.852 42.6019L187.517 44.4219L187.467 46.1419L183.481 46.2439L182.876 45.1309L180.353 46.2939L178.79 44.8269L177.325 43.7149L174.753 45.1309L173.542 44.7269L171.725 44.4739L171.271 45.5859L171.876 46.5469L172.936 49.1269L170.514 49.8349L169.05 51.8579L168.394 52.8189L166.831 51.9589L164.812 54.0329L162.137 54.5899L159.463 56.0569L156.839 56.1579L154.568 56.9169L155.124 58.3839L154.973 59.5469L153.963 61.3679L152.701 61.8739L149.422 60.1029L145.485 60.5579L144.98 63.7949L142.709 65.2109L143.063 66.4759L142.154 66.8799L142.608 67.8409L142.255 70.1169L143.264 71.8879L144.173 73.4059L145.081 73.1529L145.788 74.7199L147.654 74.5179L150.329 76.3889L148.462 80.4869L149.017 84.0269V87.2639L148.714 88.4269L147.654 88.9839L146.897 89.6409L146.999 90.9559L147.806 91.7659V93.2329L148.916 94.5469L148.967 95.5589L147.604 95.3059L147.352 95.9629L146.04 96.1659L144.475 97.7329L142.962 96.5699L141.65 95.3049L140.288 94.7989L138.926 95.4059H138.117L137.412 97.2769L136.149 97.3279L134.888 96.7709L134.181 96.8729L133.273 99.5539L132.87 100.16L131.154 100.11L129.086 100.312L124.645 102.638L120.759 104.611L119.397 105.876L119.296 106.685L122.122 109.417L123.585 110.327L124.24 109.77L124.442 108.101L125.705 107.443L126.462 108.606L125.755 110.731L127.017 110.478L129.086 113.057L128.025 114.322L125.957 113.665L122.777 114.727L122.424 116.547L121.213 116.75L120.708 117.761L121.817 119.076L121.968 123.526L123.987 125.955L126.461 127.22L127.016 128.484L125.754 129.192L124.089 131.772L122.02 131.064L120.506 130.507L118.79 131.113L117.125 133.491L116.115 133.593L115.106 133.087L113.794 134.149L112.531 133.896L109.15 131.114L108.09 128.939L106.173 127.574L103.902 128.029L101.278 127.017L99.815 125.247L97.948 124.032L96.939 125.094L96.788 128.433L94.769 129.495L91.64 130.557L90.934 130.051L88.663 126.207L87.503 125.954L84.425 123.525L83.062 123.83L82.507 122.109L83.163 121.047L82.709 119.833L82.104 118.568L80.337 118.112L77.057 115.027L76.856 113.56L77.764 112.549L77.41 111.487L75.291 110.475L74.332 112.954L72.818 115.735L70.648 116.545L69.942 118.821L69.79 122.413L65.451 125.245L63.735 125.296L61.817 127.471L60.505 127.572L58.738 128.229L57.022 127.623L54.549 126.611L52.733 125.144L51.724 126.915L49.806 127.876L47.838 127.37L46.374 128.129L44.911 127.219L42.136 126.713L40.269 124.791L37.443 123.678L35.222 123.931L35.324 125.651L36.737 126.763L37.04 128.483L35.576 130.304L34.163 129.242L32.397 129.14L30.176 131.719L27.855 131.618L25.787 130.606L24.726 129.494L23.061 128.128L19.832 128.583L17.813 129.442L15.997 130.049L14.635 129.139L12.213 128.077L10.8 127.116L10.901 124.029L10.093 123.776L9.79 122.815L11.557 122.412L11.506 121.097L12.465 121.046L13.575 121.4L15.391 121.502L16.804 120.642L19.63 120.592L20.942 119.024L20.539 117.457L18.722 116.395L19.732 115.536L23.567 116.092L23.516 117.003L25.585 117.559L27.654 117.357L29.168 115.283L31.236 113.969L32.751 113.109L31.338 112.097L29.824 111.136L27.553 107.798L27.301 105.977L25.585 104.258L25.131 102.892L23.466 101.526L20.943 100.363L17.259 97.4289L13.171 96.8729L11.96 93.9389L11.456 92.1179L12.263 88.6789L15.038 84.3289L15.189 80.7879L15.038 79.8269L13.726 79.6249L12.364 79.0679L10.8 80.3829L8.529 81.2929L7.722 80.7369L7.117 79.7249L5.704 78.2579L5.905 76.8419L7.117 75.4249L6.864 73.1989L7.772 72.1369L11.457 69.5569L17.108 65.6619L17.159 63.4359L18.471 62.1709L16.806 60.8059L14.485 61.0079L13.021 60.4519L12.012 61.0079L11.407 59.5919L9.742 58.2769L7.572 58.1259L6.664 57.3159C6.664 57.3159 4.443 57.8729 4.292 57.8729C4.141 57.8729 3.03 58.0239 3.03 58.0239L2.425 56.5069L0.306 51.7519L0 50.3909L4.238 47.9629L4.794 46.8499L3.886 45.6359L4.441 44.3709L7.468 43.7649L9.638 42.4999L10.95 41.9939L12.918 40.2739L13.221 39.5659L13.877 37.8969L17.106 36.9359L19.982 37.9979L20.79 36.6839L21.244 34.4579L21.496 32.5859L22.102 30.7149L25.432 30.6639L26.845 31.4739L28.409 31.8779L29.367 30.4619L31.487 31.0689L32.799 30.4109L34.767 30.5629L37.24 32.2319L39.309 33.7499L41.731 34.6599L43.043 33.4459L47.686 34.5579L49.3 37.7449L50.713 39.3639L51.571 38.8069L53.993 38.9579L55.204 39.5649L56.617 39.0079L58.333 38.6539L60.401 40.0189L64.236 39.1599L66.608 38.3499L69.131 40.8289L71.805 41.4859L72.562 40.7779L73.572 40.3739L75.237 44.2179L76.196 45.7359L77.508 44.8249L77.307 41.1339L78.316 39.7169L82.605 38.9579L85.431 35.5189L86.693 34.0019L92.547 33.5969L92.648 31.0179L94.969 26.1119L96.736 24.0889L99.36 24.7459L99.461 23.4819L100.521 23.0269L101.631 21.9139L103.195 24.7459L104.659 22.5209L107.232 20.0419L109.805 21.0029L110.764 19.7379L112.48 20.4969L114.599 19.9909L117.425 21.3559L119.696 21.7099L122.674 20.6479L130.647 20.5969L133.121 21.5079L134.079 24.0869L136.904 23.6829L139.63 21.4569L139.126 19.3329L142.708 17.1569L143.565 18.4719L144.322 17.8149L145.685 17.5109L147.299 15.8419L149.671 16.6509L153.404 16.4999L156.786 14.6289L160.47 14.8309L165.617 17.8659L167.787 18.3209L168.694 19.9899L170.511 20.4959L171.066 18.5739L170.057 16.0949L168.543 15.1339L167.332 11.9999L168.139 6.38592L167.231 5.42492L167.787 4.05992L171.925 3.40292L173.186 1.93592L175.255 1.12592L176.92 2.13792L179.292 2.03592L182.169 0.315918L186.205 0.669918L188.375 2.23692L190.495 4.05792L190.293 6.28392L188.224 8.60992L189.082 9.77392L188.678 11.3919L190.242 13.5669L192.31 16.7539L195.389 17.4109L195.187 19.6869L193.875 20.0409L193.118 21.1029L193.622 22.7219L198.719 27.9819L200.082 28.9429L201.848 31.5229L201.949 34.4069Z" fill="#FDE776"/>
<path d="M195.186 327.718L192.814 327.515L187.919 324.936L185.193 324.43L183.075 323.419L182.317 322.205L182.368 320.536H183.528L184.386 321.092L187.212 321.497L190.189 322.963L192.006 323.419L192.61 324.43L192.964 325.29L194.68 326.453L195.437 327.01L195.186 327.718Z" fill="#FDBE1E"/>
<path d="M193.37 343.903L193.521 344.914L191.401 345.268L189.029 344.409L188.979 343.397L190.442 343.093L191.503 343.751L193.37 343.903Z" fill="#FDBE1E"/>
<path d="M192.159 314.465L192.26 315.528L191.907 316.033L182.622 315.882L182.318 314.465L185.194 314.061L184.993 312.949H186.709L188.576 314.011H190.494L190.896 314.416L192.159 314.465Z" fill="#FDBE1E"/>
<path d="M184.792 352.096V353.31L183.024 355.081L182.217 356.7L181.611 356.851L181.411 356.447L180.502 356.498L179.644 356.042L178.383 356.902L176.516 356.953L175.659 356.395L174.447 356.902L173.54 356.8L173.085 355.839L173.741 355.434L173.387 354.676L172.883 353.867L171.722 353.411L170.713 352.653L171.015 352.046L172.479 351.489L175.205 350.932L178.788 350.781L179.292 350.427H180.1L180.705 350.781L180.2 351.793L182.016 352.299L182.823 351.894L184.792 352.096Z" fill="#FDBE1E"/>
<path d="M178.08 318.613L178.332 319.522L178.029 320.029L174.85 319.978L174.952 319.269L176.667 318.663L178.08 318.613Z" fill="#FDBE1E"/>
<path d="M173.083 317.956L173.134 318.833L171.166 318.884L171.064 318.162L172.225 317.905L173.083 317.956Z" fill="#FDBE1E"/>
<path d="M170.157 359.48L170.106 360.998L169.046 361.959L168.844 361.555L167.684 361.504L167.028 360.847L167.633 358.52L169.046 358.469L170.157 359.48Z" fill="#FDBE1E"/>
<path d="M158.904 296.863L159.207 298.178L158.45 298.582L157.945 298.48L156.683 297.114L156.431 296.406L155.977 295.9L156.582 295.042L157.339 295.192L158.196 295.698L158.904 296.863Z" fill="#FDBE1E"/>
<path d="M146.037 284.017L146.541 283.612L146.289 283.056L144.371 281.538L137.861 277.491L136.953 277.037L135.49 274.508L134.582 274.052L130.947 271.573L130.091 269.045L127.971 266.921L126.457 263.937L124.438 261.458L123.277 260.851L121.562 257.918L120.098 255.944L118.382 255.742L116.213 251.595L113.336 246.942L113.134 244.161L110.46 240.62L111.217 240.013L113.134 239.963L114.598 242.491L115.708 242.593L116.717 241.783L116.768 239.304L117.07 238.495L118.131 238.343L121.764 241.833L122.219 241.328L122.269 240.012L123.177 239.304L123.127 238.242L121.865 236.522L121.814 235.46H123.329L125.144 237.735L126.608 238.495L129.334 240.872L131.654 240.721L132.866 240.569L137.004 243.148L137.054 244.463L133.926 244.716V247.043L136.348 248.61H141.596L142.605 250.128L142.959 250.279L142.354 251.695L137.41 252.202L132.212 253.871L131.808 257.815L132.717 262.57L135.744 264.038L139.378 266.263L147.098 266.314L148.915 265.808L152.699 266.162L153.961 267.78L155.879 272.635L159.562 278.198L164.66 280.121L168.243 280.93L168.091 281.487L166.679 281.74L164.105 282.044L162.137 283.056L160.32 282.702L159.918 281.74L159.109 281.436L158.505 280.83L157.899 281.336L158.303 282.65L159.11 284.724L158.708 291.248L157.345 290.844L154.418 289.175L150.784 288.364L148.059 287.808L146.798 285.734L144.729 284.42L143.77 283.56L145.537 283.358L146.037 284.017Z" fill="#FDBE1E"/>
<path d="M144.27 297.268L143.109 297.015L142.15 296.51L141.898 295.549L142.756 295.093L143.26 295.65L145.178 295.903L146.49 296.56L149.012 298.28L149.416 298.787L148.607 299.293L147.498 298.787L145.631 298.382L144.27 297.268Z" fill="#FDBE1E"/>
<path d="M143.059 288.062L142.049 287.758L141.848 286.848L140.182 285.584L139.224 284.116L139.173 283.054L139.88 282.902L140.99 282.447L141.594 283.408L142.25 284.52L144.37 286.847L144.471 287.606L144.874 288.314L143.865 288.465L143.059 288.062Z" fill="#FDBE1E"/>
<path d="M143.765 248.308L143.462 247.347L143.513 247.094L144.169 247.144L144.067 243.958L144.571 238.241L144.925 235.713L143.663 231.92L141.746 229.491L138.415 226.66L135.337 225.547L131.3 223.068L130.19 221.854L132.209 220.54L133.975 220.287L134.581 213.307L133.118 207.187L132.663 202.483L132.714 198.184L132.815 194.34L131.099 188.825L128.929 186.702L128.425 183.465L128.778 181.442L131.504 176.131L129.839 173.754L129.435 172.135L127.416 168.139L125.397 165.509L122.824 164.144L122.421 161.817L125.297 160.097L130.495 158.732L132.412 156.81L131.856 154.787L131.806 152.156L135.691 151.651L136.902 150.084L138.871 146.037L139.779 142.092L142.05 138.501L143.867 137.894L145.532 133.494L147.702 130.408L148.964 130.56L149.872 131.369L151.84 131.268L152.95 128.587L155.574 128.537L157.34 126.463L162.033 126.412L165.514 131.115L169.904 131.218L178.685 129.548L182.469 127.829L185.245 129.446L186.658 131.52L194.731 136.679L198.818 136.831L201.292 135.718L207.852 139.208L211.889 136.679L214.16 137.033L216.279 140.574L220.467 142.345L221.628 144.823L225.261 145.026L228.289 144.52L231.266 145.987L234.849 146.24L238.633 140.171L239.088 137.541L239.996 135.062L240.198 130.307L243.175 128.992L246.707 127.019L248.271 126.109L251.399 124.642L253.973 124.389L259.372 125.047L260.886 127.424L259.12 130.661L256.192 133.999L255.94 136.933L258.715 142.092L260.986 144.621L259.018 146.796L255.233 149.526L255.285 152.208L251.146 155.344L250.289 159.289L247.766 159.743L239.037 155.293L235.1 153.978L231.013 152.562L229.802 150.033L228.49 150.235L227.984 152.157L224.655 153.118L223.494 156.608L219.153 156.406L210.374 154.586L205.378 153.776L202.098 154.433L199.726 160.351L196.598 162.476L195.034 165.308L194.529 168.242L191.35 173.048L187.918 173.654L186.909 173.503L183.981 173.048L176.715 165.967L172.375 159.391L170.86 156.205L170.256 153.118L168.994 150.741L166.471 149.78L164.503 151.348L163.14 153.068L156.681 154.788L154.613 157.316L152.494 166.724L152.695 170.922L154.007 173.905L153.603 175.929L150.979 177.699L151.131 178.964L154.612 185.235L155.924 186.501L155.823 186.551L155.015 187.968L153.299 188.676L153.501 191.913L157.084 196.92L159.809 199.854L162.887 199.248L166.218 199.298L166.874 200.612L168.337 201.675L170.255 204.658L173.131 206.328L173.282 211.031L171.718 213.762L172.021 215.077L173.636 215.633L175.503 217.555L179.439 219.73L179.338 223.878L178.53 225.395L178.379 227.469L176.966 228.481V229.543L178.833 231.616L181.306 232.122L182.921 232.476L182.971 241.075L184.889 247.701L187.008 251.191L190.793 255.338L193.063 258.474L196.091 262.622L199.068 265.605L204.922 268.235L205.628 270.612L208.454 272.788L208.303 273.597L208.151 274.103L204.418 276.632L202.399 277.238L198.666 280.577L192.005 280.931L186.101 283.612L184.183 285.383L182.822 286.547L180.298 286.242L171.619 281.69L168.238 280.931L164.655 280.122L159.558 278.199L155.874 272.636L153.956 267.781L152.694 266.163L148.91 265.809L147.094 266.315L139.373 266.264L135.74 264.039L132.712 262.571L131.804 257.817L132.207 253.872L137.405 252.203L142.349 251.697L142.955 250.28L143.765 248.308Z" fill="#6B97CF"/>
<path d="M130.847 273.041L131.351 273.9L130.695 274.507L128.627 274.203L127.618 273.191L125.246 272.634L124.035 271.066L123.43 269.903L122.825 268.841L121.513 267.07L120.756 265.25L120.302 263.682L120.958 263.176L122.472 263.581L123.532 264.39L124.088 265.806L126.862 268.335L127.266 269.347L129.183 271.218L129.385 271.876L130.243 272.837L130.847 273.041Z" fill="#FDBE1E"/>
<path d="M128.778 286.394L129.334 286.444L130.949 288.012L130.495 288.569H129.788L129.132 288.113L127.921 287.152L126.912 286.647L126.458 286.191L125.549 285.989L123.985 284.219L123.33 283.915L120.756 281.487L121.665 280.526L122.572 281.032L123.278 281.589L124.339 281.791L128.778 286.394Z" fill="#FDBE1E"/>
<path d="M124.438 278.453L126.053 280.323L126.658 281.234L126.002 281.588L125.599 281.234L124.589 280.778L121.208 277.34L120.603 276.379L120.048 275.722L120.452 274.862L122.015 274.964L122.873 275.823L123.882 276.885L124.235 277.34L124.438 278.453Z" fill="#FDBE1E"/>
<path d="M120.957 279.768L121.664 280.527L120.755 281.487L119.343 280.173L119.191 279.567L118.384 278.808L117.677 277.847L117.728 277.038L118.686 276.886L120.755 278.858L120.957 279.768Z" fill="#FDBE1E"/>
<path d="M118.787 233.387L118.433 234.399L117.324 234.297L116.566 233.893L115.86 232.881L116.263 231.869L117.878 232.526L118.787 233.387Z" fill="#FDBE1E"/>
<path d="M117.979 261.609L117.525 260.648L117.02 260.294L116.213 260.85L114.749 260.446L114.245 259.94L114.193 259.282L113.74 258.928L110.864 255.944L110.51 255.135L108.087 252.808V252.1L108.794 251.695L108.289 251.089L108.34 250.078L109.147 249.976L110.358 251.392L111.014 251.544L111.317 252.15L111.973 252.807L112.73 254.78L115.404 257.511L117.172 258.472L118.08 259.028L118.635 259.989L118.786 260.8L119.391 261.305L119.189 261.912L117.979 261.609Z" fill="#FDBE1E"/>
<path d="M112.68 276.53L111.015 274.912L111.722 274.153L112.68 274.658L113.741 274.912L114.648 275.924L114.8 276.683L113.891 277.037L113.235 276.581L112.68 276.53Z" fill="#FDBE1E"/>
<path d="M95.2211 248.863L95.9781 249.673L96.3811 250.837L97.0881 251.14L97.9961 252.152L98.4501 252.303L98.8031 252.91L99.2071 253.82L100.569 255.135L102.385 256.551L102.89 257.512L105.06 259.788L105.716 262.722L106.422 264.29L107.886 266.161L110.106 267.273L111.67 268.335L112.326 269.802L115.101 272.432L115.706 274.354L114.798 274.657L114.444 274.303L113.738 273.646L112.223 273.393L111.517 272.735L111.114 273.393L111.769 274.303L111.063 275.011L110.255 274.202L109.246 272.634L108.338 271.167L107.732 270.56L107.228 269.702L104.705 267.122L104.302 264.946L103.697 262.974L103.646 261.962L103.091 261.557L102.081 260.343L100.214 258.523L99.6591 257.461L97.6401 255.539L97.5891 254.629L96.8831 254.275C96.8831 254.275 95.9751 253.82 95.9241 253.719C95.8231 253.616 95.4701 253.01 95.4701 253.01L94.7131 252.606L94.0061 252.505L93.3511 251.947L93.0481 251.846L93.3511 250.683L94.1081 250.733L94.4111 250.077L94.3601 249.317L93.9571 248.811L93.8061 248.103L94.4111 247.901L95.2211 248.863Z" fill="#FDBE1E"/>
<path d="M109.3 257.158L109.703 258.423L111.065 259.485L112.024 260.142L112.528 261.103L112.782 262.064L113.337 262.975L112.933 263.885L112.378 263.43L108.139 259.383L108.241 256.804L108.846 256.703L109.3 257.158Z" fill="#FDBE1E"/>
<path d="M102.638 250.786L102.034 250.229L101.176 249.623L100.167 247.649L100.015 245.677L100.974 246.233L101.63 247.346L102.538 248.307L103.648 249.976L104.152 250.734L103.951 251.545L103.143 251.24L102.638 250.786Z" fill="#FDBE1E"/>
<path d="M92.4451 249.471L93.4041 250.634L93.1011 251.797L92.2441 251.595L91.5881 250.735L90.9321 249.825L90.9831 249.117L91.4371 248.663L92.0931 248.611L92.4451 249.471Z" fill="#FDBE1E"/>
<path d="M91.0331 186.5L91.5881 187.562L90.5281 188.675L90.0741 187.864L89.9231 185.74L90.7311 185.639L91.0331 186.5Z" fill="#FDBE1E"/>
<path d="M90.9821 180.177L90.9311 182.504L89.9731 182.605L87.9541 181.038L88.0041 178.762H88.8121L90.9821 180.177Z" fill="#FDBE1E"/>
<path d="M90.881 228.936V230.908L89.922 231.617L87.8029 230.908V230.352L87.349 229.746L87.0959 228.481L87.8029 227.924L88.0549 226.913L87.147 226.508L87.55 225.496L88.56 225.092L89.822 225.041L90.326 225.952L90.276 227.418L90.326 228.127L90.881 228.936Z" fill="#FDBE1E"/>
<path d="M90.0229 245.07L89.519 244.564L89.1649 243.705L88.408 242.795L88.4579 241.782L88.812 241.226L90.1239 241.175L90.376 241.479H90.981L93.908 244.463L93.151 245.171L92.141 244.159L91.4859 244.008L90.83 243.552L90.427 244.311L90.83 244.867L91.1329 246.233L90.628 246.688L90.073 246.082L90.0229 245.07Z" fill="#FDBE1E"/>
<path d="M89.266 204.657L91.537 207.793L92.193 207.996L93.404 209.21L94.363 209.513L95.07 208.653H96.23L98.148 210.727L99.257 211.486L100.317 213.712L100.671 214.876L103.396 216.695L104.607 216.798L106.071 217.909L106.02 219.68L105.465 219.73L103.548 218.921L102.589 218.719L101.176 217.404L99.712 216.089L98.905 215.735L98.3 215.027L97.896 215.735L98.25 216.646L99.612 218.062L100.42 218.315L100.823 219.225L102.338 220.49L102.893 222.008L104.407 223.425L105.315 223.121L105.871 222.008L106.728 221.857L107.789 223.02L108.142 224.335L111.169 227.116L112.179 227.42L113.642 229.191L114.954 231.365L116.216 231.923L115.812 232.934L114.399 232.732L113.945 233.44L115.408 234.604L116.72 235.463L117.023 236.475H115.662L114.853 235.969H113.29L112.583 235.413L112.027 236.019L113.542 237.233L113.34 237.991L112.785 238.194L111.523 237.03L110.766 236.777L109.302 235.513L108.495 234.4L108.545 230.506L107.536 229.595L105.063 229.14L103.953 226.308C103.953 226.308 100.773 223.222 100.623 223.121C100.472 223.019 99.765 222.666 99.765 222.666L97.494 221.653L97.09 220.692L95.627 219.529L96.939 218.568L94.568 216.089L94.417 214.571L93.71 213.863L93.307 212.7L90.986 210.575L89.826 208.856L88.413 206.428L86.895 204L88.156 203.24L89.266 204.657Z" fill="#FDBE1E"/>
<path d="M87.2981 201.218L88.2061 202.989L86.9951 203.799L85.6831 201.675L85.6321 200.258L86.3381 200.056L87.2981 201.218Z" fill="#FDBE1E"/>
<path d="M87.854 239.051L87.904 240.417L87.047 240.619L86.593 241.074L85.886 241.125L85.23 239.962V239.507L85.685 239.152L86.038 237.939L87.35 238.343L87.854 239.051Z" fill="#FDBE1E"/>
<path d="M87.6009 184.021L87.9549 185.69L86.2899 185.488V184.376L85.7849 184.123L86.2389 183.213L86.5929 183.819L87.6009 184.021Z" fill="#FDBE1E"/>
<path d="M86.39 186.903L86.844 189.179L88.156 192.214L91.436 195.653L92.446 197.424L93.455 198.537L93.606 199.193L92.749 199.598H91.941L87.501 194.995L85.634 194.488L82.152 194.235L81.244 193.022L80.689 191.605L81.294 190.644L82.808 190.341L83.211 189.532L82.858 188.266V186.496L85.28 186.394L86.29 185.483L86.39 186.903Z" fill="#FDBE1E"/>
<path d="M82.9081 226.204L83.2621 227.722L82.0001 228.43L80.8401 226.407L80.9911 225.345L81.2431 224.839L82.0001 224.788L82.9081 226.204Z" fill="#FDBE1E"/>
<path d="M82.151 228.732L82 228.43L83.262 227.722L83.969 228.025L84.978 229.34L84.121 230.352H83.465L82.557 229.897L82.151 228.732Z" fill="#FDBE1E"/>
<path d="M80.032 232.577L79.78 234.65H78.922L76.248 232.222V231.16L76.5 230.4H77.56L78.62 231.817L79.176 231.766L80.032 232.577Z" fill="#FDBE1E"/>
<path d="M75.1879 220.843L75.3389 221.754L74.6829 222.512L74.0269 221.905L73.1189 221.804L72.6139 222.512L72.3109 221.551L71.8569 220.439L72.7149 219.882H74.3799L74.6319 220.439L75.1879 220.843Z" fill="#FDBE1E"/>
<path d="M74.733 152.258L76.651 155.343L76.55 157.164L77.256 158.478L77.912 157.517L78.871 158.225L80.1329 158.781L80.839 160.047L80.031 160.452L80.082 162.474L80.839 164.396L83.211 166.419L84.169 167.835L85.381 169.555L86.238 171.173L88.9129 173.854L88.862 174.866L87.298 175.776L86.9949 177.799L86.187 178.254L83.6649 178.356L82.403 177.799L79.274 175.22L77.7599 174.663L78.315 172.943L78.114 171.678L78.315 170.06L77.255 169.25L76.347 170.362L70.897 170.261L68.576 168.592L67.4669 168.086L65.751 166.467L65.7 163.736L66.457 163.333L67.517 162.372L67.5679 161.158L69.031 160.398L70.848 161.005L71.6049 159.336L71.908 156.706L72.362 154.784L72.867 153.469L73.371 152.963L73.17 150.889L73.7749 150.788L74.582 151.243L74.733 152.258Z" fill="#FDBE1E"/>
<path d="M72.765 174.612L72.715 176.029L72.0079 176.484L71.403 175.827L71.252 174.056L71.908 173.702L72.059 174.208L72.765 174.612Z" fill="#FDBE1E"/>
<path d="M71.251 200.763L72.715 203.191L72.361 204.405L70.242 205.568L68.98 206.074L67.164 203.091L65.801 201.169L64.843 198.64L63.531 196.465L63.834 195.757L63.48 193.936L61.917 191.963L61.312 188.118L59.797 185.792L59.293 183.111L58.132 179.622L57.778 177.699L58.082 175.22L59.242 174.664L60.15 175.625L61.311 176.889L61.765 178.002L62.723 178.255L63.733 177.698L63.834 175.423L65.146 174.612L63.026 171.932L61.109 169.15L60.806 165.103L59.494 164.446L57.98 162.928L56.87 161.057L56.113 158.225L57.627 157.365L58.183 154.634L60.151 153.977L61.463 154.179L62.421 156.708L62.775 160.755L63.178 164.143L63.683 164.447L64.39 166.673L65.247 169.607L66.963 172.086L69.133 172.137V175.222L68.628 176.032L67.669 180.027L67.871 182.506L68.628 187.715L68.174 190.093L69.133 193.229L68.83 195.252L71.251 200.763Z" fill="#FDBE1E"/>
<path d="M71.1 214.773L71.857 215.734L71.605 217.555L70.646 217.808L69.284 217.302L67.72 215.582L67.619 214.469L66.458 213.508L66.257 211.637L64.44 210.12L63.38 210.523L62.27 210.22L62.22 206.983L62.674 205.163L64.087 204.961L65.045 207.894L70.949 213.812L71.1 214.773Z" fill="#FDBE1E"/>
<path d="M63.6821 202.026L64.0851 204.961L62.6731 205.163L60.6041 202.381L60.0991 200.257L60.6551 198.385L60.6041 196.716L61.6131 196.463L61.8151 197.172L62.7231 197.627L63.2791 199.144L63.6821 202.026Z" fill="#FDBE1E"/>
<path d="M55.3559 199.144L55.7099 201.066L54.5999 202.28L54.5489 203.342L55.3069 204.607L53.9439 205.315L53.3889 204.607L52.4299 205.315L52.0759 204.354L52.2279 201.066L52.8829 200.712V200.004L53.8929 199.802L54.4979 198.991L55.3559 199.144Z" fill="#FDBE1E"/>
<path d="M30.478 190.444L31.034 190.95L30.429 192.063H29.571L28.966 190.343L27.199 188.32L26.947 186.955L22.86 183.667L22.506 178.559L21.95 175.979L21.295 175.575L21.345 174.361L20.033 172.945L19.579 171.833L18.469 171.528L15.139 166.674L14.483 165.408L12.464 164.954L12.161 162.678L11.908 161.262L11.353 161.11L11 159.996L13.019 159.186L16.804 159.237L17.207 158.427L16.501 157.567L10.546 157.619L10.345 155.343L9.63799 154.382V152.814L10.243 152.208L10.445 148.212L9.133 147.15L9.94099 145.583L9.33599 143.712L10.85 142.397L7.46899 140.879V137.844L5.75299 129.246L4.54199 125.807L5.65199 124.34L7.216 124.743L10.849 127.07L12.262 128.083L14.685 129.145L16.047 130.055L17.863 129.448L19.882 128.639L23.061 128.184L24.726 129.549L25.787 130.662L27.855 131.674L30.176 131.824L32.397 129.246L34.163 129.347L35.576 130.409L37.04 128.589L36.686 126.869L35.273 125.757L35.172 123.986L37.392 123.733L40.218 124.896L42.085 126.818L44.86 127.324L46.324 128.184L47.838 127.425L49.806 127.88L51.724 126.919L52.733 125.148L54.549 126.666L57.022 127.678L58.738 128.284L60.505 127.627L61.817 127.525L63.735 125.3L65.501 125.148L69.841 122.366L69.992 118.775L70.749 116.5L72.919 115.69L74.433 112.908L75.392 110.429L77.511 111.441L77.865 112.503L76.957 113.515L77.159 115.032L80.388 118.117L82.154 118.573L82.759 119.838L83.213 121.052L82.558 122.114L83.113 123.835L84.526 123.582L87.604 126.01L88.765 126.263L91.036 130.107L91.691 130.613L94.82 129.551L96.839 128.489L96.99 125.151L98 124.139L99.917 125.303L101.381 127.073L104.005 128.086L106.276 127.681L108.193 129.047L109.303 131.222L112.684 134.003L113.946 134.205L115.258 133.143L116.267 133.648L117.276 133.547L118.891 131.17L120.607 130.563L122.122 131.119L124.19 131.879L125.905 129.3L127.117 128.591L126.561 127.326L124.089 126.061L122.069 123.634L121.919 119.183L120.809 117.868L121.313 116.856L122.524 116.654L122.878 114.883L126.057 113.821L128.075 114.479L129.136 113.214L127.067 110.635L125.755 110.888L126.512 108.713L125.755 107.549L124.443 108.207L124.241 109.876L123.586 110.432L122.123 109.522L119.297 106.792L119.398 105.981L120.76 104.717L124.646 102.743L129.087 100.418L131.206 100.215H132.922L133.324 99.658L134.182 96.977L134.939 96.876L136.201 97.432L137.463 97.382L138.17 95.51H138.977L140.34 94.904L141.701 95.41L143.063 96.675L144.527 97.838L146.091 96.27L147.403 96.068L147.605 95.411L148.968 95.664V94.652L147.857 93.337V91.87L147.05 91.061L146.999 89.796L147.756 89.138L148.816 88.582L149.17 87.418V84.131L148.565 80.59L150.432 76.493L147.808 74.622L145.89 74.824L145.184 73.256L144.276 73.509L143.367 71.991L142.358 70.221L142.712 67.945L142.258 66.984L143.166 66.58L142.812 65.315L145.032 63.899L145.538 60.662L149.474 60.207L152.754 61.977L154.016 61.471L155.025 59.651L155.176 58.488L154.621 56.97L156.892 56.211L159.516 56.109L162.191 54.642L164.916 54.086L166.935 52.063L168.499 52.873L169.104 51.912L170.567 49.889L172.989 49.181L171.93 46.601L171.324 45.64L171.778 44.528L173.595 44.73L174.806 45.134L177.328 43.769L178.792 44.831L180.356 46.299L182.879 45.135L183.483 46.248L187.47 46.146L187.52 44.426L185.855 42.606L183.787 36.435L183.685 35.12L185.401 33.602L187.016 33.501L187.571 33.905L188.782 32.793L191.103 30.264L192.164 30.011L193.021 30.668L194.686 32.186L196.048 32.843L196.503 33.45L198.016 33.552L200.842 35.423L203.214 36.08L206.847 37.243L209.32 38.558L215.831 44.78L218.707 46.753L222.29 47.916L224.61 50.546L226.125 55.25L227.538 57.576L230.717 60.307L237.933 64.91L241.465 67.136L245.905 71.789L248.833 75.481L251.658 80.842L255.846 86.254L263.415 86.507L266.392 85.799L268.764 86.406L271.489 87.569L275.728 95.257L279.109 95.51L282.087 96.927L285.216 99.102L288.748 100.518L292.835 101.074L296.821 100.063L302.877 101.479L306.156 102.642L308.982 101.226L315.189 102.086L323.112 104.108L323.011 104.462L323.818 105.878L328.561 107.445L331.54 107.648L335.476 110.986L336.889 114.071L338.554 115.993L340.32 116.448L340.825 118.371L343.903 119.433L348.294 119.584L349.757 120.949L350.514 125.349L349.404 128.131L347.285 130.61L344.812 131.773L342.239 133.544L340.877 135.364L341.785 137.488L343.804 139.107L347.235 140.321L351.172 140.828L354.301 141.282L356.774 142.647L357.329 144.721L356.876 151.499L357.128 154.18L359.448 157.518L360.659 160.654L361.568 163.689L366.412 168.039L366.918 170.365L367.522 172.439L369.44 173.046L370.045 174.563L370.853 175.524L373.022 175.018L374.032 175.625L373.881 176.737L372.468 177.799L369.945 179.266L366.716 179.772L364.849 180.329L364.697 181.694L365.555 183.11L366.06 186.045L359.247 186.803L352.94 183.616L350.215 179.266L351.93 178.103L351.981 175.27L350.215 172.438L349.357 169.959L345.824 168.441L344.765 165.66L343.756 165.508L342.695 166.368L341.484 167.531L340.172 166.772L338.961 165.76L337.094 165.963L336.488 167.075L334.722 167.479L331.946 167.783L330.433 167.681L329.02 168.238L327.253 169.603L324.073 172.689L323.367 173.903L321.348 174.155L318.321 172.031L316.959 170.311L313.427 166.265L310.803 165.709L309.188 165.456L307.573 164.04L307.321 161.763L306 161.16L304.234 162.069L302.266 159.794L300.55 160.148L299.087 162.122L296.361 163.739L295.856 166.218L294.393 168.09L289.701 168.444L284.907 165.561L281.979 163.133L279.457 161.919L275.925 161.868L273.654 162.83L271.03 162.98L268.911 162.272H266.59L263.663 160.199L262.603 160.451L261.291 160.907L258.312 160.654L255.79 159.542L253.368 157.366L252.106 157.62L250.29 159.289L251.147 155.344L255.286 152.208L255.234 149.526L259.019 146.796L260.987 144.621L258.716 142.092L255.941 136.933L256.193 133.999L259.121 130.661L260.887 127.424L259.373 125.047L253.974 124.389L251.4 124.642L248.272 126.109L246.708 127.019L243.176 128.992L240.199 130.307L239.997 135.062L239.088 137.541L238.634 140.171L234.85 146.24L231.267 145.987L228.29 144.52L225.262 145.026L221.629 144.823L220.468 142.345L216.28 140.574L214.161 137.033L211.89 136.679L207.853 139.208L201.293 135.718L198.819 136.831L194.731 136.679L186.659 131.52L185.246 129.446L182.47 127.829L178.686 129.548L169.905 131.218L165.515 131.115L162.034 126.412L157.341 126.463L155.575 128.537L152.951 128.587L151.841 131.268L149.873 131.369L148.965 130.56L147.703 130.408L145.533 133.494L143.868 137.894L142.051 138.501L139.78 142.092L138.873 146.037L136.904 150.084L135.693 151.651L131.807 152.156L131.858 154.788L132.414 156.81L130.496 158.732L125.299 160.097L122.423 161.817L122.826 164.144L125.399 165.509L127.418 168.139L129.437 172.135L129.84 173.754L131.506 176.131L128.78 181.442L128.427 183.465L128.931 186.702L131.101 188.825L132.817 194.34L132.716 198.184L132.665 202.483L133.119 207.187L134.583 213.307L133.977 220.287L132.211 220.54L130.192 221.854L131.302 223.068L135.339 225.547L138.417 226.66L141.747 229.491L143.665 231.92L144.927 235.714L144.573 238.242L144.069 243.958L144.171 247.144L143.515 247.094L142.253 246.942L140.738 245.324L139.629 244.818L138.923 244.414L138.821 241.835L137.155 240.216L136.146 239.71L134.583 239.255L133.522 238.193L132.161 237.839L129.133 234.754L127.518 234.196L125.651 233.741L124.49 233.185L122.927 232.476L121.464 231.111L120.455 230.656L120.101 229.695L117.931 227.672L117.528 226.711L116.519 225.599L115.914 224.638L115.46 224.081L115.006 223.171L111.877 220.034L110.868 219.528L108.899 217.455L108.394 216.493L107.334 215.431L106.88 214.47L103.802 211.334L103.297 210.373L102.237 209.311L101.784 208.35L100.773 207.44L98.755 203.343L97.14 200.662L96.484 198.891L97.04 197.424L96.788 196.261L95.98 194.541L96.131 186.65L96.434 185.132L98.2 178.456L97.746 177.443L96.686 174.409L96.131 172.386L95.223 168.896L94.769 168.39L93.205 165.406L90.682 162.878L85.283 159.944L84.475 159.691L84.172 159.085L83.92 157.517L83.213 157.163L82.608 155.544L81.599 155.089H80.337L78.47 153.167L78.369 152.509L75.846 150.082L75.795 149.019L75.24 148.514L75.795 148.008L75.947 146.541L75.442 145.934H74.786L73.626 147.148L72.667 147.199L71.607 146.795L68.881 143.963L63.684 142.041L63.129 141.332L61.362 140.522L58.738 140.775L56.165 143.405L55.761 146.895L54.298 150.335L52.077 158.579L51.724 159.691L50.765 160.146L50.058 159.691L49.15 160.803V163.585L48.04 164.142L46.88 167.632L47.183 169.301L47.991 171.071L48.192 173.802L47.234 174.763L45.719 175.32L43.953 175.422L43.045 176.231L42.086 176.333L41.985 174.209L42.59 173.855L42.64 172.692L41.126 170.872L41.075 166.521L40.47 166.167L38.907 168.139L38.957 171.326L40.471 172.641L40.421 174.816L39.462 176.131L39.563 178.458L37.949 179.722L37.696 180.835H35.93L35.728 180.329L35.123 180.177L34.315 180.835L35.425 182.302L35.324 185.691L34.97 186.297L35.121 188.928H32.346L31.538 187.865L30.327 188.068L30.478 190.444Z" fill="#FDBE1E"/>
<path d="M20.2349 177.8L21.0419 177.952L20.9409 180.024L19.4269 179.874L19.7299 178.457L19.1749 178.306L18.9219 177.345L20.4359 177.294L20.2349 177.8Z" fill="#FDBE1E"/>
<path d="M325.025 280.094H328.586L332.01 264.045H321.6L325.025 280.094Z" fill="white"/>
<path d="M325.025 280.094H328.586L332.01 264.045H321.6L325.025 280.094Z" fill="white"/>
<path d="M321.6 255.949H332.01V259.746H326.805H321.6V255.949Z" fill="white"/>
<path d="M321.6 255.949H332.01V259.746H326.805H321.6V255.949Z" fill="white"/>
<path d="M163.118 97.5739H166.679L170.103 81.5249H159.694L163.118 97.5739Z" fill="white"/>
<path d="M163.118 97.5739H166.679L170.103 81.5249H159.694L163.118 97.5739Z" fill="white"/>
<path d="M159.693 73.429H170.102V77.226H164.898H159.693V73.429Z" fill="white"/>
<path d="M159.693 73.429H170.102V77.226H164.898H159.693V73.429Z" fill="white"/>
<path d="M69.217 77.0839H72.778L76.202 61.0349H65.792L69.217 77.0839Z" fill="white"/>
<path d="M69.217 77.0839H72.778L76.202 61.0349H65.792L69.217 77.0839Z" fill="white"/>
<path d="M65.792 52.939H76.202V56.736H70.997H65.792V52.939V52.939Z" fill="white"/>
<path d="M65.792 52.939H76.202V56.736H70.997H65.792V52.939V52.939Z" fill="white"/>
<path d="M457.025 184.094H460.586L464.01 168.045H453.6L457.025 184.094Z" fill="white"/>
<path d="M457.025 184.094H460.586L464.01 168.045H453.6L457.025 184.094Z" fill="white"/>
<path d="M453.6 159.949H464.01V163.746H458.805H453.6V159.949Z" fill="white"/>
<path d="M453.6 159.949H464.01V163.746H458.805H453.6V159.949Z" fill="white"/>
<path d="M530.691 441.365H534.252L537.676 425.316H527.268L530.691 441.365Z" fill="white"/>
<path d="M530.691 441.365H534.252L537.676 425.316H527.268L530.691 441.365Z" fill="white"/>
<path d="M527.268 417.22H537.676V421.018H532.473H527.268V417.22Z" fill="white"/>
<path d="M527.268 417.22H537.676V421.018H532.473H527.268V417.22Z" fill="white"/>
<path d="M179.411 260.74H182.971L186.395 244.691H175.985L179.411 260.74Z" fill="white"/>
<path d="M179.411 260.74H182.971L186.395 244.691H175.985L179.411 260.74Z" fill="white"/>
<path d="M175.985 236.596H186.395V240.393H181.19H175.985V236.596V236.596Z" fill="white"/>
<path d="M175.985 236.596H186.395V240.393H181.19H175.985V236.596V236.596Z" fill="white"/>
<path d="M182.617 97.5719H176.488V96.5989L180.806 90.2059H176.605V89.0049H182.5V89.9889L178.164 96.3699H182.617V97.5719V97.5719Z" fill="white"/>
<path d="M188.043 97.5719L187.768 96.6699H187.721C187.409 97.0649 187.094 97.3329 186.778 97.4759C186.462 97.6189 186.055 97.6899 185.559 97.6899C184.922 97.6899 184.425 97.5179 184.068 97.1739C183.711 96.8299 183.532 96.3439 183.532 95.7149C183.532 95.0469 183.78 94.5429 184.276 94.2029C184.772 93.8629 185.528 93.6779 186.544 93.6459L187.663 93.6109V93.2649C187.663 92.8509 187.566 92.5409 187.373 92.3359C187.18 92.1309 186.88 92.0279 186.474 92.0279C186.142 92.0279 185.824 92.0769 185.519 92.1739C185.214 92.2709 184.921 92.3869 184.64 92.5199L184.195 91.5359C184.547 91.3519 184.931 91.2129 185.349 91.1169C185.767 91.0209 186.161 90.9729 186.533 90.9729C187.357 90.9729 187.979 91.1529 188.399 91.5119C188.819 91.8709 189.029 92.4359 189.029 93.2049V97.5699H188.043V97.5719ZM185.992 96.6339C186.492 96.6339 186.893 96.4939 187.196 96.2149C187.499 95.9359 187.65 95.5439 187.65 95.0399V94.4779L186.818 94.5129C186.17 94.5359 185.698 94.6449 185.403 94.8379C185.108 95.0309 184.961 95.3269 184.961 95.7259C184.961 96.0149 185.047 96.2389 185.219 96.3969C185.391 96.5549 185.648 96.6339 185.992 96.6339Z" fill="white"/>
<path d="M196.422 91.0909V91.8469L195.315 92.0519C195.417 92.1889 195.501 92.3569 195.567 92.5559C195.633 92.7549 195.667 92.9659 195.667 93.1889C195.667 93.8569 195.437 94.3819 194.976 94.7649C194.515 95.1479 193.88 95.3389 193.072 95.3389C192.865 95.3389 192.677 95.3229 192.51 95.2919C192.213 95.4759 192.065 95.6899 192.065 95.9369C192.065 96.0849 192.134 96.1969 192.273 96.2709C192.412 96.3449 192.667 96.3819 193.038 96.3819H194.169C194.884 96.3819 195.427 96.5339 195.798 96.8389C196.169 97.1439 196.355 97.5829 196.355 98.1569C196.355 98.8909 196.052 99.4579 195.447 99.8559C194.842 100.254 193.967 100.454 192.822 100.454C191.939 100.454 191.265 100.298 190.801 99.9849C190.337 99.6719 190.104 99.2269 190.104 98.6489C190.104 98.2509 190.23 97.9159 190.482 97.6439C190.734 97.3719 191.086 97.1839 191.54 97.0789C191.356 97.0009 191.205 96.8749 191.086 96.7009C190.967 96.5269 190.907 96.3449 190.907 96.1529C190.907 95.9109 190.975 95.7059 191.112 95.5379C191.249 95.3699 191.452 95.2039 191.721 95.0399C191.385 94.8949 191.113 94.6599 190.904 94.3339C190.695 94.0079 190.591 93.6259 190.591 93.1879C190.591 92.4849 190.813 91.9399 191.256 91.5529C191.699 91.1659 192.331 90.9729 193.152 90.9729C193.336 90.9729 193.528 90.9859 193.729 91.0109C193.93 91.0359 194.082 91.0629 194.183 91.0899H196.422V91.0909ZM191.33 98.5799C191.33 98.8769 191.464 99.1049 191.731 99.2659C191.998 99.4269 192.375 99.5059 192.859 99.5059C193.609 99.5059 194.168 99.3989 194.535 99.1839C194.902 98.9689 195.086 98.6839 195.086 98.3289C195.086 98.0479 194.985 97.8479 194.784 97.7279C194.583 97.6079 194.209 97.5489 193.662 97.5489H192.619C192.224 97.5489 191.911 97.6419 191.679 97.8269C191.447 98.0119 191.33 98.2629 191.33 98.5799ZM191.922 93.1889C191.922 93.5949 192.026 93.9079 192.235 94.1269C192.444 94.3459 192.744 94.4549 193.134 94.4549C193.931 94.4549 194.329 94.0289 194.329 93.1779C194.329 92.7559 194.23 92.4309 194.033 92.2019C193.836 91.9729 193.536 91.8589 193.134 91.8589C192.736 91.8589 192.434 91.9719 192.229 92.1989C192.024 92.4259 191.922 92.7549 191.922 93.1889Z" fill="white"/>
<path d="M200.91 90.9739C201.187 90.9739 201.416 90.9939 201.596 91.0329L201.461 92.3159C201.266 92.2689 201.063 92.2459 200.852 92.2459C200.301 92.2459 199.855 92.4259 199.513 92.7849C199.171 93.1439 199 93.6109 199 94.1849V97.5719H197.623V91.0919H198.701L198.883 92.2349H198.953C199.168 91.8479 199.448 91.5419 199.794 91.3149C200.14 91.0879 200.512 90.9739 200.91 90.9739Z" fill="white"/>
<path d="M205.627 97.6889C204.619 97.6889 203.831 97.3949 203.263 96.8069C202.695 96.2189 202.41 95.4099 202.41 94.3779C202.41 93.3189 202.674 92.4869 203.201 91.8819C203.728 91.2769 204.453 90.9739 205.375 90.9739C206.23 90.9739 206.906 91.2339 207.402 91.7529C207.898 92.2719 208.146 92.9869 208.146 93.8979V94.6419H203.828C203.848 95.2709 204.017 95.7539 204.338 96.0919C204.659 96.4299 205.109 96.5989 205.692 96.5989C206.075 96.5989 206.431 96.5629 206.761 96.4909C207.091 96.4189 207.446 96.2989 207.824 96.1309V97.2499C207.488 97.4099 207.148 97.5229 206.804 97.5899C206.46 97.6569 206.068 97.6889 205.627 97.6889ZM205.375 92.0169C204.937 92.0169 204.587 92.1559 204.323 92.4329C204.059 92.7099 203.902 93.1149 203.851 93.6459H206.792C206.784 93.1109 206.655 92.7059 206.405 92.4299C206.155 92.1539 205.812 92.0169 205.375 92.0169Z" fill="white"/>
<path d="M213.021 90.9738C213.83 90.9738 214.459 91.2668 214.911 91.8528C215.363 92.4388 215.588 93.2608 215.588 94.3198C215.588 95.3818 215.359 96.2098 214.902 96.8008C214.445 97.3918 213.81 97.6888 212.998 97.6888C212.178 97.6888 211.541 97.3938 211.088 96.8038H210.994L210.742 97.5718H209.711V88.4548H211.088V90.6228C211.088 90.7828 211.08 91.0208 211.065 91.3378C211.05 91.6548 211.038 91.8558 211.03 91.9418H211.089C211.525 91.2958 212.17 90.9738 213.021 90.9738ZM212.664 92.0988C212.109 92.0988 211.71 92.2618 211.466 92.5878C211.222 92.9138 211.096 93.4598 211.088 94.2258V94.3198C211.088 95.1088 211.213 95.6798 211.463 96.0338C211.713 96.3878 212.121 96.5638 212.688 96.5638C213.176 96.5638 213.546 96.3708 213.798 95.9838C214.05 95.5968 214.176 95.0388 214.176 94.3078C214.176 92.8348 213.672 92.0988 212.664 92.0988Z" fill="white"/>
<path d="M343.079 278.198C343.079 278.96 342.804 279.557 342.253 279.991C341.702 280.425 340.942 280.641 339.974 280.641C339.006 280.641 338.212 280.491 337.595 280.19V278.866C337.986 279.05 338.4 279.194 338.839 279.3C339.278 279.406 339.689 279.458 340.068 279.458C340.623 279.458 341.031 279.353 341.295 279.142C341.559 278.931 341.691 278.648 341.691 278.292C341.691 277.972 341.57 277.7 341.328 277.478C341.086 277.256 340.586 276.992 339.828 276.687C339.047 276.371 338.496 276.009 338.176 275.603C337.856 275.197 337.696 274.708 337.696 274.138C337.696 273.423 337.95 272.861 338.458 272.45C338.966 272.039 339.647 271.835 340.503 271.835C341.323 271.835 342.14 272.015 342.952 272.374L342.507 273.517C341.745 273.197 341.066 273.037 340.468 273.037C340.015 273.037 339.671 273.136 339.437 273.333C339.203 273.53 339.085 273.791 339.085 274.115C339.085 274.338 339.132 274.528 339.226 274.686C339.32 274.844 339.474 274.994 339.689 275.134C339.904 275.274 340.291 275.46 340.849 275.691C341.478 275.953 341.939 276.197 342.232 276.423C342.525 276.649 342.74 276.905 342.877 277.191C343.014 277.477 343.079 277.811 343.079 278.198Z" fill="white"/>
<path d="M348.646 280.524L348.371 279.622H348.324C348.012 280.017 347.697 280.285 347.381 280.428C347.065 280.571 346.658 280.642 346.162 280.642C345.525 280.642 345.027 280.47 344.67 280.126C344.313 279.782 344.135 279.296 344.135 278.667C344.135 277.999 344.383 277.495 344.879 277.155C345.375 276.815 346.131 276.63 347.147 276.598L348.266 276.563V276.217C348.266 275.803 348.168 275.493 347.975 275.288C347.782 275.083 347.483 274.98 347.077 274.98C346.745 274.98 346.427 275.029 346.122 275.126C345.817 275.223 345.524 275.339 345.243 275.472L344.798 274.488C345.15 274.304 345.534 274.165 345.952 274.069C346.37 273.973 346.764 273.925 347.136 273.925C347.96 273.925 348.581 274.105 349.001 274.464C349.421 274.823 349.632 275.388 349.632 276.157V280.522H348.646V280.524ZM346.595 279.586C347.095 279.586 347.495 279.446 347.798 279.167C348.101 278.888 348.253 278.496 348.253 277.992V277.43L347.421 277.465C346.773 277.488 346.3 277.597 346.005 277.79C345.71 277.983 345.564 278.279 345.564 278.678C345.564 278.967 345.65 279.191 345.822 279.349C345.994 279.507 346.251 279.586 346.595 279.586Z" fill="white"/>
<path d="M354.839 273.926C355.116 273.926 355.345 273.946 355.525 273.985L355.39 275.268C355.195 275.221 354.992 275.198 354.781 275.198C354.23 275.198 353.783 275.378 353.441 275.737C353.099 276.096 352.929 276.563 352.929 277.137V280.524H351.552V274.044H352.63L352.812 275.187H352.882C353.097 274.8 353.376 274.494 353.722 274.267C354.068 274.04 354.44 273.926 354.839 273.926Z" fill="white"/>
<path d="M360.78 280.524L360.505 279.622H360.458C360.146 280.017 359.831 280.285 359.515 280.428C359.199 280.571 358.792 280.642 358.296 280.642C357.659 280.642 357.161 280.47 356.804 280.126C356.447 279.782 356.269 279.296 356.269 278.667C356.269 277.999 356.517 277.495 357.013 277.155C357.509 276.815 358.265 276.63 359.281 276.598L360.4 276.563V276.217C360.4 275.803 360.302 275.493 360.109 275.288C359.916 275.083 359.617 274.98 359.211 274.98C358.879 274.98 358.561 275.029 358.256 275.126C357.951 275.223 357.658 275.339 357.377 275.472L356.932 274.488C357.284 274.304 357.668 274.165 358.086 274.069C358.504 273.973 358.898 273.925 359.27 273.925C360.094 273.925 360.715 274.105 361.135 274.464C361.555 274.823 361.766 275.388 361.766 276.157V280.522H360.78V280.524ZM358.729 279.586C359.229 279.586 359.629 279.446 359.932 279.167C360.235 278.888 360.387 278.496 360.387 277.992V277.43L359.555 277.465C358.907 277.488 358.434 277.597 358.139 277.79C357.844 277.983 357.698 278.279 357.698 278.678C357.698 278.967 357.784 279.191 357.956 279.349C358.128 279.507 358.386 279.586 358.729 279.586Z" fill="white"/>
<path d="M363.024 283.407C362.61 283.407 362.266 283.358 361.993 283.261V282.171C362.259 282.241 362.53 282.276 362.807 282.276C363.393 282.276 363.686 281.944 363.686 281.28V274.044H365.063V281.374C365.063 282.042 364.887 282.548 364.538 282.892C364.189 283.236 363.685 283.407 363.024 283.407ZM363.604 272.327C363.604 272.081 363.67 271.891 363.805 271.759C363.94 271.627 364.133 271.56 364.383 271.56C364.625 271.56 364.813 271.626 364.947 271.759C365.081 271.892 365.15 272.081 365.15 272.327C365.15 272.561 365.082 272.746 364.947 272.881C364.812 273.016 364.625 273.083 364.383 273.083C364.133 273.083 363.94 273.016 363.805 272.881C363.67 272.746 363.604 272.561 363.604 272.327Z" fill="white"/>
<path d="M369.862 280.641C368.854 280.641 368.065 280.347 367.497 279.759C366.929 279.171 366.645 278.362 366.645 277.33C366.645 276.271 366.909 275.439 367.436 274.834C367.963 274.229 368.688 273.926 369.61 273.926C370.465 273.926 371.141 274.186 371.637 274.705C372.133 275.224 372.381 275.939 372.381 276.85V277.594H368.063C368.083 278.223 368.252 278.706 368.573 279.044C368.894 279.382 369.344 279.551 369.927 279.551C370.31 279.551 370.665 279.515 370.995 279.443C371.325 279.371 371.681 279.251 372.059 279.083V280.202C371.723 280.362 371.383 280.475 371.039 280.542C370.695 280.609 370.304 280.641 369.862 280.641ZM369.61 274.969C369.172 274.969 368.821 275.108 368.557 275.385C368.293 275.662 368.137 276.067 368.086 276.598H371.027C371.019 276.063 370.89 275.658 370.64 275.382C370.39 275.106 370.048 274.969 369.61 274.969Z" fill="white"/>
<path d="M375.423 280.524L372.962 274.044H374.415L375.733 277.812C375.96 278.445 376.096 278.957 376.143 279.347H376.19C376.225 279.066 376.362 278.554 376.6 277.812L377.918 274.044H379.383L376.91 280.524H375.423Z" fill="white"/>
<path d="M386.116 277.272C386.116 278.331 385.845 279.157 385.302 279.751C384.759 280.345 384.003 280.642 383.034 280.642C382.429 280.642 381.893 280.505 381.429 280.232C380.965 279.959 380.607 279.566 380.357 279.054C380.107 278.542 379.982 277.949 379.982 277.273C379.982 276.222 380.252 275.402 380.791 274.812C381.33 274.222 382.09 273.927 383.07 273.927C384.008 273.927 384.75 274.229 385.297 274.832C385.844 275.435 386.116 276.249 386.116 277.272ZM381.399 277.272C381.399 278.768 381.952 279.516 383.057 279.516C384.151 279.516 384.698 278.768 384.698 277.272C384.698 275.792 384.147 275.051 383.046 275.051C382.468 275.051 382.048 275.242 381.788 275.625C381.528 276.008 381.399 276.557 381.399 277.272Z" fill="white"/>
<path d="M470.14 175.525H472.683C473.863 175.525 474.714 175.697 475.24 176.041C475.766 176.385 476.029 176.928 476.029 177.67C476.029 178.17 475.9 178.586 475.642 178.918C475.384 179.25 475.013 179.459 474.529 179.545V179.604C475.131 179.717 475.572 179.941 475.855 180.275C476.138 180.609 476.281 181.061 476.281 181.631C476.281 182.401 476.011 183.003 475.474 183.439C474.937 183.875 474.191 184.092 473.234 184.092H470.14V175.525ZM471.54 179.064H472.888C473.474 179.064 473.902 178.971 474.171 178.786C474.44 178.601 474.575 178.285 474.575 177.84C474.575 177.438 474.429 177.147 474.137 176.967C473.845 176.787 473.385 176.697 472.752 176.697H471.539V179.064H471.54ZM471.54 180.201V182.914H473.028C473.614 182.914 474.055 182.802 474.354 182.577C474.653 182.352 474.803 181.998 474.803 181.514C474.803 181.069 474.651 180.739 474.346 180.524C474.041 180.309 473.578 180.202 472.957 180.202H471.54V180.201Z" fill="white"/>
<path d="M480.745 184.208C479.737 184.208 478.948 183.914 478.38 183.326C477.812 182.738 477.528 181.929 477.528 180.897C477.528 179.838 477.792 179.006 478.319 178.401C478.846 177.796 479.571 177.493 480.493 177.493C481.348 177.493 482.024 177.753 482.52 178.272C483.016 178.791 483.264 179.506 483.264 180.417V181.161H478.946C478.966 181.79 479.135 182.273 479.456 182.611C479.777 182.949 480.227 183.118 480.81 183.118C481.193 183.118 481.548 183.082 481.878 183.01C482.208 182.938 482.564 182.818 482.942 182.65V183.769C482.606 183.929 482.266 184.042 481.922 184.109C481.578 184.176 481.187 184.208 480.745 184.208ZM480.493 178.537C480.055 178.537 479.704 178.676 479.44 178.953C479.176 179.23 479.02 179.635 478.969 180.166H481.91C481.902 179.631 481.773 179.226 481.523 178.95C481.273 178.674 480.931 178.537 480.493 178.537Z" fill="white"/>
<path d="M486.206 184.091H484.829V174.974H486.206V184.091Z" fill="white"/>
<path d="M493.647 177.611V178.367L492.54 178.572C492.642 178.709 492.726 178.877 492.792 179.076C492.858 179.275 492.892 179.486 492.892 179.709C492.892 180.377 492.662 180.902 492.201 181.285C491.74 181.668 491.105 181.859 490.297 181.859C490.09 181.859 489.902 181.843 489.735 181.812C489.438 181.996 489.29 182.21 489.29 182.457C489.29 182.605 489.358 182.717 489.497 182.791C489.636 182.865 489.892 182.902 490.263 182.902H491.394C492.109 182.902 492.652 183.054 493.023 183.359C493.394 183.664 493.58 184.103 493.58 184.677C493.58 185.411 493.277 185.978 492.672 186.376C492.067 186.774 491.192 186.974 490.047 186.974C489.164 186.974 488.49 186.818 488.026 186.505C487.562 186.192 487.329 185.747 487.329 185.169C487.329 184.771 487.454 184.436 487.706 184.164C487.958 183.892 488.311 183.704 488.765 183.599C488.581 183.521 488.429 183.395 488.31 183.221C488.191 183.047 488.132 182.865 488.132 182.673C488.132 182.431 488.2 182.226 488.337 182.058C488.474 181.89 488.677 181.724 488.946 181.56C488.61 181.415 488.337 181.18 488.128 180.854C487.919 180.528 487.816 180.146 487.816 179.708C487.816 179.005 488.037 178.46 488.48 178.073C488.923 177.686 489.556 177.493 490.376 177.493C490.56 177.493 490.751 177.506 490.952 177.531C491.153 177.556 491.306 177.583 491.407 177.61H493.647V177.611ZM488.556 185.099C488.556 185.396 488.689 185.624 488.956 185.785C489.223 185.946 489.601 186.025 490.085 186.025C490.835 186.025 491.394 185.918 491.761 185.703C492.128 185.488 492.312 185.203 492.312 184.848C492.312 184.567 492.21 184.367 492.009 184.247C491.808 184.127 491.435 184.068 490.888 184.068H489.845C489.45 184.068 489.136 184.161 488.904 184.346C488.672 184.531 488.556 184.783 488.556 185.099ZM489.147 179.708C489.147 180.114 489.251 180.427 489.459 180.646C489.667 180.865 489.969 180.974 490.359 180.974C491.156 180.974 491.554 180.548 491.554 179.697C491.554 179.275 491.454 178.95 491.257 178.721C491.06 178.492 490.761 178.378 490.359 178.378C489.961 178.378 489.658 178.491 489.453 178.718C489.248 178.945 489.147 179.275 489.147 179.708Z" fill="white"/>
<path d="M498.136 177.494C498.413 177.494 498.642 177.514 498.822 177.553L498.687 178.836C498.492 178.789 498.289 178.766 498.078 178.766C497.527 178.766 497.08 178.946 496.738 179.305C496.396 179.664 496.226 180.131 496.226 180.705V184.092H494.849V177.612H495.927L496.109 178.755H496.179C496.394 178.368 496.673 178.062 497.019 177.835C497.365 177.608 497.737 177.494 498.136 177.494Z" fill="white"/>
<path d="M504.077 184.091L503.802 183.189H503.755C503.443 183.584 503.128 183.852 502.812 183.995C502.496 184.138 502.089 184.209 501.593 184.209C500.956 184.209 500.458 184.037 500.101 183.693C499.744 183.349 499.566 182.863 499.566 182.234C499.566 181.566 499.814 181.062 500.31 180.722C500.806 180.382 501.562 180.197 502.578 180.165L503.697 180.13V179.784C503.697 179.37 503.599 179.06 503.406 178.855C503.213 178.65 502.914 178.547 502.508 178.547C502.176 178.547 501.858 178.596 501.553 178.693C501.248 178.79 500.955 178.906 500.674 179.039L500.229 178.055C500.581 177.871 500.965 177.732 501.383 177.636C501.801 177.54 502.195 177.492 502.567 177.492C503.391 177.492 504.012 177.672 504.432 178.031C504.852 178.39 505.063 178.955 505.063 179.724V184.089H504.077V184.091ZM502.026 183.154C502.526 183.154 502.926 183.014 503.229 182.735C503.532 182.456 503.684 182.064 503.684 181.56V180.998L502.852 181.033C502.204 181.056 501.731 181.165 501.436 181.358C501.141 181.551 500.995 181.847 500.995 182.246C500.995 182.535 501.081 182.759 501.253 182.917C501.425 183.075 501.683 183.154 502.026 183.154Z" fill="white"/>
<path d="M509.169 184.208C508.36 184.208 507.73 183.915 507.276 183.329C506.822 182.743 506.596 181.921 506.596 180.862C506.596 179.8 506.825 178.972 507.284 178.381C507.743 177.79 508.38 177.493 509.192 177.493C510.044 177.493 510.692 177.807 511.137 178.436H511.207C511.141 177.971 511.107 177.604 511.107 177.334V174.973H512.49V184.09H511.412L511.172 183.24H511.108C510.667 183.886 510.021 184.208 509.169 184.208ZM509.538 183.095C510.104 183.095 510.517 182.936 510.774 182.617C511.031 182.298 511.165 181.782 511.172 181.067V180.874C511.172 180.058 511.039 179.478 510.774 179.134C510.509 178.79 510.092 178.618 509.526 178.618C509.042 178.618 508.669 178.814 508.407 179.207C508.145 179.6 508.014 180.159 508.014 180.886C508.014 181.605 508.141 182.153 508.395 182.53C508.649 182.907 509.03 183.095 509.538 183.095Z" fill="white"/>
<path d="M517.29 184.208C516.282 184.208 515.493 183.914 514.925 183.326C514.357 182.738 514.073 181.929 514.073 180.897C514.073 179.838 514.337 179.006 514.864 178.401C515.391 177.796 516.116 177.493 517.038 177.493C517.893 177.493 518.569 177.753 519.065 178.272C519.561 178.791 519.809 179.506 519.809 180.417V181.161H515.491C515.511 181.79 515.68 182.273 516.001 182.611C516.322 182.949 516.772 183.118 517.355 183.118C517.738 183.118 518.093 183.082 518.423 183.01C518.753 182.938 519.109 182.818 519.487 182.65V183.769C519.151 183.929 518.811 184.042 518.467 184.109C518.123 184.176 517.731 184.208 517.29 184.208ZM517.038 178.537C516.6 178.537 516.249 178.676 515.985 178.953C515.721 179.23 515.565 179.635 515.514 180.166H518.455C518.447 179.631 518.318 179.226 518.068 178.95C517.818 178.674 517.476 178.537 517.038 178.537Z" fill="white"/>
<path d="M548.745 439.036C548.745 439.798 548.47 440.395 547.919 440.829C547.368 441.263 546.608 441.479 545.64 441.479C544.672 441.479 543.878 441.329 543.261 441.028V439.704C543.652 439.888 544.068 440.032 544.507 440.138C544.946 440.244 545.355 440.296 545.734 440.296C546.289 440.296 546.699 440.191 546.963 439.98C547.227 439.769 547.358 439.486 547.358 439.13C547.358 438.81 547.237 438.538 546.995 438.316C546.753 438.094 546.253 437.83 545.495 437.525C544.714 437.209 544.163 436.847 543.843 436.441C543.523 436.035 543.363 435.546 543.363 434.976C543.363 434.261 543.617 433.699 544.125 433.288C544.633 432.877 545.314 432.673 546.17 432.673C546.99 432.673 547.807 432.853 548.619 433.212L548.174 434.355C547.412 434.035 546.733 433.875 546.135 433.875C545.682 433.875 545.338 433.974 545.104 434.171C544.87 434.368 544.752 434.629 544.752 434.953C544.752 435.176 544.799 435.366 544.893 435.524C544.987 435.682 545.141 435.832 545.356 435.972C545.571 436.112 545.958 436.298 546.516 436.529C547.145 436.791 547.606 437.035 547.899 437.261C548.192 437.487 548.407 437.743 548.544 438.029C548.681 438.315 548.745 438.649 548.745 439.036Z" fill="white"/>
<path d="M551.587 437.94L552.366 436.967L554.323 434.881H555.911L553.304 437.664L556.075 441.361H554.458L552.378 438.519L551.622 439.14V441.361H550.257V432.244H551.622V436.691L551.552 437.939H551.587V437.94Z" fill="white"/>
<path d="M562.866 438.11C562.866 439.169 562.595 439.995 562.052 440.589C561.509 441.183 560.753 441.48 559.784 441.48C559.179 441.48 558.643 441.343 558.179 441.07C557.715 440.797 557.357 440.404 557.107 439.892C556.857 439.38 556.732 438.787 556.732 438.111C556.732 437.06 557.002 436.24 557.541 435.65C558.08 435.06 558.84 434.765 559.82 434.765C560.758 434.765 561.5 435.067 562.047 435.67C562.594 436.273 562.866 437.087 562.866 438.11ZM558.149 438.11C558.149 439.606 558.702 440.354 559.807 440.354C560.901 440.354 561.448 439.606 561.448 438.11C561.448 436.63 560.897 435.889 559.796 435.889C559.218 435.889 558.8 436.08 558.54 436.463C558.28 436.846 558.149 437.396 558.149 438.11Z" fill="white"/>
<path d="M567.735 441.479C566.915 441.479 566.278 441.184 565.825 440.594H565.743C565.798 441.141 565.825 441.473 565.825 441.59V444.244H564.448V434.881H565.561C565.592 435.002 565.657 435.291 565.754 435.748H565.824C566.254 435.092 566.898 434.764 567.758 434.764C568.567 434.764 569.197 435.057 569.649 435.643C570.101 436.229 570.325 437.051 570.325 438.11C570.325 439.169 570.096 439.995 569.637 440.589C569.178 441.183 568.544 441.479 567.735 441.479ZM567.401 435.89C566.854 435.89 566.456 436.05 566.204 436.37C565.952 436.69 565.825 437.202 565.825 437.905V438.11C565.825 438.899 565.95 439.47 566.2 439.824C566.45 440.178 566.858 440.354 567.425 440.354C567.902 440.354 568.269 440.159 568.527 439.768C568.785 439.377 568.914 438.821 568.914 438.098C568.914 437.371 568.787 436.822 568.531 436.449C568.275 436.076 567.897 435.89 567.401 435.89Z" fill="white"/>
<path d="M571.263 444.245C570.849 444.245 570.505 444.196 570.232 444.099V443.009C570.498 443.079 570.769 443.114 571.046 443.114C571.632 443.114 571.925 442.782 571.925 442.118V434.882H573.302V442.212C573.302 442.88 573.128 443.386 572.779 443.73C572.43 444.074 571.923 444.245 571.263 444.245ZM571.843 433.165C571.843 432.919 571.911 432.729 572.046 432.597C572.181 432.465 572.372 432.398 572.622 432.398C572.864 432.398 573.054 432.464 573.188 432.597C573.322 432.73 573.389 432.919 573.389 433.165C573.389 433.399 573.323 433.584 573.188 433.719C573.053 433.854 572.864 433.921 572.622 433.921C572.372 433.921 572.181 433.854 572.046 433.719C571.911 433.584 571.843 433.399 571.843 433.165Z" fill="white"/>
<path d="M578.101 441.479C577.093 441.479 576.306 441.185 575.738 440.597C575.17 440.009 574.884 439.2 574.884 438.168C574.884 437.109 575.148 436.277 575.675 435.672C576.202 435.067 576.927 434.764 577.849 434.764C578.704 434.764 579.38 435.024 579.876 435.543C580.372 436.062 580.62 436.777 580.62 437.688V438.432H576.302C576.322 439.061 576.491 439.544 576.812 439.882C577.133 440.22 577.583 440.389 578.166 440.389C578.549 440.389 578.906 440.353 579.236 440.281C579.566 440.209 579.92 440.089 580.298 439.921V441.04C579.962 441.2 579.622 441.313 579.278 441.38C578.934 441.447 578.542 441.479 578.101 441.479ZM577.849 435.808C577.411 435.808 577.062 435.947 576.798 436.224C576.534 436.501 576.376 436.906 576.325 437.437H579.266C579.258 436.902 579.129 436.497 578.879 436.221C578.629 435.945 578.286 435.808 577.849 435.808Z" fill="white"/>
<path d="M82.332 77.224V68.658H83.732V76.023H87.359V77.224H82.332V77.224Z" fill="white"/>
<path d="M88.0271 80.107C87.6131 80.107 87.2691 80.058 86.9961 79.961V78.871C87.2621 78.941 87.5331 78.976 87.8101 78.976C88.3961 78.976 88.6891 78.644 88.6891 77.98V70.744H90.0661V78.074C90.0661 78.742 89.8911 79.248 89.5421 79.592C89.1931 79.936 88.6871 80.107 88.0271 80.107ZM88.6071 69.027C88.6071 68.781 88.6741 68.591 88.8091 68.459C88.9441 68.327 89.1361 68.26 89.3861 68.26C89.6281 68.26 89.8171 68.326 89.9511 68.459C90.0851 68.592 90.1531 68.781 90.1531 69.027C90.1531 69.261 90.0861 69.446 89.9511 69.581C89.8161 69.716 89.6281 69.783 89.3861 69.783C89.1361 69.783 88.9441 69.716 88.8091 69.581C88.6741 69.446 88.6071 69.261 88.6071 69.027Z" fill="white"/>
<path d="M96.605 77.2239L96.412 76.3739H96.342C96.151 76.6749 95.878 76.9109 95.525 77.0829C95.172 77.2549 94.768 77.3409 94.315 77.3409C93.53 77.3409 92.9441 77.1459 92.5571 76.7549C92.1701 76.3639 91.9771 75.7729 91.9771 74.9799V70.7439H93.366V74.7399C93.366 75.2359 93.4681 75.6079 93.6711 75.8559C93.8741 76.1039 94.1921 76.2279 94.6261 76.2279C95.2041 76.2279 95.629 76.0549 95.9 75.7089C96.171 75.3629 96.3071 74.7839 96.3071 73.9719V70.7429H97.69V77.2229H96.605V77.2239Z" fill="white"/>
<path d="M102.962 70.6259C103.771 70.6259 104.4 70.9189 104.852 71.5049C105.304 72.0909 105.529 72.9129 105.529 73.9719C105.529 75.0339 105.3 75.8619 104.843 76.4529C104.386 77.0439 103.751 77.3409 102.939 77.3409C102.119 77.3409 101.482 77.0459 101.029 76.4559H100.935L100.683 77.2239H99.6521V68.1069H101.029V70.2749C101.029 70.4349 101.021 70.6729 101.006 70.9899C100.991 71.3069 100.979 71.5079 100.971 71.5939H101.03C101.466 70.9489 102.111 70.6259 102.962 70.6259ZM102.605 71.7509C102.05 71.7509 101.651 71.9139 101.407 72.2399C101.163 72.5659 101.037 73.1119 101.029 73.8779V73.9719C101.029 74.7609 101.154 75.3319 101.404 75.6859C101.654 76.0399 102.062 76.2159 102.629 76.2159C103.117 76.2159 103.487 76.0229 103.739 75.6359C103.991 75.2489 104.117 74.6909 104.117 73.9599C104.117 72.4879 103.613 71.7509 102.605 71.7509Z" fill="white"/>
<path d="M108.505 77.2239H107.128V68.1069H108.505V77.2239Z" fill="white"/>
<path d="M109.812 80.107C109.398 80.107 109.054 80.058 108.781 79.961V78.871C109.047 78.941 109.318 78.976 109.595 78.976C110.181 78.976 110.474 78.644 110.474 77.98V70.744H111.851V78.074C111.851 78.742 111.676 79.248 111.327 79.592C110.978 79.936 110.472 80.107 109.812 80.107ZM110.392 69.027C110.392 68.781 110.459 68.591 110.594 68.459C110.729 68.327 110.921 68.26 111.171 68.26C111.413 68.26 111.602 68.326 111.736 68.459C111.87 68.592 111.938 68.781 111.938 69.027C111.938 69.261 111.871 69.446 111.736 69.581C111.601 69.716 111.413 69.783 111.171 69.783C110.921 69.783 110.729 69.716 110.594 69.581C110.459 69.446 110.392 69.261 110.392 69.027Z" fill="white"/>
<path d="M117.875 77.224L117.6 76.322H117.553C117.241 76.717 116.926 76.985 116.61 77.128C116.294 77.271 115.887 77.342 115.391 77.342C114.754 77.342 114.257 77.17 113.9 76.826C113.543 76.482 113.364 75.996 113.364 75.367C113.364 74.699 113.612 74.195 114.108 73.855C114.604 73.515 115.36 73.33 116.376 73.298L117.495 73.263V72.917C117.495 72.503 117.398 72.193 117.205 71.988C117.012 71.783 116.712 71.68 116.306 71.68C115.974 71.68 115.656 71.729 115.351 71.826C115.046 71.923 114.753 72.039 114.472 72.172L114.027 71.188C114.379 71.004 114.763 70.865 115.181 70.769C115.599 70.673 115.993 70.625 116.365 70.625C117.189 70.625 117.811 70.805 118.231 71.164C118.651 71.523 118.861 72.088 118.861 72.857V77.222H117.875V77.224ZM115.824 76.287C116.324 76.287 116.725 76.147 117.028 75.868C117.331 75.589 117.482 75.197 117.482 74.693V74.13L116.65 74.165C116.002 74.188 115.53 74.297 115.235 74.49C114.94 74.683 114.793 74.979 114.793 75.378C114.793 75.667 114.879 75.891 115.051 76.049C115.223 76.207 115.48 76.287 115.824 76.287Z" fill="white"/>
<path d="M126.482 77.2239H125.099V73.2399C125.099 72.7399 124.998 72.3669 124.797 72.1209C124.596 71.8749 124.276 71.7519 123.839 71.7519C123.257 71.7519 122.831 71.9239 122.562 72.2679C122.293 72.6119 122.158 73.1879 122.158 73.9969V77.2259H120.781V70.7459H121.859L122.052 71.5959H122.122C122.317 71.2869 122.595 71.0489 122.954 70.8809C123.313 70.7129 123.712 70.6289 124.149 70.6289C125.704 70.6289 126.481 71.4199 126.481 73.0019V77.2239H126.482Z" fill="white"/>
<path d="M132.453 77.224L132.178 76.322H132.131C131.819 76.717 131.504 76.985 131.188 77.128C130.872 77.271 130.465 77.342 129.969 77.342C129.332 77.342 128.835 77.17 128.478 76.826C128.121 76.482 127.942 75.996 127.942 75.367C127.942 74.699 128.19 74.195 128.686 73.855C129.182 73.515 129.938 73.33 130.954 73.298L132.073 73.263V72.917C132.073 72.503 131.976 72.193 131.783 71.988C131.59 71.783 131.29 71.68 130.884 71.68C130.552 71.68 130.234 71.729 129.929 71.826C129.624 71.923 129.331 72.039 129.05 72.172L128.605 71.188C128.957 71.004 129.341 70.865 129.759 70.769C130.177 70.673 130.571 70.625 130.943 70.625C131.767 70.625 132.389 70.805 132.809 71.164C133.229 71.523 133.439 72.088 133.439 72.857V77.222H132.453V77.224ZM130.402 76.287C130.902 76.287 131.303 76.147 131.606 75.868C131.909 75.589 132.06 75.197 132.06 74.693V74.13L131.228 74.165C130.58 74.188 130.108 74.297 129.813 74.49C129.518 74.683 129.371 74.979 129.371 75.378C129.371 75.667 129.457 75.891 129.629 76.049C129.801 76.207 130.058 76.287 130.402 76.287Z" fill="white"/>
<path d="M153.546 261.332H151.923L149.234 257.453L148.408 258.127V261.332H147.008V252.766H148.408V256.856C148.791 256.387 149.172 255.936 149.551 255.502L151.865 252.766H153.459C151.963 254.524 150.891 255.776 150.242 256.522L153.546 261.332Z" fill="white"/>
<path d="M160.231 261.332H158.848V257.348C158.848 256.848 158.746 256.475 158.545 256.229C158.344 255.983 158.025 255.86 157.588 255.86C157.006 255.86 156.58 256.032 156.311 256.376C156.042 256.72 155.907 257.296 155.907 258.105V261.334H154.53V254.854H155.608L155.801 255.704H155.871C156.066 255.395 156.344 255.157 156.703 254.989C157.062 254.821 157.461 254.737 157.898 254.737C159.453 254.737 160.23 255.528 160.23 257.11V261.332H160.231Z" fill="white"/>
<path d="M162.065 253.135C162.065 252.889 162.131 252.699 162.266 252.567C162.401 252.435 162.594 252.368 162.844 252.368C163.086 252.368 163.274 252.434 163.408 252.567C163.542 252.7 163.611 252.889 163.611 253.135C163.611 253.369 163.543 253.555 163.408 253.69C163.273 253.825 163.086 253.891 162.844 253.891C162.594 253.891 162.401 253.825 162.266 253.69C162.131 253.555 162.065 253.369 162.065 253.135ZM163.524 261.332H162.147V254.852H163.524V261.332Z" fill="white"/>
<path d="M171.194 261.332H169.811V257.348C169.811 256.848 169.709 256.475 169.508 256.229C169.307 255.983 168.988 255.86 168.551 255.86C167.969 255.86 167.543 256.032 167.274 256.376C167.005 256.72 166.87 257.296 166.87 258.105V261.334H165.493V254.854H166.571L166.764 255.704H166.834C167.029 255.395 167.307 255.157 167.666 254.989C168.025 254.821 168.424 254.737 168.861 254.737C170.416 254.737 171.193 255.528 171.193 257.11V261.332H171.194Z" fill="white"/>
</svg>
