<svg width="650" height="551" viewBox="0 0 650 551" fill="none" xmlns="http://www.w3.org/2000/svg">
<path d="M649.746 460.387L649.999 462.562L648.687 466.204L646.618 468.024L645.761 470.251L646.922 473.942L647.577 477.838L646.315 483.199L647.274 485.627L646.921 488.662L647.425 493.972L646.719 495.035L642.934 496.805L636.273 497.462L634.86 499.081L634.154 501.256L635.315 509.399L635.92 513.497L634.456 516.025L631.327 513.75L629.309 512.738L627.946 513.295L626.937 516.582L624.616 517.746L623.002 517.341L621.387 517.24L619.823 517.341L618.259 517.999L614.778 519.162L610.842 518.656L607.36 518.807L602.869 515.772L599.74 515.924L597.621 516.581L592.776 520.728L590.152 519.869L588.337 519.565L584.904 521.436L583.037 521.689L577.991 524.42L577.84 527.657L575.015 532.007L571.735 535.244V538.734L569.867 540.504L565.679 540.15L564.317 539.846L562.298 542.628L560.633 543.184L558.159 545.46L555.587 546.017L553.518 544.499L551.045 544.55L550.035 545.511L547.663 545.764L547.059 545.258L545.646 545.056L539.893 549.406L537.32 549.557L534.342 548.243L530.759 548.445L527.126 550.265L525.31 550.316L525.108 547.737L524.048 546.27L522.785 543.892L521.019 540.454L519.758 538.48L516.629 537.013L514.862 536.912L511.935 537.974L509.563 540.047L509.261 541.919L509.765 544.094L506.384 543.841L502.802 546.167L500.228 546.773L498.714 545.611L500.43 543.79L501.641 541.311L501.338 534.128L500.682 530.689L500.026 528.667L498.211 526.188L496.394 524.065L494.022 523.408L493.366 522.447L491.752 522.244L490.036 523.661L490.138 527.505L489.179 529.022L488.876 531.451L487.514 531.198L485.899 527.657L484.183 523.864L481.054 519.211L480.045 515.063L479.54 511.522L479.792 509.398L481.356 506.668L482.113 502.925L480.852 499.637L476.058 495.186L474.997 492.556L475.503 490.128L480.095 488.409L480.297 486.335L478.985 482.896L478.581 473.539L478.48 471.213L481.053 468.38L481.003 464.789L480.145 462.159L481.306 459.58L481.356 459.175L482.265 459.074L483.526 459.832L485.191 459.63L485.948 458.416L488.017 457.606L490.793 456.594L493.467 453.812L494.274 452.548V450.07L493.063 447.338L493.417 444.809L494.679 441.724L496.143 438.234L498.212 438.083L502.501 435.857L505.073 433.732L507.799 433.227L509.465 432.115L511.532 430.041L512.795 428.27L514.309 427.005L516.831 425.842L518.698 425.893L520.213 426.297L522.735 429.231L524.249 431.608L526.975 435.504L528.236 435.605L529.145 435.099L530.558 434.998L531.414 433.732L531.616 432.215L531.162 431.254L531.466 430.091L534.493 425.185L534.847 423.162L536.865 422.758L538.783 421.948L539.54 420.481L543.174 420.532L544.486 421.189L546.908 420.936L548.171 420.38L549.887 419.621L552.107 420.885L553.52 420.43L557.456 420.481L560.888 419.773L562.956 418.408L564.167 415.373L565.632 413.198L567.447 412.035L569.617 412.49L571.333 413.299L572.241 412.591L574.209 411.124H575.622L577.893 411.782L580.82 413.855L582.636 413.551L584.25 412.793L588.085 410.871C588.085 410.871 590.356 409.605 590.508 409.605C590.66 409.605 595.654 409.757 595.654 409.757L598.178 410.465L601.609 411.831L603.274 412.488L607.463 416.838L612.457 422.655L615.99 426.549L618.968 429.028L622.298 431.202L626.486 431.759L630.018 433.226L633.399 433.58L635.922 435.198L637.536 436.21L638.444 440.003L640.816 445.921L642.935 450.069L643.49 453.81L645.105 455.48L647.881 457.403L649.746 460.387Z" fill="#F79C90"/>
<path d="M637.029 325.846L637.938 331.764L637.08 334.849L633.851 338.592L631.833 343.093L628.249 347.444L627.24 350.023L625.019 353.816L621.386 357.712L618.912 358.015L614.976 356.701L612.958 356.752L610.938 359.382H608.163L607.003 361.456L605.54 362.467L603.823 363.529L605.288 366.16L607.458 370.509L606.397 377.944L605.288 383.459C605.288 383.459 605.993 386.797 605.993 387.05C605.993 387.303 612.05 392.512 612.05 392.512L612.756 394.687L611.494 397.166L611.04 403.134L606.447 405.056L606.851 406.624L605.59 409.76L602.611 410.316L601.804 412.339L601.753 412.39L598.321 411.024L595.799 410.316C595.799 410.316 590.803 410.166 590.652 410.166C590.501 410.166 588.23 411.43 588.23 411.43L584.395 413.352L582.78 414.111L580.964 414.415L578.037 412.341L575.766 411.684H574.354L572.386 413.151L571.477 413.859L569.762 413.05L567.592 412.594L565.775 413.758L564.312 415.933L563.101 418.967L561.032 420.333L557.6 421.041L553.664 420.99L552.251 421.445L550.03 420.18L548.314 420.939L547.053 421.496L544.63 421.749L543.318 421.092L539.685 421.041L538.928 422.508L537.011 423.317L534.991 423.722L534.638 425.745L531.61 430.65L531.308 431.813L531.762 432.775L531.56 434.293L530.702 435.557L529.29 435.66L528.382 436.165L527.12 436.063L524.394 432.169L522.88 429.791L520.357 426.857L518.843 426.453L516.976 426.402L514.454 427.565L512.939 428.83L511.678 430.601L509.609 432.674L507.944 433.787L505.219 434.293L502.645 436.417L498.356 438.643L496.288 438.794L494.824 442.284L493.562 445.37L493.209 447.898L494.42 450.629V453.107L493.611 454.373L490.937 457.155L488.163 458.166L486.094 458.976L485.337 460.189L483.672 460.392L482.409 459.633L481.502 459.734L481.904 457.156L484.326 452.4L483.519 448.759L481.046 443.195L480.441 436.822L475.193 425.493L469.188 421.7L464.192 419.321L460.408 419.424L457.43 415.63L455.311 413.354L455.16 409.055L452.335 405.11L449.307 401.468L446.128 398.989C446.128 398.989 444.917 398.686 444.765 398.686C444.614 398.686 442.898 398.535 442.898 398.535L441.738 400.81L440.426 402.631L437.095 402.227L433.109 404.857L428.365 404.351L424.732 401.215L423.773 398.028L424.582 397.319L423.875 393.628L421.856 390.543L418.929 390.593L416.658 393.527L415.143 395.956L414.639 401.418L411.712 403.796L411.56 405.97L409.745 408.449L408.482 411.281L406.818 413.002C406.818 413.002 403.84 415.885 403.89 416.138C403.941 416.391 401.619 420.285 401.619 420.285L400.762 420.487L398.037 422.41L397.633 425.293L396.371 425.444L395.11 427.164L394 427.315L391.123 426.405L387.944 426.354L385.573 427.568L384.31 426.203L382.039 425.191L381.08 423.877L381.484 421.6L381.937 420.083L380.928 419.223L379.919 419.982L378.859 419.881L377.951 418.212L377.244 418.06L376.74 419.274L377.446 420.69L377.799 423.725L379.717 425.496L379.819 428.885L381.18 430.251L384.36 430.756L385.52 431.615L385.772 432.83L387.135 434.397L388.295 436.218L390.163 438.14L392.837 439.101L395.915 441.63L398.035 443.097L399.548 443.602H399.599L399.498 451.594L399.195 454.324V458.522L400.557 462.165L400.254 462.822L398.891 463.226L398.185 462.822L396.923 461.405L394.299 460.496L392.937 459.838L391.877 458.877L391.019 457.967L389.96 458.979L388.799 458.776L385.115 455.743L383.955 453.669L383.551 449.268L382.947 447.144L382.138 445.677L379.918 444.817L379.11 443.959L378.656 441.732L377.697 439.204L375.78 437.889L374.67 437.94L371.238 434.905L368.614 433.185L365.788 430.504L364.728 428.278L363.164 426.003L362.408 425.193L361.347 425.951L360.44 426.003L359.429 425.396L358.42 426.155L357.259 426.206L354.635 423.88L352.365 420.036L352.061 418.72L351.154 417.304L349.891 416.697L348.226 417.557L345.905 416.95L342.525 416.547L341.818 414.422L342.07 412.298L343.18 412.096L346.56 414.068L348.831 414.878L351.153 414.727L352.565 413.563L352.111 413.26L351.354 411.741L350.648 409.466L351.405 408.303L352.414 408L353.777 409.567L355.089 410.932L356.098 410.477L356.703 409.415L356.249 408.504L355.391 406.531L354.382 405.974L351.96 405.671L351.102 404.508L349.891 404.558L347.469 406.379L345.45 406.277L344.189 407.693L345.955 408.907L347.973 409.312L347.369 410.526L344.391 410.02L341.262 409.261L339.496 408.958L338.184 409.16L338.033 410.778L339.093 412.598L336.923 411.384L334.249 408.45L333.34 405.416L332.785 401.571L333.694 401.47L338.184 398.536L339.597 398.637L340.202 399.194L341.565 399.143L342.169 394.186L343.128 392.113L342.068 390.04L342.371 388.118L343.027 387.105L342.169 385.286L337.88 385.487L334.247 381.34L334.297 371.882L335.862 369.555L335.811 363.688L337.577 361.311L343.431 358.074L345.247 357.973L346.963 358.58L350.95 358.275L352.059 356.859L351.404 354.431L349.889 349.373L347.971 346.338L348.982 340.674L350.545 339.055L349.183 335.261L350.243 333.137L359.931 326.056L363.16 325.449L364.321 326.865L366.996 328.99L367.652 332.024L369.872 335.514L371.638 335.666L374.868 334.906L375.877 332.783V330.354L373.959 326.814L372.193 323.375L371.132 317.913L367.196 315.484L366.49 312.904L365.329 311.59L366.238 310.124L369.114 308.505L371.032 307.898L373 308.758L374.766 310.528L380.318 310.427L383.648 310.124L387.231 304.054L389.753 304.762L391.216 304.003L393.386 302.334L395.001 302.638L394.799 306.988L396.566 307.19L398.282 306.988L399.543 304.207L400.604 305.016L401.512 304.814L403.833 302.286L403.278 300.767L403.328 297.125L404.489 295.052L404.085 293.281L402.622 290.753L399.14 287.616L397.98 285.137L394.851 282.305L394.196 279.321L389.906 273.656L389.856 270.722L387.836 270.672L385.062 268.243L383.547 264.247L384.355 262.933L387.736 263.995L389.35 265.057L392.984 265.462L398.232 267.484L404.388 266.827L405.498 263.843L408.627 261.162L408.475 258.936L406.961 258.127L404.187 257.165L398.485 251.602L396.87 250.742L394.095 248.112L392.127 247.202L390.058 239.564L387.837 238.705L386.576 239.413L384.255 239.919L381.277 238.301L378.451 236.885L374.213 230.915L374.263 227.83L377.443 223.986L377.998 222.013L377.645 220.04L376.03 218.269L376.535 216.752L379.361 214.476L379.309 212.099L378.502 210.58L381.631 208.456L382.034 206.231L385.767 201.376L388.241 193.99L390.108 186.454L389.906 183.824L388.796 182.257L385.315 180.739L378.957 180.03L373.103 183.369L369.723 185.392L365.989 185.594L365.535 182.66L364.677 181.243L364.779 179.879L366.697 179.372L369.926 178.866L372.449 177.349L373.862 176.337L373.963 175.224L373.005 174.617L370.835 175.124L370.027 174.162L369.371 172.645L369.876 168.093L370.431 165.058L369.018 162.934L369.27 159.798L371.793 159.24L375.679 158.937L376.587 156.155L377.243 154.588L379.311 154.436L382.844 156.662L391.776 156.916L393.088 155.348L392.432 152.06L389.91 150.846L386.529 150.442L383.349 149.885L380.221 147.761L377.041 146.951L373.257 145.384L371.289 142.399L368.766 140.427L364.678 138.606L364.276 136.128L365.285 134.407V132.84L363.418 128.085L364.175 126.871L368.262 126.467L369.826 125.557L369.069 123.179L366.546 122.522L364.024 122.673L361.653 123.988L359.584 122.571L358.019 121.155L358.777 119.941L358.675 116.552L359.886 113.771L360.795 111.899L360.24 109.674L357.464 106.892L354.84 105.172V103.756L356.909 103.25L358.221 102.087L357.464 100.873L355.193 100.771L354.941 95.9161L353.528 95.1061L352.518 92.8801L352.215 90.4011L352.114 90.1481L354.082 89.1361L356.252 87.2651L359.129 87.1141L361.45 87.3661L364.326 85.1911L367.959 84.1291L367.858 77.9071L369.12 76.9971L374.368 79.1721L376.841 79.9311L380.171 80.0821L381.433 79.6781L381.736 78.6661L380.879 77.1991L381.434 75.5811L383.301 74.5691L386.379 74.8221L388.246 74.1141L394.049 68.8531L394.352 65.8191L395.11 64.3521L398.591 63.2901L401.467 62.4301L404.242 61.5711L407.269 62.0261L410.297 63.0381L414.031 65.1111L416.907 63.8471L421.247 62.0761L426.191 61.2161L428.614 62.6331L430.33 63.5941L431.794 62.6331L433.711 61.4691L435.578 62.3291L437.849 62.7331L441.634 63.8461L444.813 66.6271L447.235 69.1061L448.345 72.5451L448.799 75.6301L450.263 76.6421L453.139 79.2731L454.855 79.8791L458.287 81.1441L460.86 85.5951L463.938 86.3031L466.664 89.4901L468.682 90.8041L470.6 96.1661L473.476 97.7331H476.504L478.421 96.4181L480.995 97.1271V101.477L481.247 107.243L479.783 110.329L479.178 112.604L481.752 115.032L481.902 118.928L479.632 121.355L480.187 124.238L483.971 125.857L485.536 128.083L486.392 129.854L490.127 132.18L494.566 135.468L499.814 139.11L502.085 140.375L504.255 138.302L508.04 139.768L510.209 142.247C510.209 142.247 512.783 144.826 512.984 144.826C513.236 144.826 515.86 145.131 515.86 145.131L518.888 146.901L521.512 146.193L526.003 149.531L528.173 150.797L529.485 152.364L528.778 154.437L526.76 159.495L525.347 162.277L522.269 164.199L522.673 166.273L525.246 169.712L533.37 172.191L533.773 174.922L533.37 177.703L529.334 178.968L523.429 179.727L521.866 180.89L522.875 183.925L524.793 186.2H528.526L531.402 187.971L535.894 188.73L537.661 191.765L540.233 195.71L551.084 195.761L554.414 197.075H556.584L560.924 198.187L564.86 200.615L565.87 204.864L568.442 207.191L570.057 210.225L573.49 211.793L575.205 211.944L576.467 210.781L580.655 200.159L582.977 196.871L583.885 194.293L585.197 192.725L589.538 191.663L590.445 189.084L592.716 187.516L595.138 188.122L602.051 194.495L605.483 195.963L611.689 198.138L615.122 200.465L615.828 202.791L614.213 205.117L609.924 205.37L607.048 204.966L602.254 203.55L601.144 204.46L600.69 208.709L598.622 209.568L595.846 209.871L595.14 212.502L597.562 215.133L599.732 216.7L601.044 221.15L604.829 225.247L608.26 228.029L610.178 230.964L609.723 233.898L608.159 236.679L606.241 240.625L606.645 243.658L607.099 246.44L603.315 249.88L599.984 253.318L595.545 254.178L594.233 266.772L593.324 272.133L594.889 274.764L595.493 279.366L596.503 283.312L597.765 284.576L600.187 285.992L602.913 289.078L604.225 297.069L605.991 301.572C605.991 301.572 612.4 308.248 612.097 307.489C611.794 306.73 615.024 308.348 615.024 308.348L618.304 310.22L621.483 311.434L628.901 319.223L630.92 322.662L636.168 324.735L637.029 325.846Z" fill="#F15B46"/>
<path d="M155.926 186.5L154.614 185.234L151.132 178.963L150.981 177.698L153.605 175.927L154.009 173.904L152.697 170.921L152.496 166.723L154.615 157.315L156.734 154.736L163.142 153.016L164.505 151.296L166.473 149.728L168.945 150.689L170.257 153.067L170.862 156.152L172.377 159.289L176.717 165.863L183.983 172.944L186.911 173.4L187.92 173.551L191.351 172.944L194.581 168.139L195.035 165.155L196.599 162.323L199.727 160.198L202.099 154.281L205.379 153.624L210.375 154.433L219.154 156.254L223.495 156.456L224.654 152.966L227.985 152.005L228.439 150.083L229.751 149.881L231.013 152.36L235.1 153.826L239.037 155.141L247.766 159.592L250.339 159.137L252.156 157.417L253.418 157.165L255.84 159.339L258.362 160.503L261.34 160.756L262.602 160.3L263.662 160.048L266.589 162.07H268.961L271.029 162.778L273.653 162.627L275.924 161.666L279.456 161.717L281.978 162.931L284.906 165.358L289.648 168.241L294.341 167.938L295.805 166.016L296.309 163.538L299.035 161.97L300.499 159.997L302.214 159.592L304.182 161.867L305.949 160.958L307.261 161.514L307.513 163.79L309.077 165.207L310.742 165.46L313.366 166.016L316.898 170.062L318.21 171.782L321.236 173.856L323.256 173.603L323.962 172.389L327.142 169.354L328.909 167.938L330.322 167.382L331.835 167.532L334.56 167.229L336.328 166.824L336.983 165.712L338.799 165.46L340.01 166.471L341.322 167.23L342.533 166.067L343.643 165.208L344.601 165.309L345.712 168.141L349.192 169.659L350.05 172.138L351.816 174.97L351.766 177.854L350.05 179.017L352.775 183.367L359.084 186.554L365.896 185.846L369.63 185.644L373.011 183.621L378.865 180.282L385.222 180.99L388.704 182.509L389.813 184.076L390.015 186.707L388.148 194.242L385.675 201.628L381.941 206.482L381.538 208.709L378.41 210.833L379.217 212.351L379.268 214.728L376.442 217.004L375.937 218.521L377.552 220.292L377.906 222.264L377.35 224.237L374.171 228.081L374.121 231.167L378.358 237.136L381.184 238.552L384.163 240.17L386.483 239.663L387.745 238.955L389.966 239.815L392.035 247.453L394.003 248.363L396.778 250.993L398.392 251.853L404.094 257.417L406.869 258.378L408.383 259.187L408.535 261.413L405.406 264.094L404.296 267.077L398.139 267.735L392.891 265.713L389.258 265.308L387.643 264.246L384.262 263.184L383.455 264.498L384.969 268.494L387.744 270.923L389.763 270.973L389.813 273.907L394.103 279.572L394.759 282.556L397.887 285.388L399.048 287.867L402.53 291.004L403.993 293.531L404.396 295.302L403.236 297.376L403.185 301.017L403.741 302.536L401.419 305.064L400.511 305.266L399.451 304.457L398.189 307.238L396.473 307.44L394.707 307.238L394.909 302.888L393.294 302.584L391.124 304.253L389.661 305.012L387.138 304.304L383.555 310.373L380.224 310.677L374.674 310.778L372.908 309.008L370.938 308.148L369.021 308.755L366.145 310.373L365.237 311.84L366.397 313.155L367.103 315.734L371.04 318.163L372.1 323.625L373.867 327.064L375.785 330.604V333.033L374.775 335.157L371.546 335.916L369.78 335.764L367.559 332.274L366.904 329.241L364.228 327.116L363.067 325.7L359.838 326.306L350.149 333.387L349.089 335.511L350.452 339.305L348.888 340.923L347.878 346.588L349.796 349.623L351.31 354.681L351.966 357.109L350.856 358.525L346.87 358.829L345.154 358.222L343.338 358.325L337.484 361.561L335.718 363.938L335.769 369.805L334.205 372.132L334.155 381.59L337.788 385.737L342.077 385.535L342.934 387.355L342.279 388.368L341.975 390.29L343.036 392.363L342.077 394.436L341.472 399.393L340.109 399.444L339.505 398.887L338.092 398.786L333.601 401.72L332.692 401.821L330.775 397.118L328.302 395.702L326.586 394.842L324.013 395.196L323.811 396.258L321.944 397.017L320.935 396.359L320.33 395.248L319.018 394.287L317.05 393.629L314.779 391.15L312.207 389.836L310.844 388.622C310.844 388.622 309.33 385.738 309.28 385.638C309.23 385.536 308.523 384.778 308.523 384.778L307.009 384.019L305.495 383.614L304.89 382.653L304.133 381.237L302.215 379.517L299.188 378.809L296.564 377.444L294.496 372.994L293.537 370.667L291.216 369.504L288.137 369.402L287.229 368.796L286.069 368.391L285.161 368.037L282.688 369.706L281.073 370.565L280.468 371.425L275.473 368.896L275.321 367.329L275.423 367.227L276.028 366.417L278.451 365.81L281.73 362.725L281.932 359.791L280.216 355.391L278.753 352.812L276.785 352.154L274.109 349.322L272.393 347.704L268.71 347.147L264.773 345.781L263.36 343.808L262.401 340.268L258.87 338.548L257.911 335.564L255.085 332.783L253.722 330.507L253.621 326.056L254.429 322.718L254.076 318.52L250.189 315.537L246.556 315.638L245.092 313.766L243.074 313.918L241.51 312.652L240.803 310.68L238.835 309.264L236.867 308.353L236.211 307.494L235.908 304.155L234.041 301.525L232.426 299.401L229.348 297.023L228.692 295.658L225.967 294.596L224.302 292.269L221.123 289.082L218.802 287.615L217.237 285.946L216.582 283.671L214.16 279.22L211.637 276.488L210.174 274.263L208.004 273.808L207.802 273.757L207.953 272.947L205.178 270.772L204.472 268.395L198.618 265.764L195.64 262.78L192.612 258.634L190.341 255.497L186.607 251.3L184.488 247.86L182.52 241.184L182.469 232.636L180.854 232.282L178.382 231.776L176.515 229.702V228.488L177.928 227.527L178.079 225.403L178.886 223.886L178.987 219.738L175.002 217.513L173.135 215.591L171.52 215.085L171.217 213.77L172.78 211.039L172.63 206.336L169.754 204.615L167.836 201.681L166.373 200.619L165.666 199.305L162.336 199.255L159.308 199.861L156.583 196.978L153 191.962L152.799 188.725L154.565 188.017L155.373 186.601L155.926 186.5Z" fill="#C4C4C4"/>
<path d="M392.492 152.358L393.147 155.645L391.835 157.213L382.902 156.96L379.371 154.734L377.302 154.886L376.646 156.454L375.737 159.286L371.902 159.589L369.33 160.195L369.077 163.281L370.49 165.457L369.934 168.49L369.43 173.044L367.512 172.437L366.907 170.363L366.402 168.037L361.558 163.686L360.649 160.652L359.438 157.516L357.118 154.177L356.866 151.497L357.319 144.719L356.764 142.645L354.291 141.28L351.162 140.826L347.225 140.319L343.794 139.105L341.774 137.486L340.867 135.362L342.229 133.542L344.802 131.771L347.275 130.607L349.394 128.129L350.504 125.347L349.747 120.947L348.284 119.582L343.893 119.43L340.815 118.368L340.31 116.445L338.544 115.99L336.879 114.068L335.466 110.983L331.53 107.644L328.551 107.442L323.808 105.875L323.001 104.459L323.102 104.105L324.414 104.459L327.794 104.154L329.914 102.082L334.708 100.21L337.13 94.3941L339.804 93.2811L342.075 90.7021H346.061L349.745 91.5611L351.966 90.3981L352.117 90.6511L352.42 93.1301L353.429 95.3561L354.792 96.1661L355.044 101.021L357.365 101.071L358.072 102.337L356.76 103.5L354.741 103.955V105.371L357.365 107.091L360.14 109.924L360.696 112.098L359.838 114.02L358.576 116.802L358.677 120.191L357.92 121.405L359.485 122.821L361.553 124.237L363.924 122.923L366.447 122.721L369.02 123.379L369.726 125.806L368.163 126.666L364.076 127.122L363.369 128.335L365.236 133.09V134.657L364.226 136.378L364.63 138.856L368.768 140.677L371.291 142.649L373.259 145.634L377.043 147.151L380.272 148.011L383.402 150.135L386.581 150.692L389.962 151.147L392.492 152.358Z" fill="#6B97CF"/>
<path d="M374.022 175.625L373.871 176.737L372.458 177.799L369.935 179.266L366.706 179.771L364.839 180.329L364.687 181.694L365.545 183.11L366.05 186.044L359.237 186.803L352.93 183.616L350.205 179.266L351.92 178.102L351.971 175.27L350.205 172.437L349.347 169.959L345.814 168.441L344.755 165.66L343.746 165.508L342.685 166.368L341.474 167.53L340.162 166.772L338.951 165.76L337.084 165.962L336.478 167.075L334.712 167.479L331.936 167.783L330.423 167.681L329.01 168.237L327.243 169.603L324.063 172.688L323.357 173.902L321.338 174.155L318.311 172.031L316.949 170.311L313.417 166.265L310.793 165.708L309.178 165.456L307.563 164.039L307.311 161.763L306 161.158L304.234 162.069L302.266 159.794L300.55 160.148L299.087 162.121L296.361 163.739L295.856 166.218L294.393 168.09L289.701 168.444L284.907 165.561L281.979 163.133L279.457 161.919L275.925 161.867L273.654 162.829L271.03 162.98L268.911 162.272H266.59L263.663 160.198L262.603 160.451L261.291 160.906L258.312 160.653L255.79 159.542L253.368 157.366L252.106 157.62L250.29 159.289L251.147 155.344L255.286 152.208L255.234 149.526L259.019 146.796L260.987 144.621L258.716 142.092L255.941 136.933L256.193 133.999L259.121 130.661L260.887 127.424L259.373 125.047L253.974 124.389L251.4 124.642L248.272 126.109L246.708 127.019L243.176 128.992L240.199 130.307L239.997 135.061L239.088 137.54L238.634 140.17L234.85 146.238L231.267 145.985L228.29 144.519L225.262 145.024L221.629 144.822L220.468 142.344L216.28 140.573L214.161 137.032L211.89 136.678L207.853 139.207L201.293 135.717L198.819 136.83L194.731 136.678L186.659 131.519L185.246 129.445L182.47 127.828L178.686 129.547L169.905 131.216L165.515 131.114L162.034 126.411L157.341 126.462L155.575 128.536L152.951 128.586L151.841 131.267L149.873 131.368L148.965 130.559L147.703 130.407L145.533 133.492L143.868 137.893L142.051 138.5L139.78 142.091L138.873 146.036L136.904 150.082L135.693 151.649L131.807 152.155L131.858 154.786L132.414 156.808L130.496 158.73L125.299 160.096L122.423 161.816L122.826 164.142L125.399 165.508L127.418 168.138L129.437 172.134L129.84 173.753L131.506 176.13L128.78 181.441L128.427 183.464L128.931 186.701L131.101 188.824L132.817 194.338L132.716 198.182L132.665 202.482L133.119 207.185L134.583 213.306L133.977 220.286L132.211 220.538L130.192 221.852L131.302 223.066L135.339 225.545L138.417 226.658L141.747 229.489L143.665 231.918L144.927 235.711L144.573 238.239L144.069 243.956L144.171 247.142L143.515 247.092L142.253 246.94L140.738 245.321L139.629 244.816L138.923 244.412L138.821 241.832L137.155 240.214L136.146 239.708L134.583 239.253L133.522 238.191L132.161 237.837L129.133 234.751L127.518 234.194L125.651 233.739L124.49 233.182L122.927 232.474L121.464 231.109L120.455 230.653L120.101 229.692L117.931 227.67L117.528 226.709L116.519 225.596L115.914 224.635L115.46 224.079L115.006 223.169L111.877 220.032L110.868 219.526L108.899 217.453L108.394 216.491L107.334 215.429L106.88 214.468L103.802 211.332L103.297 210.371L102.237 209.309L101.784 208.348L100.773 207.437L98.755 203.34L97.14 200.66L96.484 198.889L97.04 197.423L96.788 196.259L95.98 194.54L96.131 186.648L96.434 185.131L98.2 178.454L97.746 177.442L96.686 174.408L96.131 172.385L95.223 168.895L94.769 168.389L93.205 165.405L90.682 162.877L85.283 159.942L84.475 159.689L84.172 159.084L83.92 157.516L83.213 157.162L82.608 155.543L81.599 155.088H80.337L78.47 153.166L78.369 152.508L75.846 150.08L75.795 149.018L75.24 148.512L75.795 148.007L75.947 146.54L75.442 145.933H74.786L73.626 147.147L72.667 147.197L71.607 146.794L68.881 143.961L63.684 142.039L63.129 141.331L61.362 140.521L58.738 140.774L56.165 143.404L55.761 146.894L54.298 150.333L52.077 158.578L51.724 159.689L50.765 160.145L50.058 159.689L49.15 160.802V163.584L48.04 164.14L46.88 167.63L47.183 169.3L47.991 171.07L48.192 173.801L47.234 174.762L45.719 175.319L43.953 175.421L43.045 176.23L42.086 176.332L41.985 174.208L42.59 173.854L42.64 172.69L41.126 170.871L41.075 166.52L40.47 166.166L38.907 168.138L38.957 171.325L40.471 172.64L40.421 174.815L39.462 176.13L39.563 178.456L37.949 179.721L37.696 180.834H35.93L35.728 180.328L35.123 180.176L34.315 180.834L35.425 182.3L35.324 185.689L34.97 186.296L35.121 188.926H32.346L31.538 187.864L30.327 188.067L30.478 190.444L31.034 190.95L30.429 192.062H29.571L28.966 190.343L27.199 188.319L26.947 186.955L22.86 183.667L22.506 178.559L21.95 175.979L21.295 175.574L21.345 174.36L20.033 172.944L19.579 171.833L18.469 171.528L15.139 166.673L14.483 165.408L12.464 164.954L12.161 162.678L11.908 161.261L11.353 161.11L11 159.996L13.019 159.186L16.804 159.236L17.207 158.427L16.501 157.567L10.546 157.619L10.345 155.343L9.63799 154.382V152.814L10.243 152.208L10.445 148.212L9.133 147.15L9.94099 145.583L9.33599 143.711L10.85 142.396L7.46899 140.879V137.844L5.75299 129.246L4.54199 125.806L5.65199 124.34L7.216 124.743L10.849 127.07L12.262 128.082L14.685 129.144L16.047 130.054L17.863 129.447L19.882 128.638L23.061 128.183L24.726 129.548L25.787 130.661L27.855 131.673L30.176 131.823L32.397 129.245L34.163 129.346L35.576 130.408L37.04 128.588L36.686 126.867L35.273 125.756L35.172 123.985L37.392 123.733L40.218 124.896L42.085 126.818L44.86 127.324L46.324 128.184L47.838 127.425L49.806 127.88L51.724 126.919L52.733 125.148L54.549 126.666L57.022 127.678L58.738 128.284L60.505 127.627L61.817 127.525L63.735 125.3L65.501 125.148L69.841 122.366L69.992 118.775L70.749 116.5L72.919 115.689L74.433 112.908L75.392 110.429L77.511 111.441L77.865 112.503L76.957 113.515L77.159 115.032L80.388 118.117L82.154 118.572L82.759 119.838L83.213 121.052L82.558 122.114L83.113 123.835L84.526 123.582L87.604 126.01L88.765 126.263L91.036 130.107L91.691 130.612L94.82 129.55L96.839 128.488L96.99 125.15L98 124.138L99.917 125.302L101.381 127.072L104.005 128.084L106.276 127.68L108.193 129.045L109.303 131.22L112.684 134.002L113.946 134.203L115.258 133.141L116.267 133.647L117.276 133.546L118.891 131.169L120.607 130.562L122.122 131.118L124.19 131.878L125.905 129.298L127.117 128.59L126.561 127.325L124.089 126.06L122.069 123.632L121.919 119.181L120.809 117.866L121.313 116.855L122.524 116.652L122.878 114.882L126.057 113.82L128.075 114.478L129.136 113.213L127.067 110.634L125.755 110.886L126.512 108.712L125.755 107.548L124.443 108.206L124.241 109.875L123.586 110.431L122.123 109.521L119.297 106.79L119.398 105.98L120.76 104.716L124.646 102.742L129.087 100.417L131.206 100.214H132.922L133.324 99.657L134.182 96.976L134.939 96.875L136.201 97.431L137.463 97.381L138.17 95.509H138.977L140.34 94.903L141.701 95.409L143.063 96.673L144.527 97.837L146.091 96.269L147.403 96.067L147.605 95.41L148.968 95.662V94.651L147.857 93.336V91.869L147.05 91.059L146.999 89.794L147.756 89.137L148.816 88.58L149.17 87.417V84.13L148.565 80.589L150.432 76.492L147.808 74.621L145.89 74.823L145.184 73.255L144.276 73.508L143.367 71.99L142.358 70.219L142.712 67.944L142.258 66.983L143.166 66.578L142.812 65.314L145.032 63.897L145.538 60.661L149.474 60.205L152.754 61.976L154.016 61.47L155.025 59.65L155.176 58.486L154.621 56.969L156.892 56.21L159.516 56.108L162.191 54.641L164.916 54.084L166.935 52.062L168.499 52.871L169.104 51.91L170.567 49.888L172.989 49.18L171.93 46.6L171.324 45.639L171.778 44.527L173.595 44.729L174.806 45.133L177.328 43.768L178.792 44.83L180.356 46.297L182.879 45.134L183.483 46.247L187.47 46.145L187.52 44.425L185.855 42.604L183.787 36.434L183.685 35.119L185.401 33.601L187.016 33.5L187.571 33.904L188.782 32.792L191.103 30.263L192.164 30.01L193.021 30.667L194.686 32.185L196.048 32.842L196.503 33.449L198.016 33.55L200.842 35.422L203.214 36.079L206.847 37.242L209.32 38.557L215.831 44.779L218.707 46.751L222.29 47.915L224.61 50.545L226.125 55.249L227.538 57.575L230.717 60.306L237.933 64.909L241.465 67.135L245.905 71.788L248.833 75.48L251.658 80.841L255.846 86.253L263.415 86.506L266.392 85.798L268.764 86.404L271.489 87.568L275.728 95.256L279.109 95.509L282.087 96.925L285.216 99.1L288.748 100.517L292.835 101.073L296.821 100.061L302.877 101.478L306.156 102.641L308.982 101.225L315.189 102.085L323.112 104.107L323.011 104.461L323.818 105.877L328.561 107.444L331.54 107.646L335.476 110.985L336.889 114.07L338.554 115.992L340.32 116.447L340.825 118.37L343.903 119.432L348.294 119.584L349.757 120.949L350.514 125.349L349.404 128.131L347.285 130.609L344.812 131.773L342.239 133.544L340.877 135.364L341.785 137.488L343.804 139.107L347.235 140.321L351.172 140.826L354.301 141.282L356.774 142.647L357.329 144.721L356.876 151.499L357.128 154.179L359.448 157.518L360.659 160.653L361.568 163.688L366.412 168.039L366.918 170.365L367.522 172.438L369.44 173.045L370.045 174.563L370.853 175.524L373.022 175.018L374.022 175.625Z" fill="#FCBD1E"/>
<path d="M339.204 412.589L339.658 414.005L339.556 414.815L338.9 415.219L337.134 414.208L334.258 411.679L333.249 411.476L332.492 410.618L332.138 409.404L330.575 408.138L328.91 407.228L326.134 405.356L323.813 403.384L321.745 401.816L320.383 400.855L319.474 399.288L318.768 397.061L317.205 395.494L312.714 393.521L311.25 393.167L309.181 392.206L308.677 390.537L307.617 389.879L306.456 389.424L305.648 388.463L302.52 388.058L301.511 386.844L300.552 386.49L298.685 384.619L297.576 383.86L295.961 382.292L295.657 380.775L296.163 380.47L295.557 379.914H293.994L292.782 378.447L291.168 377.992L289.755 378.649L288.998 379.053L287.636 379.104L286.575 377.992L285.768 377.385L284.96 376.98L284.557 377.638L285.97 379.459L286.626 380.065L287.23 381.177L286.524 382.037L285.667 381.987L284.506 380.166L283.901 379.357L280.369 377.789L276.181 376.777L273.708 375.816L269.268 374.197L265.787 373.287L265.181 372.73L264.727 371.163L264.223 369.544L263.264 368.583L259.681 368.634L256.3 366.965L254.584 365.7L253.07 365.043L251.606 364.031L247.569 362.463L245.652 362.16L244.038 362.716L240.203 361.149L236.62 359.53L235.712 359.075L235.61 357.204L235.156 356.597L235.51 356.243L237.175 356.192L239.648 357.861L243.735 358.367L250.699 358.873L255.392 359.834L256.906 360.34L259.984 361.908L260.993 362.666L263.314 363.931L264.626 364.791L265.029 365.499L265.735 366.258L266.139 367.117L267.3 367.723L268.863 367.825L269.469 368.331L270.68 367.775H271.487L272.245 368.179L272.446 368.937L273.002 369.291L273.809 369.898L278.2 372.073L278.958 372.326L281.53 373.438L282.741 374.551L283.751 375.006L284.608 374.551L282.186 372.325L281.429 372.022L280.521 371.009L281.126 370.15L282.74 369.29L285.214 367.621L286.122 367.975L287.282 368.38L288.19 368.987L291.268 369.088L293.589 370.251L294.548 372.578L296.616 377.029L299.24 378.394L302.268 379.102L304.185 380.822L304.942 382.239L305.548 383.2L307.062 383.603L308.577 384.363C308.577 384.363 309.282 385.122 309.334 385.222C309.384 385.324 310.897 388.206 310.897 388.206L312.259 389.42L314.833 390.735L317.104 393.213L319.072 393.871L320.384 394.832L320.988 395.945L321.999 396.601L323.865 395.842L324.066 394.78L326.64 394.426L328.356 395.286L330.829 396.702L332.747 401.406L333.302 405.25L334.21 408.285L336.885 411.219L339.204 412.589Z" fill="#FCBD1E"/>
<path d="M301.61 389.019V389.83L298.633 389.779L298.481 388.766L300.249 388.261L300.551 388.16L301.61 389.019Z" fill="#FCBD1E"/>
<path d="M297.775 385.782L297.977 386.844L296.311 387.249L295.504 386.439L293.737 385.68V384.821L292.88 383.86L292.83 383.203L294.041 383.152L294.545 383.456L295.605 383.86L297.775 385.782Z" fill="#FCBD1E"/>
<path d="M287.279 388.563L286.471 389.525L285.714 389.271H282.838L281.475 388.057L279.053 387.703L276.177 386.388L273.301 386.034L270.172 385.275L267.498 384.213L263.611 384.264L262.602 383.353L259.927 382.848L258.767 382.392L257.152 380.622L257.001 379.661L259.424 379.104L260.685 378.953L264.217 380.217L267.75 381.482L272.544 383.303L275.117 384.011L277.488 384.871L284.855 386.692L287.279 388.563Z" fill="#FCBD1E"/>
<path d="M280.567 355.03L282.284 359.48L282.082 362.414L278.802 365.5L276.38 366.106L275.774 366.916L275.421 366.562L274.311 366.309L272.243 365.095L270.124 364.539L269.013 363.679L267.55 361.049L266.944 360.391L267.702 359.936L269.014 359.885L269.569 359.43L269.671 358.52L268.41 357.306L267.198 357.863L265.382 357.711L264.07 356.245L263.466 356.902L261.901 356.8L261.397 355.89L260.085 354.473L259.227 353.968L257.006 353.614V350.73L256.048 350.276L253.979 348.405L252.97 347.798L251.859 347.241L251.457 346.837L249.791 345.775L248.429 345.826L247.924 345.32L246.461 343.802L245.956 343.752L244.896 342.639L243.836 342.689L242.978 342.234L242.726 341.527L240.808 339.604L238.436 337.379L238.235 336.67L237.881 336.215V335.608L237.325 335.102L237.224 334.546L235.256 332.624L234.399 332.118L232.178 330.095L231.775 329.084L229.807 326.959L229.605 326.352L228.545 325.543L227.384 324.582L222.691 323.924L222.289 323.621L219.463 322.559L217.091 322.357L216.132 321.902L215.224 320.486L213.761 320.031L212.348 319.979L211.187 319.524L208.413 318.563L205.637 317.451L202.357 314.314H201.146L200.44 313.809L198.27 314.871L196.1 314.921L194.99 314.466L194.385 313.859L194.688 312.848L197.414 312.342L198.069 311.887L197.312 310.976L194.688 310.42L193.729 309.863L192.518 310.267L181.972 312.746H175.866L175.412 313.252L176.17 313.91L177.835 314.264L178.39 314.921L177.329 315.478L174.302 316.035L170.568 314.973L168.297 312.951L167.137 312.849L166.076 312.141L166.128 310.826L166.732 310.371L166.379 310.017L165.116 309.36L163.553 307.793L164.613 306.781L163.805 305.971L163.099 304.453L163.2 301.266L164.108 300.407L163.704 299.345L165.219 298.94L165.117 296.513L163.2 296.26L161.586 294.692L160.627 294.338L160.224 292.719L162.04 292.669L162.645 292.111L161.232 290.291L161.081 286.599L161.686 285.233L163.704 284.121L167.035 283.868L168.045 284.93L168.853 284.828L169.66 284.222L169.307 283.008L168.197 282.502L168.701 281.995L168.097 281.489L168.248 280.933L171.629 281.692L180.308 286.244L182.83 286.548L184.193 285.385L186.111 283.614L192.015 280.933L198.676 280.579L202.409 277.24L204.428 276.634L208.161 274.105L208.313 273.599H208.464L210.634 274.054L212.097 276.28L214.619 279.011L217.043 283.462L217.698 285.737L219.262 287.458L221.583 288.925L224.762 292.111L226.377 294.438L229.102 295.5L229.758 296.865L232.836 299.191L234.45 301.316L236.317 303.947L236.621 307.233L237.276 308.093L239.245 309.004L241.213 310.42L241.919 312.392L243.533 313.658L245.553 313.506L247.016 315.378L250.649 315.275L254.535 318.26L254.889 322.458L254.082 325.745L254.183 330.247L255.495 332.522L258.32 335.304L259.279 338.238L262.812 340.009L263.77 343.549L265.183 345.522L269.119 346.887L272.804 347.445L274.52 349.012L277.194 351.844L279.162 352.502L280.567 355.03Z" fill="#FCBD1E"/>
<path d="M258.718 142.091L260.988 144.62L259.02 146.795L255.236 149.525L255.287 152.207L251.148 155.343L250.291 159.288L247.768 159.742L239.039 155.292L235.102 153.977L231.015 152.561L229.804 150.032L228.492 150.234L227.986 152.156L224.657 153.117L223.496 156.607L219.155 156.405L210.376 154.585L205.38 153.775L202.1 154.432L199.729 160.35L196.6 162.474L195.037 165.307L194.531 168.24L191.352 173.046L187.92 173.652L186.911 173.502L183.983 173.046L176.717 165.965L172.377 159.39L170.862 156.203L170.258 153.117L168.996 150.74L166.473 149.779L164.505 151.347L163.143 153.067L156.684 154.787L154.616 157.315L152.496 166.723L152.697 170.921L154.009 173.904L153.605 175.927L150.981 177.698L151.133 178.963L154.615 185.234L155.927 186.499L155.826 186.55L155.017 187.966L153.302 188.674L153.503 191.911L157.086 196.919L159.811 199.852L162.889 199.246L166.22 199.297L166.876 200.611L168.339 201.673L170.257 204.656L173.133 206.327L173.285 211.029L171.72 213.761L172.023 215.076L173.638 215.632L175.505 217.554L179.441 219.729L179.34 223.877L178.533 225.394L178.381 227.468L176.968 228.479V229.542L178.835 231.614L181.308 232.121L182.923 232.475L182.973 241.074L184.891 247.699L187.01 251.189L190.795 255.337L193.066 258.473L196.093 262.62L199.071 265.604L204.925 268.234L205.632 270.611L208.457 272.787L208.306 273.596L208.155 274.102L204.422 276.631L202.402 277.237L198.669 280.576L192.008 280.93L186.104 283.611L184.186 285.382L182.825 286.545L180.302 286.241L171.622 281.689L168.241 280.93L164.659 280.121L159.561 278.198L155.877 272.635L153.96 267.779L152.697 266.162L148.913 265.808L147.097 266.314L139.376 266.263L135.743 264.038L132.715 262.57L131.807 257.815L132.211 253.871L137.408 252.202L142.352 251.695L142.958 250.279L143.765 248.306L143.463 247.345L143.513 247.093L144.169 247.143L144.067 243.957L144.573 238.24L144.926 235.712L143.664 231.919L141.747 229.49L138.416 226.657L135.338 225.546L131.301 223.067L130.191 221.853L132.211 220.539L133.977 220.286L134.582 213.307L133.119 207.186L132.665 202.483L132.715 198.183L132.816 194.339L131.1 188.825L128.93 186.702L128.426 183.465L128.779 181.442L131.505 176.131L129.84 173.753L129.436 172.135L127.418 168.139L125.398 165.509L122.826 164.143L122.422 161.817L125.298 160.097L130.496 158.731L132.413 156.809L131.857 154.787L131.807 152.156L135.692 151.65L136.903 150.083L138.872 146.037L139.78 142.092L142.051 138.501L143.867 137.894L145.532 133.493L147.702 130.408L148.964 130.56L149.872 131.369L151.84 131.268L152.95 128.587L155.574 128.537L157.341 126.463L162.034 126.412L165.514 131.115L169.905 131.217L178.685 129.548L182.47 127.828L185.245 129.446L186.658 131.52L194.731 136.679L198.818 136.831L201.292 135.718L207.852 139.208L211.889 136.679L214.16 137.033L216.278 140.573L220.466 142.344L221.627 144.822L225.26 145.024L228.288 144.519L231.265 145.985L234.848 146.238L238.633 140.17L239.087 137.54L239.995 135.061L240.197 130.307L243.174 128.992L246.707 127.019L248.27 126.109L251.399 124.642L253.972 124.389L259.372 125.047L260.885 127.424L259.119 130.661L256.191 133.999L255.939 136.933L258.718 142.091Z" fill="#6B97CF"/>
<path d="M247.667 367.169L247.817 368.585L241.056 368.535L239.492 368.23L237.725 367.725L234.344 367.623L232.124 368.331L229.348 368.937L226.068 368.836L224.202 368.229L219.661 367.976L217.138 367.521L215.119 366.915L213.15 365.701L210.83 365.044L211.587 364.386L212.394 363.78L214.665 363.476L214.917 362.92L213.655 362.211L210.476 360.896L209.871 360.441L211.687 359.885L213.706 360.492L217.339 361.453L220.67 362.818L224.505 363.475L228.138 362.514L235.808 362.261L236.666 362.666L239.391 362.868L241.057 364.234L245.194 364.84L245.85 364.789L247.667 367.169Z" fill="#FCBD1E"/>
<path d="M246.91 347.897L247.06 348.96L243.932 350.022L239.592 349.263L236.615 348.96L232.376 349.01L229.348 349.314L226.926 349.263L223.697 348.808L219.913 348.353L215.774 349.061L210.628 348.455L209.215 348.151L204.472 346.33L202.302 345.926L201.091 345.572L199.274 344.459L196.902 344.004L194.278 343.195L192.361 342.284L191.958 341.323L194.582 341.019L195.944 341.525L197.963 340.563H202.05L202.101 340.615L204.372 343.195L206.037 343.296L206.944 343.043L206.743 342.234L204.472 340.362L202.908 339.907L203.059 338.794L205.229 338.541L206.289 339.401L208.459 339.855L210.124 340.362L211.335 341.07L212.546 341.929L216.027 344.913L217.39 345.571L229.501 345.672L234.597 345.975L237.524 346.533L239.694 347.089L242.974 347.747L246.91 347.897Z" fill="#FCBD1E"/>
<path d="M230.963 381.736L231.064 383.303L230.157 384.264L228.996 384.77L227.734 384.668L227.079 384.314L226.12 384.213L224.605 384.668L223.444 384.112L222.637 383.302L222.991 382.29L224.1 381.835L224.605 380.773H225.766L226.826 381.127L227.431 380.621L229.5 380.874L230.963 381.736Z" fill="#FCBD1E"/>
<path d="M226.775 330.55L227.179 333.787L226.27 334.596L220.467 334.798L217.086 335.709L216.278 336.063L215.319 335.608L203.359 335.506L202.25 335.051L199.223 331.764L198.264 331.41L196.548 331.006L196.346 330.197L197.456 329.792L197.204 328.527L196.85 327.515L198.01 326.706L196.951 325.087L195.74 323.974L195.992 323.368L197.455 323.571L201.492 324.987L206.488 325.29L208.658 325.644L213.148 326.049L215.824 326.707L217.337 327.263L219.81 327.769L220.819 328.173L220.669 329.033L221.628 329.639L222.586 330.347L226.775 330.55Z" fill="#FCBD1E"/>
<path d="M201.949 34.407L203.261 36.076L200.889 35.419L198.063 33.547L196.5 33.446L196.046 32.789L194.683 32.131L193.018 30.613L192.11 29.956L191.05 30.209L188.779 32.738L187.517 33.85L186.962 33.446L185.348 33.547L183.682 35.065L183.784 36.38L185.852 42.601L187.517 44.422L187.467 46.142L183.481 46.244L182.876 45.131L180.353 46.294L178.79 44.827L177.325 43.715L174.753 45.131L173.542 44.727L171.725 44.474L171.271 45.586L171.876 46.547L172.936 49.127L170.514 49.835L169.05 51.858L168.394 52.819L166.831 51.959L164.812 54.033L162.137 54.589L159.463 56.056L156.839 56.158L154.568 56.917L155.124 58.384L154.973 59.547L153.963 61.368L152.701 61.874L149.422 60.103L145.485 60.558L144.98 63.795L142.709 65.211L143.063 66.476L142.154 66.88L142.608 67.841L142.255 70.117L143.264 71.888L144.173 73.405L145.081 73.153L145.788 74.72L147.654 74.518L150.329 76.389L148.462 80.487L149.017 84.027V87.264L148.714 88.427L147.654 88.984L146.897 89.641L146.999 90.956L147.806 91.765V93.233L148.916 94.547L148.967 95.559L147.604 95.306L147.352 95.963L146.04 96.165L144.475 97.733L142.962 96.57L141.65 95.305L140.288 94.799L138.926 95.406H138.117L137.412 97.277L136.149 97.328L134.888 96.771L134.181 96.873L133.273 99.554L132.87 100.16L131.154 100.109L129.086 100.312L124.645 102.638L120.759 104.611L119.397 105.876L119.296 106.685L122.122 109.417L123.585 110.327L124.24 109.77L124.442 108.101L125.705 107.443L126.462 108.606L125.755 110.731L127.017 110.478L129.086 113.057L128.025 114.322L125.957 113.665L122.777 114.727L122.424 116.548L121.213 116.751L120.708 117.762L121.817 119.077L121.968 123.527L123.987 125.956L126.461 127.221L127.016 128.485L125.754 129.193L124.089 131.773L122.02 131.065L120.506 130.508L118.79 131.114L117.125 133.491L116.115 133.594L115.106 133.088L113.794 134.15L112.531 133.897L109.15 131.115L108.09 128.94L106.173 127.575L103.902 128.03L101.278 127.018L99.815 125.248L97.948 124.033L96.939 125.095L96.788 128.433L94.769 129.496L91.64 130.558L90.934 130.052L88.663 126.208L87.503 125.955L84.425 123.526L83.062 123.831L82.507 122.11L83.163 121.048L82.709 119.834L82.104 118.568L80.337 118.113L77.057 115.028L76.856 113.561L77.764 112.55L77.41 111.487L75.291 110.476L74.332 112.955L72.818 115.736L70.648 116.546L69.942 118.821L69.79 122.414L65.451 125.246L63.735 125.297L61.817 127.471L60.505 127.573L58.738 128.23L57.022 127.624L54.549 126.612L52.733 125.145L51.724 126.916L49.806 127.877L47.838 127.371L46.374 128.13L44.911 127.22L42.136 126.714L40.269 124.792L37.443 123.679L35.222 123.932L35.324 125.652L36.737 126.764L37.04 128.484L35.576 130.305L34.163 129.243L32.397 129.141L30.176 131.72L27.855 131.619L25.787 130.606L24.726 129.495L23.061 128.129L19.832 128.584L17.813 129.443L15.997 130.05L14.635 129.14L12.213 128.078L10.8 127.117L10.901 124.031L10.093 123.778L9.79 122.817L11.557 122.414L11.506 121.098L12.465 121.048L13.575 121.402L15.391 121.504L16.804 120.644L19.63 120.594L20.942 119.026L20.539 117.459L18.722 116.397L19.732 115.538L23.567 116.094L23.516 117.005L25.585 117.561L27.654 117.359L29.168 115.285L31.236 113.971L32.751 113.111L31.338 112.099L29.824 111.138L27.553 107.8L27.301 105.979L25.585 104.26L25.131 102.894L23.466 101.528L20.943 100.365L17.259 97.431L13.171 96.875L11.96 93.941L11.456 92.12L12.263 88.681L15.038 84.331L15.189 80.79L15.038 79.829L13.726 79.627L12.364 79.07L10.8 80.385L8.529 81.295L7.722 80.739L7.117 79.727L5.704 78.26L5.905 76.843L7.117 75.427L6.864 73.201L7.772 72.139L11.457 69.559L17.108 65.664L17.159 63.438L18.471 62.173L16.806 60.808L14.485 61.01L13.021 60.453L12.012 61.01L11.407 59.594L9.742 58.279L7.572 58.128L6.664 57.318C6.664 57.318 4.443 57.875 4.292 57.875C4.141 57.875 3.03 58.026 3.03 58.026L2.425 56.509L0.306 51.754L0 50.391L4.238 47.962L4.794 46.85L3.886 45.636L4.441 44.371L7.468 43.765L9.638 42.5L10.95 41.994L12.918 40.274L13.221 39.566L13.877 37.897L17.106 36.936L19.982 37.998L20.79 36.684L21.244 34.458L21.496 32.586L22.102 30.715L25.432 30.664L26.845 31.474L28.409 31.878L29.367 30.462L31.487 31.069L32.799 30.411L34.767 30.563L37.24 32.232L39.309 33.75L41.731 34.66L43.043 33.446L47.686 34.558L49.3 37.745L50.713 39.364L51.571 38.807L53.993 38.958L55.204 39.565L56.617 39.008L58.333 38.654L60.401 40.019L64.236 39.159L66.608 38.35L69.131 40.829L71.805 41.486L72.562 40.778L73.572 40.373L75.237 44.218L76.196 45.736L77.508 44.825L77.307 41.133L78.316 39.717L82.605 38.958L85.431 35.519L86.693 34.002L92.547 33.597L92.648 31.018L94.969 26.112L96.736 24.089L99.36 24.746L99.461 23.482L100.521 23.026L101.631 21.914L103.195 24.746L104.659 22.52L107.232 20.042L109.805 21.003L110.764 19.738L112.48 20.497L114.599 19.991L117.425 21.356L119.696 21.71L122.674 20.648L130.647 20.597L133.121 21.508L134.079 24.087L136.904 23.683L139.63 21.457L139.126 19.333L142.708 17.157L143.565 18.472L144.322 17.815L145.685 17.511L147.299 15.842L149.671 16.651L153.404 16.5L156.786 14.629L160.47 14.831L165.617 17.866L167.787 18.321L168.694 19.99L170.511 20.496L171.066 18.574L170.057 16.095L168.543 15.134L167.332 12L168.139 6.38604L167.231 5.42504L167.787 4.06004L171.925 3.40304L173.186 1.93604L175.255 1.12604L176.92 2.13804L179.292 2.03604L182.169 0.31604L186.205 0.67004L188.375 2.23704L190.495 4.05804L190.293 6.28404L188.224 8.61004L189.082 9.77404L188.678 11.392L190.242 13.567L192.31 16.754L195.389 17.411L195.187 19.687L193.875 20.041L193.118 21.103L193.622 22.722L198.719 27.982L200.082 28.943L201.848 31.523L201.949 34.407Z" fill="#FCE676"/>
<path d="M195.438 327.009L195.186 327.717L192.814 327.515L187.919 324.935L185.193 324.429L183.075 323.418L182.317 322.204L182.368 320.535H183.528L184.386 321.091L187.212 321.496L190.189 322.963L192.006 323.418L192.61 324.429L192.964 325.289L194.68 326.452L195.438 327.009Z" fill="#FCBD1E"/>
<path d="M193.37 343.903L193.521 344.914L191.401 345.268L189.029 344.409L188.979 343.397L190.442 343.093L191.503 343.751L193.37 343.903Z" fill="#FCBD1E"/>
<path d="M192.159 314.465L192.26 315.528L191.907 316.033L182.622 315.882L182.318 314.465L185.194 314.061L184.993 312.949H186.709L188.576 314.011H190.494L190.896 314.416L192.159 314.465Z" fill="#FCBD1E"/>
<path d="M184.792 352.097V353.31L183.024 355.081L182.217 356.699L181.611 356.85L181.411 356.446L180.502 356.497L179.644 356.042L178.383 356.902L176.516 356.952L175.659 356.395L174.447 356.902L173.54 356.799L173.085 355.838L173.741 355.434L173.387 354.675L172.883 353.866L171.722 353.411L170.713 352.652L171.015 352.045L172.479 351.489L175.205 350.931L178.788 350.78L179.292 350.426H180.1L180.705 350.78L180.201 351.792L182.016 352.298L182.825 351.893L184.792 352.097Z" fill="#FCBD1E"/>
<path d="M178.08 318.613L178.332 319.522L178.029 320.029L174.85 319.977L174.952 319.269L176.667 318.663L178.08 318.613Z" fill="#FCBD1E"/>
<path d="M173.083 317.956L173.134 318.833L171.166 318.885L171.064 318.163L172.225 317.905L173.083 317.956Z" fill="#FCBD1E"/>
<path d="M170.158 359.48L170.106 360.999L169.047 361.96L168.845 361.555L167.684 361.504L167.028 360.847L167.634 358.52L169.047 358.47L170.158 359.48Z" fill="#FCBD1E"/>
<path d="M168.24 280.931L168.089 281.488L166.676 281.741L164.102 282.045L162.134 283.057L160.318 282.703L159.915 281.741L159.106 281.437L158.502 280.831L157.896 281.337L158.3 282.651L159.107 284.725L158.705 291.249L157.342 290.845L154.415 289.176L150.781 288.365L148.056 287.809L146.795 285.735L144.726 284.421L143.767 283.561L145.534 283.359L146.039 284.017L146.543 283.612L146.291 283.056L144.374 281.538L137.863 277.491L136.956 277.037L135.492 274.508L134.584 274.052L130.951 271.573L130.093 269.045L127.973 266.921L126.46 263.937L124.44 261.458L123.279 260.851L121.564 257.918L120.1 255.944L118.385 255.742L116.215 251.595L113.339 246.942L113.137 244.161L110.462 240.621L111.219 240.014L113.137 239.963L114.6 242.491L115.71 242.593L116.719 241.783L116.77 239.304L117.073 238.495L118.133 238.343L121.767 241.833L122.221 241.328L122.271 240.013L123.18 239.304L123.129 238.242L121.868 236.523L121.816 235.461H123.331L125.147 237.737L126.61 238.496L129.336 240.873L131.656 240.722L132.868 240.57L137.006 243.149L137.057 244.465L133.928 244.717V247.044L136.35 248.611H141.598L142.607 250.129L142.961 250.28L142.355 251.696L137.411 252.203L132.213 253.872L131.81 257.817L132.718 262.571L135.746 264.039L139.379 266.264L147.1 266.315L148.916 265.809L152.7 266.163L153.962 267.781L155.88 272.636L159.564 278.199L164.661 280.122L168.24 280.931Z" fill="#FCBD1E"/>
<path d="M158.904 296.863L159.207 298.178L158.45 298.582L157.945 298.48L156.683 297.115L156.431 296.407L155.977 295.901L156.582 295.042L157.339 295.193L158.196 295.699L158.904 296.863Z" fill="#FCBD1E"/>
<path d="M149.013 298.279L149.417 298.786L148.608 299.291L147.499 298.786L145.632 298.381L144.27 297.268L143.109 297.015L142.15 296.51L141.898 295.549L142.756 295.093L143.26 295.65L145.178 295.903L146.49 296.56L149.013 298.279Z" fill="#FCBD1E"/>
<path d="M144.472 287.606L144.875 288.314L143.866 288.466L143.058 288.061L142.048 287.758L141.847 286.848L140.181 285.583L139.223 284.115L139.172 283.053L139.879 282.901L140.989 282.446L141.593 283.407L142.249 284.52L144.369 286.847L144.472 287.606Z" fill="#FCBD1E"/>
<path d="M130.847 273.041L131.351 273.9L130.695 274.507L128.627 274.203L127.618 273.191L125.246 272.634L124.035 271.066L123.43 269.903L122.825 268.841L121.513 267.07L120.756 265.25L120.302 263.682L120.958 263.176L122.472 263.581L123.532 264.39L124.088 265.806L126.862 268.335L127.266 269.347L129.183 271.218L129.385 271.876L130.243 272.837L130.847 273.041Z" fill="#FCBD1E"/>
<path d="M130.949 288.012L130.495 288.569H129.788L129.132 288.114L127.921 287.153L126.912 286.647L126.458 286.192L125.549 285.989L123.985 284.219L123.33 283.915L120.756 281.487L121.665 280.526L122.572 281.032L123.278 281.589L124.339 281.791L128.779 286.394L129.335 286.444L130.949 288.012Z" fill="#FCBD1E"/>
<path d="M126.053 280.323L126.658 281.233L126.002 281.587L125.599 281.233L124.589 280.778L121.208 277.34L120.603 276.379L120.048 275.721L120.452 274.861L122.015 274.964L122.873 275.822L123.882 276.885L124.235 277.34L124.437 278.453L126.053 280.323Z" fill="#FCBD1E"/>
<path d="M120.957 279.768L121.664 280.527L120.755 281.488L119.343 280.174L119.191 279.567L118.384 278.808L117.677 277.847L117.728 277.038L118.686 276.886L120.755 278.858L120.957 279.768Z" fill="#FCBD1E"/>
<path d="M119.392 261.306L119.19 261.913L117.979 261.609L117.525 260.648L117.02 260.294L116.213 260.85L114.749 260.446L114.245 259.94L114.193 259.282L113.74 258.928L110.864 255.944L110.51 255.135L108.087 252.808V252.1L108.794 251.695L108.289 251.089L108.34 250.078L109.147 249.976L110.358 251.392L111.014 251.544L111.317 252.15L111.973 252.807L112.73 254.78L115.404 257.511L117.172 258.472L118.08 259.028L118.635 259.989L118.786 260.8L119.392 261.306Z" fill="#FCBD1E"/>
<path d="M118.787 233.386L118.433 234.398L117.324 234.297L116.566 233.892L115.86 232.881L116.263 231.869L117.878 232.526L118.787 233.386Z" fill="#FCBD1E"/>
<path d="M116.768 235.358L117.071 236.371H115.709L114.901 235.864H113.337L112.631 235.308L112.076 235.915L113.59 237.129L113.388 237.887L112.833 238.09L111.57 236.926L110.813 236.673L109.35 235.409L108.543 234.296L108.593 230.401L107.584 229.49L105.11 229.036L104.001 226.203C104.001 226.203 100.821 223.118 100.67 223.016C100.519 222.915 99.813 222.561 99.813 222.561L97.5421 221.549L97.138 220.588L95.675 219.425L96.987 218.464L94.616 215.985L94.4641 214.468L93.758 213.76L93.355 212.597L91.034 210.472L89.873 208.753L88.4601 206.325L86.946 203.896L88.208 203.137L89.218 204.756L91.489 207.892L92.1451 208.094L93.356 209.308L94.314 209.611L95.021 208.753H96.181L98.099 210.826L99.209 211.585L100.269 213.81L100.623 214.974L103.348 216.795L104.559 216.896L106.022 218.009L105.972 219.779L105.417 219.83L103.499 219.02L102.541 218.818L101.128 217.504L99.664 216.189L98.856 215.835L98.2511 215.127L97.8481 215.835L98.201 216.745L99.564 218.161L100.372 218.414L100.774 219.324L102.289 220.589L102.844 222.107L104.358 223.523L105.266 223.219L105.822 222.107L106.679 221.956L107.739 223.119L108.093 224.433L111.121 227.215L112.13 227.519L113.594 229.29L114.906 231.465L116.168 232.021L115.765 233.033L114.352 232.831L113.897 233.539L115.361 234.703L116.768 235.358Z" fill="#FCBD1E"/>
<path d="M115.103 272.333L115.708 274.255L114.8 274.558L114.446 274.204L113.74 273.547L112.225 273.294L111.519 272.636L111.116 273.294L111.771 274.204L111.065 274.912L110.257 274.102L109.248 272.534L108.34 271.067L107.734 270.461L107.23 269.601L104.707 267.022L104.304 264.847L103.699 262.874L103.648 261.862L103.093 261.458L102.083 260.244L100.216 258.423L99.661 257.361L97.642 255.439L97.591 254.529L96.885 254.175C96.885 254.175 95.977 253.72 95.926 253.617C95.825 253.516 95.472 252.91 95.472 252.91L94.715 252.506L94.008 252.403L93.353 251.847L93.05 251.746L93.353 250.583L94.11 250.633L94.413 249.976L94.362 249.217L93.959 248.711L93.808 248.003L94.413 247.801L95.221 248.762L95.978 249.571L96.381 250.734L97.088 251.039L97.996 252.05L98.45 252.202L98.803 252.808L99.207 253.719L100.569 255.034L102.385 256.449L102.89 257.411L105.06 259.686L105.716 262.62L106.422 264.187L107.886 266.059L110.106 267.172L111.67 268.234L112.326 269.702L115.103 272.333Z" fill="#FCBD1E"/>
<path d="M114.648 275.924L114.8 276.682L113.891 277.037L113.235 276.581L112.68 276.53L111.015 274.912L111.722 274.152L112.68 274.658L113.741 274.912L114.648 275.924Z" fill="#FCBD1E"/>
<path d="M112.782 262.064L113.337 262.975L112.934 263.885L112.379 263.43L108.14 259.383L108.242 256.804L108.846 256.703L109.301 257.157L109.704 258.422L111.066 259.484L112.024 260.141L112.529 261.102L112.782 262.064Z" fill="#FCBD1E"/>
<path d="M108.845 238.241L109.602 239.254L108.694 240.366L107.887 239.76L104.506 239.608L103.9 238.343L104.102 237.18L106.676 237.231L108.845 238.241Z" fill="#FCBD1E"/>
<path d="M103.648 249.977L104.152 250.735L103.951 251.546L103.143 251.241L102.638 250.787L102.034 250.229L101.176 249.624L100.167 247.65L100.015 245.677L100.974 246.234L101.63 247.346L102.538 248.307L103.648 249.977Z" fill="#FCBD1E"/>
<path d="M95.5241 244.919L95.4221 246.537L94.8671 246.588L94.4631 246.234L94.0091 246.032L93.1521 245.173L93.9091 244.465L95.0191 244.515L95.5241 244.919Z" fill="#FCBD1E"/>
<path d="M90.9819 241.479L93.909 244.464L93.1519 245.172L92.142 244.16L91.487 244.008L90.8309 243.553L90.4279 244.312L90.8309 244.868L91.134 246.234L90.629 246.689L90.074 246.083L90.0229 245.071L89.519 244.565L89.1649 243.706L88.408 242.796L88.4579 241.783L88.812 241.227L90.1239 241.176L90.376 241.479H90.9819V241.479Z" fill="#FCBD1E"/>
<path d="M93.455 198.538L93.606 199.194L92.749 199.599H91.941L87.501 194.996L85.634 194.489L82.152 194.236L81.244 193.022L80.689 191.606L81.294 190.645L82.808 190.342L83.212 189.531L82.858 188.267V186.497L85.28 186.395L86.29 185.484L86.391 186.9L86.845 189.176L88.157 192.211L91.436 195.65L92.446 197.421L93.455 198.538Z" fill="#FCBD1E"/>
<path d="M92.4461 249.471L93.4051 250.634L93.1021 251.798L92.2441 251.595L91.5881 250.735L90.9331 249.825L90.9831 249.117L91.4371 248.663L92.0931 248.611L92.4461 249.471Z" fill="#FCBD1E"/>
<path d="M91.0331 186.499L91.5881 187.561L90.5281 188.673L90.0741 187.863L89.9231 185.739L90.7311 185.638L91.0331 186.499Z" fill="#FCBD1E"/>
<path d="M90.9821 180.177L90.9311 182.504L89.9731 182.605L87.9541 181.038L88.0041 178.762H88.8121L90.9821 180.177Z" fill="#FCBD1E"/>
<path d="M90.881 228.936V230.908L89.922 231.616L87.8029 230.908V230.352L87.349 229.746L87.0959 228.48L87.8029 227.924L88.0549 226.912L87.147 226.508L87.55 225.496L88.56 225.092L89.822 225.041L90.326 225.95L90.276 227.418L90.326 228.126L90.881 228.936Z" fill="#FCBD1E"/>
<path d="M88.9139 173.854L88.8629 174.865L87.2989 175.776L86.9959 177.799L86.1879 178.254L83.6659 178.355L82.4039 177.799L79.2749 175.219L77.7609 174.663L78.3159 172.942L78.1149 171.678L78.3159 170.059L77.2559 169.25L76.3479 170.362L70.8979 170.26L68.5769 168.591L67.4679 168.086L65.7519 166.467L65.7009 163.736L66.4579 163.332L67.5179 162.371L67.5689 161.156L69.0319 160.397L70.8489 161.004L71.6059 159.335L71.9089 156.705L72.3629 154.783L72.8679 153.468L73.3719 152.962L73.1709 150.889L73.7759 150.787L74.5829 151.243L74.7339 152.254L76.6519 155.34L76.5509 157.16L77.2569 158.474L77.9129 157.513L78.8719 158.222L80.1339 158.778L80.8399 160.043L80.0319 160.447L80.0829 162.47L80.8399 164.392L83.2119 166.415L84.1699 167.832L85.3819 169.551L86.2389 171.17L88.9139 173.854Z" fill="#FCBD1E"/>
<path d="M87.2981 201.218L88.2061 202.989L86.9951 203.799L85.6831 201.674L85.6321 200.258L86.3381 200.056L87.2981 201.218Z" fill="#FCBD1E"/>
<path d="M87.6009 184.021L87.9549 185.69L86.2899 185.488V184.376L85.7849 184.123L86.2389 183.213L86.5929 183.819L87.6009 184.021Z" fill="#FCBD1E"/>
<path d="M87.854 239.052L87.904 240.417L87.047 240.619L86.593 241.074L85.886 241.125L85.23 239.962V239.507L85.685 239.153L86.038 237.939L87.35 238.343L87.854 239.052Z" fill="#FCBD1E"/>
<path d="M83.968 228.024L84.977 229.339L84.12 230.351H83.464L82.556 229.896L82.152 228.732L82 228.43L83.262 227.722L83.968 228.024Z" fill="#FCBD1E"/>
<path d="M82.9091 226.204L83.2621 227.722L82.0001 228.43L80.8401 226.407L80.9911 225.345L81.2431 224.84L82.0001 224.789L82.9091 226.204Z" fill="#FCBD1E"/>
<path d="M80.032 232.577L79.78 234.65H78.922L76.248 232.222V231.16L76.5 230.4H77.56L78.62 231.817L79.176 231.766L80.032 232.577Z" fill="#FCBD1E"/>
<path d="M75.1879 220.843L75.3389 221.754L74.6829 222.512L74.0269 221.905L73.1189 221.804L72.6139 222.512L72.3109 221.551L71.8569 220.438L72.7149 219.882H74.3799L74.6319 220.438L75.1879 220.843Z" fill="#FCBD1E"/>
<path d="M72.765 174.612L72.714 176.029L72.0079 176.484L71.403 175.827L71.252 174.056L71.908 173.702L72.059 174.208L72.765 174.612Z" fill="#FCBD1E"/>
<path d="M71.251 200.763L72.715 203.191L72.361 204.405L70.242 205.568L68.98 206.074L67.164 203.09L65.801 201.168L64.843 198.639L63.531 196.465L63.834 195.756L63.48 193.936L61.917 191.963L61.312 188.118L59.797 185.792L59.293 183.111L58.132 179.622L57.778 177.699L58.082 175.22L59.242 174.664L60.15 175.625L61.311 176.889L61.765 178.002L62.723 178.255L63.733 177.698L63.834 175.423L65.146 174.612L63.026 171.932L61.109 169.15L60.806 165.103L59.494 164.446L57.98 162.928L56.87 161.057L56.113 158.225L57.627 157.365L58.183 154.634L60.151 153.977L61.463 154.179L62.421 156.708L62.775 160.755L63.178 164.143L63.683 164.447L64.39 166.673L65.247 169.607L66.963 172.086L69.133 172.137V175.222L68.628 176.032L67.669 180.027L67.871 182.506L68.628 187.715L68.174 190.093L69.133 193.228L68.83 195.252L71.251 200.763Z" fill="#FCBD1E"/>
<path d="M71.1 214.772L71.857 215.733L71.605 217.554L70.646 217.807L69.284 217.301L67.72 215.582L67.619 214.469L66.458 213.508L66.257 211.637L64.44 210.119L63.38 210.523L62.27 210.219L62.22 206.982L62.674 205.162L64.087 204.96L65.045 207.894L70.949 213.811L71.1 214.772Z" fill="#FCBD1E"/>
<path d="M63.6821 202.026L64.0851 204.961L62.6731 205.163L60.6041 202.381L60.0991 200.257L60.6551 198.386L60.6041 196.717L61.6131 196.464L61.8151 197.172L62.7231 197.627L63.2791 199.144L63.6821 202.026Z" fill="#FCBD1E"/>
<path d="M55.3559 199.144L55.7099 201.066L54.5999 202.28L54.5489 203.342L55.3059 204.607L53.9439 205.315L53.3889 204.607L52.4299 205.315L52.0759 204.354L52.2269 201.066L52.8829 200.712V200.004L53.8919 199.802L54.4979 198.992L55.3559 199.144Z" fill="#FCBD1E"/>
<path d="M20.7899 177.952L20.6879 179.974L19.4269 179.873L19.7299 178.457L19.1739 178.305L18.9219 177.344L20.1839 177.293L19.9819 177.799L20.7899 177.952Z" fill="#FCBD1E"/>
<path d="M20.6889 179.975V180.025L19.1739 179.875L19.4779 178.459L18.9219 178.307L18.6699 177.346L20.1839 177.295L18.9219 177.346L19.1739 178.307L19.7299 178.459L19.4269 179.875L20.6889 179.975Z" fill="#FCBD1E"/>
<path d="M325.025 280.094H328.586L332.01 264.045H321.6L325.025 280.094Z" fill="white"/>
<path d="M321.6 255.949H332.01V259.746H326.805H321.6V255.949Z" fill="white"/>
<path d="M179.411 260.74H182.972L186.396 244.691H175.986L179.411 260.74Z" fill="white"/>
<path d="M175.985 236.596H186.395V240.393H181.19H175.985V236.596V236.596Z" fill="white"/>
<path d="M163.118 97.5739H166.679L170.103 81.5249H159.694L163.118 97.5739Z" fill="white"/>
<path d="M159.693 73.429H170.102V77.226H164.898H159.693V73.429Z" fill="white"/>
<path d="M69.217 77.0839H72.778L76.202 61.0349H65.792L69.217 77.0839Z" fill="white"/>
<path d="M65.792 52.939H76.202V56.736H70.997H65.792V52.939V52.939Z" fill="white"/>
<path d="M457.025 184.094H460.586L464.01 168.045H453.6L457.025 184.094Z" fill="white"/>
<path d="M453.6 159.949H464.01V163.746H458.805H453.6V159.949Z" fill="white"/>
<path d="M530.691 441.365H534.252L537.676 425.316H527.268L530.691 441.365Z" fill="white"/>
<path d="M527.268 417.22H537.676V421.018H532.473H527.268V417.22Z" fill="white"/>
<path d="M182.617 97.5721H176.488V96.5991L180.806 90.2061H176.605V89.0051H182.5V89.9891L178.164 96.3701H182.617V97.5721V97.5721Z" fill="white"/>
<path d="M188.043 97.572L187.768 96.67H187.721C187.409 97.065 187.094 97.333 186.778 97.476C186.462 97.619 186.055 97.69 185.559 97.69C184.922 97.69 184.425 97.518 184.068 97.174C183.711 96.83 183.532 96.344 183.532 95.715C183.532 95.047 183.78 94.543 184.276 94.203C184.772 93.863 185.528 93.678 186.544 93.646L187.663 93.611V93.265C187.663 92.851 187.566 92.541 187.373 92.336C187.18 92.131 186.88 92.028 186.474 92.028C186.142 92.028 185.824 92.077 185.519 92.174C185.214 92.271 184.921 92.387 184.64 92.52L184.195 91.536C184.547 91.352 184.931 91.213 185.349 91.117C185.767 91.021 186.161 90.973 186.533 90.973C187.357 90.973 187.979 91.153 188.399 91.512C188.819 91.871 189.029 92.436 189.029 93.205V97.57H188.043V97.572ZM185.992 96.634C186.492 96.634 186.893 96.494 187.196 96.215C187.499 95.936 187.65 95.544 187.65 95.04V94.478L186.818 94.513C186.17 94.536 185.698 94.645 185.403 94.838C185.108 95.031 184.961 95.327 184.961 95.726C184.961 96.015 185.047 96.239 185.219 96.397C185.391 96.555 185.648 96.634 185.992 96.634Z" fill="white"/>
<path d="M196.422 91.091V91.847L195.315 92.052C195.417 92.189 195.501 92.357 195.567 92.556C195.633 92.755 195.667 92.966 195.667 93.189C195.667 93.857 195.437 94.382 194.976 94.765C194.515 95.148 193.88 95.339 193.072 95.339C192.865 95.339 192.677 95.323 192.51 95.292C192.213 95.476 192.065 95.69 192.065 95.937C192.065 96.085 192.134 96.197 192.273 96.271C192.412 96.345 192.667 96.382 193.038 96.382H194.169C194.884 96.382 195.427 96.534 195.798 96.839C196.169 97.144 196.355 97.583 196.355 98.157C196.355 98.891 196.052 99.458 195.447 99.856C194.842 100.254 193.967 100.454 192.822 100.454C191.939 100.454 191.265 100.298 190.801 99.985C190.337 99.672 190.104 99.227 190.104 98.649C190.104 98.251 190.23 97.916 190.482 97.644C190.734 97.372 191.086 97.184 191.54 97.079C191.356 97.001 191.205 96.875 191.086 96.701C190.967 96.527 190.907 96.345 190.907 96.153C190.907 95.911 190.975 95.706 191.112 95.538C191.249 95.37 191.452 95.204 191.721 95.04C191.385 94.895 191.113 94.66 190.904 94.334C190.695 94.008 190.591 93.626 190.591 93.188C190.591 92.485 190.813 91.94 191.256 91.553C191.699 91.166 192.331 90.973 193.152 90.973C193.336 90.973 193.528 90.986 193.729 91.011C193.93 91.036 194.082 91.063 194.183 91.09H196.422V91.091ZM191.33 98.58C191.33 98.877 191.464 99.105 191.731 99.266C191.998 99.427 192.375 99.506 192.859 99.506C193.609 99.506 194.168 99.399 194.535 99.184C194.902 98.969 195.086 98.684 195.086 98.329C195.086 98.048 194.985 97.848 194.784 97.728C194.583 97.608 194.209 97.549 193.662 97.549H192.619C192.224 97.549 191.911 97.642 191.679 97.827C191.447 98.012 191.33 98.263 191.33 98.58ZM191.922 93.189C191.922 93.595 192.026 93.908 192.235 94.127C192.444 94.346 192.744 94.455 193.134 94.455C193.931 94.455 194.329 94.029 194.329 93.178C194.329 92.756 194.23 92.431 194.033 92.202C193.836 91.973 193.536 91.859 193.134 91.859C192.736 91.859 192.434 91.972 192.229 92.199C192.024 92.426 191.922 92.755 191.922 93.189Z" fill="white"/>
<path d="M200.91 90.9741C201.187 90.9741 201.416 90.9941 201.596 91.0331L201.461 92.3161C201.266 92.2691 201.063 92.2461 200.852 92.2461C200.301 92.2461 199.855 92.4261 199.513 92.7851C199.171 93.1441 199 93.6111 199 94.1851V97.5721H197.623V91.0921H198.701L198.883 92.2351H198.953C199.168 91.8481 199.448 91.5421 199.794 91.3151C200.14 91.0881 200.512 90.9741 200.91 90.9741Z" fill="white"/>
<path d="M205.627 97.6891C204.619 97.6891 203.831 97.3951 203.263 96.8071C202.695 96.2191 202.41 95.4101 202.41 94.3781C202.41 93.3191 202.674 92.4871 203.201 91.8821C203.728 91.2771 204.453 90.9741 205.375 90.9741C206.23 90.9741 206.906 91.2341 207.402 91.7531C207.898 92.2721 208.146 92.9871 208.146 93.8981V94.6421H203.828C203.848 95.2711 204.017 95.7541 204.338 96.0921C204.659 96.4301 205.109 96.5991 205.692 96.5991C206.075 96.5991 206.431 96.5631 206.761 96.4911C207.091 96.4191 207.446 96.2991 207.824 96.1311V97.2501C207.488 97.4101 207.148 97.5231 206.804 97.5901C206.46 97.6571 206.068 97.6891 205.627 97.6891ZM205.375 92.0171C204.937 92.0171 204.587 92.1561 204.323 92.4331C204.059 92.7101 203.902 93.1151 203.851 93.6461H206.792C206.784 93.1111 206.655 92.7061 206.405 92.4301C206.155 92.1541 205.812 92.0171 205.375 92.0171Z" fill="white"/>
<path d="M213.021 90.9741C213.83 90.9741 214.459 91.2671 214.911 91.8531C215.363 92.4391 215.588 93.2611 215.588 94.3201C215.588 95.3821 215.359 96.2101 214.902 96.8011C214.445 97.3921 213.81 97.6891 212.998 97.6891C212.178 97.6891 211.541 97.3941 211.088 96.8041H210.994L210.742 97.5721H209.711V88.4551H211.088V90.6231C211.088 90.7831 211.08 91.0211 211.065 91.3381C211.05 91.6551 211.038 91.8561 211.03 91.9421H211.089C211.525 91.2961 212.17 90.9741 213.021 90.9741ZM212.664 92.0991C212.109 92.0991 211.71 92.2621 211.466 92.5881C211.222 92.9141 211.096 93.4601 211.088 94.2261V94.3201C211.088 95.1091 211.213 95.6801 211.463 96.0341C211.713 96.3881 212.121 96.5641 212.688 96.5641C213.176 96.5641 213.546 96.3711 213.798 95.9841C214.05 95.5971 214.176 95.0391 214.176 94.3081C214.176 92.8351 213.672 92.0991 212.664 92.0991Z" fill="white"/>
<path d="M343.079 278.198C343.079 278.96 342.804 279.557 342.253 279.991C341.702 280.425 340.942 280.641 339.974 280.641C339.006 280.641 338.212 280.491 337.595 280.19V278.866C337.986 279.05 338.4 279.194 338.839 279.3C339.278 279.406 339.689 279.458 340.068 279.458C340.623 279.458 341.031 279.353 341.295 279.142C341.559 278.931 341.691 278.648 341.691 278.292C341.691 277.972 341.57 277.7 341.328 277.478C341.086 277.256 340.586 276.992 339.828 276.687C339.047 276.371 338.496 276.009 338.176 275.603C337.856 275.197 337.696 274.708 337.696 274.138C337.696 273.423 337.95 272.861 338.458 272.45C338.966 272.039 339.647 271.835 340.503 271.835C341.323 271.835 342.14 272.015 342.952 272.374L342.507 273.517C341.745 273.197 341.066 273.037 340.468 273.037C340.015 273.037 339.671 273.136 339.437 273.333C339.203 273.53 339.085 273.791 339.085 274.115C339.085 274.338 339.132 274.528 339.226 274.686C339.32 274.844 339.474 274.994 339.689 275.134C339.904 275.274 340.291 275.46 340.849 275.691C341.478 275.953 341.939 276.197 342.232 276.423C342.525 276.649 342.74 276.905 342.877 277.191C343.014 277.477 343.079 277.811 343.079 278.198Z" fill="white"/>
<path d="M348.646 280.524L348.371 279.622H348.324C348.012 280.017 347.697 280.285 347.381 280.428C347.065 280.571 346.658 280.642 346.162 280.642C345.525 280.642 345.027 280.47 344.67 280.126C344.313 279.782 344.135 279.296 344.135 278.667C344.135 277.999 344.383 277.495 344.879 277.155C345.375 276.815 346.131 276.63 347.147 276.598L348.266 276.563V276.217C348.266 275.803 348.168 275.493 347.975 275.288C347.782 275.083 347.483 274.98 347.077 274.98C346.745 274.98 346.427 275.029 346.122 275.126C345.817 275.223 345.524 275.339 345.243 275.472L344.798 274.488C345.15 274.304 345.534 274.165 345.952 274.069C346.37 273.973 346.764 273.925 347.136 273.925C347.96 273.925 348.581 274.105 349.001 274.464C349.421 274.823 349.632 275.388 349.632 276.157V280.522H348.646V280.524ZM346.595 279.586C347.095 279.586 347.495 279.446 347.798 279.167C348.101 278.888 348.253 278.496 348.253 277.992V277.43L347.421 277.465C346.773 277.488 346.3 277.597 346.005 277.79C345.71 277.983 345.564 278.279 345.564 278.678C345.564 278.967 345.65 279.191 345.822 279.349C345.994 279.507 346.251 279.586 346.595 279.586Z" fill="white"/>
<path d="M354.839 273.926C355.116 273.926 355.345 273.946 355.525 273.985L355.39 275.268C355.195 275.221 354.992 275.198 354.781 275.198C354.23 275.198 353.783 275.378 353.441 275.737C353.099 276.096 352.929 276.563 352.929 277.137V280.524H351.552V274.044H352.63L352.812 275.187H352.882C353.097 274.8 353.376 274.494 353.722 274.267C354.068 274.04 354.44 273.926 354.839 273.926Z" fill="white"/>
<path d="M360.78 280.524L360.505 279.622H360.458C360.146 280.017 359.831 280.285 359.515 280.428C359.199 280.571 358.792 280.642 358.296 280.642C357.659 280.642 357.161 280.47 356.804 280.126C356.447 279.782 356.269 279.296 356.269 278.667C356.269 277.999 356.517 277.495 357.013 277.155C357.509 276.815 358.265 276.63 359.281 276.598L360.4 276.563V276.217C360.4 275.803 360.302 275.493 360.109 275.288C359.916 275.083 359.617 274.98 359.211 274.98C358.879 274.98 358.561 275.029 358.256 275.126C357.951 275.223 357.658 275.339 357.377 275.472L356.932 274.488C357.284 274.304 357.668 274.165 358.086 274.069C358.504 273.973 358.898 273.925 359.27 273.925C360.094 273.925 360.715 274.105 361.135 274.464C361.555 274.823 361.766 275.388 361.766 276.157V280.522H360.78V280.524ZM358.729 279.586C359.229 279.586 359.629 279.446 359.932 279.167C360.235 278.888 360.387 278.496 360.387 277.992V277.43L359.555 277.465C358.907 277.488 358.434 277.597 358.139 277.79C357.844 277.983 357.698 278.279 357.698 278.678C357.698 278.967 357.784 279.191 357.956 279.349C358.128 279.507 358.386 279.586 358.729 279.586Z" fill="white"/>
<path d="M363.024 283.407C362.61 283.407 362.266 283.358 361.993 283.261V282.171C362.259 282.241 362.53 282.276 362.807 282.276C363.393 282.276 363.686 281.944 363.686 281.28V274.044H365.063V281.374C365.063 282.042 364.887 282.548 364.538 282.892C364.189 283.236 363.685 283.407 363.024 283.407ZM363.604 272.327C363.604 272.081 363.67 271.891 363.805 271.759C363.94 271.627 364.133 271.56 364.383 271.56C364.625 271.56 364.813 271.626 364.947 271.759C365.081 271.892 365.15 272.081 365.15 272.327C365.15 272.561 365.082 272.746 364.947 272.881C364.812 273.016 364.625 273.083 364.383 273.083C364.133 273.083 363.94 273.016 363.805 272.881C363.67 272.746 363.604 272.561 363.604 272.327Z" fill="white"/>
<path d="M369.862 280.641C368.854 280.641 368.065 280.347 367.497 279.759C366.929 279.171 366.645 278.362 366.645 277.33C366.645 276.271 366.909 275.439 367.436 274.834C367.963 274.229 368.688 273.926 369.61 273.926C370.465 273.926 371.141 274.186 371.637 274.705C372.133 275.224 372.381 275.939 372.381 276.85V277.594H368.063C368.083 278.223 368.252 278.706 368.573 279.044C368.894 279.382 369.344 279.551 369.927 279.551C370.31 279.551 370.665 279.515 370.995 279.443C371.325 279.371 371.681 279.251 372.059 279.083V280.202C371.723 280.362 371.383 280.475 371.039 280.542C370.695 280.609 370.304 280.641 369.862 280.641ZM369.61 274.969C369.172 274.969 368.821 275.108 368.557 275.385C368.293 275.662 368.137 276.067 368.086 276.598H371.027C371.019 276.063 370.89 275.658 370.64 275.382C370.39 275.106 370.048 274.969 369.61 274.969Z" fill="white"/>
<path d="M375.423 280.524L372.962 274.044H374.415L375.733 277.812C375.96 278.445 376.096 278.957 376.143 279.347H376.19C376.225 279.066 376.362 278.554 376.6 277.812L377.918 274.044H379.383L376.91 280.524H375.423Z" fill="white"/>
<path d="M386.116 277.272C386.116 278.331 385.845 279.157 385.302 279.751C384.759 280.345 384.003 280.642 383.034 280.642C382.429 280.642 381.893 280.505 381.429 280.232C380.965 279.959 380.607 279.566 380.357 279.054C380.107 278.542 379.982 277.949 379.982 277.273C379.982 276.222 380.252 275.402 380.791 274.812C381.33 274.222 382.09 273.927 383.07 273.927C384.008 273.927 384.75 274.229 385.297 274.832C385.844 275.435 386.116 276.249 386.116 277.272ZM381.399 277.272C381.399 278.768 381.952 279.516 383.057 279.516C384.151 279.516 384.698 278.768 384.698 277.272C384.698 275.792 384.147 275.051 383.046 275.051C382.468 275.051 382.048 275.242 381.788 275.625C381.528 276.008 381.399 276.557 381.399 277.272Z" fill="white"/>
<path d="M470.14 175.525H472.683C473.863 175.525 474.714 175.697 475.24 176.041C475.766 176.385 476.029 176.928 476.029 177.67C476.029 178.17 475.9 178.586 475.642 178.918C475.384 179.25 475.013 179.459 474.529 179.545V179.604C475.131 179.717 475.572 179.941 475.855 180.275C476.138 180.609 476.281 181.061 476.281 181.631C476.281 182.401 476.011 183.003 475.474 183.439C474.937 183.875 474.191 184.092 473.234 184.092H470.14V175.525ZM471.54 179.064H472.888C473.474 179.064 473.902 178.971 474.171 178.786C474.44 178.601 474.575 178.285 474.575 177.84C474.575 177.438 474.429 177.147 474.137 176.967C473.845 176.787 473.385 176.697 472.752 176.697H471.539V179.064H471.54ZM471.54 180.201V182.914H473.028C473.614 182.914 474.055 182.802 474.354 182.577C474.653 182.352 474.803 181.998 474.803 181.514C474.803 181.069 474.651 180.739 474.346 180.524C474.041 180.309 473.578 180.202 472.957 180.202H471.54V180.201Z" fill="white"/>
<path d="M480.745 184.208C479.737 184.208 478.948 183.914 478.38 183.326C477.812 182.738 477.528 181.929 477.528 180.897C477.528 179.838 477.792 179.006 478.319 178.401C478.846 177.796 479.571 177.493 480.493 177.493C481.348 177.493 482.024 177.753 482.52 178.272C483.016 178.791 483.264 179.506 483.264 180.417V181.161H478.946C478.966 181.79 479.135 182.273 479.456 182.611C479.777 182.949 480.227 183.118 480.81 183.118C481.193 183.118 481.548 183.082 481.878 183.01C482.208 182.938 482.564 182.818 482.942 182.65V183.769C482.606 183.929 482.266 184.042 481.922 184.109C481.578 184.176 481.187 184.208 480.745 184.208ZM480.493 178.537C480.055 178.537 479.704 178.676 479.44 178.953C479.176 179.23 479.02 179.635 478.969 180.166H481.91C481.902 179.631 481.773 179.226 481.523 178.95C481.273 178.674 480.931 178.537 480.493 178.537Z" fill="white"/>
<path d="M486.206 184.091H484.829V174.974H486.206V184.091Z" fill="white"/>
<path d="M493.647 177.611V178.367L492.54 178.572C492.642 178.709 492.726 178.877 492.792 179.076C492.858 179.275 492.892 179.486 492.892 179.709C492.892 180.377 492.662 180.902 492.201 181.285C491.74 181.668 491.105 181.859 490.297 181.859C490.09 181.859 489.902 181.843 489.735 181.812C489.438 181.996 489.29 182.21 489.29 182.457C489.29 182.605 489.358 182.717 489.497 182.791C489.636 182.865 489.892 182.902 490.263 182.902H491.394C492.109 182.902 492.652 183.054 493.023 183.359C493.394 183.664 493.58 184.103 493.58 184.677C493.58 185.411 493.277 185.978 492.672 186.376C492.067 186.774 491.192 186.974 490.047 186.974C489.164 186.974 488.49 186.818 488.026 186.505C487.562 186.192 487.329 185.747 487.329 185.169C487.329 184.771 487.454 184.436 487.706 184.164C487.958 183.892 488.311 183.704 488.765 183.599C488.581 183.521 488.429 183.395 488.31 183.221C488.191 183.047 488.132 182.865 488.132 182.673C488.132 182.431 488.2 182.226 488.337 182.058C488.474 181.89 488.677 181.724 488.946 181.56C488.61 181.415 488.337 181.18 488.128 180.854C487.919 180.528 487.816 180.146 487.816 179.708C487.816 179.005 488.037 178.46 488.48 178.073C488.923 177.686 489.556 177.493 490.376 177.493C490.56 177.493 490.751 177.506 490.952 177.531C491.153 177.556 491.306 177.583 491.407 177.61H493.647V177.611ZM488.556 185.099C488.556 185.396 488.689 185.624 488.956 185.785C489.223 185.946 489.601 186.025 490.085 186.025C490.835 186.025 491.394 185.918 491.761 185.703C492.128 185.488 492.312 185.203 492.312 184.848C492.312 184.567 492.21 184.367 492.009 184.247C491.808 184.127 491.435 184.068 490.888 184.068H489.845C489.45 184.068 489.136 184.161 488.904 184.346C488.672 184.531 488.556 184.783 488.556 185.099ZM489.147 179.708C489.147 180.114 489.251 180.427 489.459 180.646C489.667 180.865 489.969 180.974 490.359 180.974C491.156 180.974 491.554 180.548 491.554 179.697C491.554 179.275 491.454 178.95 491.257 178.721C491.06 178.492 490.761 178.378 490.359 178.378C489.961 178.378 489.658 178.491 489.453 178.718C489.248 178.945 489.147 179.275 489.147 179.708Z" fill="white"/>
<path d="M498.136 177.494C498.413 177.494 498.642 177.514 498.822 177.553L498.687 178.836C498.492 178.789 498.289 178.766 498.078 178.766C497.527 178.766 497.08 178.946 496.738 179.305C496.396 179.664 496.226 180.131 496.226 180.705V184.092H494.849V177.612H495.927L496.109 178.755H496.179C496.394 178.368 496.673 178.062 497.019 177.835C497.365 177.608 497.737 177.494 498.136 177.494Z" fill="white"/>
<path d="M504.077 184.091L503.802 183.189H503.755C503.443 183.584 503.128 183.852 502.812 183.995C502.496 184.138 502.089 184.209 501.593 184.209C500.956 184.209 500.458 184.037 500.101 183.693C499.744 183.349 499.566 182.863 499.566 182.234C499.566 181.566 499.814 181.062 500.31 180.722C500.806 180.382 501.562 180.197 502.578 180.165L503.697 180.13V179.784C503.697 179.37 503.599 179.06 503.406 178.855C503.213 178.65 502.914 178.547 502.508 178.547C502.176 178.547 501.858 178.596 501.553 178.693C501.248 178.79 500.955 178.906 500.674 179.039L500.229 178.055C500.581 177.871 500.965 177.732 501.383 177.636C501.801 177.54 502.195 177.492 502.567 177.492C503.391 177.492 504.012 177.672 504.432 178.031C504.852 178.39 505.063 178.955 505.063 179.724V184.089H504.077V184.091ZM502.026 183.154C502.526 183.154 502.926 183.014 503.229 182.735C503.532 182.456 503.684 182.064 503.684 181.56V180.998L502.852 181.033C502.204 181.056 501.731 181.165 501.436 181.358C501.141 181.551 500.995 181.847 500.995 182.246C500.995 182.535 501.081 182.759 501.253 182.917C501.425 183.075 501.683 183.154 502.026 183.154Z" fill="white"/>
<path d="M509.169 184.208C508.36 184.208 507.73 183.915 507.276 183.329C506.822 182.743 506.596 181.921 506.596 180.862C506.596 179.8 506.825 178.972 507.284 178.381C507.743 177.79 508.38 177.493 509.192 177.493C510.044 177.493 510.692 177.807 511.137 178.436H511.207C511.141 177.971 511.107 177.604 511.107 177.334V174.973H512.49V184.09H511.412L511.172 183.24H511.108C510.667 183.886 510.021 184.208 509.169 184.208ZM509.538 183.095C510.104 183.095 510.517 182.936 510.774 182.617C511.031 182.298 511.165 181.782 511.172 181.067V180.874C511.172 180.058 511.039 179.478 510.774 179.134C510.509 178.79 510.092 178.618 509.526 178.618C509.042 178.618 508.669 178.814 508.407 179.207C508.145 179.6 508.014 180.159 508.014 180.886C508.014 181.605 508.141 182.153 508.395 182.53C508.649 182.907 509.03 183.095 509.538 183.095Z" fill="white"/>
<path d="M517.29 184.208C516.282 184.208 515.493 183.914 514.925 183.326C514.357 182.738 514.073 181.929 514.073 180.897C514.073 179.838 514.337 179.006 514.864 178.401C515.391 177.796 516.116 177.493 517.038 177.493C517.893 177.493 518.569 177.753 519.065 178.272C519.561 178.791 519.809 179.506 519.809 180.417V181.161H515.491C515.511 181.79 515.68 182.273 516.001 182.611C516.322 182.949 516.772 183.118 517.355 183.118C517.738 183.118 518.093 183.082 518.423 183.01C518.753 182.938 519.109 182.818 519.487 182.65V183.769C519.151 183.929 518.811 184.042 518.467 184.109C518.123 184.176 517.731 184.208 517.29 184.208ZM517.038 178.537C516.6 178.537 516.249 178.676 515.985 178.953C515.721 179.23 515.565 179.635 515.514 180.166H518.455C518.447 179.631 518.318 179.226 518.068 178.95C517.818 178.674 517.476 178.537 517.038 178.537Z" fill="white"/>
<path d="M548.745 439.036C548.745 439.798 548.47 440.395 547.919 440.829C547.368 441.263 546.608 441.479 545.64 441.479C544.672 441.479 543.878 441.329 543.261 441.028V439.704C543.652 439.888 544.068 440.032 544.507 440.138C544.946 440.244 545.355 440.296 545.734 440.296C546.289 440.296 546.699 440.191 546.963 439.98C547.227 439.769 547.358 439.486 547.358 439.13C547.358 438.81 547.237 438.538 546.995 438.316C546.753 438.094 546.253 437.83 545.495 437.525C544.714 437.209 544.163 436.847 543.843 436.441C543.523 436.035 543.363 435.546 543.363 434.976C543.363 434.261 543.617 433.699 544.125 433.288C544.633 432.877 545.314 432.673 546.17 432.673C546.99 432.673 547.807 432.853 548.619 433.212L548.174 434.355C547.412 434.035 546.733 433.875 546.135 433.875C545.682 433.875 545.338 433.974 545.104 434.171C544.87 434.368 544.752 434.629 544.752 434.953C544.752 435.176 544.799 435.366 544.893 435.524C544.987 435.682 545.141 435.832 545.356 435.972C545.571 436.112 545.958 436.298 546.516 436.529C547.145 436.791 547.606 437.035 547.899 437.261C548.192 437.487 548.407 437.743 548.544 438.029C548.681 438.315 548.745 438.649 548.745 439.036Z" fill="white"/>
<path d="M551.587 437.94L552.366 436.967L554.323 434.881H555.911L553.304 437.664L556.075 441.361H554.458L552.378 438.519L551.622 439.14V441.361H550.257V432.244H551.622V436.691L551.552 437.939H551.587V437.94Z" fill="white"/>
<path d="M562.866 438.11C562.866 439.169 562.595 439.995 562.052 440.589C561.509 441.183 560.753 441.48 559.784 441.48C559.179 441.48 558.643 441.343 558.179 441.07C557.715 440.797 557.357 440.404 557.107 439.892C556.857 439.38 556.732 438.787 556.732 438.111C556.732 437.06 557.002 436.24 557.541 435.65C558.08 435.06 558.84 434.765 559.82 434.765C560.758 434.765 561.5 435.067 562.047 435.67C562.594 436.273 562.866 437.087 562.866 438.11ZM558.149 438.11C558.149 439.606 558.702 440.354 559.807 440.354C560.901 440.354 561.448 439.606 561.448 438.11C561.448 436.63 560.897 435.889 559.796 435.889C559.218 435.889 558.8 436.08 558.54 436.463C558.28 436.846 558.149 437.396 558.149 438.11Z" fill="white"/>
<path d="M567.735 441.479C566.915 441.479 566.278 441.184 565.825 440.594H565.743C565.798 441.141 565.825 441.473 565.825 441.59V444.244H564.448V434.881H565.561C565.592 435.002 565.657 435.291 565.754 435.748H565.824C566.254 435.092 566.898 434.764 567.758 434.764C568.567 434.764 569.197 435.057 569.649 435.643C570.101 436.229 570.325 437.051 570.325 438.11C570.325 439.169 570.096 439.995 569.637 440.589C569.178 441.183 568.544 441.479 567.735 441.479ZM567.401 435.89C566.854 435.89 566.456 436.05 566.204 436.37C565.952 436.69 565.825 437.202 565.825 437.905V438.11C565.825 438.899 565.95 439.47 566.2 439.824C566.45 440.178 566.858 440.354 567.425 440.354C567.902 440.354 568.269 440.159 568.527 439.768C568.785 439.377 568.914 438.821 568.914 438.098C568.914 437.371 568.787 436.822 568.531 436.449C568.275 436.076 567.897 435.89 567.401 435.89Z" fill="white"/>
<path d="M571.263 444.245C570.849 444.245 570.505 444.196 570.232 444.099V443.009C570.498 443.079 570.769 443.114 571.046 443.114C571.632 443.114 571.925 442.782 571.925 442.118V434.882H573.302V442.212C573.302 442.88 573.128 443.386 572.779 443.73C572.43 444.074 571.923 444.245 571.263 444.245ZM571.843 433.165C571.843 432.919 571.911 432.729 572.046 432.597C572.181 432.465 572.372 432.398 572.622 432.398C572.864 432.398 573.054 432.464 573.188 432.597C573.322 432.73 573.389 432.919 573.389 433.165C573.389 433.399 573.323 433.584 573.188 433.719C573.053 433.854 572.864 433.921 572.622 433.921C572.372 433.921 572.181 433.854 572.046 433.719C571.911 433.584 571.843 433.399 571.843 433.165Z" fill="white"/>
<path d="M578.101 441.479C577.093 441.479 576.306 441.185 575.738 440.597C575.17 440.009 574.884 439.2 574.884 438.168C574.884 437.109 575.148 436.277 575.675 435.672C576.202 435.067 576.927 434.764 577.849 434.764C578.704 434.764 579.38 435.024 579.876 435.543C580.372 436.062 580.62 436.777 580.62 437.688V438.432H576.302C576.322 439.061 576.491 439.544 576.812 439.882C577.133 440.22 577.583 440.389 578.166 440.389C578.549 440.389 578.906 440.353 579.236 440.281C579.566 440.209 579.92 440.089 580.298 439.921V441.04C579.962 441.2 579.622 441.313 579.278 441.38C578.934 441.447 578.542 441.479 578.101 441.479ZM577.849 435.808C577.411 435.808 577.062 435.947 576.798 436.224C576.534 436.501 576.376 436.906 576.325 437.437H579.266C579.258 436.902 579.129 436.497 578.879 436.221C578.629 435.945 578.286 435.808 577.849 435.808Z" fill="white"/>
<path d="M82.332 77.2241V68.6581H83.732V76.0231H87.359V77.2241H82.332V77.2241Z" fill="white"/>
<path d="M88.0271 80.107C87.6131 80.107 87.2691 80.058 86.9961 79.961V78.871C87.2621 78.941 87.5331 78.976 87.8101 78.976C88.3961 78.976 88.6891 78.644 88.6891 77.98V70.744H90.0661V78.074C90.0661 78.742 89.8911 79.248 89.5421 79.592C89.1931 79.936 88.6871 80.107 88.0271 80.107ZM88.6071 69.027C88.6071 68.781 88.6741 68.591 88.8091 68.459C88.9441 68.327 89.1361 68.26 89.3861 68.26C89.6281 68.26 89.8171 68.326 89.9511 68.459C90.0851 68.592 90.1531 68.781 90.1531 69.027C90.1531 69.261 90.0861 69.446 89.9511 69.581C89.8161 69.716 89.6281 69.783 89.3861 69.783C89.1361 69.783 88.9441 69.716 88.8091 69.581C88.6741 69.446 88.6071 69.261 88.6071 69.027Z" fill="white"/>
<path d="M96.605 77.224L96.412 76.374H96.342C96.151 76.675 95.878 76.911 95.525 77.083C95.172 77.255 94.768 77.341 94.315 77.341C93.53 77.341 92.9441 77.146 92.5571 76.755C92.1701 76.364 91.9771 75.773 91.9771 74.98V70.744H93.366V74.74C93.366 75.236 93.4681 75.608 93.6711 75.856C93.8741 76.104 94.1921 76.228 94.6261 76.228C95.2041 76.228 95.629 76.055 95.9 75.709C96.171 75.363 96.3071 74.784 96.3071 73.972V70.743H97.69V77.223H96.605V77.224Z" fill="white"/>
<path d="M102.962 70.6261C103.771 70.6261 104.4 70.9191 104.852 71.5051C105.304 72.0911 105.529 72.9131 105.529 73.9721C105.529 75.0341 105.3 75.8621 104.843 76.4531C104.386 77.0441 103.751 77.3411 102.939 77.3411C102.119 77.3411 101.482 77.0461 101.029 76.4561H100.935L100.683 77.2241H99.6521V68.1071H101.029V70.2751C101.029 70.4351 101.021 70.6731 101.006 70.9901C100.991 71.3071 100.979 71.5081 100.971 71.5941H101.03C101.466 70.9491 102.111 70.6261 102.962 70.6261ZM102.605 71.7511C102.05 71.7511 101.651 71.9141 101.407 72.2401C101.163 72.5661 101.037 73.1121 101.029 73.8781V73.9721C101.029 74.7611 101.154 75.3321 101.404 75.6861C101.654 76.0401 102.062 76.2161 102.629 76.2161C103.117 76.2161 103.487 76.0231 103.739 75.6361C103.991 75.2491 104.117 74.6911 104.117 73.9601C104.117 72.4881 103.613 71.7511 102.605 71.7511Z" fill="white"/>
<path d="M108.505 77.2241H107.128V68.1071H108.505V77.2241Z" fill="white"/>
<path d="M109.812 80.107C109.398 80.107 109.054 80.058 108.781 79.961V78.871C109.047 78.941 109.318 78.976 109.595 78.976C110.181 78.976 110.474 78.644 110.474 77.98V70.744H111.851V78.074C111.851 78.742 111.676 79.248 111.327 79.592C110.978 79.936 110.472 80.107 109.812 80.107ZM110.392 69.027C110.392 68.781 110.459 68.591 110.594 68.459C110.729 68.327 110.921 68.26 111.171 68.26C111.413 68.26 111.602 68.326 111.736 68.459C111.87 68.592 111.938 68.781 111.938 69.027C111.938 69.261 111.871 69.446 111.736 69.581C111.601 69.716 111.413 69.783 111.171 69.783C110.921 69.783 110.729 69.716 110.594 69.581C110.459 69.446 110.392 69.261 110.392 69.027Z" fill="white"/>
<path d="M117.875 77.224L117.6 76.322H117.553C117.241 76.717 116.926 76.985 116.61 77.128C116.294 77.271 115.887 77.342 115.391 77.342C114.754 77.342 114.257 77.17 113.9 76.826C113.543 76.482 113.364 75.996 113.364 75.367C113.364 74.699 113.612 74.195 114.108 73.855C114.604 73.515 115.36 73.33 116.376 73.298L117.495 73.263V72.917C117.495 72.503 117.398 72.193 117.205 71.988C117.012 71.783 116.712 71.68 116.306 71.68C115.974 71.68 115.656 71.729 115.351 71.826C115.046 71.923 114.753 72.039 114.472 72.172L114.027 71.188C114.379 71.004 114.763 70.865 115.181 70.769C115.599 70.673 115.993 70.625 116.365 70.625C117.189 70.625 117.811 70.805 118.231 71.164C118.651 71.523 118.861 72.088 118.861 72.857V77.222H117.875V77.224ZM115.824 76.287C116.324 76.287 116.725 76.147 117.028 75.868C117.331 75.589 117.482 75.197 117.482 74.693V74.13L116.65 74.165C116.002 74.188 115.53 74.297 115.235 74.49C114.94 74.683 114.793 74.979 114.793 75.378C114.793 75.667 114.879 75.891 115.051 76.049C115.223 76.207 115.48 76.287 115.824 76.287Z" fill="white"/>
<path d="M126.482 77.224H125.099V73.24C125.099 72.74 124.998 72.367 124.797 72.121C124.596 71.875 124.276 71.752 123.839 71.752C123.257 71.752 122.831 71.924 122.562 72.268C122.293 72.612 122.158 73.188 122.158 73.997V77.226H120.781V70.746H121.859L122.052 71.596H122.122C122.317 71.287 122.595 71.049 122.954 70.881C123.313 70.713 123.712 70.629 124.149 70.629C125.704 70.629 126.481 71.42 126.481 73.002V77.224H126.482Z" fill="white"/>
<path d="M132.453 77.224L132.178 76.322H132.131C131.819 76.717 131.504 76.985 131.188 77.128C130.872 77.271 130.465 77.342 129.969 77.342C129.332 77.342 128.835 77.17 128.478 76.826C128.121 76.482 127.942 75.996 127.942 75.367C127.942 74.699 128.19 74.195 128.686 73.855C129.182 73.515 129.938 73.33 130.954 73.298L132.073 73.263V72.917C132.073 72.503 131.976 72.193 131.783 71.988C131.59 71.783 131.29 71.68 130.884 71.68C130.552 71.68 130.234 71.729 129.929 71.826C129.624 71.923 129.331 72.039 129.05 72.172L128.605 71.188C128.957 71.004 129.341 70.865 129.759 70.769C130.177 70.673 130.571 70.625 130.943 70.625C131.767 70.625 132.389 70.805 132.809 71.164C133.229 71.523 133.439 72.088 133.439 72.857V77.222H132.453V77.224ZM130.402 76.287C130.902 76.287 131.303 76.147 131.606 75.868C131.909 75.589 132.06 75.197 132.06 74.693V74.13L131.228 74.165C130.58 74.188 130.108 74.297 129.813 74.49C129.518 74.683 129.371 74.979 129.371 75.378C129.371 75.667 129.457 75.891 129.629 76.049C129.801 76.207 130.058 76.287 130.402 76.287Z" fill="white"/>
<path d="M153.546 261.333H151.923L149.234 257.454L148.408 258.128V261.333H147.008V252.767H148.408V256.857C148.791 256.388 149.172 255.937 149.551 255.503L151.865 252.767H153.459C151.963 254.525 150.891 255.777 150.242 256.523L153.546 261.333Z" fill="white"/>
<path d="M160.232 261.333H158.849V257.349C158.849 256.849 158.747 256.476 158.546 256.23C158.345 255.984 158.026 255.861 157.589 255.861C157.007 255.861 156.581 256.033 156.312 256.377C156.043 256.721 155.908 257.297 155.908 258.106V261.335H154.531V254.855H155.609L155.802 255.705H155.872C156.067 255.396 156.345 255.158 156.704 254.99C157.063 254.822 157.462 254.738 157.899 254.738C159.454 254.738 160.231 255.529 160.231 257.111V261.333H160.232Z" fill="white"/>
<path d="M162.066 253.135C162.066 252.889 162.132 252.699 162.267 252.567C162.402 252.435 162.595 252.368 162.845 252.368C163.087 252.368 163.275 252.434 163.409 252.567C163.543 252.7 163.612 252.889 163.612 253.135C163.612 253.369 163.544 253.555 163.409 253.69C163.274 253.825 163.087 253.891 162.845 253.891C162.595 253.891 162.402 253.825 162.267 253.69C162.132 253.555 162.066 253.37 162.066 253.135ZM163.525 261.333H162.148V254.853H163.525V261.333Z" fill="white"/>
<path d="M171.195 261.333H169.812V257.349C169.812 256.849 169.71 256.476 169.509 256.23C169.308 255.984 168.989 255.861 168.552 255.861C167.97 255.861 167.544 256.033 167.275 256.377C167.006 256.721 166.871 257.297 166.871 258.106V261.335H165.494V254.855H166.572L166.765 255.705H166.835C167.03 255.396 167.308 255.158 167.667 254.99C168.026 254.822 168.425 254.738 168.862 254.738C170.417 254.738 171.194 255.529 171.194 257.111V261.333H171.195Z" fill="white"/>
</svg>
